<svg xmlns="http://www.w3.org/2000/svg" viewBox="0 0 11.25 10.87"><defs><style>.cls-1{fill:#94d82a;}.cls-2{fill:#769e2a;}.cls-3{fill:#3e4347;}.cls-4{fill:#e08828;}.cls-5{fill:#fcfcfa;}.cls-6{fill:#93603b;}</style></defs><title>Resurs 14</title><g id="Lager_2" data-name="Lager 2"><g id="Lager_1-2" data-name="Lager 1"><path class="cls-1" d="M5.17,7.46S4.28,3.55,2.72,3.55c-2.83,0-2.91,5.21-1,6.93.59.53,3,.52,8.16,0,.54-.05.34-.58-.43-.93C9,9.32,6.49,8.88,5.17,7.46Z"/><path class="cls-2" d="M4.84,5.65c.4,0,.73.56.73,1.26s-.33,1.25-.73,1.25S4.1,7.6,4.1,6.91,4.43,5.65,4.84,5.65Z"/><path class="cls-2" d="M5.52,8.94a.51.51,0,0,1,0,1,.51.51,0,0,1,0-1Z"/><path class="cls-2" d="M3.84,8c.19,0,.34.26.34.58s-.15.58-.34.58-.33-.26-.33-.58S3.66,8,3.84,8Z"/><ellipse class="cls-2" cx="3.41" cy="6.26" rx="0.27" ry="0.39"/><path class="cls-3" d="M1.43,4.34a.68.68,0,0,0,.2.53A.57.57,0,0,0,1.84,5L2,5h.13a.77.77,0,0,0,.47-.17,1.27,1.27,0,0,0,.31-.52.79.79,0,0,1-.08.71.86.86,0,0,1-.69.35H1.9a.66.66,0,0,1-.2-.06.74.74,0,0,1-.3-.28A.61.61,0,0,1,1.43,4.34Z"/><path class="cls-4" d="M10.67,7.36a3.1,3.1,0,0,0,.38-2.89A2.27,2.27,0,0,0,9.5,3.14a3.68,3.68,0,0,0-6.38.5c1,.58,1.55,2.22,1.88,3.1A3.26,3.26,0,0,0,6.85,9.27c.4.11.49-.33.49-.33a1.27,1.27,0,0,0,1.3.51A2.76,2.76,0,0,0,10.67,7.36Z"/><polygon class="cls-1" points="2.34 3.97 1.86 4.14 1.39 2.85 1.87 2.67 2.34 3.97"/><polygon class="cls-1" points="3.43 4.47 2.97 4.25 3.55 3 4.02 3.22 3.43 4.47"/><path class="cls-1" d="M3.19,1.83A1.6,1.6,0,1,1,1.59.24,1.6,1.6,0,0,1,3.19,1.83Z"/><path class="cls-5" d="M2.51,1.88A1.23,1.23,0,0,1,1.3,3.13,1.23,1.23,0,0,1,.1,1.88,1.22,1.22,0,0,1,1.3.64,1.22,1.22,0,0,1,2.51,1.88Z"/><path class="cls-3" d="M2.37,1.88a.85.85,0,0,1-.83.86.85.85,0,0,1-.83-.86A.84.84,0,0,1,1.54,1,.84.84,0,0,1,2.37,1.88Z"/><path class="cls-6" d="M7.34,8.94a5,5,0,0,1-.75-1.8,4.77,4.77,0,0,1,0-2,3.21,3.21,0,0,1,1-1.73A1.8,1.8,0,0,1,8.53,3a1.62,1.62,0,0,1,1,.16,1.83,1.83,0,0,0-.93,0,1.91,1.91,0,0,0-.77.47,3.19,3.19,0,0,0-.52.74,3.9,3.9,0,0,0-.3.87,5.22,5.22,0,0,0-.1,1.85A7.48,7.48,0,0,0,7.34,8.94Z"/><path class="cls-6" d="M10.67,7.36a1.82,1.82,0,0,1-.49.42A1.47,1.47,0,0,1,9.55,8a1.23,1.23,0,0,1-.67-.18,1.72,1.72,0,0,1-.48-.49A1.91,1.91,0,0,1,8.1,6a2.24,2.24,0,0,1,.58-1.24,1.62,1.62,0,0,1,.59-.4,1.24,1.24,0,0,1,.74,0,.94.94,0,0,1,.58.47,1.25,1.25,0,0,1,.14.7,1.13,1.13,0,0,1-.27.67.65.65,0,0,1-.72.16.58.58,0,0,1-.3-.64.39.39,0,0,1,.23-.28.28.28,0,0,1,.18,0A.28.28,0,0,1,10,5.5c-.19-.17-.38,0-.4.21a.41.41,0,0,0,.25.41.3.3,0,0,0,.23,0,.41.41,0,0,0,.2-.14.8.8,0,0,0,.17-.5A1,1,0,0,0,10.3,5a.59.59,0,0,0-.38-.29A1,1,0,0,0,9,5a1.85,1.85,0,0,0-.3,2.15,1.11,1.11,0,0,0,.9.64A1.76,1.76,0,0,0,10.67,7.36Z"/><path class="cls-1" d="M6.05,1.83A1.84,1.84,0,1,1,4.22,0,1.82,1.82,0,0,1,6.05,1.83Z"/><path class="cls-5" d="M3.88.46A1.41,1.41,0,0,1,5.27,1.89,1.41,1.41,0,0,1,3.88,3.32,1.41,1.41,0,0,1,2.5,1.89,1.41,1.41,0,0,1,3.88.46Z"/><path class="cls-3" d="M5.11,1.89a1,1,0,1,1-1.91,0,1,1,0,0,1,1-1A1,1,0,0,1,5.11,1.89Z"/></g></g></svg>