<svg xmlns="http://www.w3.org/2000/svg" viewBox="0 0 11.25 9.75"><defs><style>.cls-1{fill:#89664c;}.cls-2{fill:#ffc5d3;}.cls-3{fill:#e0ac7e;}.cls-4{fill:#3b302a;}</style></defs><title>Resurs 17</title><g id="Lager_2" data-name="Lager 2"><g id="Lager_1-2" data-name="Lager 1"><circle class="cls-1" cx="9.7" cy="5.06" r="1.55"/><path class="cls-2" d="M9.7,4.05a1,1,0,1,1-1,1A1,1,0,0,1,9.7,4.05Z"/><circle class="cls-1" cx="1.55" cy="5.06" r="1.55"/><circle class="cls-2" cx="1.55" cy="5.06" r="1.01"/><path class="cls-1" d="M7.76.9A2.45,2.45,0,0,1,8.11.73,7.53,7.53,0,0,0,6.52.33a2.26,2.26,0,0,1,.4-.25C3.09-.46,1.27,1.76,1.27,3.73H10A3.23,3.23,0,0,0,7.76.9Z"/><path class="cls-1" d="M10,4C10,2.22,8,.75,5.62.75S1.25,2.22,1.25,4a2.53,2.53,0,0,0,.31,1.21,2.52,2.52,0,0,0-.31,1.2c0,1.82,2,3.3,4.37,3.3S10,8.27,10,6.45a2.52,2.52,0,0,0-.31-1.2A2.53,2.53,0,0,0,10,4Z"/><path class="cls-3" d="M9.38,4.16C9.38,1,5.62,3,5.62,3S1.87,1,1.87,4.16a2.64,2.64,0,0,0,1.4,2.2,1.67,1.67,0,0,0-.39,1.06c0,1.14,1.23,2.07,2.74,2.07s2.75-.93,2.75-2.07A1.67,1.67,0,0,0,8,6.36,2.64,2.64,0,0,0,9.38,4.16Z"/><path class="cls-4" d="M6.21,6.14c0,.21-.08.39-.18.39s-.19-.18-.19-.39.08-.39.19-.39S6.21,5.93,6.21,6.14Z"/><path class="cls-4" d="M5.41,6.14c0,.21-.08.39-.19.39S5,6.35,5,6.14s.08-.39.18-.39S5.41,5.93,5.41,6.14Z"/><ellipse class="cls-4" cx="7.25" cy="4.83" rx="0.66" ry="0.84"/><ellipse class="cls-4" cx="4" cy="4.83" rx="0.66" ry="0.84"/><path class="cls-4" d="M7.47,7.22c.27.23-.55,1.3-1.85,1.31S3.51,7.45,3.78,7.22c.07-.06,1,.17,1.84.17S7.4,7.16,7.47,7.22Z"/></g></g></svg>