<svg xmlns="http://www.w3.org/2000/svg" viewBox="0 0 11.25 11.25"><defs><style>.cls-1{fill:#64892f;}.cls-2{fill:#769e2a;}.cls-3{fill:#83b533;}.cls-4{fill:#ffd93b;}.cls-5{fill:#8cc63e;}.cls-6{fill:#d3b226;}.cls-7{fill:#fff;}.cls-8{fill:#3e4347;}.cls-9{fill:#e8f94b;}.cls-10{fill:#4b662b;}</style></defs><title>Resurs 16</title><g id="Lager_2" data-name="Lager 2"><g id="Lager_1-2" data-name="Lager 1"><path class="cls-1" d="M5,11l.57-.78A1.83,1.83,0,0,0,5.12,10a1.63,1.63,0,0,0-.48.08Z"/><path class="cls-1" d="M6.06,10.89,6.39,10a1.44,1.44,0,0,0-.48-.06,1.64,1.64,0,0,0-.44.23Z"/><path class="cls-1" d="M7,10.68l.24-1a1.56,1.56,0,0,0-.48,0,1.71,1.71,0,0,0-.42.28Z"/><path class="cls-1" d="M10.46,8.22l-.39-.91a1.77,1.77,0,0,0-.36.35,2.18,2.18,0,0,0-.15.52Z"/><path class="cls-1" d="M11,6.75,10.41,6a1.89,1.89,0,0,0-.24.47,1.83,1.83,0,0,0,0,.54Z"/><path class="cls-1" d="M11.25,5l-.78-.5a2.2,2.2,0,0,0-.12.53,2,2,0,0,0,.14.52Z"/><path class="cls-1" d="M11,3.33l-.89-.21a2,2,0,0,0,0,.54,1.73,1.73,0,0,0,.27.45Z"/><path class="cls-1" d="M10.47,2l-.9-.1a2,2,0,0,0,.08.53,2,2,0,0,0,.32.41Z"/><path class="cls-1" d="M9.63.76l-.84.34a1.89,1.89,0,0,0,.28.45,1.72,1.72,0,0,0,.44.21Z"/><path class="cls-2" d="M4.58,8C4.19,6.27,2.1,7.5,2.14,8.9c0,.83-2.54,1.32,0,1.32.58,0,1,.12,1.12-1.06C3.26,8.76,5,9.87,4.58,8Z"/><path class="cls-3" d="M9.19,1.25c.41.11,2.33,3.72.86,6.48-2.36,4.44-9,3.8-9.53-.89-.25-2.47,1-2.38,1-1.7C.94,4.94,1.06,7,2,7.53,4,8.77,5.69,7.16,6.28,6.1s.08-2.39.08-2.9S9.19,1.25,9.19,1.25Z"/><path class="cls-4" d="M2.28,8.09c2.82,2,5.17-.59,6-2.33a7.5,7.5,0,0,0,.17-4.19c-.84.47-2.1,1.22-2.1,1.56,0,.52.5,1.84-.09,2.9S3.17,8.76,1.49,7A3,3,0,0,0,2.28,8.09Z"/><path class="cls-5" d="M9.66,8.67c-.3-1.33-.71-2.26-1.18-2s.11,1.9-.55,3c-1.07,1.73.35.48,1,.84C11.41,11.84,10.05,10.41,9.66,8.67Z"/><path class="cls-5" d="M9.76,8.87C9.35,8,8.93,7.39,8.63,7.71s.36,2.57.88,2.67C11.47,10.75,10.29,10.05,9.76,8.87Z"/><path class="cls-6" d="M6.52,4.7A3.92,3.92,0,0,1,8.6,4.58"/><path class="cls-6" d="M6.38,5.72a2.91,2.91,0,0,1,1.69.4"/><path class="cls-6" d="M5.54,6.84A2.47,2.47,0,0,1,7,7.54"/><path class="cls-6" d="M4.48,7.5a2.26,2.26,0,0,1,1,1.1"/><path class="cls-6" d="M3,7.77s.19.06.28.86"/><path class="cls-2" d="M6.13,6.67c0,.25-.09.5-.38.5a.5.5,0,0,1-.53-.46c0-.25.52-.72.81-.72S6.13,6.41,6.13,6.67Z"/><path class="cls-5" d="M6,8.82c-.41-1.91-2.63-.55-2.58,1,0,.92-2.7,1.46,0,1.46.61,0,1.06.13,1.18-1.16C4.58,9.64,6.41,10.86,6,8.82Z"/><path class="cls-1" d="M0,6.12l.68.46A1.76,1.76,0,0,0,.8,6.12a1.75,1.75,0,0,0-.12-.47Z"/><path class="cls-1" d="M.15,7.32l.76.29a2,2,0,0,0,0-.48,1.75,1.75,0,0,0-.2-.43Z"/><path class="cls-1" d="M.55,8.49l.8.09a2.1,2.1,0,0,0-.08-.47A1.46,1.46,0,0,0,1,7.75Z"/><path class="cls-1" d="M1.15,9.68,2,9.56a1.92,1.92,0,0,0-.18-.5,1.71,1.71,0,0,0-.39-.32Z"/><path class="cls-1" d="M2.23,10.65,3,10.21a1.75,1.75,0,0,0-.32-.41,1.54,1.54,0,0,0-.46-.16Z"/><path class="cls-3" d="M9.11,1.69c.36.33,1.15,1.19.69,1.93S7.4,5,5.41,4.41.75,2.78.65,2.32s.21-.45.41-.3S9.11,1.69,9.11,1.69Z"/><path class="cls-5" d="M6.86,0a1,1,0,0,1,1,1.06,1,1,0,1,1-2,0A1,1,0,0,1,6.86,0Z"/><path class="cls-7" d="M6.86.19a.85.85,0,0,1,.83.87A.83.83,0,1,1,6,1.06.85.85,0,0,1,6.86.19Z"/><path class="cls-8" d="M6.86.45a.59.59,0,0,1,.58.61.58.58,0,1,1-1.16,0A.59.59,0,0,1,6.86.45Z"/><polygon class="cls-9" points="0.94 1.89 0.94 2.52 1.35 2.28 1.39 2.76 1.76 2.45 1.94 3.08 2.42 2.67 2.66 3.37 3.23 2.88 3.55 3.7 4.54 3 4.62 3.99 5.33 3.36 5.68 4.26 6.32 3.41 6.81 4.4 7.4 3.42 7.93 4.37 8.28 3.38 9 4.02 8.92 3.12 9.75 3.33 9.12 2.45 9.61 2.39 9.09 1.89 5.87 2.73 2.62 2.3 0.94 1.89"/><path class="cls-5" d="M1.46,1.24c0,.47-.13.45-.29.45s-.3,0-.3-.45c0-.26.13-.46.3-.46S1.46,1,1.46,1.24Z"/><path class="cls-10" d="M1.06.91c.07,0,.12.15.12.33s-.05.32-.12.32S.94,1.42.94,1.24,1,.91,1.06.91Z"/><path class="cls-5" d="M.46,1.64C.41.46,3.49,2.76,7.39,1.2a1.26,1.26,0,0,1,1.9,1.16c.05,1.17-.77,1.33-1.78,1.46S.52,2.82.46,1.64Z"/><path class="cls-5" d="M2.39,1.48c0,.69-.19.67-.43.67s-.44,0-.44-.67c0-.38.2-.68.44-.68S2.39,1.1,2.39,1.48Z"/><ellipse class="cls-10" cx="1.88" cy="1.48" rx="0.24" ry="0.48"/><path class="cls-5" d="M8.28,0a1,1,0,0,1,1,1.06,1,1,0,1,1-2,0A1,1,0,0,1,8.28,0Z"/><path class="cls-7" d="M8.28.19a.85.85,0,0,1,.83.87.84.84,0,1,1-1.67,0A.86.86,0,0,1,8.28.19Z"/><path class="cls-8" d="M8.28.45a.59.59,0,0,1,.58.61.59.59,0,1,1-1.17,0A.6.6,0,0,1,8.28.45Z"/></g></g></svg>