<svg xmlns="http://www.w3.org/2000/svg" viewBox="0 0 11.25 11.25"><defs><style>.cls-1{fill:#b2b6b8;}.cls-2{fill:#ffc5d3;}.cls-3{fill:#c4c5c6;}.cls-4{fill:#fff;}.cls-5{fill:#4c5359;}.cls-6{fill:#ff94a4;}</style></defs><title>Resurs 15</title><g id="Lager_2" data-name="Lager 2"><g id="Lager_1-2" data-name="Lager 1"><path class="cls-1" d="M2.47,1.33C3.25.85,4.34.21,4.4,1.56a10.75,10.75,0,0,0,.47,3.38L1.92,3A7.41,7.41,0,0,1,.24,4.09c-.71.2.31-1.8,1.1-2.36C1.58,1.55,2.21,1.49,2.47,1.33Z"/><path class="cls-2" d="M3.21,1.93A14.07,14.07,0,0,1,4.25,5l-.88.24A7.47,7.47,0,0,0,1.92,3Z"/><path class="cls-1" d="M8.78.58C8,.1,6.91-.54,6.85.81a12.87,12.87,0,0,1-.66,3.94L9.33,2.21A7.41,7.41,0,0,0,11,3.34c.71.2-.31-1.8-1.1-2.36C9.67.8,9,.74,8.78.58Z"/><path class="cls-2" d="M8,1.18A14.07,14.07,0,0,0,7,4.26l.88.24A7.47,7.47,0,0,1,9.33,2.21Z"/><path class="cls-3" d="M2.19,6.16c0-1.4,1.06-2.41,3.44-2.41s3.43,1,3.43,2.41c0,1.17,1.79,2.89.2,4a6.42,6.42,0,0,1-3.63,1.05A6.36,6.36,0,0,1,2,10.2C.4,9.05,2.19,7.33,2.19,6.16Z"/><path class="cls-4" d="M7.24,8.11A6.59,6.59,0,0,0,5.94,5c-.22-.28-.41-.28-.63,0A6.59,6.59,0,0,0,4,8.11c-.88-.12-1.9-.07-2.1.4C1.52,9.44,3.38,11,5.63,11s4.1-1.58,3.71-2.51C9.14,8,8.12,8,7.24,8.11Z"/><path class="cls-5" d="M7.38,9.45a1.24,1.24,0,0,1-.71.25,1.44,1.44,0,0,1-.75-.19,1.33,1.33,0,0,1-.29-.29,1.64,1.64,0,0,1-.3.29,1.43,1.43,0,0,1-.76.19,1.24,1.24,0,0,1-.7-.25,2,2,0,0,0,3.51,0Z"/><path class="cls-4" d="M6.62,6.76a1.27,1.27,0,0,1,.69-1c.69-.27,1.17.4,1.3.79a2,2,0,0,1-.12,1.33c-.05.1-.56.54-1.72.12A2.17,2.17,0,0,1,6.62,6.76Z"/><path class="cls-1" d="M6.62,6.76A1.39,1.39,0,0,1,6.88,6a1.14,1.14,0,0,1,.3-.28l.19-.08.2,0a1,1,0,0,1,.75.29,1.63,1.63,0,0,1,.43.73,1.92,1.92,0,0,1,0,.86,1.87,1.87,0,0,1-.13.4l0,0v0l0,0,0,0-.09.07-.19.1a1.41,1.41,0,0,1-.76.06A2.53,2.53,0,0,1,6.77,8a3,3,0,0,0,.73.11A1.6,1.6,0,0,0,8.19,8l.14-.09.06-.06h0l0,0a2.12,2.12,0,0,0,.1-.36,1.85,1.85,0,0,0,0-.74,1.47,1.47,0,0,0-.35-.62.82.82,0,0,0-.6-.27l-.17,0-.16.06A1,1,0,0,0,7,6.08,1.41,1.41,0,0,0,6.62,6.76Z"/><path class="cls-5" d="M7.46,6.29A.69.69,0,0,1,8.08,7a.7.7,0,0,1-.62.75A.69.69,0,0,1,6.85,7,.69.69,0,0,1,7.46,6.29Z"/><path class="cls-4" d="M4.63,6.76a1.27,1.27,0,0,0-.69-1c-.69-.27-1.17.4-1.3.79a2,2,0,0,0,.12,1.33c.05.1.56.54,1.72.12A2.17,2.17,0,0,0,4.63,6.76Z"/><path class="cls-1" d="M4.63,6.76a1.41,1.41,0,0,0-.34-.68A1,1,0,0,0,4,5.87l-.16-.06-.17,0a.78.78,0,0,0-.59.27,1.34,1.34,0,0,0-.36.62,1.85,1.85,0,0,0,0,.74,2.12,2.12,0,0,0,.1.36l0,0h0l.06.06L3.06,8a1.6,1.6,0,0,0,.69.12A3,3,0,0,0,4.48,8a2.53,2.53,0,0,1-.72.23A1.41,1.41,0,0,1,3,8.16l-.19-.1L2.72,8l0,0,0,0v0l0,0a1.87,1.87,0,0,1-.13-.4,1.92,1.92,0,0,1,0-.86,1.63,1.63,0,0,1,.43-.73,1,1,0,0,1,.75-.29l.2,0,.19.08a1.14,1.14,0,0,1,.3.28A1.39,1.39,0,0,1,4.63,6.76Z"/><path class="cls-5" d="M3.79,6.29A.69.69,0,0,1,4.4,7a.69.69,0,0,1-.61.75A.7.7,0,0,1,3.17,7,.69.69,0,0,1,3.79,6.29Z"/><rect class="cls-4" x="5" y="8.92" width="1.25" height="1.04"/><path class="cls-1" d="M7.5,9.35a1.49,1.49,0,0,1-.69.13,1.27,1.27,0,0,1-.65-.19.72.72,0,0,1-.36-.45l-.17-.79-.18.79a.72.72,0,0,1-.36.45,1.23,1.23,0,0,1-.64.19,1.48,1.48,0,0,1-.7-.13,1,1,0,0,1-.49-.48.83.83,0,0,0,.38.59,1.48,1.48,0,0,0,.8.25,1.56,1.56,0,0,0,.85-.19,1.17,1.17,0,0,0,.34-.29A1,1,0,0,0,6,9.52a1.56,1.56,0,0,0,.85.19,1.51,1.51,0,0,0,.79-.25A.82.82,0,0,0,8,8.87,1,1,0,0,1,7.5,9.35Z"/><path class="cls-6" d="M6.46,7.9a1.81,1.81,0,0,0-.84-.15,1.79,1.79,0,0,0-.83.15c-.12.1,0,.33.29.54a1,1,0,0,0,1.09,0C6.49,8.23,6.58,8,6.46,7.9Z"/></g></g></svg>