<svg xmlns="http://www.w3.org/2000/svg" viewBox="0 0 11.25 11.25"><defs><style>.cls-1{fill:#947151;}.cls-2{fill:#e0ac7e;}.cls-3{fill:#3e4347;}</style></defs><title>Resurs 18</title><g id="Lager_2" data-name="Lager 2"><g id="Lager_1-2" data-name="Lager 1"><path class="cls-1" d="M11,1.58a1.63,1.63,0,0,1-3.25,0,1.63,1.63,0,0,1,3.25,0Z"/><path class="cls-2" d="M10.33,1.58a1,1,0,0,1-1.95,0,1,1,0,0,1,1.95,0Z"/><path class="cls-1" d="M1.89,0A1.61,1.61,0,0,1,3.52,1.58,1.61,1.61,0,0,1,1.89,3.16,1.61,1.61,0,0,1,.27,1.58,1.61,1.61,0,0,1,1.89,0Z"/><path class="cls-2" d="M1.89.63a1,1,0,0,1,1,1,1,1,0,0,1-1,.95,1,1,0,1,1,0-1.9Z"/><path class="cls-1" d="M11.25,6.58c0,3.39-3.79,4.67-5.63,4.67S0,10,0,6.58c0-4.3,2.06-5.3,5.62-5.3S11.25,2.28,11.25,6.58Z"/><path class="cls-2" d="M3.16,8.17a2.48,2.48,0,0,1,4.95,0c0,2.22-.91,2.73-2.48,2.73S3.16,10.39,3.16,8.17Z"/><path class="cls-1" d="M5.75,0a.74.74,0,0,1-.1.53A1.59,1.59,0,0,0,4.86.05.91.91,0,0,1,5,.67,1.76,1.76,0,0,0,4.34.55c.75.57.58,2.28.58,2.28a6.37,6.37,0,0,1,2-1.4A2.91,2.91,0,0,0,5.75,0Z"/><path class="cls-3" d="M6.44,10.32s0,0,0-.06S6.09,10,5.63,10s-.83.11-.83.25,0,.06,0,.06Z"/><path class="cls-3" d="M3.89,8.22c0-.72.78-.86,1.73-.86s1.74.14,1.74.86C7.36,8.79,6,9.3,5.62,9.3S3.89,8.79,3.89,8.22Z"/><path class="cls-3" d="M10.71,5.38l-.31,0-.32.05-.63.1-1.27.13c-.85.07-1.7.1-2.56.1s-1.7,0-2.55-.11A16.61,16.61,0,0,1,.54,5.32h0s0,0,0,0l0,0,1.27.07,1.27.05,2.54,0c.85,0,1.7,0,2.55,0s1.69-.06,2.54-.07a0,0,0,0,1,0,0v0Z"/><path class="cls-3" d="M3.29,5.71a.62.62,0,0,1-.68.55.62.62,0,0,1-.68-.55c0-.3.3-.22.68-.22S3.29,5.41,3.29,5.71Z"/><path class="cls-3" d="M9.32,5.71a.62.62,0,0,1-.68.55A.62.62,0,0,1,8,5.71c0-.3.3-.22.68-.22S9.32,5.41,9.32,5.71Z"/></g></g></svg>