<svg xmlns="http://www.w3.org/2000/svg" viewBox="0 0 11.25 11.25"><defs><style>.cls-1{fill:#f29a2e;}.cls-2{fill:#bc600d;}.cls-3{fill:#3e4347;}.cls-4{fill:#ffe8bb;}.cls-5{fill:#f5f5f5;}.cls-6{fill:#947151;}.cls-7{fill:#fff;}</style></defs><title>Resurs 19</title><g id="Lager_2" data-name="Lager 2"><g id="Lager_1-2" data-name="Lager 1"><path class="cls-1" d="M3.77,1.37c0,1-.66,1.91-1.46,1.89C-.06,3.2.91,0,.91,0,1.72,0,3.77.32,3.77,1.37Z"/><path class="cls-2" d="M2.87,1.57c0,.56-.35,1-.78,1C.83,2.55,1.35.84,1.35.84,1.78.84,2.87,1,2.87,1.57Z"/><path class="cls-1" d="M7.48,1.37c0,1,.66,1.91,1.46,1.89C11.31,3.2,10.34,0,10.34,0,9.53,0,7.48.32,7.48,1.37Z"/><path class="cls-2" d="M8.38,1.57c0,.56.35,1,.78,1,1.26,0,.74-1.74.74-1.74C9.47.84,8.38,1,8.38,1.57Z"/><path class="cls-1" d="M10.5,7.45c0,1.7-9.75,1.7-9.75,0C.75.34,3.54.53,5.62.53S10.5.34,10.5,7.45Z"/><path class="cls-3" d="M7.59,2C7.16.35,4.09.32,3.66,2A3.82,3.82,0,0,1,7.59,2Z"/><path class="cls-3" d="M7,2.63c-.29-1.1-2.4-1.13-2.69,0A2.24,2.24,0,0,1,7,2.63Z"/><path class="cls-4" d="M11.25,6.49A3.57,3.57,0,0,0,10.17,3.9s.63,6.35-3.11,3.27H4.19C.45,10.25,1.08,3.9,1.08,3.9A3.57,3.57,0,0,0,0,6.49l.52-.3a3.34,3.34,0,0,0,0,2.54l.54-.64a2.71,2.71,0,0,0,1.59,2l.07-.58a4.91,4.91,0,0,0,2.86.86,4.93,4.93,0,0,0,2.87-.86l.07.58a2.71,2.71,0,0,0,1.59-2l.54.64a3.34,3.34,0,0,0,0-2.54Z"/><path class="cls-3" d="M4.19,7.17S1,9.56,1.08,3.9C1.08,3.9.32,10.63,4.19,7.17Z"/><path class="cls-3" d="M7.06,7.17s3.17,2.39,3.11-3.27C10.17,3.9,10.93,10.63,7.06,7.17Z"/><path class="cls-5" d="M6.68,5.14c.56,1.53.38,2,.38,2l-1.4.42L4.19,7.17s-.18-.5.38-2C2.1,9.25,4.42,9.8,4.42,9.8A1.43,1.43,0,0,0,5,11V10.6a1.4,1.4,0,0,0,.6.65,1.4,1.4,0,0,0,.6-.65V11a1.29,1.29,0,0,0,.52-.69l.18.33a1.41,1.41,0,0,0,.19-1.63h0S9.15,9.25,6.68,5.14Z"/><path class="cls-3" d="M5.63,9a7.17,7.17,0,0,1-.17-1.55h.33a6.87,6.87,0,0,0,.15,1.43Z"/><path class="cls-3" d="M4.42,9.8c1.28-1.28,2.2-1.67,2.7-.74C6.36,8.47,5.48,9.56,4.42,9.8Z"/><path class="cls-6" d="M7,7.09a5.39,5.39,0,0,0-2.79,0c-.2.09.37.66,1.39.66S7.22,7.18,7,7.09Z"/><path class="cls-4" d="M4.75,4.81c-.42,2.61-3.43,2-3.43-.34,0-1.21,0-1.21,1.88-1.63S4.91,3.82,4.75,4.81Z"/><path class="cls-3" d="M4.44,4.94a1.38,1.38,0,1,1-2.75-.3c.07-.72.08-.78,1.45-.63S4.51,4.22,4.44,4.94Z"/><path class="cls-7" d="M4,4.82C3.9,6,2,5.78,2.1,4.66c0-.41.06-.45,1-.36S4.08,4.41,4,4.82Z"/><path class="cls-3" d="M3.88,4.6a.45.45,0,1,1-.9,0,.42.42,0,0,1,.45-.42A.42.42,0,0,1,3.88,4.6Z"/><path class="cls-4" d="M6.5,4.81c.42,2.61,3.43,2,3.43-.34,0-1.21,0-1.21-1.89-1.63S6.34,3.82,6.5,4.81Z"/><path class="cls-3" d="M6.81,4.94a1.38,1.38,0,1,0,2.74-.3c-.06-.72-.08-.78-1.44-.63S6.74,4.22,6.81,4.94Z"/><path class="cls-7" d="M7.21,4.82c.13,1.13,2.07,1,1.93-.16-.05-.41-.05-.45-1-.36S7.16,4.41,7.21,4.82Z"/><path class="cls-3" d="M8.1,4.6a.46.46,0,0,0,.45.47A.47.47,0,0,0,9,4.6a.45.45,0,0,0-.9,0Z"/></g></g></svg>