<svg xmlns="http://www.w3.org/2000/svg" viewBox="0 0 11.25 11.25"><defs><style>.cls-1{fill:#dadee0;}.cls-2{fill:#f7a4a4;}.cls-3{fill:#f78d8d;}.cls-4{fill:#94989b;}.cls-5{fill:#4c5359;}.cls-6{fill:#fff;}.cls-7{fill:#b2b6b8;}</style></defs><title>Resurs 20</title><g id="Lager_2" data-name="Lager 2"><g id="Lager_1-2" data-name="Lager 1"><path class="cls-1" d="M11,0a12.88,12.88,0,0,1-.22,5.84L6.17,2.38A8.83,8.83,0,0,1,11,0Z"/><path class="cls-2" d="M10.45,5.66,8.53,3.17A4.21,4.21,0,0,1,10.71.84,10.64,10.64,0,0,1,10.45,5.66Z"/><path class="cls-3" d="M9.72,5.09,8.53,3.55A4,4,0,0,1,10.13,2,6.24,6.24,0,0,0,9.72,5.09Z"/><path class="cls-1" d="M.21,0A12.88,12.88,0,0,0,.43,5.84L5.08,2.38A8.83,8.83,0,0,0,.21,0Z"/><path class="cls-2" d="M.8,5.66,2.72,3.17A4.21,4.21,0,0,0,.54.84,10.64,10.64,0,0,0,.8,5.66Z"/><path class="cls-3" d="M1.53,5.09,2.72,3.55A4,4,0,0,0,1.12,2,6.24,6.24,0,0,1,1.53,5.09Z"/><path class="cls-1" d="M10.54,9.14a1.66,1.66,0,0,0,.31-.4,3.52,3.52,0,0,0,.4-1l-.38.08a1.83,1.83,0,0,0,.32-1.46l-.36.4a3.35,3.35,0,0,0,0-1.95l-.4.29a1.11,1.11,0,0,0,0-.64l-.17.14s.31-.88,0-1.24c-.17.53-.36.52-.36.52s.24-.4.06-.56c-.19.3-.34.1-.34,0s0-.29.51-.37a1.24,1.24,0,0,0-1-.08s0-.28.4-.26a.93.93,0,0,0-.84-.13h0a5.1,5.1,0,0,0-3.2-.92,5.09,5.09,0,0,0-3.19.92h0a.93.93,0,0,0-.84.13c.38,0,.4.26.4.26A1.24,1.24,0,0,0,1,3c.54.08.5.25.51.37s-.15.29-.34,0c-.18.16.06.56.06.56s-.19,0-.36-.52c-.28.36,0,1.24,0,1.24L.77,4.45a1.11,1.11,0,0,0,0,.64L.38,4.8a3.35,3.35,0,0,0,0,2l-.36-.4A1.83,1.83,0,0,0,.38,7.81L0,7.73a3.52,3.52,0,0,0,.4,1,2,2,0,0,0,.32.41h0a7.35,7.35,0,0,0,4.89,2.09,7.4,7.4,0,0,0,4.9-2.09h0Z"/><path class="cls-4" d="M6.69,1.64a7.12,7.12,0,0,0-1.07-.07,7.07,7.07,0,0,0-1.06.07A7,7,0,0,0,5.62,3.82,7,7,0,0,0,6.69,1.64Z"/><path class="cls-4" d="M8.4,2.21a4.43,4.43,0,0,0-1.22-.47A5.47,5.47,0,0,0,7.86,3,7.12,7.12,0,0,0,8.4,2.21Z"/><path class="cls-4" d="M4.07,1.74a4.77,4.77,0,0,0-1.22.47A6.37,6.37,0,0,0,3.39,3,5.47,5.47,0,0,0,4.07,1.74Z"/><path class="cls-5" d="M6.38,6.89c-.15-.17-.62-.19-.76-.19s-.6,0-.75.19,0,.44.26.71a.74.74,0,0,0,.49.23.74.74,0,0,0,.5-.23C6.41,7.33,6.49,7,6.38,6.89Z"/><path class="cls-6" d="M4.18,5.41a1.27,1.27,0,0,0-.84-1,1.2,1.2,0,0,0-1.59.7,2,2,0,0,0,.14,1.49c.06.11.69.61,2.11.14A2.29,2.29,0,0,0,4.18,5.41Z"/><path class="cls-7" d="M4.18,5.41S3.07,4.51,3,4.5c-.27,0-.53-.08-.73.12a1.45,1.45,0,0,0-.42.69,1.67,1.67,0,0,0,0,.83A2,2,0,0,0,2,6.55l0,0H2l.07.06a.77.77,0,0,0,.18.1,2,2,0,0,0,.85.14A4.63,4.63,0,0,0,4,6.79a3.87,3.87,0,0,1-.88.26A1.89,1.89,0,0,1,2.18,7,.94.94,0,0,1,2,6.87l-.11-.09,0,0v0l0,0,0,0a2.07,2.07,0,0,1-.17-.45,2,2,0,0,1,0-1,1.75,1.75,0,0,1,.53-.82A1.11,1.11,0,0,1,3,4.29,15.6,15.6,0,0,1,4.18,5.41Z"/><path class="cls-6" d="M7.07,5.41a1.27,1.27,0,0,1,.84-1,1.2,1.2,0,0,1,1.59.7,2,2,0,0,1-.14,1.49c-.06.11-.69.61-2.11.14A2.29,2.29,0,0,1,7.07,5.41Z"/><path class="cls-7" d="M7.07,5.41S8.15,4.29,8.23,4.28a1.11,1.11,0,0,1,.92.14,1.75,1.75,0,0,1,.53.82,2,2,0,0,1,0,1,2.07,2.07,0,0,1-.17.45l0,0,0,0v0l0,0-.11.09a.94.94,0,0,1-.23.1,2,2,0,0,1-.94.08,3.87,3.87,0,0,1-.88-.26,4.63,4.63,0,0,0,.89.12A2,2,0,0,0,9,6.77a.77.77,0,0,0,.18-.1l.07-.06h0l0,0a2,2,0,0,0,.13-.41,1.67,1.67,0,0,0,0-.83A1.45,1.45,0,0,0,9,4.62c-.2-.2-.46-.13-.74-.12C8.18,4.51,7.07,5.41,7.07,5.41Z"/><ellipse class="cls-5" cx="7.88" cy="5.72" rx="0.75" ry="0.84"/><ellipse class="cls-5" cx="3.38" cy="5.72" rx="0.75" ry="0.84"/><path class="cls-5" d="M10.1,4.22a6.59,6.59,0,0,0-1,.17,5.29,5.29,0,0,0-.87.31,4.79,4.79,0,0,0-.79.46,5.43,5.43,0,0,0-.75.64,1.81,1.81,0,0,1,.44-1A2.52,2.52,0,0,1,8,4.19a2.64,2.64,0,0,1,1-.24A1.88,1.88,0,0,1,10.1,4.22Z"/><path class="cls-5" d="M1.14,4.22a1.94,1.94,0,0,1,1-.27,2.64,2.64,0,0,1,1,.24,2.39,2.39,0,0,1,.86.65,1.75,1.75,0,0,1,.45,1,5.43,5.43,0,0,0-.75-.64A4.79,4.79,0,0,0,3,4.7a5.29,5.29,0,0,0-.87-.31A6.73,6.73,0,0,0,1.14,4.22Z"/><path class="cls-5" d="M3.94,9.78a2.45,2.45,0,0,1,3.37,0c.13.11.25-.07.16-.25A2.12,2.12,0,0,0,5.63,8.32,2.13,2.13,0,0,0,3.78,9.53C3.69,9.71,3.81,9.89,3.94,9.78Z"/></g></g></svg>