<svg xmlns="http://www.w3.org/2000/svg" viewBox="0 0 11.25 11.25"><defs><style>.cls-1{fill:#89664c;}.cls-2{fill:#c1875d;}.cls-3{fill:#ffe2b3;}.cls-4{fill:#fcfcfa;}.cls-5{fill:#29251c;}.cls-6{fill:#e0bb86;}</style></defs><title>Resurs 21</title><g id="Lager_2" data-name="Lager 2"><g id="Lager_1-2" data-name="Lager 1"><path class="cls-1" d="M1.33,8.56c-.33.33-.51.18-.71,0s-.35-.37,0-.71.94-.78,1.14-.58S1.67,8.23,1.33,8.56Z"/><path class="cls-2" d="M9,7.35a1.08,1.08,0,0,0,.08-.19l1.82.42L9.24,6.7a4.49,4.49,0,0,0,.13-.83l1.88-.25L9.37,5.38a4.49,4.49,0,0,0-.13-.83l1.67-.88-1.82.42a3.79,3.79,0,0,0-.39-.78L9.93,2l-1.5,1a4,4,0,0,0-.65-.65L8.44.68,7.43,2a4.21,4.21,0,0,0-.9-.45L6.6,0,6.15,1.45a4.28,4.28,0,0,0-1.09-.14h0L4.65,0l.06,1.33a4.28,4.28,0,0,0-1.2.27L2.81.68l.43,1a4.1,4.1,0,0,0-1.12.76L1.32,2l.62.7a4.3,4.3,0,0,0-.81,1.2L.34,3.67,1.05,4a4.3,4.3,0,0,0-.3,1.49L0,5.62l.75.1a4.36,4.36,0,0,0,.17,1.1,12.64,12.64,0,0,1,2.77-.28A18,18,0,0,1,9,7.35Z"/><path class="cls-3" d="M.34,7.58l.79-.18a4.3,4.3,0,0,0,.81,1.2l-.62.7.8-.53a4.1,4.1,0,0,0,1.12.76l-.43,1,.7-.92a4.28,4.28,0,0,0,1.2.27l-.06,1.33.4-1.31h0A4.28,4.28,0,0,0,6.15,9.8l.45,1.45L6.53,9.68a4.21,4.21,0,0,0,.9-.45l1,1.34L7.78,9a4,4,0,0,0,.65-.65l1.5,1L8.7,7.94A4.75,4.75,0,0,0,9,7.35a18,18,0,0,0-5.32-.81,12,12,0,0,0-2.77.29c0,.12.08.25.13.38Z"/><path class="cls-4" d="M2.29,3.47a1.16,1.16,0,0,1,0,2.32,1.16,1.16,0,0,1,0-2.32Z"/><path class="cls-5" d="M2.29,3.84a.77.77,0,0,1,.76.79.78.78,0,0,1-.76.8.78.78,0,0,1-.77-.8A.77.77,0,0,1,2.29,3.84Z"/><path class="cls-4" d="M5.62,3.11A1.49,1.49,0,0,1,7.09,4.63a1.47,1.47,0,1,1-2.93,0A1.49,1.49,0,0,1,5.62,3.11Z"/><path class="cls-5" d="M5.62,3.59a1,1,0,1,1-1,1A1,1,0,0,1,5.62,3.59Z"/><path class="cls-2" d="M9.24,8.08c.52.52.28.79,0,1.1s-.58.54-1.09,0-1.21-1.45-.9-1.76S8.73,7.57,9.24,8.08Z"/><path class="cls-3" d="M2,6.64c1,0,1-.49,1.56-.61s.86.43,1.62.57"/><path class="cls-5" d="M2.9,6.88a1.55,1.55,0,0,1,.26-.37.85.85,0,0,1,.39-.23A.61.61,0,0,1,4,6.34a.87.87,0,0,1,.32.31A1.68,1.68,0,0,0,4,6.44a.65.65,0,0,0-.39,0,.93.93,0,0,0-.35.19A4.09,4.09,0,0,0,2.9,6.88Z"/><path class="cls-6" d="M3.06,7a.39.39,0,0,1-.14,0,.32.32,0,0,1-.16,0,.24.24,0,0,1-.09-.13.26.26,0,0,1,0-.15.5.5,0,0,0,.05.13A.16.16,0,0,0,2.81,7,.75.75,0,0,0,3.06,7Z"/><path class="cls-6" d="M4.54,6.5a.56.56,0,0,1,0,.12.22.22,0,0,1,0,.14.16.16,0,0,1-.12.08.2.2,0,0,1-.13,0l.11,0a.13.13,0,0,0,.06-.07A1.27,1.27,0,0,0,4.54,6.5Z"/><path class="cls-6" d="M3.21,7a1.29,1.29,0,0,1,.16-.17.48.48,0,0,1,.22-.12.36.36,0,0,1,.25,0A.49.49,0,0,1,4,6.89L3.82,6.8a.5.5,0,0,0-.21,0,.88.88,0,0,0-.2.09Z"/><path class="cls-1" d="M8.7,5.14c.08.27,0,.53-.19.59s-.41-.1-.5-.37,0-.53.19-.59S8.61,4.87,8.7,5.14Z"/><path class="cls-1" d="M8.6,4a.33.33,0,0,1-.14.43c-.13,0-.29-.08-.35-.27s0-.39.13-.43S8.54,3.76,8.6,4Z"/><path class="cls-1" d="M8,4.28A.2.2,0,0,1,8,4.55c-.09,0-.19,0-.23-.17s0-.25.09-.28S8,4.15,8,4.28Z"/><path class="cls-1" d="M2.65,2.93c-.08.14-.23.21-.33.15a.27.27,0,0,1,0-.37c.08-.14.24-.21.34-.15S2.74,2.79,2.65,2.93Z"/><path class="cls-1" d="M3.06,3.06C2.91,3,2.89,2.74,3,2.53s.35-.3.49-.21.17.32,0,.53S3.2,3.15,3.06,3.06Z"/><path class="cls-1" d="M3.07,2.28c-.06.09-.15.13-.21.09s-.07-.13,0-.22a.17.17,0,0,1,.2-.09A.16.16,0,0,1,3.07,2.28Z"/></g></g></svg>