<svg xmlns="http://www.w3.org/2000/svg" xmlns:xlink="http://www.w3.org/1999/xlink" viewBox="0 0 63.57 43.94"><defs><style>.cls-1{fill:url(#Namnlös_övertoning_33);}.cls-2{fill:url(#Namnlös_övertoning_33-2);}</style><linearGradient id="Namnlös_övertoning_33" x1="35.33" y1="56.29" x2="2" y2="2.96" gradientUnits="userSpaceOnUse"><stop offset="0" stop-color="#dd4bdd"/><stop offset="0.59" stop-color="#fbae17"/><stop offset="1" stop-color="#fb5717"/></linearGradient><linearGradient id="Namnlös_övertoning_33-2" x1="59.82" y1="40.99" x2="26.49" y2="-12.35" xlink:href="#Namnlös_övertoning_33"/></defs><title>30_fullcolor</title><g id="Lager_2" data-name="Lager 2"><g id="Lager_1-2" data-name="Lager 1"><path class="cls-1" d="M13.85,43.94a24.09,24.09,0,0,1-11-2.4A5.06,5.06,0,0,1,0,37.05V34.78a5.08,5.08,0,0,1,2.47-4.29,5.17,5.17,0,0,1,2.6-.72,5,5,0,0,1,2.34.59,12.3,12.3,0,0,0,3.06,1.1,15.17,15.17,0,0,0,3.25.39c2.92,0,4-.58,4.35-.84a2.19,2.19,0,0,0,.59-1.82,1.37,1.37,0,0,0-.07-.59l-.19-.19a9.32,9.32,0,0,0-4.75-.91H10.08a5,5,0,0,1-5-5.07V20.28a5.12,5.12,0,0,1,2.41-4.35.42.42,0,0,0,.19-.59A.42.42,0,0,0,7.22,15H7.15l-.65.06A5.1,5.1,0,0,1,2.41,13L1.3,11.51a5.14,5.14,0,0,1,.85-6.89A19.1,19.1,0,0,1,8.39,1.24,20.19,20.19,0,0,1,15.47,0,15.46,15.46,0,0,1,25.81,3.38,12.52,12.52,0,0,1,30,13.26a12.19,12.19,0,0,1-2,7,.59.59,0,0,0,.06.58,12.5,12.5,0,0,1,3,8.39A13.43,13.43,0,0,1,26,40.3C23,42.71,18.92,43.94,13.85,43.94ZM5.07,30.16a4.49,4.49,0,0,0-2.4.65,4.68,4.68,0,0,0-2.28,4v2.27A4.59,4.59,0,0,0,3,41.21a24,24,0,0,0,10.86,2.34c5,0,9-1.17,12-3.57a13.11,13.11,0,0,0,4.87-10.79,12,12,0,0,0-3.31-8.65,12.14,12.14,0,0,0,2.27-7.28,12.16,12.16,0,0,0-4.09-9.62C23.08,1.5,19.7.39,15.47.39a21.35,21.35,0,0,0-7,1.17A19.9,19.9,0,0,0,2.41,4.94a4.67,4.67,0,0,0-.79,6.31l1.11,1.49A4.57,4.57,0,0,0,6.5,14.69a4.69,4.69,0,0,0,2.6-.78,13.86,13.86,0,0,1,3.45-1.82,8.59,8.59,0,0,1,3-.45,3.08,3.08,0,0,1,2.08.58c.19.13.32.26.32.85a1.76,1.76,0,0,1-.71,1.62,5.53,5.53,0,0,1-3.51.91H10.08A4.7,4.7,0,0,0,5.4,20.28v2.15a4.7,4.7,0,0,0,4.68,4.68h3.57c3.06,0,4.36.58,4.88.91s.52.45.52,1.17a2.32,2.32,0,0,1-.78,2.08c-.46.39-1.63,1-4.55,1a15.79,15.79,0,0,1-3.32-.39,17.31,17.31,0,0,1-3.18-1.17A4.84,4.84,0,0,0,5.07,30.16Zm8.78,12.42A22.83,22.83,0,0,1,3.45,40.3a3.57,3.57,0,0,1-2-3.25V34.78a3.63,3.63,0,0,1,3.64-3.64,3.18,3.18,0,0,1,1.69.45,16.37,16.37,0,0,0,3.38,1.24,18.53,18.53,0,0,0,3.58.45c3.25,0,4.61-.78,5.2-1.23a3.14,3.14,0,0,0,1.17-2.86,2.19,2.19,0,0,0-1-2c-.65-.39-2.14-1.1-5.46-1.1H10.08a3.63,3.63,0,0,1-3.64-3.64V20.28a3.63,3.63,0,0,1,3.64-3.64h3.64a6.35,6.35,0,0,0,4.16-1.17,2.81,2.81,0,0,0,1-2.4,1.84,1.84,0,0,0-.65-1.63,4.15,4.15,0,0,0-2.73-.78,10.37,10.37,0,0,0-3.32.46,20.78,20.78,0,0,0-3.7,2,3.66,3.66,0,0,1-2,.58,3.46,3.46,0,0,1-2.92-1.49l-1.11-1.5a3.57,3.57,0,0,1,.59-4.94A18.44,18.44,0,0,1,8.84,2.54a19.55,19.55,0,0,1,6.63-1.17c4,0,7.09,1,9.43,3.05a11.22,11.22,0,0,1,3.77,8.84,10.94,10.94,0,0,1-2.41,7,.59.59,0,0,0,.07.72l.19.13a11,11,0,0,1,3.12,8.06,12.2,12.2,0,0,1-4.48,10C22.43,41.41,18.59,42.58,13.85,42.58ZM5.07,32.89a1.55,1.55,0,0,0-1,.33,1.74,1.74,0,0,0-.91,1.56v2.27a1.86,1.86,0,0,0,1,1.69,21.33,21.33,0,0,0,9.62,2.08.5.5,0,0,0,.45-.52v-.13a.56.56,0,0,0-.45-.39,20.28,20.28,0,0,1-9.17-2,.85.85,0,0,1-.52-.78V34.78a.9.9,0,0,1,.46-.72,1,1,0,0,1,.45-.13.77.77,0,0,1,.39.07,14.7,14.7,0,0,0,4,1.49,16.73,16.73,0,0,0,4.23.52,14.73,14.73,0,0,0,4.81-.65.56.56,0,0,0,.32-.65v-.06l-.06-.07a.55.55,0,0,0-.39-.19h-.2a12.67,12.67,0,0,1-4.48.65,18.28,18.28,0,0,1-4-.52,15.54,15.54,0,0,1-3.83-1.37A1.34,1.34,0,0,0,5.07,32.89ZM15.47,3.12a19.36,19.36,0,0,0-6,1A17.26,17.26,0,0,0,4.16,7.09a1.85,1.85,0,0,0-.65,1.43,1.74,1.74,0,0,0,.39,1.1l1,1.5a2,2,0,0,0,1.56.78,1.53,1.53,0,0,0,1-.33c.59-.32,1.11-.65,1.63-1,.19-.07.26-.33.19-.59V10a.48.48,0,0,0-.45-.26c-.13,0-.2,0-.26.06-.52.26-1.11.65-1.69,1a.59.59,0,0,1-.46.19,1,1,0,0,1-.71-.39L4.68,9a.74.74,0,0,1-.19-.52.81.81,0,0,1,.32-.65A14.56,14.56,0,0,1,9.75,5.14a17.37,17.37,0,0,1,5.72-1q4.87,0,7.61,2.34a6.84,6.84,0,0,1,.71.72.55.55,0,0,0,.33.13c.13,0,.19,0,.26-.07h.06l.07-.06a.55.55,0,0,0,.13-.33.48.48,0,0,0-.13-.39,7.17,7.17,0,0,0-.78-.71C21.78,4,19,3.12,15.47,3.12ZM6.11,40.43v.07c-.06.13,0,.26,0,.39s.2.19.33.19a24.39,24.39,0,0,0,7.41,1.11.5.5,0,0,0,.45-.52v-.13a.54.54,0,0,0-.45-.39,24.3,24.3,0,0,1-7.09-1,.24.24,0,0,0-.19-.06.53.53,0,0,0-.39.26ZM8.19,3.84h.07A.34.34,0,0,0,8.58,4h.2l.52-.19a13.21,13.21,0,0,1,1.75-.52.67.67,0,0,0,.39-.46V2.67a.51.51,0,0,0-.52-.33h-.13c-.58.13-1.23.33-1.82.52l-.58.2a.47.47,0,0,0-.26.26.39.39,0,0,0,0,.39ZM10.08,18.4a1.89,1.89,0,0,0-1.89,1.88v2.15a1.89,1.89,0,0,0,1.89,1.88h3.57a15.75,15.75,0,0,1,4.16.46h.13a.57.57,0,0,0,.39-.2h.07v-.19c.06-.07,0-.26-.07-.33a.51.51,0,0,0-.26-.26,18,18,0,0,0-4.42-.45H10.08a.93.93,0,0,1-.91-.91V20.28a.93.93,0,0,1,.91-.91h3.64a9.15,9.15,0,0,0,5.91-1.75,5.53,5.53,0,0,0,2.08-4.55,2.15,2.15,0,0,0-.06-.65.47.47,0,0,0-.52-.46h-.07L21,12a.41.41,0,0,0-.33.45v.59A4.44,4.44,0,0,1,19,16.84a8,8,0,0,1-5.26,1.56ZM15.54,12a9.46,9.46,0,0,0-2.86.39A13.27,13.27,0,0,0,9.3,14.24c-.07,0-.13.06-.2.13a.44.44,0,0,0-.19.58.48.48,0,0,0,.45.33h.13c.13,0,.39-.07.59-.07h3.64A5.58,5.58,0,0,0,17,14.43a1.55,1.55,0,0,0,.52-1.36c0-.13,0-.2-.06-.26A2.07,2.07,0,0,0,15.54,12Zm-4.81-1.11h.06a.35.35,0,0,0,.33.2.22.22,0,0,0,.19-.07c.26-.06.52-.19.78-.26a9.62,9.62,0,0,1,3.45-.52,4.65,4.65,0,0,1,2.47.52c.06,0,.13.07.19.07a.55.55,0,0,0,.33-.13.15.15,0,0,0,.13-.13.53.53,0,0,0-.2-.72,6.46,6.46,0,0,0-2.92-.65,11.43,11.43,0,0,0-3.77.59,4.21,4.21,0,0,0-.85.32.55.55,0,0,0-.26.26.45.45,0,0,0,0,.39Zm.45,23a.43.43,0,0,0,.07.39,1.27,1.27,0,0,0,.32.2c.72.06,1.5.13,2.15.13h.39a.45.45,0,0,0,.45-.52V34a.48.48,0,0,0-.45-.33h-.39a11.18,11.18,0,0,1-2-.19h-.06a.5.5,0,0,0-.46.32ZM15.54,2.8c.91,0,1.75.06,2.6.13L18.2,3a.66.66,0,0,0,.46-.26V2.67l.06-.13a.48.48,0,0,0-.13-.39.35.35,0,0,0-.32-.2,18.67,18.67,0,0,0-2.73-.19c-.78,0-1.56.06-2.28.13a.56.56,0,0,0-.45.58l.06.13.07.07a1,1,0,0,0,.39.26A12.61,12.61,0,0,1,15.54,2.8ZM13.33,17a.52.52,0,0,0,0,1h.39a10.89,10.89,0,0,0,2.14-.2c.13,0,.26-.13.33-.19s.13-.26.06-.39V17.1a.54.54,0,0,0-.45-.26h-.13a9.26,9.26,0,0,1-1.95.13Zm7.6,12.61a.57.57,0,0,0,.39-.2.45.45,0,0,0,.13-.32,3.45,3.45,0,0,0-1.56-3,9.22,9.22,0,0,0-4.35-1.3.46.46,0,0,0-.52.45v.13a.55.55,0,0,0,.45.46,8,8,0,0,1,3.84,1.1,2.32,2.32,0,0,1,1.1,2.15.56.56,0,0,0,.46.52Zm2.41-10a.5.5,0,0,0-.33.13,7.1,7.1,0,0,1-1.1.84.56.56,0,0,0-.26.46.51.51,0,0,0,.32.39,8.25,8.25,0,0,1,2.6,1.75,8.1,8.1,0,0,1,2.34,6.05,9.49,9.49,0,0,1-3.51,7.86,13.33,13.33,0,0,1-7.28,2.6.63.63,0,0,0-.45.46v.13a.5.5,0,0,0,.52.45,14.72,14.72,0,0,0,7.86-2.86,10.55,10.55,0,0,0,3.84-8.64,9,9,0,0,0-2.6-6.76,10.23,10.23,0,0,0-2.15-1.56,3.35,3.35,0,0,0,.52-.39.38.38,0,0,0,.2-.33,1,1,0,0,0-.13-.39l-.07-.06-.13-.07C23.47,19.63,23.4,19.57,23.34,19.57ZM16,33.93l.07.13a.43.43,0,0,0,.45.39h.13a7.2,7.2,0,0,0,3.12-1.3,4.25,4.25,0,0,0,1.17-1.49c.13-.26.07-.59-.19-.65l-.07-.07h-.19a.66.66,0,0,0-.46.26,2.88,2.88,0,0,1-.84,1.17,6.52,6.52,0,0,1-2.73,1,.48.48,0,0,0-.39.46Zm1.56-17.29.07.07a.5.5,0,0,0,.45.26l.26-.07a1.09,1.09,0,0,1,.46-.32,4.37,4.37,0,0,0,1.56-3.51,4.23,4.23,0,0,0-.13-1,.5.5,0,0,0-.52-.39h-.13l-.07.07a.45.45,0,0,0-.26.52,2.7,2.7,0,0,1,.07.78,3.36,3.36,0,0,1-1.17,2.73,1.26,1.26,0,0,0-.39.26.41.41,0,0,0-.2.52ZM20.09,3a.57.57,0,0,0,.32.52,10.74,10.74,0,0,1,3.58,2,8.8,8.8,0,0,1,1.88,2.21.41.41,0,0,0,.39.2h.2l.06-.07a.46.46,0,0,0,.2-.65,8.24,8.24,0,0,0-2.08-2.4,11.51,11.51,0,0,0-3.9-2.21h-.13a.51.51,0,0,0-.52.32Zm6.63,32.83a.38.38,0,0,0-.39.19,12.79,12.79,0,0,1-2,2.15,14.51,14.51,0,0,1-3.57,2,.51.51,0,0,0-.33.52v.13a.52.52,0,0,0,.52.32.2.2,0,0,0,.13-.06,13.68,13.68,0,0,0,3.84-2.08,11,11,0,0,0,2.21-2.34.48.48,0,0,0,.13-.39.71.71,0,0,0-.26-.33v-.06h-.26Zm1.17-11.7c-.13,0-.2,0-.26.06h-.07l-.06.07a.48.48,0,0,0-.07.58A11,11,0,0,1,28.08,27a.56.56,0,0,0,.52.39h.07a.5.5,0,0,0,.39-.58,10.47,10.47,0,0,0-.72-2.47A.66.66,0,0,0,27.89,24.12Zm-.2,10.53h.2a.48.48,0,0,0,.45-.33,13,13,0,0,0,.91-4.94c.07-.13,0-.26-.13-.39a.5.5,0,0,0-.32-.13h-.07a.55.55,0,0,0-.45.52,12.34,12.34,0,0,1-.85,4.55.5.5,0,0,0,.2.65Z"/><path class="cls-2" d="M47.9,43.94a13.52,13.52,0,0,1-12.09-6.63c-2.34-3.7-3.44-8.77-3.44-15.4s1.1-11.83,3.31-15.41C38.41,2.15,42.51,0,47.9,0A13.57,13.57,0,0,1,60.06,6.63c2.34,3.64,3.51,8.78,3.51,15.28,0,6.82-1.1,11.89-3.38,15.53C57.4,41.8,53.3,43.94,47.9,43.94ZM47.9.33A13.16,13.16,0,0,0,36,6.7c-2.21,3.51-3.32,8.51-3.32,15.21s1.11,11.57,3.38,15.21a13.42,13.42,0,0,0,11.83,6.5c5.27,0,9.3-2.15,12-6.37,2.27-3.58,3.38-8.58,3.38-15.34,0-6.44-1.17-11.51-3.45-15.08A13.38,13.38,0,0,0,47.9.33Zm0,42.25A12.3,12.3,0,0,1,37,36.6c-2.21-3.51-3.25-8.32-3.25-14.69s1-11.31,3.19-14.69c2.4-3.9,6.11-5.85,11-5.85a12.19,12.19,0,0,1,11,6c2.21,3.44,3.32,8.32,3.32,14.56,0,6.56-1,11.37-3.19,14.82C56.55,40.63,52.78,42.58,47.9,42.58ZM34.64,19a.44.44,0,0,0-.45.46c-.07.78-.07,1.62-.07,2.47a.51.51,0,0,0,.46.52h.13a.5.5,0,0,0,.39-.52c0-.78,0-1.56.06-2.41a.52.52,0,0,0-.32-.52Zm1-7.28a.56.56,0,0,0-.45.39A30.6,30.6,0,0,0,34.32,17a.61.61,0,0,0,.45.58.57.57,0,0,0,.59-.45,24.75,24.75,0,0,1,.84-4.75.89.89,0,0,0-.06-.39.71.71,0,0,0-.33-.26Zm.65,5.07H36.2a.65.65,0,0,0-.52.46c-.13,1.43-.19,3.05-.19,4.68,0,6,1,10.53,3,13.71a10.48,10.48,0,0,0,9.42,5.2,10.71,10.71,0,0,0,9.63-5.07l.06-.13a.58.58,0,0,0-.13-.71h-.13a.22.22,0,0,0-.19-.07.53.53,0,0,0-.39.26l-.07.13c-2,3.06-4.87,4.55-8.78,4.55a9.5,9.5,0,0,1-8.58-4.68c-1.88-3.05-2.79-7.34-2.79-13.19,0-1.63.06-3.19.19-4.55a.51.51,0,0,0-.32-.52Zm.13-6.37a.58.58,0,0,0,.52-.32,16.91,16.91,0,0,1,1.11-2.15,10.77,10.77,0,0,1,3.12-3.31A.53.53,0,0,0,41.4,4l-.06-.13A.47.47,0,0,0,41,3.71a.65.65,0,0,0-.33.06,13.21,13.21,0,0,0-3.44,3.64A24.43,24.43,0,0,0,36,9.69a.64.64,0,0,0,.32.71ZM48.1,42.19a15.36,15.36,0,0,0,2.53-.2.49.49,0,0,0,.39-.58v-.07L51,41.28A.48.48,0,0,0,50.5,41h-.06a12.88,12.88,0,0,1-2.34.26H48a11.51,11.51,0,0,1-6.7-2c-.06-.07-.19-.07-.26-.07a.59.59,0,0,0-.45.2.77.77,0,0,0-.07.39.35.35,0,0,0,.2.32,12.26,12.26,0,0,0,7.21,2.15ZM47.9,7.93a5.53,5.53,0,0,0-5.39,3.32c-1.17,2.4-1.82,6-1.82,10.66,0,4.94.65,8.58,1.88,10.92a12.31,12.31,0,0,0,1,1.36.57.57,0,0,0,.39.2.5.5,0,0,0,.32-.13l.07-.07v-.06a.5.5,0,0,0,0-.59,5.68,5.68,0,0,1-.85-1.23c-1.17-2.15-1.75-5.66-1.75-10.4,0-4.55.52-8,1.69-10.21A4.61,4.61,0,0,1,47.9,8.91a4.72,4.72,0,0,1,4.56,2.79c1.1,2.21,1.69,5.66,1.69,10.21a32.29,32.29,0,0,1-.53,6.63.45.45,0,0,0,.27.52l.06.06h.13a.49.49,0,0,0,.52-.39,34.56,34.56,0,0,0,.59-6.82c0-4.68-.65-8.26-1.89-10.66A5.48,5.48,0,0,0,47.9,7.93Zm12,13.72a.51.51,0,0,0,.52-.52c-.06-5.53-1.1-9.82-3-12.81a10.73,10.73,0,0,0-9.56-5.2,12.07,12.07,0,0,0-5.46,1.24.49.49,0,0,0-.26.65l.07.06v.07a.75.75,0,0,0,.39.19l.26-.06a10.33,10.33,0,0,1,5-1.11,9.61,9.61,0,0,1,8.65,4.68c1.82,2.86,2.8,7,2.86,12.29a.58.58,0,0,0,.39.52ZM47.9,9.3a4.21,4.21,0,0,0-4.16,2.53,10.89,10.89,0,0,0-.91,2.67.31.31,0,0,0,.07.39.51.51,0,0,0,.26.26h.06a.53.53,0,0,0,.59-.39,12.12,12.12,0,0,1,.84-2.47,3.15,3.15,0,0,1,3.25-1.95.49.49,0,0,0,.46-.39h.06V9.82A.55.55,0,0,0,47.9,9.3Zm0,1.43A2.79,2.79,0,0,0,45,12.48c-1,2-1.5,5.2-1.5,9.43S44,29.64,45,31.46a2.82,2.82,0,0,0,2.86,1.76,2.8,2.8,0,0,0,2.93-1.76c1-2,1.56-5.26,1.56-9.55s-.52-7.41-1.56-9.43A2.79,2.79,0,0,0,47.9,10.73Zm0,21.51a2,2,0,0,1-2-1.23c-.91-1.69-1.43-4.94-1.43-9.1s.52-7.15,1.43-9a1.8,1.8,0,0,1,2-1.24A1.92,1.92,0,0,1,50,12.94c.92,1.88,1.44,4.87,1.44,9S50.9,29.12,50,31A1.93,1.93,0,0,1,47.9,32.24Zm0-20.15a1.52,1.52,0,0,0-1.69,1c-.58,1.24-1.36,3.77-1.36,8.78,0,4,.52,7.28,1.36,8.9a1.6,1.6,0,0,0,1.69,1c1,0,1.31-.19,1.69-1,.91-1.75,1.43-4.87,1.43-8.9,0-5-.77-7.54-1.43-8.78C49.21,12.29,48.88,12.09,47.9,12.09ZM45.11,33.15a.54.54,0,0,0,.13.72,4.25,4.25,0,0,0,2.6.78.56.56,0,0,0,.52-.52v-.07L48.29,34a.54.54,0,0,0-.45-.39,3.23,3.23,0,0,1-2-.59.4.4,0,0,0-.26-.06c-.13,0-.26,0-.32.06Zm4.68.72a.38.38,0,0,0,.39.19.4.4,0,0,0,.26-.06,4.11,4.11,0,0,0,1.62-2,9.9,9.9,0,0,0,1-2.54.5.5,0,0,0-.39-.58h-.13c-.19,0-.46.13-.46.32a13.37,13.37,0,0,1-.84,2.34,3.9,3.9,0,0,1-1.3,1.56c-.19.07-.26.33-.19.59ZM53,27.5A.57.57,0,0,0,53.5,27a40.22,40.22,0,0,0,.32-5.13c0-.78-.07-1.56-.07-2.28a.53.53,0,0,0-.52-.45H53.1a.55.55,0,0,0-.39.52c.07.71.07,1.49.07,2.21a38.2,38.2,0,0,1-.32,5,.68.68,0,0,0,.32.59ZM57.72,8.13a10,10,0,0,1,1.11,2,.48.48,0,0,0,.45.33h.2V10.4a.46.46,0,0,0,.26-.65,18.22,18.22,0,0,0-1.11-2.21s-.32-.52-.71-.26-.26.65-.26.65ZM60,11.77h-.07l-.13.13c-.13.06-.19.32-.13.52a29.21,29.21,0,0,1,.91,4.68.5.5,0,0,0,.52.45c.33-.06.52-.26.46-.58a27,27,0,0,0-1-4.88c0-.19-.19-.32-.45-.32ZM61.1,27.3a.54.54,0,0,0,.52-.45c.13-1.5.2-3.12.2-4.94,0-.91,0-1.69-.07-2.47A.44.44,0,0,0,61.3,19h-.13l-.07.07c-.19,0-.32.26-.32.45,0,.85.06,1.63.06,2.41a37.11,37.11,0,0,1-.26,4.87.65.65,0,0,0,.33.52Z"/></g></g></svg>