<?xml version="1.0" encoding="utf-8"?>
<!-- Generator: Adobe Illustrator 22.0.1, SVG Export Plug-In . SVG Version: 6.00 Build 0)  -->
<svg version="1.1" id="Lager_1" xmlns="http://www.w3.org/2000/svg" xmlns:xlink="http://www.w3.org/1999/xlink" x="0px" y="0px"
	 viewBox="0 0 63.6 43.9" style="enable-background:new 0 0 63.6 43.9;" xml:space="preserve">
<style type="text/css">
	.st0{fill:url(#SVGID_1_);}
	.st1{fill:url(#SVGID_2_);}
</style>
<title>30_green</title>
<g id="Lager_2_1_">
	<g id="Lager_1-2">
		
			<linearGradient id="SVGID_1_" gradientUnits="userSpaceOnUse" x1="4.9433" y1="37.5944" x2="24.9433" y2="2.5944" gradientTransform="matrix(1 0 0 -1 0 43.8583)">
			<stop  offset="0" style="stop-color:#E8FFE6"/>
			<stop  offset="9.000000e-02" style="stop-color:#C7F0D3"/>
			<stop  offset="0.26" style="stop-color:#90D7B3"/>
			<stop  offset="0.38" style="stop-color:#6EC79F"/>
			<stop  offset="0.45" style="stop-color:#61C198"/>
			<stop  offset="0.49" style="stop-color:#5AC398"/>
			<stop  offset="0.62" style="stop-color:#47CA96"/>
			<stop  offset="0.71" style="stop-color:#40CC96"/>
			<stop  offset="0.72" style="stop-color:#3FCA95"/>
			<stop  offset="0.81" style="stop-color:#31B684"/>
			<stop  offset="0.91" style="stop-color:#29AA79"/>
			<stop  offset="1" style="stop-color:#26A676"/>
		</linearGradient>
		<path class="st0" d="M13.8,43.9c-3.8,0.1-7.6-0.7-11-2.4C1.1,40.7,0,39,0,37v-2.3c0-1.8,1-3.4,2.5-4.3c0.8-0.5,1.7-0.7,2.6-0.7
			c0.8,0,1.6,0.2,2.3,0.6c1,0.5,2,0.9,3.1,1.1c1.1,0.2,2.2,0.4,3.2,0.4c2.9,0,4-0.6,4.4-0.8c0.5-0.5,0.7-1.2,0.6-1.8
			c0-0.2,0-0.4-0.1-0.6l-0.2-0.2c-1.5-0.7-3.1-1-4.8-0.9h-3.6c-2.8,0-5-2.2-5-5c0,0,0,0,0-0.1v-2.1c0-1.8,0.9-3.4,2.4-4.3
			c0.2-0.1,0.3-0.3,0.2-0.5c0,0,0,0,0-0.1c0-0.2-0.3-0.4-0.5-0.3H7.2l-0.7,0.1c-1.6,0-3.1-0.8-4.1-2.1l-1.1-1.5
			c-1.5-2.2-1.2-5.2,0.8-6.9C4,3.1,6.1,2,8.4,1.2C10.7,0.4,13.1,0,15.5,0c3.7-0.2,7.4,1,10.3,3.4c2.8,2.5,4.3,6.1,4.2,9.9
			c0.1,2.5-0.6,4.9-2,7c-0.1,0.2-0.1,0.4,0.1,0.6c2,2.3,3.1,5.3,3,8.4c0.2,4.3-1.7,8.4-5.1,11.1C23,42.7,18.9,43.9,13.8,43.9z
			 M5.1,30.2c-0.8,0-1.7,0.2-2.4,0.6c-1.4,0.8-2.3,2.4-2.3,4v2.3c0,1.8,1,3.4,2.6,4.1c3.4,1.6,7.1,2.4,10.9,2.3c5,0,9-1.2,12-3.6
			c3.2-2.6,5.1-6.6,4.9-10.8c0.1-3.2-1.1-6.3-3.3-8.6c1.5-2.1,2.3-4.7,2.3-7.3c0.2-3.7-1.3-7.2-4.1-9.6c-2.5-2.1-5.9-3.2-10.1-3.2
			c-2.4,0-4.7,0.4-7,1.2C6.3,2.3,4.2,3.5,2.4,4.9c-1.9,1.6-2.2,4.3-0.8,6.3l1.1,1.5c0.9,1.2,2.3,2,3.8,1.9c0.9,0,1.8-0.3,2.6-0.8
			c1.1-0.8,2.2-1.4,3.4-1.8c1-0.3,2-0.5,3-0.4c0.7-0.1,1.5,0.1,2.1,0.6c0.2,0.1,0.3,0.3,0.3,0.9c0.1,0.6-0.2,1.2-0.7,1.6
			c-1,0.7-2.3,1-3.5,0.9h-3.6c-2.6,0-4.7,2.1-4.7,4.7v2.1c0,2.6,2.1,4.7,4.7,4.7h3.6c3.1,0,4.4,0.6,4.9,0.9s0.5,0.5,0.5,1.2
			c0.1,0.8-0.2,1.6-0.8,2.1c-0.5,0.4-1.6,1-4.6,1c-1.1,0-2.2-0.1-3.3-0.4c-1.1-0.3-2.2-0.7-3.2-1.2C6.5,30.4,5.8,30.2,5.1,30.2z
			 M13.8,42.6c-3.6,0.1-7.2-0.7-10.4-2.3c-1.2-0.6-2-1.9-2-3.2v-2.3c0-1.3,0.7-2.5,1.8-3.1c0.6-0.3,1.2-0.5,1.9-0.5
			c0.6,0,1.2,0.1,1.7,0.5c1.1,0.5,2.2,1,3.4,1.2c1.2,0.3,2.4,0.4,3.6,0.5c3.2,0,4.6-0.8,5.2-1.2c0.9-0.7,1.3-1.8,1.2-2.9
			c0.1-0.8-0.3-1.6-1-2c-0.6-0.4-2.1-1.1-5.5-1.1h-3.6c-2,0-3.6-1.6-3.6-3.6c0,0,0,0,0,0v-2.2c0-2,1.6-3.6,3.6-3.6c0,0,0,0,0,0h3.6
			c1.5,0.1,3-0.3,4.2-1.2c0.7-0.6,1.1-1.5,1-2.4c0.1-0.6-0.2-1.2-0.6-1.6c-0.8-0.6-1.8-0.8-2.7-0.8c-1.1,0-2.2,0.1-3.3,0.5
			c-1.3,0.5-2.5,1.2-3.7,2c-0.6,0.4-1.3,0.6-2,0.6c-1.2,0-2.3-0.5-2.9-1.5l-1.1-1.5C1.3,9.2,1.5,7,3,5.8c1.7-1.4,3.7-2.5,5.8-3.2
			c2.1-0.8,4.4-1.2,6.6-1.2c4,0,7.1,1,9.4,3.1c2.5,2.2,3.9,5.5,3.8,8.8c0,2.5-0.8,5-2.4,7c-0.1,0.2-0.1,0.5,0.1,0.7l0.2,0.1
			c2.1,2.1,3.2,5.1,3.1,8.1c0.2,3.9-1.5,7.6-4.5,10C22.4,41.4,18.6,42.6,13.8,42.6z M5.1,32.9c-0.4,0-0.7,0.1-1,0.3
			c-0.6,0.3-0.9,0.9-0.9,1.6V37c0,0.7,0.4,1.4,1,1.7c3,1.4,6.3,2.1,9.6,2.1c0.3,0,0.5-0.3,0.5-0.5v-0.1c-0.1-0.2-0.2-0.4-0.5-0.4
			c-3.2,0.1-6.3-0.6-9.2-2c-0.3-0.1-0.5-0.4-0.5-0.8v-2.2c0-0.3,0.2-0.6,0.5-0.7C4.7,34,4.9,33.9,5,33.9c0.1,0,0.3,0,0.4,0.1
			c1.3,0.7,2.6,1.2,4,1.5c1.4,0.4,2.8,0.5,4.2,0.5c1.6,0.1,3.3-0.2,4.8-0.7c0.3-0.1,0.4-0.4,0.3-0.7v-0.1l-0.1-0.1
			c-0.1-0.1-0.2-0.2-0.4-0.2h-0.2c-1.4,0.5-3,0.7-4.5,0.7c-1.3,0-2.7-0.2-4-0.5c-1.3-0.3-2.6-0.7-3.8-1.4C5.6,33,5.3,32.9,5.1,32.9z
			 M15.5,3.1c-2.1,0-4.1,0.3-6.1,1c-1.9,0.7-3.7,1.7-5.3,3C3.7,7.4,3.5,8,3.5,8.5c0,0.4,0.1,0.8,0.4,1.1l1,1.5
			c0.4,0.5,0.9,0.8,1.6,0.8c0.4,0,0.7-0.1,1-0.3c0.6-0.3,1.1-0.6,1.6-1c0.2-0.1,0.2-0.3,0.2-0.6v0C9.2,9.8,9,9.7,8.8,9.7
			c-0.1,0-0.2,0-0.3,0.1c-0.5,0.3-1.1,0.6-1.7,1C6.8,10.9,6.6,11,6.4,11c-0.3,0-0.5-0.2-0.7-0.4L4.7,9C4.5,8.9,4.5,8.7,4.5,8.5
			c0-0.3,0.1-0.5,0.3-0.7c1.5-1.2,3.1-2.1,4.9-2.7c1.8-0.7,3.8-1,5.7-1c3.2,0,5.8,0.8,7.6,2.3c0.3,0.2,0.5,0.5,0.7,0.7
			c0.1,0.1,0.2,0.1,0.3,0.1c0.1,0,0.2,0,0.3-0.1h0.1l0.1-0.1c0.1-0.1,0.1-0.2,0.1-0.3c0-0.1,0-0.3-0.1-0.4C24.3,6.2,24,6,23.7,5.8
			C21.8,4,19,3.1,15.5,3.1z M6.1,40.4L6.1,40.4c-0.1,0.2,0,0.3,0,0.5c0.1,0.1,0.2,0.2,0.3,0.2c2.4,0.7,4.9,1.1,7.4,1.1
			c0.3,0,0.5-0.3,0.5-0.5v-0.1c-0.1-0.2-0.2-0.4-0.5-0.4c-2.4,0-4.8-0.3-7.1-1c-0.1,0-0.1-0.1-0.2-0.1C6.4,40.1,6.3,40.2,6.1,40.4
			L6.1,40.4z M8.2,3.8L8.2,3.8C8.3,3.9,8.4,4,8.6,4h0.2l0.5-0.2c0.6-0.2,1.2-0.4,1.8-0.5c0.2-0.1,0.3-0.3,0.4-0.5V2.7
			c-0.1-0.2-0.3-0.3-0.5-0.3h-0.1C10.2,2.5,9.6,2.7,9,2.9L8.4,3.1C8.3,3.1,8.2,3.2,8.1,3.3c-0.1,0.1-0.1,0.3,0,0.4L8.2,3.8z
			 M10.1,18.4c-1,0-1.9,0.8-1.9,1.9v2.1c0,1,0.9,1.9,1.9,1.9h3.6c1.4,0,2.8,0.1,4.2,0.5h0.1c0.2,0,0.3-0.1,0.4-0.2h0.1v-0.2
			c0.1-0.1,0-0.3-0.1-0.3c-0.1-0.1-0.1-0.2-0.3-0.3c-1.4-0.3-2.9-0.5-4.4-0.5h-3.6c-0.5,0-0.9-0.4-0.9-0.9v-2.1
			c0-0.5,0.4-0.9,0.9-0.9h3.6c2.1,0.1,4.2-0.5,5.9-1.8c1.4-1.1,2.2-2.8,2.1-4.5c0-0.2,0-0.4-0.1-0.6c0-0.3-0.2-0.5-0.5-0.5
			c0,0,0,0-0.1,0h-0.1L21,12c-0.2,0-0.4,0.2-0.3,0.4V13c0.1,1.5-0.5,2.9-1.7,3.8c-1.5,1.1-3.4,1.7-5.3,1.6H10.1z M15.5,12
			c-1,0-1.9,0.1-2.9,0.4c-1.2,0.4-2.3,1.1-3.4,1.8c-0.1,0-0.1,0.1-0.2,0.1c-0.2,0.1-0.3,0.4-0.2,0.6c0.1,0.2,0.2,0.3,0.4,0.3h0.1
			c0.1,0,0.4-0.1,0.6-0.1h3.6c1.1,0.1,2.3-0.2,3.3-0.8c0.4-0.3,0.6-0.8,0.5-1.4c0-0.1,0-0.2-0.1-0.3C17,12.2,16.3,11.9,15.5,12z
			 M10.7,10.9L10.7,10.9c0.1,0.1,0.3,0.2,0.4,0.2c0.1,0,0.1,0,0.2-0.1c0.3-0.1,0.5-0.2,0.8-0.3c1.1-0.4,2.3-0.6,3.4-0.5
			c0.9-0.1,1.7,0.1,2.5,0.5c0.1,0,0.1,0.1,0.2,0.1c0.1,0,0.2-0.1,0.3-0.1c0.1,0,0.1-0.1,0.1-0.1c0.1-0.3,0.1-0.6-0.2-0.7
			c-0.9-0.4-1.9-0.7-2.9-0.6c-1.3,0-2.6,0.2-3.8,0.6c-0.3,0.1-0.6,0.2-0.8,0.3c-0.1,0.1-0.2,0.1-0.3,0.3c-0.1,0.1-0.1,0.3,0,0.4
			L10.7,10.9z M11.2,33.9c0,0.1,0,0.3,0.1,0.4c0.1,0.1,0.2,0.1,0.3,0.2c0.7,0.1,1.5,0.1,2.1,0.1h0.4c0.3,0,0.5-0.2,0.5-0.5
			c0,0,0,0,0-0.1V34c-0.1-0.2-0.2-0.3-0.4-0.3h-0.4c-0.7,0-1.3-0.1-2-0.2h-0.1C11.4,33.5,11.3,33.6,11.2,33.9L11.2,33.9z M15.5,2.8
			c0.9,0,1.8,0.1,2.6,0.1L18.2,3c0.2,0,0.3-0.1,0.5-0.3V2.7l0.1-0.1c0-0.1,0-0.3-0.1-0.4c-0.1-0.1-0.2-0.2-0.3-0.2
			c-0.9-0.1-1.8-0.2-2.7-0.2c-0.8,0-1.6,0.1-2.3,0.1c-0.3,0.1-0.5,0.3-0.5,0.6l0.1,0.1l0.1,0.1c0.1,0.1,0.2,0.2,0.4,0.3
			C14.1,2.8,14.8,2.8,15.5,2.8z M13.3,17c-0.3,0.1-0.4,0.4-0.4,0.6c0,0.2,0.2,0.3,0.4,0.4h0.4c0.7,0,1.4-0.1,2.2-0.2
			c0.1,0,0.3-0.1,0.3-0.2s0.1-0.3,0.1-0.4v-0.1c-0.1-0.2-0.3-0.3-0.5-0.3h-0.1C15,17,14.3,17,13.7,17L13.3,17z M20.9,29.6
			c0.2,0,0.3-0.1,0.4-0.2c0.1-0.1,0.1-0.2,0.1-0.3c0-1.2-0.6-2.3-1.6-3c-1.3-0.8-2.8-1.2-4.4-1.3c-0.3,0-0.5,0.1-0.5,0.4
			c0,0,0,0,0,0.1v0.1c0,0.2,0.2,0.4,0.4,0.5c1.4,0,2.7,0.4,3.8,1.1c0.7,0.5,1.2,1.3,1.1,2.1C20.4,29.3,20.6,29.6,20.9,29.6
			L20.9,29.6z M23.3,19.6c-0.1,0-0.2,0-0.3,0.1c-0.3,0.3-0.7,0.6-1.1,0.8c-0.2,0.1-0.3,0.3-0.3,0.5c0,0.2,0.2,0.3,0.3,0.4
			c1,0.4,1.9,1,2.6,1.8c1.6,1.6,2.4,3.8,2.3,6.1c0.2,3-1.2,6-3.5,7.9c-2.1,1.6-4.6,2.5-7.3,2.6c-0.2,0.1-0.4,0.2-0.4,0.5v0.1
			c0,0.3,0.3,0.5,0.5,0.5c2.8-0.2,5.6-1.2,7.9-2.9c2.6-2.1,4-5.3,3.8-8.6c0.1-2.5-0.8-5-2.6-6.8c-0.6-0.6-1.4-1.1-2.1-1.6
			c0.2-0.1,0.4-0.2,0.5-0.4c0.1-0.1,0.2-0.2,0.2-0.3c0-0.1-0.1-0.3-0.1-0.4l-0.1-0.1l-0.1-0.1C23.5,19.6,23.4,19.6,23.3,19.6
			L23.3,19.6z M16,33.9l0.1,0.1c0,0.2,0.2,0.4,0.5,0.4h0.1c1.1-0.2,2.2-0.6,3.1-1.3c0.5-0.4,0.9-0.9,1.2-1.5
			c0.1-0.3,0.1-0.6-0.2-0.6l-0.1-0.1h-0.2c-0.2,0-0.3,0.1-0.5,0.3c-0.2,0.5-0.5,0.9-0.8,1.2c-0.8,0.5-1.8,0.9-2.7,1
			C16.2,33.4,16.1,33.6,16,33.9L16,33.9z M17.6,16.6L17.6,16.6c0.2,0.2,0.3,0.3,0.5,0.3l0.3-0.1c0.1-0.1,0.3-0.3,0.5-0.3
			c1-0.9,1.6-2.2,1.6-3.5c0-0.3,0-0.7-0.1-1c-0.1-0.2-0.3-0.4-0.5-0.4h-0.1l-0.1,0.1c-0.2,0.1-0.3,0.3-0.3,0.5
			c0.1,0.3,0.1,0.5,0.1,0.8c0.1,1-0.4,2.1-1.2,2.7c-0.1,0.1-0.3,0.1-0.4,0.3C17.6,16.1,17.5,16.4,17.6,16.6L17.6,16.6z M20.1,3
			c0,0.2,0.1,0.4,0.3,0.5c1.3,0.4,2.5,1.1,3.6,2c0.7,0.6,1.4,1.4,1.9,2.2c0.1,0.1,0.2,0.2,0.4,0.2h0.2l0.1-0.1
			c0.2-0.1,0.3-0.4,0.2-0.6c0,0,0,0,0,0c-0.5-0.9-1.2-1.7-2.1-2.4c-1.1-1-2.5-1.7-3.9-2.2h-0.1C20.4,2.6,20.2,2.7,20.1,3L20.1,3z
			 M26.7,35.8c-0.2,0-0.3,0.1-0.4,0.2c-0.6,0.8-1.3,1.5-2,2.2c-1.1,0.8-2.3,1.5-3.6,2c-0.2,0.1-0.3,0.3-0.3,0.5v0.1
			c0.1,0.2,0.3,0.3,0.5,0.3c0,0,0.1,0,0.1-0.1c1.4-0.5,2.7-1.2,3.8-2.1c0.8-0.7,1.6-1.5,2.2-2.3c0.1-0.1,0.1-0.2,0.1-0.4
			c-0.1-0.1-0.1-0.2-0.3-0.3v-0.1L26.7,35.8L26.7,35.8z M27.9,24.1c-0.1,0-0.2,0-0.3,0.1h-0.1l-0.1,0.1c-0.2,0.2-0.2,0.4-0.1,0.6
			c0.3,0.7,0.5,1.4,0.6,2.2c0.1,0.2,0.3,0.4,0.5,0.4h0.1c0.3-0.1,0.4-0.3,0.4-0.6c-0.1-0.8-0.4-1.7-0.7-2.5
			C28.2,24.2,28.1,24.1,27.9,24.1L27.9,24.1z M27.7,34.7h0.2c0.2,0,0.4-0.1,0.5-0.3c0.6-1.6,0.9-3.2,0.9-4.9c0.1-0.1,0-0.3-0.1-0.4
			c-0.1-0.1-0.2-0.1-0.3-0.1h-0.1c-0.3,0-0.4,0.3-0.5,0.5c0,1.6-0.3,3.1-0.9,4.6C27.3,34.2,27.4,34.5,27.7,34.7L27.7,34.7z"/>
		
			<linearGradient id="SVGID_2_" gradientUnits="userSpaceOnUse" x1="39.1123" y1="37.0496" x2="58.6123" y2="3.5496" gradientTransform="matrix(1 0 0 -1 0 43.8583)">
			<stop  offset="0" style="stop-color:#E8FFE6"/>
			<stop  offset="9.000000e-02" style="stop-color:#C7F0D3"/>
			<stop  offset="0.26" style="stop-color:#90D7B3"/>
			<stop  offset="0.38" style="stop-color:#6EC79F"/>
			<stop  offset="0.45" style="stop-color:#61C198"/>
			<stop  offset="0.49" style="stop-color:#5AC398"/>
			<stop  offset="0.62" style="stop-color:#47CA96"/>
			<stop  offset="0.71" style="stop-color:#40CC96"/>
			<stop  offset="0.72" style="stop-color:#3FCA95"/>
			<stop  offset="0.81" style="stop-color:#31B684"/>
			<stop  offset="0.91" style="stop-color:#29AA79"/>
			<stop  offset="1" style="stop-color:#26A676"/>
		</linearGradient>
		<path class="st1" d="M47.9,43.9c-4.9,0.2-9.6-2.4-12.1-6.6c-2.3-3.7-3.4-8.8-3.4-15.4s1.1-11.8,3.3-15.4C38.4,2.1,42.5,0,47.9,0
			c5-0.2,9.6,2.4,12.2,6.6c2.3,3.6,3.5,8.8,3.5,15.3c0,6.8-1.1,11.9-3.4,15.5C57.4,41.8,53.3,43.9,47.9,43.9z M47.9,0.3
			C43.1,0.1,38.5,2.5,36,6.7c-2.2,3.5-3.3,8.5-3.3,15.2s1.1,11.6,3.4,15.2c2.5,4.1,7,6.6,11.8,6.5c5.3,0,9.3-2.2,12-6.4
			c2.3-3.6,3.4-8.6,3.4-15.3c0-6.4-1.2-11.5-3.5-15.1C57.3,2.7,52.8,0.2,47.9,0.3z M47.9,42.6c-4.4,0.1-8.6-2.2-10.9-6
			c-2.2-3.5-3.2-8.3-3.2-14.7s1-11.3,3.2-14.7c2.4-3.9,6.1-5.8,11-5.8c4.5-0.2,8.7,2.1,11,6c2.2,3.4,3.3,8.3,3.3,14.6
			c0,6.6-1,11.4-3.2,14.8C56.5,40.6,52.8,42.6,47.9,42.6z M34.6,19c-0.2,0-0.4,0.2-0.5,0.4c0,0,0,0,0,0c-0.1,0.8-0.1,1.6-0.1,2.5
			c0,0.3,0.2,0.5,0.5,0.5h0.1c0.2-0.1,0.4-0.3,0.4-0.5c0-0.8,0-1.6,0.1-2.4c0-0.2-0.1-0.4-0.3-0.5L34.6,19z M35.6,11.7
			c-0.2,0-0.4,0.2-0.5,0.4c-0.4,1.6-0.7,3.2-0.9,4.9c0,0.3,0.2,0.5,0.5,0.6c0.3,0,0.5-0.2,0.6-0.5c0.1-1.6,0.4-3.2,0.8-4.7
			c0-0.1,0-0.3-0.1-0.4c-0.1-0.1-0.2-0.2-0.3-0.3L35.6,11.7z M36.3,16.8L36.3,16.8c-0.3,0-0.5,0.2-0.6,0.5c-0.1,1.4-0.2,3-0.2,4.7
			c0,6,1,10.5,3,13.7c1.9,3.3,5.6,5.3,9.4,5.2c3.9,0.2,7.6-1.8,9.6-5.1l0.1-0.1c0.1-0.2,0.1-0.5-0.1-0.7h-0.1
			c-0.1-0.1-0.1-0.1-0.2-0.1c-0.2,0-0.3,0.1-0.4,0.3l-0.1,0.1c-1.9,3-5.2,4.8-8.8,4.5c-3.5,0.1-6.8-1.7-8.6-4.7
			c-1.9-3-2.8-7.3-2.8-13.2c0-1.6,0.1-3.2,0.2-4.5c0-0.2-0.1-0.4-0.3-0.5L36.3,16.8z M36.4,10.4c0.2,0,0.4-0.1,0.5-0.3
			c0.3-0.7,0.7-1.5,1.1-2.2c0.8-1.3,1.9-2.4,3.1-3.3c0.2-0.1,0.3-0.4,0.2-0.6l-0.1-0.1c-0.1-0.1-0.2-0.2-0.3-0.2
			c-0.1,0-0.2,0-0.3,0.1c-1.4,1-2.5,2.2-3.4,3.6c-0.5,0.7-0.9,1.5-1.2,2.3c-0.1,0.3,0.1,0.6,0.3,0.7L36.4,10.4z M48.1,42.2
			c0.8,0,1.7-0.1,2.5-0.2c0.3,0,0.4-0.3,0.4-0.6c0,0,0,0,0,0v-0.1l0-0.1c-0.1-0.2-0.3-0.3-0.5-0.3h-0.1c-0.8,0.2-1.6,0.2-2.3,0.3H48
			c-2.4,0-4.7-0.7-6.7-2c-0.1-0.1-0.2-0.1-0.3-0.1c-0.2,0-0.3,0.1-0.5,0.2c-0.1,0.1-0.1,0.3-0.1,0.4c0,0.1,0.1,0.3,0.2,0.3
			c2.1,1.5,4.6,2.2,7.2,2.2L48.1,42.2z M47.9,7.9c-2.3-0.1-4.5,1.2-5.4,3.3c-1.2,2.4-1.8,6-1.8,10.7c0,4.9,0.7,8.6,1.9,10.9
			c0.3,0.5,0.6,0.9,1,1.4c0.1,0.1,0.2,0.2,0.4,0.2c0.1,0,0.2-0.1,0.3-0.1l0.1-0.1v-0.1c0.1-0.2,0.1-0.4,0-0.6
			c-0.3-0.4-0.6-0.8-0.8-1.2c-1.2-2.2-1.8-5.7-1.8-10.4c0-4.6,0.5-8,1.7-10.2c0.8-1.8,2.5-2.9,4.5-2.8c1.9-0.1,3.8,1,4.5,2.8
			c1.1,2.2,1.7,5.7,1.7,10.2c0,2.2-0.1,4.4-0.5,6.6c0,0.2,0.1,0.4,0.3,0.5l0.1,0.1h0.1c0.2,0,0.5-0.1,0.5-0.4
			c0.4-2.2,0.6-4.5,0.6-6.8c0-4.7-0.7-8.3-1.9-10.7C52.4,9.1,50.2,7.8,47.9,7.9z M59.9,21.6c0.3,0,0.5-0.2,0.5-0.5l0,0
			c-0.1-5.5-1.1-9.8-3-12.8c-2-3.3-5.7-5.3-9.6-5.2c-1.9,0-3.8,0.4-5.5,1.2C42.2,4.5,42,4.8,42.1,5c0,0,0,0,0,0l0.1,0.1v0.1
			c0.1,0.1,0.2,0.2,0.4,0.2l0.3-0.1c1.5-0.8,3.3-1.2,5-1.1c3.5-0.1,6.8,1.7,8.7,4.7c1.8,2.9,2.8,7,2.9,12.3c0,0.2,0.2,0.4,0.4,0.5
			L59.9,21.6z M47.9,9.3c-1.8-0.1-3.5,0.9-4.2,2.5c-0.4,0.8-0.7,1.7-0.9,2.7c-0.1,0.1,0,0.3,0.1,0.4c0.1,0.1,0.1,0.2,0.3,0.3h0.1
			c0.3,0,0.5-0.1,0.6-0.4c0.2-0.9,0.5-1.7,0.8-2.5c0.5-1.3,1.9-2.1,3.2-1.9c0.2,0,0.4-0.2,0.5-0.4h0.1V9.8
			C48.4,9.5,48.2,9.3,47.9,9.3z M47.9,10.7c-1.3-0.1-2.4,0.6-2.9,1.7c-1,2-1.5,5.2-1.5,9.4s0.5,7.7,1.5,9.5c0.5,1.2,1.6,1.9,2.9,1.8
			c1.3,0.1,2.5-0.6,2.9-1.8c1-2,1.6-5.3,1.6-9.6s-0.5-7.4-1.6-9.4C50.3,11.3,49.1,10.6,47.9,10.7z M47.9,32.2
			c-0.9,0.1-1.7-0.4-2-1.2c-0.9-1.7-1.4-4.9-1.4-9.1s0.5-7.1,1.4-9c0.3-0.9,1.1-1.4,2-1.2c0.9-0.1,1.8,0.4,2.1,1.3
			c0.9,1.9,1.4,4.9,1.4,9S50.9,29.1,50,31C49.7,31.9,48.8,32.4,47.9,32.2z M47.9,12.1c-0.7-0.1-1.4,0.3-1.7,1
			c-0.6,1.2-1.4,3.8-1.4,8.8c0,4,0.5,7.3,1.4,8.9c0.3,0.7,1,1.1,1.7,1c1,0,1.3-0.2,1.7-1c0.9-1.8,1.4-4.9,1.4-8.9
			c0-5-0.8-7.5-1.4-8.8C49.4,12.4,48.6,11.9,47.9,12.1z M45.1,33.1c-0.2,0.2-0.1,0.6,0.1,0.7c0.8,0.5,1.7,0.8,2.6,0.8
			c0.3,0,0.5-0.2,0.5-0.5v-0.1L48.3,34c-0.1-0.2-0.2-0.4-0.5-0.4c-0.7,0-1.4-0.2-2-0.6c-0.1,0-0.2-0.1-0.3-0.1c-0.1,0-0.3,0-0.3,0.1
			L45.1,33.1z M49.8,33.9c0.1,0.1,0.2,0.2,0.4,0.2c0.1,0,0.2,0,0.3-0.1c0.7-0.5,1.3-1.2,1.6-2c0.4-0.8,0.8-1.7,1-2.5
			c0-0.3-0.1-0.5-0.4-0.6h-0.1c-0.2,0-0.5,0.1-0.5,0.3c-0.2,0.8-0.5,1.6-0.8,2.3c-0.3,0.6-0.7,1.2-1.3,1.6c-0.2,0.1-0.3,0.3-0.2,0.6
			L49.8,33.9z M53,27.5c0.3,0,0.5-0.2,0.5-0.5c0.2-1.7,0.3-3.4,0.3-5.1c0-0.8-0.1-1.6-0.1-2.3c0-0.3-0.3-0.4-0.5-0.5h-0.2
			c-0.2,0.1-0.4,0.3-0.4,0.5c0.1,0.7,0.1,1.5,0.1,2.2c0,1.7-0.1,3.3-0.3,5c0,0.2,0.1,0.5,0.3,0.6H53z M57.7,8.1
			c0.4,0.6,0.8,1.3,1.1,2c0.1,0.2,0.2,0.3,0.5,0.3h0.2v-0.1c0.2-0.1,0.4-0.3,0.3-0.6c0,0,0-0.1,0-0.1c-0.3-0.8-0.7-1.5-1.1-2.2
			c0,0-0.3-0.5-0.7-0.3c-0.5,0.3-0.3,0.7-0.3,0.7L57.7,8.1z M60,11.8L60,11.8l-0.2,0.1c-0.2,0.1-0.2,0.3-0.1,0.5
			c0.4,1.5,0.7,3.1,0.9,4.7c0,0.3,0.3,0.5,0.5,0.5c0.3-0.1,0.5-0.3,0.5-0.6c-0.2-1.7-0.5-3.3-1-4.9C60.5,11.9,60.3,11.8,60,11.8
			L60,11.8z M61.1,27.3c0.3,0,0.5-0.2,0.5-0.5c0.1-1.5,0.2-3.1,0.2-4.9c0-0.9,0-1.7-0.1-2.5c0-0.2-0.2-0.5-0.4-0.5c0,0,0,0,0,0h-0.1
			L61.1,19c-0.2,0-0.3,0.3-0.3,0.5c0,0.9,0.1,1.6,0.1,2.4c0,1.6-0.1,3.3-0.3,4.9c0,0.2,0.1,0.4,0.3,0.5H61.1z"/>
	</g>
</g>
</svg>
