<?xml version="1.0" encoding="utf-8"?>
<!-- Generator: Adobe Illustrator 22.0.1, SVG Export Plug-In . SVG Version: 6.00 Build 0)  -->
<svg version="1.1" id="Lager_1" xmlns="http://www.w3.org/2000/svg" xmlns:xlink="http://www.w3.org/1999/xlink" x="0px" y="0px"
	 viewBox="0 0 68 48.4" style="enable-background:new 0 0 68 48.4;" xml:space="preserve">
<style type="text/css">
	.st0{fill:url(#SVGID_1_);}
	.st1{fill:url(#SVGID_2_);}
</style>
<g>
	<linearGradient id="SVGID_1_" gradientUnits="userSpaceOnUse" x1="37.5128" y1="58.3956" x2="4.1795" y2="5.0623">
		<stop  offset="0" style="stop-color:#DD4BDD"/>
		<stop  offset="0.5908" style="stop-color:#FBAE17"/>
		<stop  offset="1" style="stop-color:#FB5717"/>
	</linearGradient>
	<path class="st0" d="M16,46c-4.2,0-7.9-0.8-11.1-2.4c-1.7-0.8-2.8-2.6-2.8-4.5v-2.3c0-1.8,1-3.4,2.5-4.3c0.8-0.5,1.7-0.7,2.6-0.7
		c0.8,0,1.6,0.2,2.3,0.6c0.8,0.5,1.9,0.8,3.1,1.1c1.2,0.3,2.3,0.4,3.3,0.4c2.9,0,4-0.6,4.4-0.8c0.3-0.3,0.6-0.7,0.6-1.8
		c0-0.3,0-0.5-0.1-0.6l-0.2-0.2c-0.9-0.6-2.5-0.9-4.7-0.9h-3.6c-2.8,0-5-2.3-5-5.1v-2.1c0-1.8,0.9-3.4,2.4-4.4
		c0.2-0.1,0.3-0.3,0.2-0.6c-0.1-0.2-0.2-0.3-0.5-0.3H9.3l-0.6,0.1c-1.6,0-3.1-0.8-4.1-2.1l-1.1-1.5c-1.6-2.1-1.2-5.1,0.8-6.9
		c1.8-1.4,3.8-2.6,6.2-3.4c2.3-0.8,4.7-1.2,7.1-1.2c4.3,0,7.7,1.2,10.3,3.4c2.8,2.4,4.2,5.8,4.2,9.9c0,2.6-0.6,4.9-2,7
		c-0.1,0.2-0.1,0.5,0.1,0.6c2,2.3,3,5.1,3,8.4c0,4.7-1.7,8.5-5.1,11.1C25.2,44.8,21.1,46,16,46z M7.3,32.3c-0.8,0-1.7,0.2-2.4,0.7
		c-1.4,0.8-2.3,2.4-2.3,4v2.3c0,1.8,1,3.4,2.6,4.2c3.1,1.6,6.8,2.3,10.9,2.3c5,0,9-1.2,12-3.6c3.2-2.6,4.9-6.2,4.9-10.8
		c0-3.4-1.1-6.4-3.3-8.6c1.5-2.1,2.3-4.5,2.3-7.3c0-4-1.4-7.2-4.1-9.6c-2.5-2.1-5.9-3.2-10.1-3.2c-2.3,0-4.7,0.4-7,1.2
		C8.4,4.5,6.3,5.6,4.6,7c-1.9,1.6-2.2,4.4-0.8,6.3l1.1,1.5c0.8,1.2,2.3,1.9,3.8,1.9c0.9,0,1.8-0.3,2.6-0.8c1.3-0.9,2.5-1.5,3.4-1.8
		c0.8-0.3,1.9-0.5,3-0.5c1,0,1.6,0.2,2.1,0.6c0.2,0.1,0.3,0.3,0.3,0.8c0,0.8-0.2,1.2-0.7,1.6c-0.7,0.6-1.9,0.9-3.5,0.9h-3.6
		c-2.5,0-4.7,2.1-4.7,4.7v2.1c0,2.6,2.1,4.7,4.7,4.7h3.6c3.1,0,4.4,0.6,4.9,0.9c0.4,0.3,0.5,0.5,0.5,1.2c0,1.3-0.4,1.8-0.8,2.1
		c-0.5,0.4-1.6,1-4.5,1c-1,0-2.1-0.1-3.3-0.4c-1.2-0.3-2.3-0.7-3.2-1.2C8.7,32.5,8,32.3,7.3,32.3z M16,44.7c-4,0-7.4-0.8-10.4-2.3
		c-1.3-0.7-2-1.9-2-3.2v-2.3c0-1.2,0.6-2.5,1.8-3.1c0.5-0.3,1.2-0.5,1.9-0.5c0.6,0,1.2,0.1,1.7,0.5c1,0.5,2.1,0.9,3.4,1.2
		c1.3,0.3,2.5,0.5,3.6,0.5c3.3,0,4.6-0.8,5.2-1.2c0.6-0.5,1.2-1.1,1.2-2.9c0-1.1-0.4-1.6-1-2c-0.6-0.4-2.1-1.1-5.5-1.1h-3.6
		c-2,0-3.6-1.6-3.6-3.6v-2.1c0-2,1.6-3.6,3.6-3.6h3.6c1.8,0,3.3-0.4,4.2-1.2c0.7-0.6,1-1.3,1-2.4c0-0.9-0.3-1.3-0.7-1.6
		c-0.6-0.5-1.5-0.8-2.7-0.8c-1.2,0-2.3,0.1-3.3,0.5c-1,0.4-2.3,1-3.7,1.9c-0.6,0.4-1.3,0.6-2,0.6c-1.2,0-2.3-0.5-2.9-1.5l-1.1-1.5
		c-1.2-1.6-0.9-3.7,0.6-4.9C6.9,6.5,8.8,5.4,11,4.6c2.1-0.8,4.4-1.2,6.6-1.2c4,0,7.1,1,9.4,3.1c2.5,2.1,3.8,5.1,3.8,8.8
		c0,2.7-0.8,5.1-2.4,7c-0.1,0.2-0.1,0.5,0.1,0.7l0.2,0.1c2.1,2.1,3.1,4.8,3.1,8.1c0,4.2-1.5,7.6-4.5,10C24.6,43.5,20.8,44.7,16,44.7
		z M7.3,35c-0.4,0-0.7,0.1-1,0.3c-0.6,0.3-0.9,0.9-0.9,1.6v2.3c0,0.7,0.4,1.4,1,1.7c2.7,1.4,6,2.1,9.6,2.1c0.3,0,0.5-0.3,0.5-0.5
		v-0.1c-0.1-0.2-0.3-0.4-0.5-0.4c-3.5,0-6.6-0.6-9.2-2c-0.3-0.1-0.5-0.5-0.5-0.8v-2.3c0-0.3,0.2-0.6,0.5-0.7C6.9,36.1,7.1,36,7.3,36
		c0.1,0,0.3,0,0.4,0.1c1.2,0.6,2.5,1.2,4,1.5c1.5,0.4,2.9,0.5,4.2,0.5c1.9,0,3.5-0.2,4.8-0.7c0.3-0.1,0.4-0.4,0.3-0.6v-0.1L21,36.7
		c-0.1-0.1-0.3-0.2-0.4-0.2h-0.2c-1.2,0.5-2.7,0.7-4.5,0.7c-1.2,0-2.5-0.2-4-0.5c-1.4-0.3-2.7-0.8-3.8-1.4C7.8,35.1,7.6,35,7.3,35z
		 M17.7,5.2c-2,0-4.1,0.4-6,1C9.6,7,7.8,8,6.3,9.2C6,9.5,5.7,10,5.7,10.6c0,0.4,0.1,0.8,0.4,1.1l1,1.5c0.4,0.5,1,0.8,1.6,0.8
		c0.4,0,0.7-0.1,1-0.3c0.6-0.3,1.1-0.6,1.6-1c0.2-0.1,0.3-0.3,0.2-0.6V12c-0.1-0.2-0.3-0.3-0.5-0.3c-0.1,0-0.2,0-0.3,0.1
		c-0.5,0.3-1.1,0.6-1.7,1C9,13,8.9,13,8.7,13c-0.3,0-0.6-0.2-0.7-0.4l-1.1-1.5c-0.1-0.1-0.2-0.3-0.2-0.5c0-0.3,0.1-0.5,0.3-0.7
		c1.4-1.2,3-2.1,4.9-2.7c1.9-0.6,3.8-1,5.7-1c3.2,0,5.8,0.8,7.6,2.3c0.3,0.3,0.5,0.5,0.7,0.7c0.1,0.1,0.2,0.1,0.3,0.1
		c0.1,0,0.2,0,0.3-0.1h0.1l0.1-0.1c0.1-0.1,0.1-0.2,0.1-0.3c0-0.1,0-0.3-0.1-0.4c-0.3-0.3-0.5-0.5-0.8-0.7C24,6.1,21.2,5.2,17.7,5.2
		z M8.3,42.5L8.3,42.5c-0.1,0.2,0,0.3,0,0.5c0.1,0.1,0.2,0.2,0.3,0.2c2.3,0.7,4.7,1.1,7.4,1.1c0.3,0,0.5-0.3,0.5-0.5v-0.1
		c-0.1-0.2-0.3-0.4-0.5-0.4c-2.6,0-4.9-0.3-7.1-1c-0.1-0.1-0.1-0.1-0.2-0.1C8.6,42.2,8.4,42.3,8.3,42.5L8.3,42.5z M10.4,5.9
		L10.4,5.9c0.1,0.1,0.3,0.2,0.4,0.2c0.1,0,0.1,0,0.2,0l0.5-0.2c0.5-0.2,1.2-0.4,1.8-0.5c0.2-0.1,0.3-0.3,0.4-0.5V4.8
		c-0.1-0.2-0.3-0.3-0.5-0.3H13c-0.6,0.1-1.2,0.3-1.8,0.5l-0.6,0.2c-0.1,0.1-0.2,0.1-0.3,0.3c-0.1,0.1-0.1,0.3,0,0.4L10.4,5.9z
		 M12.3,20.5c-1,0-1.9,0.8-1.9,1.9v2.1c0,1,0.8,1.9,1.9,1.9h3.6c1.6,0,3,0.1,4.2,0.5h0.1c0.1,0,0.3-0.1,0.4-0.2h0.1v-0.2
		c0.1-0.1,0-0.3-0.1-0.3c-0.1-0.1-0.1-0.2-0.3-0.3c-1.2-0.3-2.7-0.5-4.4-0.5h-3.6c-0.5,0-0.9-0.4-0.9-0.9v-2.1
		c0-0.5,0.5-0.9,0.9-0.9h3.6c2.5,0,4.5-0.6,5.9-1.8c1.4-1.1,2.1-2.6,2.1-4.6c0-0.3,0-0.5-0.1-0.6c0-0.3-0.2-0.5-0.5-0.5h-0.1
		l-0.1,0.1c-0.3,0.1-0.3,0.3-0.3,0.5v0.6c0,1.6-0.5,2.9-1.7,3.8c-1.2,1-3.1,1.6-5.3,1.6H12.3z M17.7,14.1c-1.1,0-2,0.1-2.9,0.4
		c-1,0.3-2.1,0.9-3.4,1.8c-0.1,0-0.1,0.1-0.2,0.1c-0.2,0.1-0.3,0.4-0.2,0.6c0.1,0.2,0.3,0.3,0.5,0.3h0.1c0.1,0,0.4-0.1,0.6-0.1h3.6
		c1.9,0,2.9-0.5,3.3-0.8c0.3-0.3,0.5-0.6,0.5-1.4c0-0.1,0-0.2-0.1-0.3C19.2,14.2,18.4,14.1,17.7,14.1z M12.9,13L12.9,13
		c0.2,0.2,0.3,0.2,0.4,0.2c0.1,0,0.1,0,0.2-0.1c0.3-0.1,0.5-0.2,0.8-0.3c1-0.4,2.1-0.5,3.4-0.5c1,0,1.8,0.1,2.5,0.5
		c0.1,0,0.1,0.1,0.2,0.1c0.1,0,0.3-0.1,0.3-0.1c0.1,0,0.1-0.1,0.1-0.1c0.1-0.3,0.1-0.6-0.2-0.7c-0.8-0.4-1.8-0.6-2.9-0.6
		c-1.4,0-2.7,0.2-3.8,0.6c-0.3,0.1-0.6,0.2-0.8,0.3c-0.1,0.1-0.2,0.1-0.3,0.3s-0.1,0.3,0,0.4L12.9,13z M13.4,36
		c-0.1,0.1,0,0.3,0.1,0.4c0.1,0.1,0.2,0.1,0.3,0.2c0.7,0.1,1.5,0.1,2.1,0.1h0.4c0.3,0,0.5-0.3,0.5-0.5v-0.1
		c-0.1-0.2-0.3-0.3-0.5-0.3c-0.1,0-0.3,0-0.4,0c-0.7,0-1.3-0.1-2-0.2h-0.1c-0.2,0-0.4,0.1-0.5,0.3V36z M17.7,4.9
		c0.9,0,1.8,0.1,2.6,0.1l0.1,0.1c0.2,0,0.3-0.1,0.5-0.3V4.8l0.1-0.1c0-0.1,0-0.3-0.1-0.4c-0.1-0.1-0.2-0.2-0.3-0.2
		c-0.8-0.1-1.8-0.2-2.7-0.2c-0.8,0-1.6,0.1-2.3,0.1C15.2,4.1,15,4.2,15,4.6l0.1,0.1l0.1,0.1C15.2,4.8,15.3,5,15.5,5
		C16.3,4.9,16.9,4.9,17.7,4.9z M15.5,19.1c-0.3,0-0.5,0.3-0.5,0.5c0,0.3,0.2,0.5,0.5,0.5h0.4c0.8,0,1.5-0.1,2.1-0.2
		c0.1,0,0.3-0.1,0.3-0.2c0.1-0.1,0.1-0.3,0.1-0.4v-0.1c-0.1-0.1-0.3-0.3-0.5-0.3h-0.1c-0.6,0.1-1.2,0.1-1.9,0.1H15.5z M23.1,31.7
		c0.1,0,0.3-0.1,0.4-0.2c0.1-0.1,0.1-0.2,0.1-0.3c-0.1-1.4-0.5-2.3-1.6-3c-1-0.7-2.5-1.1-4.4-1.3c-0.3,0-0.5,0.2-0.5,0.5v0.1
		c0,0.2,0.2,0.4,0.5,0.5c1.7,0.1,3,0.5,3.8,1.1c0.8,0.5,1.1,1.2,1.1,2.1C22.6,31.4,22.8,31.6,23.1,31.7L23.1,31.7z M25.5,21.7
		c-0.1,0-0.3,0.1-0.3,0.1c-0.3,0.3-0.7,0.6-1.1,0.8c-0.1,0.1-0.3,0.3-0.3,0.5c0.1,0.2,0.1,0.3,0.3,0.4c1,0.5,1.9,1,2.6,1.8
		c1.6,1.5,2.3,3.6,2.3,6c0,3.4-1.2,6-3.5,7.9c-1.8,1.4-4.2,2.3-7.3,2.6c-0.3,0.1-0.4,0.3-0.5,0.5v0.1c0,0.3,0.3,0.5,0.5,0.5
		c3.3-0.3,5.9-1.3,7.9-2.9c2.5-2.1,3.8-4.9,3.8-8.6c0-2.8-0.8-5.1-2.6-6.8c-0.6-0.6-1.3-1.1-2.1-1.6c0.2-0.1,0.4-0.3,0.5-0.4
		c0.1-0.1,0.2-0.2,0.2-0.3S26,22,25.9,21.9l-0.1-0.1l-0.1-0.1C25.6,21.7,25.6,21.7,25.5,21.7z M18.2,36l0.1,0.1
		c0,0.2,0.2,0.4,0.5,0.4h0.1c1.3-0.3,2.4-0.7,3.1-1.3c0.5-0.5,0.9-0.9,1.2-1.5c0.1-0.3,0.1-0.6-0.2-0.6L22.9,33h-0.1h-0.1
		c-0.2,0-0.3,0.1-0.5,0.3c-0.2,0.5-0.5,0.8-0.8,1.2c-0.6,0.5-1.6,0.8-2.7,1C18.4,35.6,18.2,35.8,18.2,36L18.2,36z M19.7,18.7
		L19.7,18.7c0.2,0.3,0.3,0.3,0.5,0.3l0.3-0.1c0.1-0.1,0.3-0.3,0.5-0.3c1-0.9,1.6-2,1.6-3.5c0-0.4-0.1-0.7-0.1-1
		c-0.1-0.3-0.3-0.4-0.5-0.4h-0.1l-0.1,0.1c-0.2,0.1-0.3,0.3-0.3,0.5c0.1,0.3,0.1,0.5,0.1,0.8c0,1.2-0.4,2.1-1.2,2.7
		c-0.1,0.1-0.3,0.1-0.4,0.3C19.7,18.2,19.7,18.5,19.7,18.7L19.7,18.7z M22.3,5.1c0,0.2,0.1,0.5,0.3,0.5c1.4,0.5,2.6,1.1,3.6,2
		c0.8,0.6,1.4,1.4,1.9,2.2c0.1,0.1,0.2,0.2,0.4,0.2h0.2l0.1-0.1C29,9.8,29,9.4,28.9,9.3c-0.5-0.9-1.2-1.8-2.1-2.4
		c-1.1-1-2.4-1.7-3.9-2.2h-0.1c-0.3,0-0.5,0.1-0.5,0.3V5.1z M28.9,37.9c-0.2,0-0.3,0.1-0.4,0.2c-0.6,0.8-1.2,1.5-2,2.1
		c-1,0.8-2.2,1.4-3.6,1.9c-0.2,0.1-0.3,0.3-0.3,0.5v0.1c0.1,0.2,0.3,0.3,0.5,0.3c0,0,0.1,0,0.1-0.1c1.5-0.5,2.7-1.2,3.8-2.1
		c0.9-0.7,1.6-1.5,2.2-2.3c0.1-0.1,0.1-0.3,0.1-0.4c-0.1-0.1-0.1-0.3-0.3-0.3v-0.1H29H28.9z M30.1,26.2c-0.1,0-0.2,0-0.3,0.1h-0.1
		l-0.1,0.1c-0.1,0.1-0.2,0.4-0.1,0.6c0.3,0.6,0.5,1.4,0.6,2.2c0.1,0.2,0.3,0.4,0.5,0.4h0.1c0.3-0.1,0.5-0.3,0.4-0.6
		c-0.1-0.8-0.4-1.7-0.7-2.5C30.4,26.3,30.3,26.2,30.1,26.2z M29.9,36.7h0.2c0.2,0,0.4-0.1,0.5-0.3c0.6-1.4,0.9-3.1,0.9-4.9
		c0.1-0.1,0-0.3-0.1-0.4C31.2,31,31.1,31,31,31h-0.1c-0.3,0.1-0.5,0.3-0.5,0.5c0,1.7-0.3,3.3-0.8,4.6C29.5,36.3,29.6,36.6,29.9,36.7
		L29.9,36.7z"/>
	<linearGradient id="SVGID_2_" gradientUnits="userSpaceOnUse" x1="62.0052" y1="43.0879" x2="28.6718" y2="-10.2454">
		<stop  offset="0" style="stop-color:#DD4BDD"/>
		<stop  offset="0.5908" style="stop-color:#FBAE17"/>
		<stop  offset="1" style="stop-color:#FB5717"/>
	</linearGradient>
	<path class="st1" d="M50.1,46c-5.2,0-9.4-2.3-12.1-6.6c-2.3-3.7-3.4-8.8-3.4-15.4c0-6.8,1.1-11.8,3.3-15.4
		c2.7-4.4,6.8-6.5,12.2-6.5c5.3,0,9.4,2.2,12.2,6.6c2.3,3.6,3.5,8.8,3.5,15.3c0,6.8-1.1,11.9-3.4,15.5C59.6,43.9,55.5,46,50.1,46z
		 M50.1,2.4c-5.3,0-9.2,2.1-11.9,6.4c-2.2,3.5-3.3,8.5-3.3,15.2c0,6.6,1.1,11.6,3.4,15.2c2.7,4.2,6.8,6.5,11.8,6.5
		c5.3,0,9.3-2.1,12-6.4c2.3-3.6,3.4-8.6,3.4-15.3c0-6.4-1.2-11.5-3.4-15.1C59.3,4.6,55.2,2.4,50.1,2.4z M50.1,44.7
		c-4.7,0-8.5-2.1-10.9-6c-2.2-3.5-3.2-8.3-3.2-14.7c0-6.5,1-11.3,3.2-14.7c2.4-3.9,6.1-5.9,11-5.9c4.8,0,8.5,2,11,6
		c2.2,3.4,3.3,8.3,3.3,14.6c0,6.6-1,11.4-3.2,14.8C58.7,42.7,55,44.7,50.1,44.7z M36.8,21.1c-0.3,0-0.5,0.2-0.5,0.5
		c-0.1,0.8-0.1,1.6-0.1,2.5c0,0.3,0.2,0.5,0.5,0.5h0.1c0.3-0.1,0.4-0.3,0.4-0.5c0-0.8,0-1.6,0.1-2.4c0-0.3-0.1-0.5-0.3-0.5H36.8z
		 M37.9,13.8c-0.2,0-0.4,0.2-0.5,0.4c-0.4,1.4-0.7,3.1-0.9,4.9c0,0.3,0.2,0.5,0.5,0.6c0.3,0,0.5-0.2,0.6-0.5
		c0.1-1.8,0.5-3.3,0.8-4.7c0-0.1,0-0.3-0.1-0.4c-0.1-0.1-0.2-0.2-0.3-0.3H37.9z M38.5,18.9h-0.1c-0.3,0.1-0.5,0.2-0.5,0.5
		c-0.1,1.4-0.2,3.1-0.2,4.7c0,6,1,10.5,3,13.7c2.1,3.4,5.3,5.2,9.4,5.2c4.2,0,7.5-1.7,9.6-5.1l0.1-0.1c0.1-0.3,0.1-0.5-0.1-0.7h-0.1
		c-0.1-0.1-0.1-0.1-0.2-0.1c-0.1,0-0.3,0.1-0.4,0.3l-0.1,0.1c-2,3.1-4.9,4.6-8.8,4.6c-3.8,0-6.6-1.6-8.6-4.7
		c-1.9-3.1-2.8-7.3-2.8-13.2c0-1.6,0.1-3.2,0.2-4.5C38.9,19.2,38.8,19,38.5,18.9L38.5,18.9z M38.6,12.5c0.3,0,0.4-0.1,0.5-0.3
		c0.3-0.7,0.6-1.4,1.1-2.1c0.8-1.4,1.9-2.5,3.1-3.3c0.2-0.1,0.3-0.4,0.2-0.6L43.5,6c-0.1-0.1-0.3-0.2-0.4-0.2s-0.2,0-0.3,0.1
		c-1.3,0.9-2.5,2.1-3.4,3.6c-0.4,0.7-0.8,1.5-1.2,2.3c-0.1,0.3,0.1,0.6,0.3,0.7H38.6z M50.3,44.3c0.9,0,1.8-0.1,2.5-0.2
		c0.3-0.1,0.5-0.3,0.4-0.6v-0.1l-0.1-0.1c-0.1-0.2-0.3-0.3-0.5-0.3h-0.1c-0.7,0.1-1.5,0.3-2.3,0.3c-0.1,0-0.1,0-0.1,0
		c-2.6,0-4.8-0.7-6.7-2c-0.1-0.1-0.2-0.1-0.3-0.1c-0.2,0-0.3,0.1-0.5,0.2c-0.1,0.1-0.1,0.3-0.1,0.4c0,0.1,0.1,0.3,0.2,0.3
		c2,1.4,4.5,2.1,7.2,2.1H50.3z M50.1,10c-2.5,0-4.2,1-5.4,3.3c-1.2,2.4-1.8,6-1.8,10.7c0,4.9,0.6,8.6,1.9,10.9c0.3,0.5,0.6,1,1,1.4
		c0.1,0.1,0.3,0.2,0.4,0.2c0.1,0,0.3-0.1,0.3-0.1l0.1-0.1v-0.1c0.1-0.2,0.1-0.4,0-0.6c-0.3-0.3-0.6-0.8-0.8-1.2
		c-1.2-2.1-1.8-5.7-1.8-10.4c0-4.5,0.5-8,1.7-10.2c1-1.9,2.3-2.8,4.5-2.8s3.6,0.9,4.6,2.8c1.1,2.2,1.7,5.7,1.7,10.2
		c0,2.5-0.1,4.8-0.5,6.6c-0.1,0.2,0.1,0.5,0.3,0.5l0.1,0.1h0.1c0.3,0,0.5-0.1,0.5-0.4c0.4-1.9,0.6-4.2,0.6-6.8
		c0-4.7-0.6-8.3-1.9-10.7C54.4,11.1,52.6,10,50.1,10z M62.1,23.7c0.3,0,0.5-0.3,0.5-0.5c-0.1-5.5-1.1-9.8-3-12.8
		c-2.2-3.4-5.4-5.2-9.6-5.2c-2.1,0-3.9,0.5-5.5,1.2c-0.3,0.1-0.4,0.5-0.3,0.6l0.1,0.1v0.1c0.1,0.1,0.3,0.2,0.4,0.2l0.3-0.1
		c1.4-0.8,3.1-1.1,5-1.1c3.8,0,6.7,1.6,8.6,4.7c1.8,2.9,2.8,7,2.9,12.3c0,0.3,0.2,0.5,0.4,0.5H62.1z M50.1,11.4
		c-2,0-3.2,0.8-4.2,2.5c-0.4,0.8-0.7,1.7-0.9,2.7C45,16.7,45,16.9,45.1,17c0.1,0.1,0.1,0.2,0.3,0.3h0.1c0.3,0,0.5-0.1,0.6-0.4
		c0.2-0.9,0.5-1.8,0.8-2.5c0.7-1.4,1.6-2,3.2-2c0.3,0,0.4-0.2,0.5-0.4h0.1v-0.1C50.6,11.7,50.3,11.4,50.1,11.4z M50.1,12.8
		c-1.5,0-2.3,0.5-2.9,1.8c-1,2-1.5,5.2-1.5,9.4c0,4.4,0.5,7.7,1.6,9.6c0.6,1.3,1.5,1.8,2.9,1.8c1.5,0,2.3-0.5,2.9-1.8
		c1-2,1.6-5.3,1.6-9.6c0-4.2-0.5-7.4-1.6-9.4C52.4,13.3,51.6,12.8,50.1,12.8z M50.1,34.3c-1,0-1.5-0.3-2-1.2
		c-0.9-1.7-1.4-4.9-1.4-9.1c0-4.1,0.5-7.1,1.4-9c0.5-1,0.9-1.2,2-1.2s1.6,0.3,2.1,1.2c0.9,1.9,1.4,4.9,1.4,9s-0.5,7.2-1.4,9.1
		C51.6,34.1,51.2,34.3,50.1,34.3z M50.1,14.2c-1,0-1.2,0.2-1.7,1C47.8,16.5,47,19,47,24c0,4,0.5,7.3,1.4,8.9c0.5,0.9,0.9,1,1.7,1
		c1,0,1.3-0.2,1.7-1c0.9-1.8,1.4-4.9,1.4-8.9c0-5-0.8-7.5-1.4-8.8C51.4,14.4,51.1,14.2,50.1,14.2z M47.3,35.3
		c-0.1,0.2-0.1,0.5,0.1,0.7c0.7,0.5,1.6,0.8,2.6,0.8c0.3,0,0.5-0.3,0.5-0.5v-0.1l-0.1-0.1c-0.1-0.2-0.3-0.4-0.5-0.4
		c-0.8,0-1.5-0.2-2-0.6c-0.1-0.1-0.2-0.1-0.3-0.1c-0.1,0-0.3,0-0.3,0.1L47.3,35.3z M52,36c0.1,0.1,0.2,0.2,0.4,0.2
		c0.1,0,0.2,0,0.3-0.1c0.6-0.4,1.2-1,1.6-2c0.4-0.6,0.7-1.6,1-2.5c0.1-0.3-0.1-0.5-0.4-0.6h-0.1c-0.2,0-0.5,0.1-0.5,0.3
		c-0.3,0.9-0.5,1.7-0.8,2.3c-0.4,0.7-0.8,1.2-1.3,1.6c-0.2,0.1-0.3,0.3-0.2,0.6L52,36z M55.2,29.6c0.3,0,0.5-0.2,0.5-0.5
		C55.9,27.6,56,26,56,24c0-0.8-0.1-1.6-0.1-2.3c-0.1-0.3-0.3-0.5-0.5-0.5h-0.1c-0.3,0.1-0.4,0.3-0.4,0.5C55,22.5,55,23.3,55,24
		c0,1.9-0.1,3.6-0.3,5c0,0.3,0.1,0.5,0.3,0.6H55.2z M59.9,10.2c0.5,0.6,0.8,1.3,1.1,2c0.1,0.2,0.3,0.3,0.5,0.3h0.2v-0.1
		c0.3-0.1,0.4-0.4,0.3-0.6c-0.3-0.8-0.7-1.6-1.1-2.2c0,0-0.3-0.5-0.7-0.3c-0.5,0.3-0.3,0.7-0.3,0.7L59.9,10.2z M62.2,13.9L62.2,13.9
		L62,14c-0.1,0.1-0.2,0.3-0.1,0.5c0.4,1.4,0.7,3,0.9,4.7c0,0.3,0.3,0.5,0.5,0.5c0.3-0.1,0.5-0.3,0.5-0.6c-0.2-1.8-0.5-3.4-1-4.9
		c0-0.2-0.2-0.3-0.5-0.3H62.2z M63.3,29.4c0.3,0,0.5-0.2,0.5-0.5c0.1-1.5,0.2-3.1,0.2-4.9c0-0.9,0-1.7-0.1-2.5
		c0-0.3-0.2-0.5-0.5-0.5h-0.1l-0.1,0.1c-0.2,0-0.3,0.3-0.3,0.5c0,0.8,0.1,1.6,0.1,2.4c0,1.8-0.1,3.4-0.3,4.9c0,0.2,0.1,0.4,0.3,0.5
		H63.3z"/>
</g>
</svg>
