<svg xmlns="http://www.w3.org/2000/svg" xmlns:xlink="http://www.w3.org/1999/xlink" viewBox="0 0 242.77 45.11"><defs><style>.cls-1{fill:url(#Namnlös_övertoning_182);}.cls-2{fill:url(#Namnlös_övertoning_181);}.cls-3{fill:url(#Namnlös_övertoning_181-2);}.cls-4{fill:url(#Namnlös_övertoning_181-3);}.cls-5{fill:url(#Namnlös_övertoning_181-4);}.cls-6{fill:url(#Namnlös_övertoning_181-5);}.cls-7{fill:url(#Namnlös_övertoning_181-6);}.cls-8{fill:url(#Namnlös_övertoning_181-7);}</style><linearGradient id="Namnlös_övertoning_182" x1="0.57" y1="7.79" x2="41.19" y2="40.36" gradientUnits="userSpaceOnUse"><stop offset="0" stop-color="#e8ffe6"/><stop offset="0.09" stop-color="#c7f0d3"/><stop offset="0.26" stop-color="#90d7b3"/><stop offset="0.38" stop-color="#6ec79f"/><stop offset="0.45" stop-color="#61c198"/><stop offset="0.56" stop-color="#68c7a1"/><stop offset="0.71" stop-color="#6ecca8"/><stop offset="0.72" stop-color="#66c8a3"/><stop offset="0.79" stop-color="#4ab98f"/><stop offset="0.86" stop-color="#36af81"/><stop offset="0.93" stop-color="#2aa879"/><stop offset="1" stop-color="#26a676"/></linearGradient><linearGradient id="Namnlös_övertoning_181" x1="47.78" y1="14.96" x2="68.42" y2="43.95" gradientUnits="userSpaceOnUse"><stop offset="0" stop-color="#e8ffe6"/><stop offset="0.09" stop-color="#c7f0d3"/><stop offset="0.26" stop-color="#90d7b3"/><stop offset="0.38" stop-color="#6ec79f"/><stop offset="0.45" stop-color="#61c198"/><stop offset="0.49" stop-color="#5ac398"/><stop offset="0.62" stop-color="#47ca96"/><stop offset="0.71" stop-color="#40cc96"/><stop offset="0.72" stop-color="#3fca95"/><stop offset="0.81" stop-color="#31b684"/><stop offset="0.91" stop-color="#29aa79"/><stop offset="1" stop-color="#26a676"/></linearGradient><linearGradient id="Namnlös_övertoning_181-2" x1="71.37" y1="4.66" x2="85.87" y2="38.16" xlink:href="#Namnlös_övertoning_181"/><linearGradient id="Namnlös_övertoning_181-3" x1="84.22" y1="6.37" x2="102.92" y2="39.28" xlink:href="#Namnlös_övertoning_181"/><linearGradient id="Namnlös_övertoning_181-4" x1="108.01" y1="11.9" x2="124.51" y2="45.4" xlink:href="#Namnlös_övertoning_181"/><linearGradient id="Namnlös_övertoning_181-5" x1="135.64" y1="12.27" x2="155.14" y2="44.27" xlink:href="#Namnlös_övertoning_181"/><linearGradient id="Namnlös_övertoning_181-6" x1="184.15" y1="7.43" x2="204.15" y2="42.43" xlink:href="#Namnlös_övertoning_181"/><linearGradient id="Namnlös_övertoning_181-7" x1="218.31" y1="7.98" x2="237.81" y2="41.48" xlink:href="#Namnlös_övertoning_181"/></defs><title>broad_logo</title><g id="Lager_2" data-name="Lager 2"><g id="Lager_1-2" data-name="Lager 1"><path class="cls-1" d="M33.22,45.11A5.07,5.07,0,0,1,28.15,40V38.35a.5.5,0,0,0-.39-.52h-.07a.57.57,0,0,0-.52.33l-1.49,3.77A5.06,5.06,0,0,1,21,45.11H19.5a5,5,0,0,1-4.68-3.18L13.26,38a.51.51,0,0,0-.52-.33h-.06a.56.56,0,0,0-.39.52V40a5.08,5.08,0,0,1-5.07,5.07H5A5.06,5.06,0,0,1,0,40V7.15A5.06,5.06,0,0,1,5,2.08H8.58a5,5,0,0,1,4.68,3.19l6.63,16.31a.44.44,0,0,0,.46.33.48.48,0,0,0,.45-.33L27.37,5.27a5,5,0,0,1,4.68-3.19h3.51a5.06,5.06,0,0,1,5,5.07V40a5.06,5.06,0,0,1-5,5.07ZM28.54,33.8V40a4.66,4.66,0,0,0,4.68,4.68h2.34A4.65,4.65,0,0,0,40.17,40V7.15a4.65,4.65,0,0,0-4.61-4.68H32.05A4.56,4.56,0,0,0,27.76,5.4L20.35,23.79,12.94,5.4A4.6,4.6,0,0,0,8.58,2.47H5A4.65,4.65,0,0,0,.39,7.15V40A4.65,4.65,0,0,0,5,44.72H7.22A4.66,4.66,0,0,0,11.9,40V33.67l3.31,8.13a4.67,4.67,0,0,0,4.29,2.92H21a4.67,4.67,0,0,0,4.29-2.92Zm4.68,10A3.69,3.69,0,0,1,29.58,40V31.2a.49.49,0,0,0-.46-.45h-.06a.44.44,0,0,0-.46.26l-4.22,10.4A3.65,3.65,0,0,1,21,43.75H19.5a3.65,3.65,0,0,1-3.38-2.34L11.9,30.88a.66.66,0,0,0-.52-.33h-.07a.5.5,0,0,0-.39.52v9a3.75,3.75,0,0,1-3.7,3.71H5A3.7,3.7,0,0,1,1.36,40V7.15A3.69,3.69,0,0,1,5,3.45H8.58A3.56,3.56,0,0,1,12,5.79l7.93,19.5a.44.44,0,0,0,.46.32.54.54,0,0,0,.45-.26L28.67,5.79a3.62,3.62,0,0,1,3.38-2.34h3.51a3.69,3.69,0,0,1,3.64,3.7V40a3.69,3.69,0,0,1-3.64,3.71ZM2.27,7.09a.48.48,0,0,0-.52.52V15a.47.47,0,0,0,.52.46A.45.45,0,0,0,2.73,15V7.61A.46.46,0,0,0,2.27,7.09Zm0,9.75a.52.52,0,0,0-.52.52v4.87a.48.48,0,0,0,.52.52.46.46,0,0,0,.46-.52V17.36A.5.5,0,0,0,2.27,16.84Zm0,7.34a.52.52,0,0,0-.52.52v2.47a.47.47,0,0,0,.52.46.45.45,0,0,0,.46-.46V24.7A.5.5,0,0,0,2.27,24.18ZM5,5.27A1.89,1.89,0,0,0,3.12,7.15V18.92a.56.56,0,0,0,.52.52.56.56,0,0,0,.52-.52V7.15A.88.88,0,0,1,5,6.24H8.58a.85.85,0,0,1,.85.59l3.77,9.42a.48.48,0,0,0,.45.33c.07,0,.13,0,.13-.07h.07a.59.59,0,0,0,.32-.26v-.39L10.34,6.44A1.84,1.84,0,0,0,8.58,5.27ZM3.64,33.09a.51.51,0,0,0-.52.52V40A1.89,1.89,0,0,0,5,41.93H7.22A1.89,1.89,0,0,0,9.1,40V23.73a.44.44,0,0,0-.45-.46.46.46,0,0,0-.52.46V40a.89.89,0,0,1-.91.91H5A.88.88,0,0,1,4.16,40V33.61A.51.51,0,0,0,3.64,33.09Zm3.19,9.75a.56.56,0,0,0,.52.52A3.31,3.31,0,0,0,10.53,40V37a.52.52,0,0,0-1,0v3a2.23,2.23,0,0,1-2.14,2.28.5.5,0,0,0-.52.45ZM10,24.25a.56.56,0,0,0-.52.52v2.4a.52.52,0,0,0,1,0v-2.4A.56.56,0,0,0,10,24.25Zm0,4.87a.56.56,0,0,0-.52.52v4.88a.52.52,0,0,0,1,0V29.64A.56.56,0,0,0,10,29.12Zm1.5-5.72a.24.24,0,0,0-.2.07.51.51,0,0,0-.26.26.44.44,0,0,0,0,.39l6.7,16.64a1.9,1.9,0,0,0,1.75,1.17H21a1.9,1.9,0,0,0,1.75-1.17l2.47-6.11a.39.39,0,0,0,0-.39c-.06-.13-.13-.26-.26-.26a.22.22,0,0,0-.19-.07.49.49,0,0,0-.46.33l-2.53,6.11A.82.82,0,0,1,21,41H19.5a.82.82,0,0,1-.78-.58L12,23.73A.48.48,0,0,0,11.51,23.4Zm2.6-10.53c-.07,0-.13.07-.2.07a.51.51,0,0,0-.26.26.45.45,0,0,0,0,.39l.91,2.27a.49.49,0,0,0,.46.33h.13l.06-.07a.46.46,0,0,0,.26-.65l-.91-2.27A.48.48,0,0,0,14.11,12.87Zm1.82,4.55a.24.24,0,0,0-.2.07.46.46,0,0,0-.26.65l1.82,4.55a.45.45,0,0,0,.46.26h.19a.47.47,0,0,0,.26-.65l-1.82-4.55A.48.48,0,0,0,15.93,17.42Zm.84,23.4c-.06.07-.19.2-.19.33a.39.39,0,0,0,0,.39,3.26,3.26,0,0,0,2.92,1.82H21a3.21,3.21,0,0,0,2.73-1.56.4.4,0,0,0,.06-.39.26.26,0,0,0-.19-.26l-.07-.07h-.26a.57.57,0,0,0-.39.2,2.17,2.17,0,0,1-1.88,1H19.5a2.23,2.23,0,0,1-2-1.24.5.5,0,0,0-.46-.32.26.26,0,0,0-.13.06Zm1.76-16.57h-.07a.54.54,0,0,0-.26.65l1.69,4.16a.48.48,0,0,0,.46.26.44.44,0,0,0,.45-.26l1.11-2.73a.58.58,0,0,0-.33-.65h-.06c0-.07-.07-.07-.13-.07a.49.49,0,0,0-.46.33l-.58,1.56-1.24-2.93a.48.48,0,0,0-.45-.32ZM19,29.19c-.13.06-.26.13-.26.26a.45.45,0,0,0,0,.39l1.17,2.92a.44.44,0,0,0,.46.33.48.48,0,0,0,.45-.33L30.62,8.39V8.06a.78.78,0,0,0-.33-.32H30.1a.5.5,0,0,0-.46.32L20.35,31.2l-.72-1.75a.42.42,0,0,0-.45-.26Zm7.15,5.07a.48.48,0,0,0-.45.32l-1.89,4.55a.58.58,0,0,0,.33.65h.19a.48.48,0,0,0,.46-.26L26.59,35a.44.44,0,0,0,0-.39.55.55,0,0,0-.26-.26A.26.26,0,0,0,26.13,34.26ZM28,29.71a.48.48,0,0,0-.45.32l-.91,2.28a.39.39,0,0,0,0,.39c.06.13.13.26.26.26A.24.24,0,0,0,27,33a.5.5,0,0,0,.46-.32l.91-2.28a.44.44,0,0,0,0-.39.55.55,0,0,0-.26-.26C28.08,29.77,28,29.71,28,29.71ZM29.64,5.2a.54.54,0,0,0-.39.26,1.79,1.79,0,0,0-.26.46L28.28,7.8a.39.39,0,0,0,0,.39.47.47,0,0,0,.26.26c.06,0,.13.07.19.07a.49.49,0,0,0,.46-.33L30,6.31c.06-.13.06-.26.13-.33A.48.48,0,0,0,30,5.4L30,5.33H29.9A.34.34,0,0,0,29.64,5.2Zm1.69,14.43V40a1.89,1.89,0,0,0,1.89,1.89.51.51,0,0,0,.52-.46.52.52,0,0,0-.52-.52.89.89,0,0,1-.91-.91V17a.5.5,0,0,0-.39-.52h-.07a.66.66,0,0,0-.52.33l-1.49,3.83a.47.47,0,0,0,.26.65h.19a.56.56,0,0,0,.46-.26Zm-.91,17a.44.44,0,0,0-.45.45v3a3.28,3.28,0,0,0,3.25,3.32h1.43a.52.52,0,0,0,0-1H33.22A2.27,2.27,0,0,1,30.94,40v-3A.46.46,0,0,0,30.42,36.6ZM32.05,4.88h3.51a1.65,1.65,0,0,1,.78.13h.13a.47.47,0,0,0,.39-.2h.06L37,4.68a.77.77,0,0,0-.07-.39A.51.51,0,0,0,36.66,4a3.28,3.28,0,0,0-1.1-.2H32.05a1.31,1.31,0,0,0-.52.07.38.38,0,0,0-.33.2c-.06.13-.13.25-.06.39v.06l.06.07a.42.42,0,0,0,.39.26h.46Zm3.12,36.59a.51.51,0,0,0,.52.46A1.91,1.91,0,0,0,37.44,40V12.74a.52.52,0,0,0-1,0V40a.9.9,0,0,1-.78.91.48.48,0,0,0-.45.39Zm1.36,1.11.07.13a.45.45,0,0,0,.39.19c.13,0,.19,0,.26-.06A3.24,3.24,0,0,0,38.81,40V38a.52.52,0,0,0-.52-.52.51.51,0,0,0-.46.52V40a2.43,2.43,0,0,1-1.1,2,.44.44,0,0,0-.2.52ZM38,5.72l-.06.07a.42.42,0,0,0-.2.58,3,3,0,0,1,.13.78v6.37a.51.51,0,0,0,.46.52.52.52,0,0,0,.52-.52V7.15a3,3,0,0,0-.2-1.1.48.48,0,0,0-.45-.33Zm.33,26.85a.51.51,0,0,0-.46.52v2.47a.44.44,0,0,0,.46.45.46.46,0,0,0,.52-.45V33.09A.52.52,0,0,0,38.29,32.57Z"/><path class="cls-2" d="M55.18,45.11a12.69,12.69,0,0,1-9-3.18,11.5,11.5,0,0,1-3.64-8.84,11.31,11.31,0,0,1,5.2-9.75A.64.64,0,0,0,48,23a.53.53,0,0,0-.26-.39,5.25,5.25,0,0,1-1.56-2l-.85-1.95A5.09,5.09,0,0,1,47.84,12,23.72,23.72,0,0,1,57.91,9.69c4.16,0,7.42,1.23,9.69,3.64S71,19.05,71,23.34V39.65a5,5,0,0,1-5,5H64.29a5.12,5.12,0,0,1-2.54-.72c-.06,0-.13-.06-.26-.06a.26.26,0,0,0-.2.06A15.44,15.44,0,0,1,55.18,45.11ZM49.2,23a7.44,7.44,0,0,0-1.23.71,10.87,10.87,0,0,0-5.07,9.43,11.09,11.09,0,0,0,3.51,8.58,12.54,12.54,0,0,0,8.77,3,15.27,15.27,0,0,0,6.38-1.3,5.17,5.17,0,0,0,2.73.85H66a4.63,4.63,0,0,0,4.61-4.62V23.34c0-4.16-1.1-7.48-3.25-9.75S61.94,10,57.91,10A24.22,24.22,0,0,0,48,12.35a4.67,4.67,0,0,0-2.28,6.11l.85,1.95A4.65,4.65,0,0,0,49.2,23Zm6,20.8a11.47,11.47,0,0,1-8.12-2.86,10.23,10.23,0,0,1-3.19-7.8,10,10,0,0,1,4.62-8.58,16.42,16.42,0,0,1,2.6-1.37.42.42,0,0,0,.32-.52.48.48,0,0,0-.45-.45h-.2a4.37,4.37,0,0,1-1.23-.2,3.52,3.52,0,0,1-2.08-2l-.85-1.89a3.68,3.68,0,0,1,1.82-4.81,23,23,0,0,1,9.49-2.21c3.71,0,6.63,1.11,8.71,3.25s3,5.14,3,9V39.65A3.63,3.63,0,0,1,66,43.29H64.29a4,4,0,0,1-2.35-.84c-.06-.13-.19-.13-.32-.13a.27.27,0,0,0-.2.06A13.77,13.77,0,0,1,55.18,43.75Zm1.63-20.09A15.65,15.65,0,0,0,49.46,26a8,8,0,0,0-3.83,7.09,8.34,8.34,0,0,0,2.66,6.5,9.73,9.73,0,0,0,6.89,2.34,12.14,12.14,0,0,0,5.47-1.17,8.77,8.77,0,0,0,1.75-1.11l.06.26a1.9,1.9,0,0,0,1.83,1.63H66a1.89,1.89,0,0,0,1.88-1.89V29.84a.52.52,0,1,0-1,0v9.81a.86.86,0,0,1-.84.85H64.29a.9.9,0,0,1-.85-.78l-.19-1.11a.49.49,0,0,0-.33-.45h-.13a.86.86,0,0,0-.39.13,9.36,9.36,0,0,1-2.21,1.56,11.2,11.2,0,0,1-5,1.1,8.92,8.92,0,0,1-6.24-2.08,7.59,7.59,0,0,1-2.27-5.78,7.15,7.15,0,0,1,3.38-6.31,14.9,14.9,0,0,1,6.82-2.08c.26,0,.39-.19.46-.45v-.07C57.33,23.86,57.13,23.73,56.81,23.66ZM47.9,40.37l-.06.06a.58.58,0,0,0,.13.72,11.25,11.25,0,0,0,7.21,2.21,14.42,14.42,0,0,0,2.41-.2.34.34,0,0,0,.32-.19.43.43,0,0,0,.07-.39v-.13a.66.66,0,0,0-.46-.26H57.4c-.72.06-1.44.13-2.22.13a10.72,10.72,0,0,1-6.63-2,.32.32,0,0,0-.26-.13c-.13,0-.19.06-.32.13Zm10-27.56a20.76,20.76,0,0,0-8.77,2.08,1.86,1.86,0,0,0-1,1.69,1.65,1.65,0,0,0,.13.78l.84,1.95a1.69,1.69,0,0,0,1.11,1,1,1,0,0,0,.58.13,2.06,2.06,0,0,0,.91-.19,14.07,14.07,0,0,1,5.85-1.69.57.57,0,0,0,.52-.39V18a.51.51,0,0,0-.52-.46,14.9,14.9,0,0,0-6.3,1.76,1,1,0,0,1-.46.13l-.26-.07a.75.75,0,0,1-.52-.45l-.84-2a.77.77,0,0,1-.07-.39.85.85,0,0,1,.52-.78,19.69,19.69,0,0,1,8.32-2c2.93,0,5.14.71,6.63,2.27a.5.5,0,0,0,.33.13.42.42,0,0,0,.26-.06l.06-.07a.53.53,0,0,0,.2-.39.45.45,0,0,0-.13-.32C63.57,13.65,61.1,12.81,57.91,12.81Zm-8,12H50a.38.38,0,0,0,.33.13h.19c.72-.32,1.43-.65,2.21-.91A.48.48,0,0,0,53,23.6v-.13a.48.48,0,0,0-.46-.39c-.06,0-.13,0-.13.06a11.43,11.43,0,0,0-2.4.91.51.51,0,0,0-.26.26.89.89,0,0,0,.06.39Zm9.62,3.38c-4.1.2-6,.91-7,1.5a3.72,3.72,0,0,0-1.82,3.51,3.76,3.76,0,0,0,1.17,2.92,5,5,0,0,0,3.38,1,7.24,7.24,0,0,0,5.53-2,7.36,7.36,0,0,0,2-5.59v-1a1,1,0,0,0-.12-.39,1,1,0,0,0-.4-.13l-.45.07a.45.45,0,0,0-.32.13.32.32,0,0,0-.14.26v.13a.44.44,0,0,0,.46.45v.46a6.38,6.38,0,0,1-1.76,4.87,6.28,6.28,0,0,1-4.81,1.69,4,4,0,0,1-2.73-.78,2.69,2.69,0,0,1-.78-2.14,2.81,2.81,0,0,1,1.3-2.67c.85-.52,2.6-1.1,6.44-1.3a.56.56,0,0,0,.52-.52C60,28.41,59.8,28.21,59.54,28.21Zm.06,1.37c-4,.19-5.65.91-6.3,1.3a2.07,2.07,0,0,0-.91,1.1.39.39,0,0,0,0,.39.47.47,0,0,0,.26.26c.13.07.13.07.19.07a.49.49,0,0,0,.46-.33,1.69,1.69,0,0,1,.52-.65c.58-.32,2.08-.91,5.78-1.1a.47.47,0,0,0,.46-.52A.51.51,0,0,0,59.6,29.58Zm-1.75-9.3A12,12,0,0,0,53,21.52a.47.47,0,0,0-.26.65.5.5,0,0,0,.46.32h.13a29.55,29.55,0,0,1,5.78-.71h.26a.45.45,0,0,0,.39-.2.5.5,0,0,0,.07-.52c-.13-.19-.2-.32-.26-.39l-.13-.13A3.64,3.64,0,0,0,57.85,20.28ZM59.34,31c-3.44.19-4.81.71-5.33,1a1.25,1.25,0,0,0-.45,1.17,1.24,1.24,0,0,0,.13.71.47.47,0,0,0,.26.26,4.06,4.06,0,0,0,1.36.2,4.84,4.84,0,0,0,3.58-1.17,3.55,3.55,0,0,0,.91-1.56.42.42,0,0,0-.07-.46A.54.54,0,0,0,59.34,31ZM54,12.48l.06.07a.55.55,0,0,0,.39.19h.07a15.84,15.84,0,0,1,2.4-.26.56.56,0,0,0,.46-.39V12a.47.47,0,0,0-.46-.52h-.06a17.13,17.13,0,0,0-2.47.33A.37.37,0,0,0,54,12c-.06.13-.13.26-.06.39Zm3.9,7.41c1,0,1.75.2,2,.59a3,3,0,0,1,.46,1,.49.49,0,0,0,.52.39H61a.51.51,0,0,0,.26-.26c.06-.13.13-.26.06-.39a4.11,4.11,0,0,0-.64-1.43,3.61,3.61,0,0,0-2.8-.91,11,11,0,0,0-3.45.58.43.43,0,0,0-.32.59v.13h.06a.54.54,0,0,0,.39.26h.07l.06-.07A11.84,11.84,0,0,1,57.85,19.89Zm-3.38,3.38.06.07a.55.55,0,0,0,.39.19H55a28.34,28.34,0,0,1,4.16-.32l.65-.07a.67.67,0,0,0,.39-.13,1,1,0,0,0,.13-.39.5.5,0,0,0-.52-.45h-.72a38.15,38.15,0,0,0-4.22.39.37.37,0,0,0-.33.19c-.06.13-.13.26-.06.39Zm.84,10.14c-.32,0-.58-.06-.71-.06v-.46a12,12,0,0,1,4-.84,2.53,2.53,0,0,1-.39.45A3.82,3.82,0,0,1,55.31,33.41Zm2.54-12.35a9.12,9.12,0,0,0-1.82.2c.78-.13,1.56-.13,2.34-.2Zm1.43-9.55a.54.54,0,0,0-.52.45V12l.06.06a.44.44,0,0,0,.46.39,10.46,10.46,0,0,1,4.42,1.3c.07,0,.13.07.26.07a.68.68,0,0,0,.33-.2h.06l.07-.13a.3.3,0,0,0,0-.32.38.38,0,0,0-.2-.33,11.53,11.53,0,0,0-4.88-1.36Zm2.53,30.22A3.36,3.36,0,0,0,64,42.9a.57.57,0,0,0,.58-.39v-.19a.63.63,0,0,0-.45-.46,2.28,2.28,0,0,1-1.76-1.1.28.28,0,0,0-.26-.2h-.13c-.13,0-.19,0-.25.07l-.92.52c-.32.13-.71.32-1.1.45a.63.63,0,0,0-.33.59l.07.13a.66.66,0,0,0,.45.26c.07,0,.13,0,.13-.07A6.59,6.59,0,0,0,61.23,42C61.42,41.93,61.62,41.8,61.81,41.73ZM68.64,22a.6.6,0,0,0,.52-.58,11.5,11.5,0,0,0-2.79-6.83l-.14-.13a.5.5,0,0,0-.32-.13,1,1,0,0,0-.39.13l-.06.07v.06a.49.49,0,0,0,.06.59l.06.06a10.31,10.31,0,0,1,2.54,6.31c.07.19.19.39.39.39Zm-.26,18.46a.66.66,0,0,0-.45.26,2.37,2.37,0,0,1-1.56,1.17.44.44,0,0,0-.39.46v.13a.56.56,0,0,0,.52.39h.06a3.31,3.31,0,0,0,2.28-1.63.89.89,0,0,0,.06-.39.59.59,0,0,0-.26-.32h-.13C68.51,40.43,68.45,40.43,68.38,40.43Z"/><path class="cls-3" d="M78,45.11A5.07,5.07,0,0,1,72.93,40V5A5,5,0,0,1,78,0h2.21a5,5,0,0,1,5.07,5V40a5.08,5.08,0,0,1-5.07,5.07ZM78,.33A4.7,4.7,0,0,0,73.32,5V40A4.66,4.66,0,0,0,78,44.72h2.21A4.66,4.66,0,0,0,84.89,40V5A4.7,4.7,0,0,0,80.21.33Zm0,43.42A3.69,3.69,0,0,1,74.36,40V5A3.63,3.63,0,0,1,78,1.37h2.21A3.63,3.63,0,0,1,83.85,5V40a3.69,3.69,0,0,1-3.64,3.71Zm2.21-42H78A3.29,3.29,0,0,0,74.68,5v.26a.52.52,0,0,0,1,0V5A2.31,2.31,0,0,1,78,2.73h2.21a.89.89,0,0,1,.39.06h.06a.48.48,0,0,0,.46-.32l.06-.06V2.34a.51.51,0,0,0-.39-.59Zm-5,5.47a.56.56,0,0,0-.52.52v4.87a.52.52,0,1,0,1,0V7.74A.56.56,0,0,0,75.2,7.22Zm0,7.34a.56.56,0,0,0-.52.52v2.47a.52.52,0,0,0,1,0V15.08A.56.56,0,0,0,75.2,14.56Zm0,22a.51.51,0,0,0-.52.52V40A3.34,3.34,0,0,0,78,43.36a.52.52,0,1,0,0-1A2.27,2.27,0,0,1,75.72,40V37.12A.51.51,0,0,0,75.2,36.6Zm1.43-24.18a.46.46,0,0,0-.52.45V40A1.89,1.89,0,0,0,78,41.93a.51.51,0,0,0,.52-.46A.52.52,0,0,0,78,41a.89.89,0,0,1-.91-.91V12.87A.44.44,0,0,0,76.63,12.42Zm4.81-7.74v.07a.48.48,0,0,0-.32.45V34.58a.44.44,0,0,0,.45.46.46.46,0,0,0,.52-.46V5.2a.51.51,0,0,0-.52-.52ZM83,20.22a.5.5,0,0,0-.52.45v2.47a.52.52,0,0,0,1,0V20.67A.5.5,0,0,0,83,20.22Zm0,4.87a.51.51,0,0,0-.52.46v4.94a.53.53,0,0,0,1,0V25.55A.51.51,0,0,0,83,25.09Zm0,7.35a.5.5,0,0,0-.52.45v7.35a.48.48,0,0,0,.33.45l.06.07c.39,0,.59-.2.59-.46.06-.06.06-.13.06-.26V32.89A.5.5,0,0,0,83,32.44Z"/><path class="cls-4" d="M92.3,45.11A5.07,5.07,0,0,1,87.23,40V5A5,5,0,0,1,92.3,0h2.21a5,5,0,0,1,5.07,5V40a5.08,5.08,0,0,1-5.07,5.07ZM92.3.33A4.7,4.7,0,0,0,87.62,5V40a4.66,4.66,0,0,0,4.68,4.68h2.21A4.66,4.66,0,0,0,99.19,40V5A4.7,4.7,0,0,0,94.51.33Zm0,43.42A3.69,3.69,0,0,1,88.66,40V5A3.63,3.63,0,0,1,92.3,1.37h2.21A3.63,3.63,0,0,1,98.15,5V40a3.69,3.69,0,0,1-3.64,3.71Zm2.21-42H92.3A3.29,3.29,0,0,0,89,5v.26a.52.52,0,1,0,1,0V5A2.31,2.31,0,0,1,92.3,2.73h2.21a.89.89,0,0,1,.39.06H95a.48.48,0,0,0,.46-.32l.06-.06V2.34a.51.51,0,0,0-.39-.59Zm-5,5.47a.56.56,0,0,0-.52.52v4.87a.52.52,0,1,0,1,0V7.74A.56.56,0,0,0,89.5,7.22Zm0,7.34a.56.56,0,0,0-.52.52v2.47a.52.52,0,0,0,1,0V15.08A.56.56,0,0,0,89.5,14.56Zm0,22a.51.51,0,0,0-.52.52V40a3.34,3.34,0,0,0,3.32,3.32.52.52,0,0,0,0-1A2.27,2.27,0,0,1,90,40V37.12A.51.51,0,0,0,89.5,36.6Zm1.43-24.18a.46.46,0,0,0-.52.45V40a1.89,1.89,0,0,0,1.89,1.89.51.51,0,0,0,.52-.46A.52.52,0,0,0,92.3,41a.89.89,0,0,1-.91-.91V12.87A.44.44,0,0,0,90.93,12.42Zm4.81-7.74v.07a.48.48,0,0,0-.32.45V34.58a.44.44,0,0,0,.45.46.46.46,0,0,0,.52-.46V5.2a.51.51,0,0,0-.52-.52ZM97.3,20.22a.5.5,0,0,0-.52.45v2.47a.52.52,0,0,0,1,0V20.67A.5.5,0,0,0,97.3,20.22Zm0,4.87a.51.51,0,0,0-.52.46v4.94a.53.53,0,0,0,1,0V25.55A.51.51,0,0,0,97.3,25.09Zm0,7.35a.5.5,0,0,0-.52.45v7.35a.48.48,0,0,0,.33.45l.06.07c.39,0,.59-.2.59-.46.06-.06.06-.13.06-.26V32.89A.5.5,0,0,0,97.3,32.44Z"/><path class="cls-5" d="M114.2,45.11a12.69,12.69,0,0,1-9-3.18,11.5,11.5,0,0,1-3.64-8.84,11.31,11.31,0,0,1,5.2-9.75A.64.64,0,0,0,107,23a.53.53,0,0,0-.26-.39,5.25,5.25,0,0,1-1.56-2l-.85-1.95A5.09,5.09,0,0,1,106.86,12a23.72,23.72,0,0,1,10.07-2.34c4.16,0,7.41,1.23,9.69,3.64s3.38,5.72,3.38,10V39.65a5.06,5.06,0,0,1-5,5H123.3a5.11,5.11,0,0,1-2.53-.72c-.07,0-.13-.06-.26-.06a.26.26,0,0,0-.2.06A15.51,15.51,0,0,1,114.2,45.11Zm-6-22.16a7.44,7.44,0,0,0-1.23.71,10.87,10.87,0,0,0-5.07,9.43,11.09,11.09,0,0,0,3.51,8.58,12.54,12.54,0,0,0,8.77,3,15.19,15.19,0,0,0,6.37-1.3,5.22,5.22,0,0,0,2.73.85H125a4.63,4.63,0,0,0,4.62-4.62V23.34c0-4.16-1.11-7.48-3.25-9.75S121,10,116.93,10A24.22,24.22,0,0,0,107,12.35a4.67,4.67,0,0,0-2.28,6.11l.85,1.95A4.65,4.65,0,0,0,108.22,23Zm6,20.8a11.47,11.47,0,0,1-8.12-2.86,10.23,10.23,0,0,1-3.19-7.8,10,10,0,0,1,4.62-8.58,16.42,16.42,0,0,1,2.6-1.37.42.42,0,0,0,.32-.52.48.48,0,0,0-.45-.45h-.2a4.37,4.37,0,0,1-1.23-.2,3.52,3.52,0,0,1-2.08-2l-.85-1.89a3.68,3.68,0,0,1,1.82-4.81,23,23,0,0,1,9.49-2.21c3.71,0,6.63,1.11,8.71,3.25s3,5.14,3,9V39.65A3.63,3.63,0,0,1,125,43.29H123.3a4,4,0,0,1-2.34-.84c-.06-.13-.19-.13-.32-.13a.26.26,0,0,0-.2.06A13.77,13.77,0,0,1,114.2,43.75Zm1.63-20.09A15.65,15.65,0,0,0,108.48,26a8,8,0,0,0-3.83,7.09,8.34,8.34,0,0,0,2.66,6.5,9.73,9.73,0,0,0,6.89,2.34,12.06,12.06,0,0,0,5.46-1.17,8.55,8.55,0,0,0,1.76-1.11l.06.26a1.89,1.89,0,0,0,1.82,1.63H125a1.89,1.89,0,0,0,1.89-1.89V29.84a.52.52,0,0,0-1,0v9.81a.86.86,0,0,1-.85.85H123.3a.89.89,0,0,1-.84-.78l-.2-1.11a.48.48,0,0,0-.32-.45h-.13a.86.86,0,0,0-.39.13,9.56,9.56,0,0,1-2.21,1.56,11.2,11.2,0,0,1-5,1.1A8.92,8.92,0,0,1,108,38.87a7.59,7.59,0,0,1-2.27-5.78,7.15,7.15,0,0,1,3.38-6.31,14.9,14.9,0,0,1,6.82-2.08c.26,0,.39-.19.46-.45v-.07C116.35,23.86,116.15,23.73,115.83,23.66Zm-8.91,16.71-.06.06a.58.58,0,0,0,.13.72,11.25,11.25,0,0,0,7.21,2.21,14.42,14.42,0,0,0,2.41-.2.34.34,0,0,0,.32-.19.43.43,0,0,0,.07-.39v-.13a.66.66,0,0,0-.46-.26h-.13c-.71.06-1.43.13-2.21.13a10.72,10.72,0,0,1-6.63-2,.32.32,0,0,0-.26-.13c-.13,0-.19.06-.32.13Zm10-27.56a20.76,20.76,0,0,0-8.77,2.08,1.86,1.86,0,0,0-1,1.69,1.65,1.65,0,0,0,.13.78l.84,1.95a1.69,1.69,0,0,0,1.11,1,1,1,0,0,0,.58.13,2.06,2.06,0,0,0,.91-.19,14.07,14.07,0,0,1,5.85-1.69.57.57,0,0,0,.52-.39V18a.51.51,0,0,0-.52-.46,14.9,14.9,0,0,0-6.3,1.76,1,1,0,0,1-.46.13l-.26-.07a.75.75,0,0,1-.52-.45l-.84-2a.77.77,0,0,1-.07-.39.85.85,0,0,1,.52-.78,19.69,19.69,0,0,1,8.32-2c2.93,0,5.14.71,6.63,2.27a.5.5,0,0,0,.33.13.43.43,0,0,0,.26-.06l.06-.07a.57.57,0,0,0,.2-.39.5.5,0,0,0-.13-.32C122.59,13.65,120.12,12.81,116.93,12.81Zm-8,12H109a.38.38,0,0,0,.33.13h.19c.72-.32,1.43-.65,2.21-.91a.48.48,0,0,0,.33-.45v-.13a.48.48,0,0,0-.46-.39c-.06,0-.13,0-.13.06a11.43,11.43,0,0,0-2.4.91.51.51,0,0,0-.26.26.89.89,0,0,0,.06.39Zm9.62,3.38c-4.1.2-6,.91-7,1.5a3.72,3.72,0,0,0-1.82,3.51A3.76,3.76,0,0,0,111,36.14a5,5,0,0,0,3.38,1,7.24,7.24,0,0,0,5.53-2,7.4,7.4,0,0,0,2-5.59v-1a.86.86,0,0,0-.13-.39,1,1,0,0,0-.39-.13l-.45.07a.5.5,0,0,0-.33.13.34.34,0,0,0-.13.26v.13a.44.44,0,0,0,.46.45v.46a6.38,6.38,0,0,1-1.76,4.87,6.3,6.3,0,0,1-4.81,1.69,4,4,0,0,1-2.73-.78,2.69,2.69,0,0,1-.78-2.14,2.81,2.81,0,0,1,1.3-2.67c.85-.52,2.6-1.1,6.44-1.3a.56.56,0,0,0,.52-.52C119,28.41,118.82,28.21,118.56,28.21Zm.06,1.37c-4,.19-5.65.91-6.3,1.3a2.07,2.07,0,0,0-.91,1.1.39.39,0,0,0,0,.39.47.47,0,0,0,.26.26c.13.07.13.07.19.07a.49.49,0,0,0,.46-.33,1.69,1.69,0,0,1,.52-.65c.58-.32,2.08-.91,5.78-1.1a.47.47,0,0,0,.46-.52A.51.51,0,0,0,118.62,29.58Zm-1.75-9.3A12,12,0,0,0,112,21.52a.47.47,0,0,0-.26.65.5.5,0,0,0,.46.32h.13a29.55,29.55,0,0,1,5.78-.71h.26a.46.46,0,0,0,.39-.2.5.5,0,0,0,.07-.52c-.13-.19-.2-.32-.26-.39l-.13-.13A3.64,3.64,0,0,0,116.87,20.28ZM118.36,31c-3.44.19-4.81.71-5.33,1a1.25,1.25,0,0,0-.45,1.17,1.24,1.24,0,0,0,.13.71.47.47,0,0,0,.26.26,4.06,4.06,0,0,0,1.36.2,4.84,4.84,0,0,0,3.58-1.17,3.55,3.55,0,0,0,.91-1.56.42.42,0,0,0-.07-.46A.55.55,0,0,0,118.36,31ZM113,12.48l.06.07a.55.55,0,0,0,.39.19h.07a15.84,15.84,0,0,1,2.4-.26.56.56,0,0,0,.46-.39V12a.47.47,0,0,0-.46-.52h-.06a17.13,17.13,0,0,0-2.47.33A.37.37,0,0,0,113,12c-.06.13-.13.26-.06.39Zm3.9,7.41c1,0,1.75.2,2,.59a3,3,0,0,1,.46,1,.49.49,0,0,0,.52.39H120a.55.55,0,0,0,.26-.26c.06-.13.13-.26.06-.39a4.11,4.11,0,0,0-.65-1.43,3.57,3.57,0,0,0-2.79-.91,11,11,0,0,0-3.45.58.43.43,0,0,0-.32.59v.13h.06a.54.54,0,0,0,.39.26h.07l.06-.07A11.84,11.84,0,0,1,116.87,19.89Zm-3.38,3.38.06.07a.55.55,0,0,0,.39.19H114a28.34,28.34,0,0,1,4.16-.32l.65-.07a.67.67,0,0,0,.39-.13,1,1,0,0,0,.13-.39.5.5,0,0,0-.52-.45h-.72a38.15,38.15,0,0,0-4.22.39.37.37,0,0,0-.33.19c-.06.13-.13.26-.06.39Zm.84,10.14c-.32,0-.58-.06-.71-.06v-.46a12,12,0,0,1,4-.84,3,3,0,0,1-.39.45A3.82,3.82,0,0,1,114.33,33.41Zm2.54-12.35a9.12,9.12,0,0,0-1.82.2c.78-.13,1.56-.13,2.34-.2Zm1.43-9.55a.54.54,0,0,0-.52.45V12l.06.06a.44.44,0,0,0,.46.39,10.46,10.46,0,0,1,4.42,1.3c.06,0,.13.07.26.07a.62.62,0,0,0,.32-.2h.07l.06-.13c.07-.06.07-.19,0-.32a.37.37,0,0,0-.19-.33,11.58,11.58,0,0,0-4.88-1.36Zm2.53,30.22A3.36,3.36,0,0,0,123,42.9a.58.58,0,0,0,.58-.39v-.19a.63.63,0,0,0-.45-.46,2.25,2.25,0,0,1-1.76-1.1.29.29,0,0,0-.26-.2H121c-.13,0-.19,0-.26.07l-.91.52c-.32.13-.71.32-1.1.45a.62.62,0,0,0-.33.59l.07.13a.66.66,0,0,0,.45.26c.07,0,.13,0,.13-.07a6.59,6.59,0,0,0,1.24-.52C120.44,41.93,120.64,41.8,120.83,41.73ZM127.66,22a.61.61,0,0,0,.52-.58,11.57,11.57,0,0,0-2.8-6.83l-.13-.13a.5.5,0,0,0-.32-.13,1,1,0,0,0-.39.13l-.07.07v.06a.49.49,0,0,0,.07.59l.06.06a10.37,10.37,0,0,1,2.54,6.31c.06.19.19.39.39.39Zm-.26,18.46a.66.66,0,0,0-.46.26,2.35,2.35,0,0,1-1.56,1.17.44.44,0,0,0-.39.46v.13a.58.58,0,0,0,.52.39h.07a3.29,3.29,0,0,0,2.27-1.63.77.77,0,0,0,.07-.39.64.64,0,0,0-.26-.32h-.13C127.53,40.43,127.46,40.43,127.4,40.43Z"/><path class="cls-6" d="M154.05,45.11a5,5,0,0,1-5-5V24.18a7.3,7.3,0,0,0-.13-1.56.57.57,0,0,0-.45-.39c-.2,0-.46-.06-.78-.06a4.21,4.21,0,0,0-2.67.58l-.13.13c-.19.26-.58,1.24-.58,3.71V40.11a5.06,5.06,0,0,1-5.07,5H137a5.06,5.06,0,0,1-5.08-5V15.6A5.09,5.09,0,0,1,137,10.53h1.88a4.78,4.78,0,0,1,2.28.59c.06,0,.13.06.19.06s.13-.06.2-.06a17.82,17.82,0,0,1,6.37-1c8.38,0,13.39,5.26,13.39,14V40.11a5.06,5.06,0,0,1-5.07,5ZM149.11,22a5.06,5.06,0,0,1,.32,2.14V40.11a4.63,4.63,0,0,0,4.62,4.61h2.21a4.65,4.65,0,0,0,4.68-4.61V24.05c0-8.64-4.75-13.58-13-13.58a17.73,17.73,0,0,0-6.63,1.17,4.5,4.5,0,0,0-2.41-.72H137a4.66,4.66,0,0,0-4.68,4.68V40.11A4.65,4.65,0,0,0,137,44.72h2.21a4.65,4.65,0,0,0,4.68-4.61V26.59c0-3.06.71-4,.78-4.1a4.86,4.86,0,0,1,3-.65A3.35,3.35,0,0,1,149.11,22Zm4.94,21.71a3.63,3.63,0,0,1-3.64-3.64V24.18c0-2.14-.46-2.79-.59-2.86a3.19,3.19,0,0,0-2.14-.52c-2.28,0-3.25.59-3.71,1s-1.1,1.63-1.1,4.75V40.11a3.64,3.64,0,0,1-3.64,3.64H137a3.69,3.69,0,0,1-3.71-3.64V15.6A3.69,3.69,0,0,1,137,12h1.88a3.45,3.45,0,0,1,2.08.65.48.48,0,0,0,.33.07h.19a16.46,16.46,0,0,1,6.44-1.24c7.6,0,12,4.62,12,12.61V40.11a3.69,3.69,0,0,1-3.7,3.64ZM134.22,15.6a.56.56,0,0,0-.52.52v7.35a.53.53,0,0,0,1,0V16.12A.56.56,0,0,0,134.22,15.6Zm0,9.82a.5.5,0,0,0-.52.45v4.94a.52.52,0,0,0,1,0V25.87A.5.5,0,0,0,134.22,25.42Zm0,7.28a.56.56,0,0,0-.52.52v2.47a.52.52,0,1,0,1,0V33.22A.56.56,0,0,0,134.22,32.7Zm1.37-7a.46.46,0,0,0-.46.52V40.11A1.89,1.89,0,0,0,137,42h2.21a1.88,1.88,0,0,0,1.88-1.88V31.27a.47.47,0,0,0-.52-.52.46.46,0,0,0-.45.52v8.84a.92.92,0,0,1-.91.84H137a.88.88,0,0,1-.92-.84V26.2A.47.47,0,0,0,135.59,25.68Zm12.35-11.44c6,0,9.23,3.38,9.23,9.81v2.54a.48.48,0,0,0,.52.52.46.46,0,0,0,.45-.52V24.05c0-7.08-3.51-10.79-10.2-10.79a13,13,0,0,0-7.22,1.82,1.94,1.94,0,0,0-1.82-1.36.55.55,0,0,0-.52.45v.2h.07a.48.48,0,0,0,.45.32.91.91,0,0,1,.85.78l.06.52c.07.2.13.33.33.39a.22.22,0,0,0,.19.07c.13,0,.2-.07.33-.13A11.63,11.63,0,0,1,147.94,14.24Zm-4.81,6.69a.57.57,0,0,0-.39.2c-.52.65-1.17,2.08-1.24,4.94a1,1,0,0,0,.13.39.75.75,0,0,0,.39.13.51.51,0,0,0,.46-.52c.06-2.54.65-3.77,1.1-4.36a.51.51,0,0,0-.06-.65A.48.48,0,0,0,143.13,20.93ZM142,28a.52.52,0,0,0-.52.52v7.34a.52.52,0,0,0,.52.52.51.51,0,0,0,.46-.52V28.54A.51.51,0,0,0,142,28Zm2.73-7.54h.07a.55.55,0,0,0,.39.19h.13a11.66,11.66,0,0,1,2.34-.26.47.47,0,0,0,.45-.39v-.13a.44.44,0,0,0-.45-.45,10.41,10.41,0,0,0-2.6.26c-.26.06-.39.32-.33.65Zm2.93-1.43c1.62,0,2.79.32,3.44,1s1,2.14,1,4.09V40.11A1.89,1.89,0,0,0,154.05,42h2.21a2,2,0,0,0,1.23-.45.52.52,0,0,0,.07-.72l-.07-.06h-.06a.49.49,0,0,0-.26-.13.65.65,0,0,0-.33.13.78.78,0,0,1-.58.19h-2.21a.86.86,0,0,1-.85-.84V24.18c0-2.21-.45-3.83-1.36-4.74A5.45,5.45,0,0,0,147.68,18a14.61,14.61,0,0,0-2.54.26.5.5,0,0,0-.39.65V19h.07a.4.4,0,0,0,.39.33h.06l.07-.07A13,13,0,0,1,147.68,19.05Zm2.92-6.37a.43.43,0,0,0,.39.45,10.2,10.2,0,0,1,2.21.78h.26a.5.5,0,0,0,.33-.13l.13-.13a.46.46,0,0,0-.26-.65,9.41,9.41,0,0,0-2.41-.84h-.13a.56.56,0,0,0-.52.39Zm.72,23.92a.51.51,0,0,0-.52.52v3a3.3,3.3,0,0,0,3.25,3.25.48.48,0,0,0,.52-.52.47.47,0,0,0-.52-.46,2.3,2.3,0,0,1-2.28-2.27v-3A.5.5,0,0,0,151.32,36.6Zm4.16-22.36a.55.55,0,0,0-.39.19l-.07.13a.64.64,0,0,0,.13.59,8.33,8.33,0,0,1,2.6,3.77.5.5,0,0,0,.46.32h.13l.06-.06c.13,0,.2-.13.26-.26a.39.39,0,0,0,0-.39,9,9,0,0,0-2.86-4.16C155.74,14.24,155.61,14.24,155.48,14.24Zm3.18,6.37-.06.06a.41.41,0,0,0-.26.52,20.51,20.51,0,0,1,.19,2.86v4.36a.52.52,0,0,0,1,0V24.05a15.26,15.26,0,0,0-.26-3.05.49.49,0,0,0-.52-.39Z"/><path class="cls-7" d="M193.05,45.11A24.09,24.09,0,0,1,182,42.71a5.08,5.08,0,0,1-2.8-4.49V36a5.08,5.08,0,0,1,2.47-4.29,5.17,5.17,0,0,1,2.6-.72,5,5,0,0,1,2.34.59,12.3,12.3,0,0,0,3.06,1.1,15.17,15.17,0,0,0,3.25.39c2.92,0,4-.58,4.35-.84a2.19,2.19,0,0,0,.59-1.82,1.37,1.37,0,0,0-.07-.59l-.19-.19a9.32,9.32,0,0,0-4.75-.91h-3.57a5,5,0,0,1-5-5.07V21.45a5.12,5.12,0,0,1,2.41-4.35.42.42,0,0,0,.19-.59.42.42,0,0,0-.45-.32h-.07l-.65.06a5.13,5.13,0,0,1-4.1-2.08l-1.1-1.49a5.14,5.14,0,0,1,.85-6.89,18.92,18.92,0,0,1,6.24-3.38,20.19,20.19,0,0,1,7.08-1.24A15.46,15.46,0,0,1,205,4.55a12.52,12.52,0,0,1,4.22,9.88,12.19,12.19,0,0,1-2,7,.59.59,0,0,0,.06.58,12.5,12.5,0,0,1,3,8.39,13.43,13.43,0,0,1-5.07,11.11C202.21,43.88,198.12,45.11,193.05,45.11Zm-8.78-13.78a4.49,4.49,0,0,0-2.4.65,4.68,4.68,0,0,0-2.28,4v2.27a4.57,4.57,0,0,0,2.6,4.16,24,24,0,0,0,10.86,2.34c5,0,9-1.17,12-3.57a13.11,13.11,0,0,0,4.87-10.79,12,12,0,0,0-3.31-8.65,12.14,12.14,0,0,0,2.27-7.28,12.16,12.16,0,0,0-4.09-9.62c-2.47-2.14-5.85-3.25-10.08-3.25a21.35,21.35,0,0,0-6.95,1.17,20.07,20.07,0,0,0-6.12,3.38,4.67,4.67,0,0,0-.77,6.31l1.1,1.49a4.57,4.57,0,0,0,3.77,1.95,4.69,4.69,0,0,0,2.6-.78,13.86,13.86,0,0,1,3.45-1.82,8.59,8.59,0,0,1,3-.45,3.08,3.08,0,0,1,2.08.58c.19.13.32.26.32.85a1.76,1.76,0,0,1-.71,1.62,5.53,5.53,0,0,1-3.51.91h-3.64a4.7,4.7,0,0,0-4.68,4.68V23.6a4.7,4.7,0,0,0,4.68,4.68h3.57c3.06,0,4.36.58,4.88.91s.52.45.52,1.17a2.32,2.32,0,0,1-.78,2.08c-.46.39-1.63,1-4.55,1A15.79,15.79,0,0,1,189.6,33a17.31,17.31,0,0,1-3.18-1.17A4.84,4.84,0,0,0,184.27,31.33Zm8.78,12.42a22.83,22.83,0,0,1-10.4-2.28,3.57,3.57,0,0,1-2-3.25V36a3.63,3.63,0,0,1,3.64-3.64,3.18,3.18,0,0,1,1.69.45A16.37,16.37,0,0,0,189.34,34a18.53,18.53,0,0,0,3.58.45c3.25,0,4.61-.78,5.2-1.23a3.14,3.14,0,0,0,1.17-2.86,2.19,2.19,0,0,0-1-2c-.65-.39-2.14-1.1-5.46-1.1h-3.57a3.63,3.63,0,0,1-3.64-3.64V21.45a3.63,3.63,0,0,1,3.64-3.64h3.64a6.35,6.35,0,0,0,4.16-1.17,2.81,2.81,0,0,0,1-2.4,1.84,1.84,0,0,0-.65-1.63,4.15,4.15,0,0,0-2.73-.78,10.37,10.37,0,0,0-3.32.46,20.78,20.78,0,0,0-3.7,2,3.66,3.66,0,0,1-2,.58,3.46,3.46,0,0,1-2.92-1.49l-1.11-1.5a3.57,3.57,0,0,1,.59-4.94A18.44,18.44,0,0,1,188,3.71a19.55,19.55,0,0,1,6.63-1.17c4,0,7.09,1,9.43,3.05a11.22,11.22,0,0,1,3.77,8.84,10.94,10.94,0,0,1-2.41,7,.59.59,0,0,0,.07.72l.19.13a11,11,0,0,1,3.12,8.06,12.2,12.2,0,0,1-4.48,10C201.63,42.58,197.79,43.75,193.05,43.75Zm-8.78-9.69a1.55,1.55,0,0,0-1,.33,1.74,1.74,0,0,0-.91,1.56v2.27a1.86,1.86,0,0,0,1,1.69A21.33,21.33,0,0,0,193.05,42a.5.5,0,0,0,.45-.52v-.13a.56.56,0,0,0-.45-.39,20.28,20.28,0,0,1-9.17-2,.85.85,0,0,1-.52-.78V36a.9.9,0,0,1,.46-.72,1,1,0,0,1,.45-.13.77.77,0,0,1,.39.07,14.7,14.7,0,0,0,4,1.49,16.73,16.73,0,0,0,4.23.52,14.73,14.73,0,0,0,4.81-.65.56.56,0,0,0,.32-.65v-.06l-.06-.07a.55.55,0,0,0-.39-.19h-.2a12.67,12.67,0,0,1-4.48.65,18.28,18.28,0,0,1-4-.52,15.54,15.54,0,0,1-3.83-1.37A1.34,1.34,0,0,0,184.27,34.06Zm10.4-29.77a19.36,19.36,0,0,0-6,1,17.26,17.26,0,0,0-5.27,2.93,1.85,1.85,0,0,0-.65,1.43,1.74,1.74,0,0,0,.39,1.1l1,1.5a2,2,0,0,0,1.56.78,1.53,1.53,0,0,0,1-.33c.59-.32,1.11-.65,1.63-1,.19-.07.26-.33.19-.59v-.06a.48.48,0,0,0-.45-.26c-.13,0-.2,0-.26.06-.52.26-1.11.65-1.69,1a.59.59,0,0,1-.46.19,1,1,0,0,1-.71-.39l-1.11-1.49a.74.74,0,0,1-.19-.52A.81.81,0,0,1,184,9,14.56,14.56,0,0,1,189,6.31a17.37,17.37,0,0,1,5.72-1q4.88,0,7.61,2.34a6.84,6.84,0,0,1,.71.72.55.55,0,0,0,.33.13c.13,0,.19,0,.26-.07h.06l.07-.06a.55.55,0,0,0,.13-.33.48.48,0,0,0-.13-.39,7.17,7.17,0,0,0-.78-.71C201,5.2,198.18,4.29,194.67,4.29ZM185.31,41.6v.07c-.06.13,0,.26,0,.39s.2.19.33.19a24.39,24.39,0,0,0,7.41,1.11.5.5,0,0,0,.45-.52v-.13a.54.54,0,0,0-.45-.39,24.3,24.3,0,0,1-7.09-1,.24.24,0,0,0-.19-.06.53.53,0,0,0-.39.26ZM187.39,5h.07a.34.34,0,0,0,.32.19h.2L188.5,5a13.21,13.21,0,0,1,1.75-.52.67.67,0,0,0,.39-.46v-.2a.51.51,0,0,0-.52-.32H190a18.51,18.51,0,0,0-1.82.52l-.58.2a.44.44,0,0,0-.26.26.39.39,0,0,0,0,.39Zm1.89,14.56a1.89,1.89,0,0,0-1.89,1.88V23.6a1.89,1.89,0,0,0,1.89,1.88h3.57a15.75,15.75,0,0,1,4.16.46h.13a.57.57,0,0,0,.39-.2h.07v-.19c.06-.07,0-.26-.07-.33a.51.51,0,0,0-.26-.26,18,18,0,0,0-4.42-.45h-3.57a.93.93,0,0,1-.91-.91V21.45a.93.93,0,0,1,.91-.91h3.64a9.15,9.15,0,0,0,5.91-1.75,5.53,5.53,0,0,0,2.08-4.55,2.15,2.15,0,0,0-.06-.65.47.47,0,0,0-.52-.46h-.07l-.06.07a.41.41,0,0,0-.33.45v.59A4.44,4.44,0,0,1,198.18,18a8,8,0,0,1-5.26,1.56Zm5.46-6.37a9.46,9.46,0,0,0-2.86.39,13.27,13.27,0,0,0-3.38,1.82c-.07,0-.13.06-.2.13a.44.44,0,0,0-.19.58.48.48,0,0,0,.45.33h.13c.13,0,.39-.07.59-.07h3.64a5.58,5.58,0,0,0,3.31-.78,1.55,1.55,0,0,0,.52-1.36c0-.13,0-.2-.06-.26A2.07,2.07,0,0,0,194.74,13.2Zm-4.81-1.11H190a.35.35,0,0,0,.33.2.22.22,0,0,0,.19-.07c.26-.06.52-.19.78-.26a9.62,9.62,0,0,1,3.45-.52,4.65,4.65,0,0,1,2.47.52c.06,0,.13.07.19.07a.55.55,0,0,0,.33-.13.15.15,0,0,0,.13-.13.53.53,0,0,0-.2-.72,6.46,6.46,0,0,0-2.92-.65A11.43,11.43,0,0,0,191,11a4.21,4.21,0,0,0-.85.32.55.55,0,0,0-.26.26.45.45,0,0,0,0,.39Zm.45,23a.43.43,0,0,0,.07.39,1.27,1.27,0,0,0,.32.2c.72.06,1.5.13,2.15.13h.39a.45.45,0,0,0,.45-.52v-.13a.48.48,0,0,0-.45-.33h-.39a11.18,11.18,0,0,1-2-.19h-.06a.5.5,0,0,0-.46.32ZM194.74,4c.91,0,1.75.06,2.6.13l.06.06a.66.66,0,0,0,.46-.26V3.83l.06-.12a.51.51,0,0,0-.13-.4.36.36,0,0,0-.32-.19,18.67,18.67,0,0,0-2.73-.19c-.78,0-1.56.06-2.28.13a.55.55,0,0,0-.45.58l.06.13.07.06a.93.93,0,0,0,.39.27A12.61,12.61,0,0,1,194.74,4Zm-2.21,14.17a.52.52,0,0,0,0,1h.39a10.89,10.89,0,0,0,2.14-.2c.13,0,.26-.13.33-.19s.13-.26.06-.39v-.13A.54.54,0,0,0,195,18h-.13a9.26,9.26,0,0,1-2,.13Zm7.6,12.61a.57.57,0,0,0,.39-.2.45.45,0,0,0,.13-.32,3.45,3.45,0,0,0-1.56-3,9.22,9.22,0,0,0-4.35-1.3.46.46,0,0,0-.52.45v.13a.55.55,0,0,0,.45.46,8,8,0,0,1,3.84,1.1,2.32,2.32,0,0,1,1.1,2.15.56.56,0,0,0,.46.52Zm2.41-10a.5.5,0,0,0-.33.13,7.1,7.1,0,0,1-1.1.84.56.56,0,0,0-.26.46.51.51,0,0,0,.32.39,8.25,8.25,0,0,1,2.6,1.75,8.1,8.1,0,0,1,2.34,6.05,9.49,9.49,0,0,1-3.51,7.86,13.33,13.33,0,0,1-7.28,2.6.63.63,0,0,0-.45.46v.13a.5.5,0,0,0,.52.45A14.72,14.72,0,0,0,203.25,39a10.55,10.55,0,0,0,3.84-8.64,9,9,0,0,0-2.6-6.76A10.23,10.23,0,0,0,202.34,22a3.35,3.35,0,0,0,.52-.39.38.38,0,0,0,.2-.33,1,1,0,0,0-.13-.39l-.07-.06-.13-.07C202.67,20.8,202.6,20.74,202.54,20.74ZM195.19,35.1l.07.13a.43.43,0,0,0,.45.39h.13a7.2,7.2,0,0,0,3.12-1.3,4.25,4.25,0,0,0,1.17-1.49c.13-.26.07-.59-.19-.65l-.07-.07h-.19a.66.66,0,0,0-.46.26,2.88,2.88,0,0,1-.84,1.17,6.52,6.52,0,0,1-2.73,1,.48.48,0,0,0-.39.46Zm1.56-17.29.07.07a.5.5,0,0,0,.45.26l.26-.07a1.09,1.09,0,0,1,.46-.32,4.37,4.37,0,0,0,1.56-3.51,4.23,4.23,0,0,0-.13-1,.5.5,0,0,0-.52-.39h-.13l-.07.07a.45.45,0,0,0-.26.52,2.7,2.7,0,0,1,.07.78A3.36,3.36,0,0,1,197.34,17a1.26,1.26,0,0,0-.39.26.41.41,0,0,0-.2.52Zm2.54-13.65a.58.58,0,0,0,.32.52,10.74,10.74,0,0,1,3.58,2,8.8,8.8,0,0,1,1.88,2.21.41.41,0,0,0,.39.2h.2l.06-.07a.46.46,0,0,0,.2-.65,8.24,8.24,0,0,0-2.08-2.4,11.51,11.51,0,0,0-3.9-2.21h-.13a.5.5,0,0,0-.52.32ZM205.92,37a.38.38,0,0,0-.39.19,12.79,12.79,0,0,1-2,2.15,14.51,14.51,0,0,1-3.57,2,.51.51,0,0,0-.33.52v.13a.52.52,0,0,0,.52.32.2.2,0,0,0,.13-.06,13.68,13.68,0,0,0,3.84-2.08,11,11,0,0,0,2.21-2.34.48.48,0,0,0,.13-.39.71.71,0,0,0-.26-.33V37h-.26Zm1.17-11.7c-.13,0-.2,0-.26.06h-.07l-.06.07a.48.48,0,0,0-.07.58,11,11,0,0,1,.65,2.21.56.56,0,0,0,.52.39h.07a.5.5,0,0,0,.39-.58,10.47,10.47,0,0,0-.72-2.47A.66.66,0,0,0,207.09,25.29Zm-.2,10.53h.2a.48.48,0,0,0,.45-.33,13,13,0,0,0,.91-4.94c.07-.13,0-.26-.13-.39A.5.5,0,0,0,208,30h-.07a.55.55,0,0,0-.45.52,12.34,12.34,0,0,1-.85,4.55.5.5,0,0,0,.2.65Z"/><path class="cls-8" d="M227.1,45.11A13.52,13.52,0,0,1,215,38.48c-2.34-3.7-3.44-8.77-3.44-15.4s1.1-11.83,3.31-15.41c2.73-4.36,6.83-6.5,12.22-6.5A13.57,13.57,0,0,1,239.26,7.8c2.34,3.64,3.51,8.78,3.51,15.28,0,6.82-1.1,11.89-3.38,15.53C236.6,43,232.5,45.11,227.1,45.11Zm0-43.61a13.16,13.16,0,0,0-11.89,6.37c-2.21,3.51-3.32,8.51-3.32,15.21s1.11,11.57,3.38,15.21a13.42,13.42,0,0,0,11.83,6.5c5.27,0,9.3-2.15,12-6.37,2.27-3.58,3.38-8.58,3.38-15.34,0-6.44-1.17-11.51-3.45-15.08A13.38,13.38,0,0,0,227.1,1.5Zm0,42.25a12.28,12.28,0,0,1-10.91-6c-2.22-3.51-3.26-8.32-3.26-14.69s1-11.31,3.19-14.69c2.4-3.9,6.11-5.85,11-5.85a12.18,12.18,0,0,1,11,6c2.21,3.44,3.32,8.32,3.32,14.56,0,6.56-1,11.37-3.19,14.82C235.75,41.8,232,43.75,227.1,43.75Zm-13.26-23.6a.44.44,0,0,0-.45.46c-.07.78-.07,1.62-.07,2.47a.51.51,0,0,0,.46.52h.13a.5.5,0,0,0,.39-.52c0-.78,0-1.56.06-2.41a.52.52,0,0,0-.32-.52Zm1-7.28a.56.56,0,0,0-.45.39,30.6,30.6,0,0,0-.91,4.88.61.61,0,0,0,.45.58.57.57,0,0,0,.59-.45,24.75,24.75,0,0,1,.84-4.75.89.89,0,0,0-.06-.39.67.67,0,0,0-.33-.26Zm.65,5.07h-.13a.66.66,0,0,0-.52.46c-.13,1.43-.19,3.05-.19,4.68,0,6,1,10.53,3,13.71A10.48,10.48,0,0,0,227.1,42a10.71,10.71,0,0,0,9.63-5.07l.06-.13a.59.59,0,0,0-.13-.71h-.13a.22.22,0,0,0-.19-.07.53.53,0,0,0-.39.26l-.07.13C233.93,39.46,231,41,227.1,41a9.51,9.51,0,0,1-8.58-4.68c-1.88-3.05-2.79-7.34-2.79-13.19,0-1.63.06-3.19.19-4.55a.51.51,0,0,0-.32-.52Zm.13-6.37a.61.61,0,0,0,.53-.32,15.62,15.62,0,0,1,1.1-2.15,10.77,10.77,0,0,1,3.12-3.31.53.53,0,0,0,.19-.59l-.06-.13a.45.45,0,0,0-.39-.19.65.65,0,0,0-.33.06,13.21,13.21,0,0,0-3.44,3.64,24.43,24.43,0,0,0-1.17,2.28.65.65,0,0,0,.32.71ZM227.3,43.36a15.49,15.49,0,0,0,2.54-.2.5.5,0,0,0,.39-.58v-.07l-.07-.06a.48.48,0,0,0-.45-.33h-.07a12.78,12.78,0,0,1-2.34.26h-.13a11.46,11.46,0,0,1-6.69-2,.39.39,0,0,0-.27-.07.59.59,0,0,0-.45.2.77.77,0,0,0-.07.39.35.35,0,0,0,.2.32,12.26,12.26,0,0,0,7.21,2.15ZM227.1,9.1a5.53,5.53,0,0,0-5.39,3.32c-1.17,2.4-1.82,6-1.82,10.66,0,4.94.65,8.58,1.88,10.92a13.78,13.78,0,0,0,1,1.36.57.57,0,0,0,.39.2.55.55,0,0,0,.33-.13l.06-.07V35.3a.5.5,0,0,0,0-.59,5.33,5.33,0,0,1-.84-1.23c-1.17-2.15-1.76-5.66-1.76-10.4,0-4.55.52-8,1.69-10.21a4.62,4.62,0,0,1,4.48-2.79,4.69,4.69,0,0,1,4.55,2.79c1.11,2.21,1.7,5.66,1.7,10.21a33.07,33.07,0,0,1-.52,6.63.44.44,0,0,0,.26.52l.06.06h.13a.5.5,0,0,0,.52-.39,34.56,34.56,0,0,0,.59-6.82c0-4.68-.66-8.26-1.89-10.66A5.47,5.47,0,0,0,227.1,9.1Zm12,13.72a.51.51,0,0,0,.52-.52c-.06-5.53-1.1-9.82-3-12.81a10.72,10.72,0,0,0-9.56-5.2,12,12,0,0,0-5.45,1.24.48.48,0,0,0-.26.65l.06.06v.07a.8.8,0,0,0,.39.19l.26-.06a10.33,10.33,0,0,1,5-1.11A9.6,9.6,0,0,1,235.75,10c1.82,2.86,2.8,7,2.86,12.29a.58.58,0,0,0,.39.52Zm-12-12.35A4.21,4.21,0,0,0,222.94,13a11.32,11.32,0,0,0-.91,2.67.31.31,0,0,0,.07.39.51.51,0,0,0,.26.26h.07a.52.52,0,0,0,.58-.39,12.12,12.12,0,0,1,.84-2.47,3.15,3.15,0,0,1,3.25-2,.5.5,0,0,0,.46-.39h.07V11A.57.57,0,0,0,227.1,10.47Zm0,1.43a2.79,2.79,0,0,0-2.92,1.75c-1,2-1.49,5.2-1.49,9.43s.51,7.73,1.55,9.55a3.26,3.26,0,0,0,5.79,0c1-2,1.56-5.26,1.56-9.55s-.52-7.41-1.56-9.43A2.79,2.79,0,0,0,227.1,11.9Zm0,21.51a2,2,0,0,1-2-1.23c-.91-1.69-1.43-4.94-1.43-9.1s.52-7.15,1.43-9a1.81,1.81,0,0,1,2-1.24,1.94,1.94,0,0,1,2.09,1.24c.91,1.88,1.42,4.87,1.42,9s-.51,7.21-1.42,9.1A1.94,1.94,0,0,1,227.1,33.41Zm0-20.15a1.52,1.52,0,0,0-1.69,1c-.58,1.24-1.36,3.77-1.36,8.78,0,4,.52,7.28,1.36,8.9a1.61,1.61,0,0,0,1.69,1,1.48,1.48,0,0,0,1.7-1c.91-1.75,1.43-4.87,1.43-8.9,0-5-.79-7.54-1.43-8.78A1.49,1.49,0,0,0,227.1,13.26Zm-2.79,21.06a.54.54,0,0,0,.13.72,4.25,4.25,0,0,0,2.6.78.56.56,0,0,0,.52-.52v-.07l-.07-.06a.54.54,0,0,0-.45-.39,3.25,3.25,0,0,1-2-.59.39.39,0,0,0-.25-.06.54.54,0,0,0-.33.06ZM229,35a.4.4,0,0,0,.39.19.43.43,0,0,0,.26-.06,4.12,4.12,0,0,0,1.63-2,10.71,10.71,0,0,0,1-2.54.49.49,0,0,0-.39-.58h-.13c-.2,0-.45.13-.45.32a13.34,13.34,0,0,1-.85,2.34,3.9,3.9,0,0,1-1.3,1.56c-.19.07-.26.33-.19.59Zm3.19-6.37a.54.54,0,0,0,.51-.46,38.33,38.33,0,0,0,.33-5.13c0-.78-.06-1.56-.06-2.28a.56.56,0,0,0-.52-.45h-.13a.54.54,0,0,0-.39.52c.06.71.06,1.49.06,2.21a36.4,36.4,0,0,1-.33,5,.71.71,0,0,0,.33.59ZM236.92,9.3a10,10,0,0,1,1.11,2,.48.48,0,0,0,.45.33h.2v-.07a.46.46,0,0,0,.26-.65,18.22,18.22,0,0,0-1.11-2.21s-.32-.52-.71-.26-.27.65-.27.65Zm2.28,3.64h-.07l-.13.13c-.13.06-.19.32-.13.52a29.21,29.21,0,0,1,.91,4.68.5.5,0,0,0,.52.45c.33-.06.52-.26.46-.58a27,27,0,0,0-1-4.88c0-.19-.19-.32-.45-.32Zm1.1,15.53a.54.54,0,0,0,.52-.45c.13-1.5.2-3.12.2-4.94,0-.91,0-1.69-.07-2.47a.44.44,0,0,0-.45-.46h-.13l-.07.07c-.19,0-.32.26-.32.45,0,.85.06,1.63.06,2.41a37.11,37.11,0,0,1-.26,4.87.65.65,0,0,0,.33.52Z"/></g></g></svg>