<svg xmlns="http://www.w3.org/2000/svg" viewBox="0 0 131.25 131.25"><defs><style>.cls-1{fill:#d0d0d0;}.cls-2{fill:#d3976e;}.cls-3{fill:#cea9f7;}.cls-4{fill:#ffdd7d;}.cls-5{fill:#a80038;}.cls-6{fill:#ff2c68;}.cls-7{fill:#ffa4a4;}.cls-8{fill:#42ade2;}.cls-9{fill:#428bc1;}.cls-10{fill:#ff8b00;}.cls-11{fill:#fff033;}.cls-12{fill:#9fe4ff;}</style></defs><title>cake</title><g id="Lager_2" data-name="Lager 2"><g id="Lager_1-2" data-name="Lager 1"><ellipse class="cls-1" cx="65.63" cy="103.65" rx="65.63" ry="27.6"/><path class="cls-2" d="M12.47,50V99.17c0,12.35,23.8,22.36,53.15,22.36s53.16-10,53.16-22.36V50Z"/><path class="cls-3" d="M12.47,60.51v.06l0-.06Z"/><path class="cls-3" d="M118.78,60.51h0v0Z"/><path class="cls-4" d="M118.78,64.34c-.24,8.77-33.66,18.48-53.16,18.48S12.71,73.11,12.47,64.34v13.4c27.36,19.59,79,19.59,106.31,0Z"/><path class="cls-4" d="M118.78,85.23c-.24,8.77-33.66,18.48-53.16,18.48S12.71,94,12.47,85.23v13.4c27.33,19.59,79,19.59,106.31,0Z"/><path class="cls-5" d="M12.47,50V86.89a3.9,3.9,0,0,0,4.12,3.62,3.9,3.9,0,0,0,4.12-3.62V78.45c0-2.65,2.45-4.81,5.47-4.81s5.48,2.16,5.48,4.81V88.86c0,3.08,2.85,5.59,6.36,5.59s6.36-2.51,6.36-5.59V78.22c0-2.78,2.57-5,5.73-5s5.73,2.25,5.73,5V85a3.21,3.21,0,0,0,6.36,0V79.62a4.17,4.17,0,0,1,8.27,0v9.24c0,3.08,2.85,5.59,6.37,5.59s6.36-2.51,6.36-5.59V78.51c0-2.63,2.42-4.76,5.41-4.76S94,75.88,94,78.51v7.55a3.21,3.21,0,0,0,6.36,0V80.77a2.86,2.86,0,0,1,5.67,0v8.09c0,3.08,2.85,5.59,6.36,5.59s6.37-2.51,6.37-5.59V50.11Z"/><ellipse class="cls-6" cx="65.63" cy="49.96" rx="53.16" ry="22.36"/><path class="cls-7" d="M27.09,47.62c-.3-14.31,62.8-16.18,63.05-3.56.2,9.43-40,9.93-40.21,2.38-.11-5.35,24.88-5.45,25-1.46s-20.33,4.49-15.64-.39c-8.1,6,17.62,6.45,17.51.76-.14-6.62-30.51-5.6-30.37,1.19.21,10.16,46.78,9,46.55-2.35C92.64,29.37,23,29.88,23.4,47.72c.4,19.45,68.36,26.55,90.36,1.73C83.83,71.9,27.36,61,27.09,47.62Z"/><path class="cls-8" d="M21.42,21.06V44.68c0,3.37,7,2.78,7,0V21.06C28.42,17.68,21.42,17.68,21.42,21.06Z"/><polygon class="cls-9" points="28.42 23.29 21.42 26.88 21.42 31.07 28.42 27.47 28.42 23.29"/><polygon class="cls-9" points="21.42 38.26 21.42 42.24 28.42 38.64 28.42 34.66 21.42 38.26"/><path class="cls-10" d="M28.66,15.69c0,5.38-7.24,5.38-7.24,0,0-1.78,3.62-7.52,3.62-7.52S28.66,13.91,28.66,15.69Z"/><path class="cls-11" d="M26.85,17.4c0,3.08-3.62,3.08-3.62,0,0-.88,1.81-3.75,1.81-3.75S26.85,16.52,26.85,17.4Z"/><path class="cls-8" d="M62.46,11.27V31.94c0,3.23,6.12,2.71,6.12,0V11.27C68.58,8.05,62.46,8.05,62.46,11.27Z"/><polygon class="cls-9" points="68.58 13.22 62.46 16.37 62.46 20.04 68.58 16.89 68.58 13.22"/><polygon class="cls-9" points="62.46 26.33 62.46 29.8 68.58 26.66 68.58 23.18 62.46 26.33"/><path class="cls-10" d="M68.79,6.58c0,5-6.33,5-6.33,0C62.46,5,65.62,0,65.62,0S68.79,5,68.79,6.58Z"/><path class="cls-11" d="M67.21,8.08c0,3-3.17,3-3.17,0,0-.78,1.58-3.29,1.58-3.29S67.21,7.3,67.21,8.08Z"/><path class="cls-8" d="M102.59,21V44.64c0,3.38,7,2.78,7,0V21C109.58,17.65,102.59,17.65,102.59,21Z"/><polygon class="cls-9" points="109.58 23.25 102.59 26.85 102.59 31.04 109.58 27.44 109.58 23.25"/><polygon class="cls-9" points="102.59 38.23 102.59 42.21 109.58 38.61 109.58 34.63 102.59 38.23"/><path class="cls-10" d="M109.82,15.66c0,5.41-7.23,5.41-7.23,0,0-1.78,3.62-7.52,3.62-7.52S109.82,13.88,109.82,15.66Z"/><path class="cls-11" d="M108,17.38c0,3.07-3.62,3.07-3.62,0,0-.9,1.81-3.77,1.81-3.77S108,16.48,108,17.38Z"/><path class="cls-12" d="M39.4,35.72V64.28c0,3.62,8.46,2.9,8.46,0V35.72C47.86,32.1,39.4,32.1,39.4,35.72Z"/><polygon class="cls-8" points="47.86 38.42 39.4 42.76 39.4 47.83 47.86 43.48 47.86 38.42"/><polygon class="cls-8" points="39.4 56.52 39.4 61.33 47.86 56.99 47.86 52.18 39.4 56.52"/><path class="cls-10" d="M48.15,29.24a4.38,4.38,0,1,1-8.75,0c0-2.16,4.38-9.09,4.38-9.09S48.15,27.08,48.15,29.24Z"/><path class="cls-11" d="M46,31.31a2.2,2.2,0,1,1-4.37,0c0-1.07,2.19-4.54,2.19-4.54S46,30.24,46,31.31Z"/><path class="cls-12" d="M83.19,35.66V64.22c0,3.63,8.46,2.9,8.46,0V35.66C91.65,32,83.19,32,83.19,35.66Z"/><polygon class="cls-8" points="91.65 38.36 83.19 42.7 83.19 47.77 91.65 43.42 91.65 38.36"/><polygon class="cls-8" points="83.19 56.47 83.19 61.27 91.65 56.92 91.65 52.12 83.19 56.47"/><path class="cls-10" d="M91.94,29.17c0,6-8.75,6-8.75,0,0-2.15,4.38-9.08,4.38-9.08S91.94,27,91.94,29.17Z"/><path class="cls-11" d="M89.76,31.25a2.2,2.2,0,1,1-4.38,0c0-1.08,2.19-4.54,2.19-4.54S89.76,30.17,89.76,31.25Z"/></g></g></svg>