<svg xmlns="http://www.w3.org/2000/svg" viewBox="0 0 170.31 93.75"><defs><style>.cls-1{fill:#3e4347;}.cls-2{fill:#c28fef;}.cls-3{fill:#9450e0;}.cls-4{fill:#ffc7ce;}.cls-5{fill:#fed0ac;}.cls-6{fill:#e0a372;}.cls-7{fill:#dbb471;}.cls-8{fill:#664e27;}.cls-9{fill:#b70b0b;}.cls-10{fill:#ff4848;}</style></defs><title>dancing_couple</title><g id="Lager_2" data-name="Lager 2"><g id="Lager_1-2" data-name="Lager 1"><path class="cls-1" d="M11.78,88.88a4.56,4.56,0,0,0,0,4.87h4.48V92s.75,1.77,7.59,1.77c2.36,0,2.61-2.3.12-2.44s-2.14-1.88-4.49-4.87Z"/><path class="cls-1" d="M38.65,88.88a4.53,4.53,0,0,0,0,4.87h4.48V92s.74,1.77,7.58,1.77c2.37,0,2.62-2.3.13-2.44s-2.14-1.88-4.49-4.87Z"/><path class="cls-2" d="M43.62,72.18c-.74-3.89-6.71-6.6-10.45-14.28A59.07,59.07,0,0,0,17.5,56S13.4,58,15.64,67.34C17,73,14.15,82.52,9.67,89.46a21,21,0,0,0,13.43,0s-2.05-4.85,1.46-14.22c1.13-3-1.49-6,1.16-12.72,0,0,1.28,2.84,10.84,11.35,0,0-1.89,8.75.35,15.59,0,0,1.43.64,6.58.64a31,31,0,0,0,7.22-.64S46.09,85.18,43.62,72.18Z"/><path class="cls-3" d="M23.63,57.54c-3.3-1.62-5.3-1.76-6.53-1.28a6.16,6.16,0,0,0-1.89,3.56c2.82,1.52,7.13,1.32,7.13,1.32A8.9,8.9,0,0,0,23.63,57.54Z"/><path class="cls-2" d="M29.57,30.48s11.3-3.39,16.15-12.59c0,0,.76,3.52,6.49,7,0,0-8.46,6.43-14.43,9.09A69.86,69.86,0,0,0,42,57.19s-.4,1.36-11.1,1.36C30.86,58.56,36.38,48.77,29.57,30.48Z"/><path class="cls-2" d="M21.73,31S16.49,27.92,13.9,30C0,40.93-.81,43.6.84,52.21c0,0,2.85-2.07,7.83.26,0,0-2.24-8.55,7.76-13.07,0,0,.3,6.49-3.28,17.46,0,0,2.24,3,8.58,3C21.73,59.91,28.45,45.69,21.73,31Z"/><path class="cls-3" d="M47,16.31s6,3.31,6,8.41H49.63s-.3-2.76-1.8-3.86S47,16.31,47,16.31Z"/><path class="cls-4" d="M47,16.31a58.47,58.47,0,0,0-4.42,4.18,7.59,7.59,0,0,0,1.69,3.39l3.86-2-2.83,3.63a7.49,7.49,0,0,0,3.25,2.54,19.29,19.29,0,0,0,4.48-3.33A13.75,13.75,0,0,1,47,16.31Z"/><path class="cls-5" d="M53.05,16.5s3-2.5,2.18-3.35-1.41-.89-2.18,0c-.3.36-.91,1-2,2.08-1.13-.89-1.57,0-1.84.38a11.34,11.34,0,0,0-.93,2.44,10.11,10.11,0,0,0,4.16,5.16c1.5-.94,3.78-2.48,3.78-3.16C56.25,18.57,53.05,16.5,53.05,16.5Z"/><path class="cls-6" d="M49.24,17.48a2.88,2.88,0,0,1,2,.3L51,18A3.27,3.27,0,0,0,49.24,17.48Z"/><path class="cls-3" d="M.58,53.84s2.54,1.76,8.94.29C9.52,54.13,6.19,51.41.58,53.84Z"/><path class="cls-5" d="M2.26,52.26a7.19,7.19,0,0,0,1.09,7.22c.71,1,2.87,1.8,5.13.85s.3-1.78-.55-3.59C8.46,56.16,9,55.63,8.7,55a4.12,4.12,0,0,0-1.88-1.56S7.58,51.84,2.26,52.26Z"/><path class="cls-6" d="M8.71,55c0-.08-.1-.16-.14-.24.19.51-.43,1.33-.81,1-.57-.56-1.33-1.27-1.33-1.27a8.6,8.6,0,0,1,1.5,2.27C8.46,56.16,9,55.63,8.71,55Z"/><path class="cls-4" d="M0,48.6a23.19,23.19,0,0,1,.58,5.24s3.62-1.4,8.94.29c0,0-.94-3.16.15-5.53,0,0-.58-1.34-3.24-1.74L5.34,51.31,4.3,47A4.1,4.1,0,0,0,0,48.6Z"/><path class="cls-6" d="M54,21.25c-.47.42-1.37,1.22-2.73-.23s-.51-2.37.11-3.13A2,2,0,0,0,52,16.48c0-.67-1.33-1.29-.71-.76,0,0,.91.4-.39,2.17-.53.72-1.14,1.59-.46,2.63s1.7,2.27,3.25,1.35S54.8,20.51,54,21.25Z"/><polygon class="cls-6" points="29.57 29.96 22.75 29.96 28.25 38.8 29.57 29.96"/><path class="cls-4" d="M34.29,31.44c-.84-.89-2.73-.42-2.73-.42l2.24-3a10.85,10.85,0,0,1-4.57,1.53c-1.59,3.16-1,9.05-1,9.05S27,32.49,22.8,29.58a15.05,15.05,0,0,0-5.16.34L21.76,32l-3.1,1.29A16.86,16.86,0,0,1,23.25,35a50.1,50.1,0,0,1-.59,22.48l8.54.43s4.52-8.73-.34-23.48A15.53,15.53,0,0,1,34.29,31.44Z"/><path class="cls-3" d="M30.86,58.56s8.91-3.27,11.1-1.37C42,57.19,41.85,58.56,30.86,58.56Z"/><path class="cls-2" d="M28.25,39.4A29.12,29.12,0,0,1,27,55.81S31.59,47.66,28.25,39.4Z"/><path class="cls-5" d="M22.84,9.29C10.57,9.29,12,6.16,12,21.69c0,7.38,6.58,9.52,13.42,9.39S36.17,29.4,36.17,22C36.17,9.74,32.9,9.29,22.84,9.29Z"/><path class="cls-7" d="M17.2,30.17c-.13,1.17-.23,3.15-4.64,2.43,0,0,.63-7.5-2.74-11.68s-4.11-8-1.42-11c0,0-3.1-6.85,11.06-8.69C26.61.32,32.9,3,39.5,0c0,0,5.89,11.7-5.29,13.14s-11.3-2.43-17.84-1.58A46.92,46.92,0,0,0,19,22.63a2,2,0,0,1-1.21,2.09s-1.37-6.08-3.56-7.54-2.2,2.06-1.09,3.95,1.93,1.58,1.93,1.58S17.6,26.55,17.2,30.17Z"/><circle class="cls-8" cx="21.66" cy="17.85" r="2.27"/><circle class="cls-8" cx="32.75" cy="17.85" r="2.27" transform="translate(2.13 39.16) rotate(-63.44)"/><path class="cls-8" d="M30.83,24.75a5.52,5.52,0,0,1-7.25,0c-.28-.22-.53.16-.34.51a4.43,4.43,0,0,0,7.93,0C31.36,24.91,31.11,24.53,30.83,24.75Z"/><path class="cls-9" d="M166.5,49.63c-2.35,19.23-40.91,17.06-42.85,7.33-14.42,7.28-10.45,18.78-10.45,18.78C126.45,105.44,185.76,75.51,166.5,49.63Z"/><path class="cls-10" d="M147.36,78.94c4.89,3,2.11,6.76-5.1,3.6-6.07-2.66-.91-8,1.23-6.17A20.69,20.69,0,0,0,147.36,78.94Z"/><path class="cls-5" d="M143.09,78.52c-5.47-4.6-4.68-7-10.09-8.45-5-7.94-9.21-10.7-9.21-10.7a8.67,8.67,0,0,0-1.61,7.19s5.27,6.9,9.18,8.84a99.49,99.49,0,0,1,9.8,5.72C143.41,83,145.55,80.59,143.09,78.52Z"/><path class="cls-10" d="M122.23,90c.21,6.16-9.09,3.55-5.72,1,.54-.41.5-1.38.23-2.14-2-5.84,5-6.27,5.11-3.57C121.92,87.53,122.2,88.86,122.23,90Z"/><path class="cls-5" d="M120.22,86.47c-.37-6.81,2-8-.72-12.54.83-4-1.1-10.45-1.1-10.45a39.63,39.63,0,0,0-6.18,1.13s.92,8.16,2.2,12.06A85.16,85.16,0,0,1,117,87.07C117.08,89.89,120.39,89.53,120.22,86.47Z"/><path class="cls-7" d="M136.11,13.43c4.28,11.86,18.66,15.7,26.51,4.8C166.7,33.78,145.21,41,133,41.3c-38.1,1-34-20.34-34-23C99-5.56,129.5-4.91,136.11,13.43Z"/><path class="cls-5" d="M142.34,48c-2.52-1.44-3.36-1.89-4.15-1.19L127,39.66a18.73,18.73,0,0,0-5.8-2.29c-2.17,2.13.72,4.07.72,4.07l14.35,8.37-.53.9a1.45,1.45,0,0,0,.54,2l1,.55a1.5,1.5,0,0,0,1.58-.06c1.33.64,3.28,1.14,4.65-1.2A2.67,2.67,0,0,0,142.34,48Z"/><path class="cls-5" d="M101,38.69l-6.93-6.84,0,0a1.45,1.45,0,0,0-.06-2.07L93.24,29a1.49,1.49,0,0,0-1.54-.3c-1.15-.93-2.93-1.85-4.81.12A2.65,2.65,0,0,0,87,33c2.08,1.94,2.8,2.59,3.71,2.13l8.88,8.74,10-1,2.42-5.49Z"/><path class="cls-10" d="M117,71.39c15.66-5.21,18.14.48,37.49-1.1s12-20.67,12-20.67c-3.16,16.45-40.6,10.47-42.55.75,3.38-3.4,3.13-6.54-2.8-13a6.48,6.48,0,0,1-9.09,0c-10.13,10.67-2.38,14-2.38,14,2.64,5.08-1.27,10.9,3.52,24.39C113.2,75.74,114.82,72.13,117,71.39Z"/><path class="cls-5" d="M129.28,20.86c.27-6.86-3-7.43-3-7.43-15,0-22.62,7.43-22.62,7.43S100,18.4,100,23.25c0,1.86.71,3.37,3.11,3.54.82,6.07,4.27,8.24,9.45,8.85v1.73h-.5l-3.29,5.13c0,1.06,3.31-3.17,7.85,2.44,4.53-5.59,7.82-1.38,7.82-2.44l-3.29-5.13h-.72V35.64c5.19-.61,8.63-2.78,9.46-8.85,2.38-.16,3.09-1.68,3.09-3.54C133,18.4,129.28,20.86,129.28,20.86Z"/><path class="cls-6" d="M92.81,32.33a19.43,19.43,0,0,1-1.7-1.68,1.26,1.26,0,0,1,.08-1.31l.11-.13c.19-.2-.12-.51-.31-.31a1.71,1.71,0,0,0-.44,1.5,1.78,1.78,0,0,0,.56,1l1.39,1.29C92.71,32.83,93,32.52,92.81,32.33Z"/><circle class="cls-8" cx="110.78" cy="21.64" r="2.4"/><circle class="cls-8" cx="122.5" cy="21.64" r="2.4" transform="translate(20.58 92.96) rotate(-45)"/><path class="cls-8" d="M120.46,28.93a5.82,5.82,0,0,1-7.65,0c-.29-.23-.56.17-.36.54a4.68,4.68,0,0,0,8.38,0C121,29.1,120.76,28.7,120.46,28.93Z"/></g></g></svg>