<svg xmlns="http://www.w3.org/2000/svg" viewBox="0 0 1090.43 619.65"><defs><style>.cls-1,.cls-2,.cls-3,.cls-4,.cls-5,.cls-6,.cls-7,.cls-8,.cls-9{fill:#26a676;}.cls-1{opacity:0.82;}.cls-2{opacity:0.37;}.cls-3{opacity:0.47;}.cls-4{opacity:0.84;}.cls-5{opacity:0.6;}.cls-6{opacity:0.29;}.cls-7{opacity:0.89;}.cls-9{opacity:0.74;}.cls-10{fill:none;stroke:gray;stroke-miterlimit:10;stroke-width:1.5px;}</style></defs><title>flags_t_b</title><g id="Lager_2" data-name="Lager 2"><g id="Lager_1-2" data-name="Lager 1"><polygon class="cls-1" points="999.23 509.03 993.45 619.65 1076.16 548.06 999.23 509.03"/><polygon class="cls-2" points="876.14 446.58 870.36 557.2 953.07 485.61 876.14 446.58"/><polygon class="cls-3" points="753.65 383.94 747.87 494.56 830.58 422.97 753.65 383.94"/><polygon class="cls-4" points="630.7 321.08 624.92 431.7 707.63 360.11 630.7 321.08"/><polygon class="cls-5" points="507.61 258.63 501.83 369.25 584.54 297.66 507.61 258.63"/><polygon class="cls-6" points="384.52 196.17 378.74 306.8 461.45 235.21 384.52 196.17"/><polygon class="cls-7" points="262.03 133.54 256.25 244.16 338.96 172.57 262.03 133.54"/><polygon class="cls-8" points="139.08 70.67 133.3 181.3 216.01 109.71 139.08 70.67"/><polygon class="cls-9" points="15.99 8.22 10.21 118.84 92.92 47.25 15.99 8.22"/><line class="cls-10" x1="1090.09" y1="555.17" x2="0.34" y2="0.67"/></g></g></svg>