<svg xmlns="http://www.w3.org/2000/svg" viewBox="0 0 1090.08 566.34"><defs><style>.cls-1,.cls-2,.cls-3,.cls-4,.cls-5,.cls-6,.cls-7,.cls-8,.cls-9{fill:#26a676;}.cls-2{opacity:0.78;}.cls-3{opacity:0.72;}.cls-4{opacity:0.93;}.cls-5{opacity:0.4;}.cls-6{opacity:0.84;}.cls-7{opacity:0.68;}.cls-8{opacity:0.39;}.cls-9{opacity:0.8;}.cls-10{fill:none;stroke:gray;stroke-miterlimit:10;stroke-width:2px;}</style></defs><title>flags_b_t</title><g id="Lager_2" data-name="Lager 2"><g id="Lager_1-2" data-name="Lager 1"><polygon class="cls-1" points="1006.98 38.53 1089.55 112.38 1085.62 3.06 1006.98 38.53"/><polygon class="cls-2" points="881.16 95.27 963.72 169.13 959.8 59.81 881.16 95.27"/><polygon class="cls-3" points="755.34 152.02 837.9 225.87 833.98 116.55 755.34 152.02"/><polygon class="cls-4" points="629.52 208.76 712.08 282.62 708.16 173.3 629.52 208.76"/><polygon class="cls-5" points="503.7 265.51 586.26 339.36 582.34 230.04 503.7 265.51"/><polygon class="cls-6" points="377.88 322.25 460.44 396.11 456.51 286.79 377.88 322.25"/><polygon class="cls-7" points="252.06 379 334.62 452.85 330.69 343.53 252.06 379"/><polygon class="cls-8" points="126.23 435.74 208.79 509.59 204.87 400.27 126.23 435.74"/><polygon class="cls-9" points="0.41 492.48 82.97 566.34 79.05 457.02 0.41 492.48"/><line class="cls-10" x1="0.41" y1="492.48" x2="1089.67" y2="0.91"/></g></g></svg>