<svg xmlns="http://www.w3.org/2000/svg" viewBox="0 0 22.5 21.75"><defs><style>.cls-1{fill:#42ade2;}.cls-2{fill:#fed0ac;}.cls-3{fill:#e0a372;}</style></defs><title>hello</title><g id="Lager_2" data-name="Lager 2"><g id="Lager_1-2" data-name="Lager 1"><path class="cls-1" d="M5.28,17.05a3.07,3.07,0,0,1-.52-.14,4.4,4.4,0,0,1-.5-.21,5.51,5.51,0,0,1-.94-.55,5.29,5.29,0,0,1-1.48-1.64,4.9,4.9,0,0,1-.64-2.1,5.65,5.65,0,0,1,0-1.09,4.82,4.82,0,0,1,.11-.52,3.81,3.81,0,0,1,.17-.51l0,.53.06.51q.07.51.18,1a6.78,6.78,0,0,0,.72,1.81,7.52,7.52,0,0,0,1.2,1.57c.23.23.48.46.74.69l.4.33Z"/><path class="cls-1" d="M5.18,18.41a3.25,3.25,0,0,1-.4.15l-.41.09a4.73,4.73,0,0,1-.84,0,3.9,3.9,0,0,1-1.66-.46A3.73,3.73,0,0,1,.59,17.08a4.06,4.06,0,0,1-.4-.74c0-.13-.09-.27-.12-.4A2.93,2.93,0,0,1,0,15.53l.27.31.27.29a6.78,6.78,0,0,0,.53.54,5.8,5.8,0,0,0,1.19.86,6.63,6.63,0,0,0,1.37.54l.75.19.39.07Z"/><path class="cls-1" d="M13.63.19a4.72,4.72,0,0,1,.53.18l.5.23a5.82,5.82,0,0,1,.94.61A5.26,5.26,0,0,1,17,2.93a4.78,4.78,0,0,1,.54,2.14,5.6,5.6,0,0,1-.1,1.09c0,.18-.09.35-.14.52a4.4,4.4,0,0,1-.21.5V6.65c0-.17,0-.35,0-.52a6.67,6.67,0,0,0-.13-1,6.7,6.7,0,0,0-.63-1.86,7.38,7.38,0,0,0-1.14-1.63,8.38,8.38,0,0,0-.73-.73L14,.55Z"/><path class="cls-1" d="M16.92,0l.39.14.36.19a4,4,0,0,1,.67.49,3.58,3.58,0,0,1,.94,1.36,3.29,3.29,0,0,1,.22,1.64,3.62,3.62,0,0,1-.18.79,2.37,2.37,0,0,1-.17.36,2.5,2.5,0,0,1-.21.35c0-.14,0-.27,0-.4s0-.25,0-.38,0-.49-.06-.73a5.13,5.13,0,0,0-.33-1.35,5.85,5.85,0,0,0-.68-1.25l-.44-.6-.25-.3C17.09.23,17,.13,16.92,0Z"/><path class="cls-2" d="M3,5.61a1.46,1.46,0,0,0-.66,2l4.73,9.88,2.62-1.25L5,6.33A1.48,1.48,0,0,0,3,5.61Z"/><path class="cls-2" d="M15.43,13.47l2.79-1.33L12.83.87A1.55,1.55,0,0,0,10.77.15h0a1.55,1.55,0,0,0-.72,2.07Z"/><path class="cls-3" d="M10.77.15h0a1.28,1.28,0,0,0-.23.14,1.54,1.54,0,0,1,1.79.82l5.39,11.26.5-.23L12.83.87A1.55,1.55,0,0,0,10.77.15Z"/><path class="cls-2" d="M9.69,16.21l2.87-1.37L7.06,3.34a1.61,1.61,0,0,0-2.13-.77h0a1.59,1.59,0,0,0-.74,2.13Z"/><path class="cls-3" d="M4.93,2.57h0l-.23.14a1.6,1.6,0,0,1,1.87.86L10,10.73l.85.49L7.06,3.34A1.61,1.61,0,0,0,4.93,2.57Z"/><path class="cls-2" d="M12.11,13.91,15,12.53,9.48,1A1.59,1.59,0,0,0,7.35.27h0a1.61,1.61,0,0,0-.74,2.14Z"/><path class="cls-3" d="M7.35.27h0a1.88,1.88,0,0,0-.24.14A1.62,1.62,0,0,1,9,1.27l3.87,8.09.84.49L9.48,1A1.59,1.59,0,0,0,7.35.27Z"/><path class="cls-3" d="M3,5.61l-.23.14a1.47,1.47,0,0,1,1.69.82l2.81,5.87.84.49L5,6.33A1.48,1.48,0,0,0,3,5.61Z"/><path class="cls-2" d="M22,4.51c-1-.78-2.68.08-3.5,2.79-.57,1.89-.63,2.42-1.84,3L16,8.92s-10.64,5.13-10.23,6c0,0,1.28,4,3.44,5.82,3.21,2.76,10.74-.2,11.09-7.33C20.54,9.17,23.15,5.37,22,4.51Z"/><path class="cls-3" d="M22,4.51a1.34,1.34,0,0,0-.64-.27l.14.1c1.11.85,0,2.86-.68,4.64A11.21,11.21,0,0,0,20,13.3c.3,6.18-5.93,9.16-9.69,8,3.67,1.56,10.5-1.4,10.18-7.87a11.24,11.24,0,0,1,.89-4.31C22,7.37,23.15,5.37,22,4.51Z"/><path class="cls-3" d="M17.06,10.11c-2.31.25-5.75,3.58-3.34,7.24-1.76-3.67,1.13-6.16,3-7C16.89,10.21,17.06,10.11,17.06,10.11Z"/></g></g></svg>