<svg xmlns="http://www.w3.org/2000/svg" xmlns:xlink="http://www.w3.org/1999/xlink" viewBox="0 0 86.11 86.11"><defs><style>.cls-1{fill:url(#Namnlös_övertoning_33);}.cls-2{fill:url(#Namnlös_övertoning_33-2);}.cls-3{fill:url(#Namnlös_övertoning_33-3);}.cls-4{fill:url(#Namnlös_övertoning_33-4);}.cls-5{fill:url(#Namnlös_övertoning_33-5);}.cls-6{fill:url(#Namnlös_övertoning_33-6);}.cls-7{fill:url(#Namnlös_övertoning_33-7);}.cls-8{fill:url(#Namnlös_övertoning_33-8);}.cls-9{fill:url(#Namnlös_övertoning_33-9);}.cls-10{fill:url(#Namnlös_övertoning_33-10);}.cls-11{fill:url(#Namnlös_övertoning_33-11);}.cls-12{fill:url(#Namnlös_övertoning_33-12);}.cls-13{fill:url(#Namnlös_övertoning_33-13);}.cls-14{fill:url(#Namnlös_övertoning_33-14);}.cls-15{fill:url(#Namnlös_övertoning_33-15);}.cls-16{fill:url(#Namnlös_övertoning_33-16);}.cls-17{fill:url(#Namnlös_övertoning_33-17);}.cls-18{fill:url(#Namnlös_övertoning_33-18);}.cls-19{fill:url(#Namnlös_övertoning_33-19);}</style><linearGradient id="Namnlös_övertoning_33" x1="43.62" y1="85.72" x2="11.41" y2="8.65" gradientUnits="userSpaceOnUse"><stop offset="0" stop-color="#dd4bdd"/><stop offset="0.59" stop-color="#fbae17"/><stop offset="1" stop-color="#fb5717"/></linearGradient><linearGradient id="Namnlös_övertoning_33-2" x1="72.45" y1="73.67" x2="40.24" y2="-3.39" xlink:href="#Namnlös_övertoning_33"/><linearGradient id="Namnlös_övertoning_33-3" x1="20.82" y1="94.83" x2="-11.39" y2="17.76" xlink:href="#Namnlös_övertoning_33"/><linearGradient id="Namnlös_övertoning_33-4" x1="28.08" y1="91.79" x2="-4.12" y2="14.73" xlink:href="#Namnlös_övertoning_33"/><linearGradient id="Namnlös_övertoning_33-5" x1="35.72" y1="88.6" x2="3.51" y2="11.54" xlink:href="#Namnlös_övertoning_33"/><linearGradient id="Namnlös_övertoning_33-6" x1="42.4" y1="85.81" x2="10.2" y2="8.74" xlink:href="#Namnlös_övertoning_33"/><linearGradient id="Namnlös_övertoning_33-7" x1="49.27" y1="82.94" x2="17.06" y2="5.88" xlink:href="#Namnlös_övertoning_33"/><linearGradient id="Namnlös_övertoning_33-8" x1="58.79" y1="78.96" x2="26.59" y2="1.89" xlink:href="#Namnlös_övertoning_33"/><linearGradient id="Namnlös_övertoning_33-9" x1="67.68" y1="75.24" x2="35.47" y2="-1.82" xlink:href="#Namnlös_övertoning_33"/><linearGradient id="Namnlös_övertoning_33-10" x1="74.15" y1="72.54" x2="41.95" y2="-4.53" xlink:href="#Namnlös_övertoning_33"/><linearGradient id="Namnlös_övertoning_33-11" x1="43.23" y1="85.46" x2="11.02" y2="8.4" xlink:href="#Namnlös_övertoning_33"/><linearGradient id="Namnlös_övertoning_33-12" x1="50.5" y1="82.43" x2="18.29" y2="5.36" xlink:href="#Namnlös_övertoning_33"/><linearGradient id="Namnlös_övertoning_33-13" x1="58.13" y1="79.23" x2="25.93" y2="2.17" xlink:href="#Namnlös_övertoning_33"/><linearGradient id="Namnlös_övertoning_33-14" x1="64.82" y1="76.44" x2="32.61" y2="-0.62" xlink:href="#Namnlös_övertoning_33"/><linearGradient id="Namnlös_övertoning_33-15" x1="71.68" y1="73.57" x2="39.47" y2="-3.49" xlink:href="#Namnlös_övertoning_33"/><linearGradient id="Namnlös_övertoning_33-16" x1="81.21" y1="69.59" x2="49" y2="-7.47" xlink:href="#Namnlös_övertoning_33"/><linearGradient id="Namnlös_övertoning_33-17" x1="90.09" y1="65.88" x2="57.89" y2="-11.19" xlink:href="#Namnlös_övertoning_33"/><linearGradient id="Namnlös_övertoning_33-18" x1="96.57" y1="63.17" x2="64.36" y2="-13.89" xlink:href="#Namnlös_övertoning_33"/><linearGradient id="Namnlös_övertoning_33-19" x1="24.05" y1="-7.09" x2="62.07" y2="93.2" xlink:href="#Namnlös_övertoning_33"/></defs><title>mallanyo30_fullcolor</title><g id="Lager_2" data-name="Lager 2"><g id="Lager_1-2" data-name="Lager 1"><path class="cls-1" d="M38.88,41.38A12,12,0,0,1,42.26,50a13.16,13.16,0,0,1-4.94,10.79c-2.92,2.4-7,3.58-12,3.58a24.39,24.39,0,0,1-10.85-2.35A4.61,4.61,0,0,1,12,57.89V55.62a4.75,4.75,0,0,1,2.21-4A4.56,4.56,0,0,1,16.65,51a5,5,0,0,1,2.14.52,16.76,16.76,0,0,0,3.13,1.17,16.32,16.32,0,0,0,3.38.39c2.86,0,4.09-.58,4.55-1A2.32,2.32,0,0,0,30.63,50,1.12,1.12,0,0,0,30,48.86c-.45-.33-1.82-.91-4.87-.91H21.66A4.66,4.66,0,0,1,17,43.27V41.12a4.66,4.66,0,0,1,4.69-4.68h3.57a5.71,5.71,0,0,0,3.57-.91,1.71,1.71,0,0,0,.66-1.62c0-.59-.07-.72-.27-.85a3.17,3.17,0,0,0-2.08-.58,8.4,8.4,0,0,0-3,.45,15.6,15.6,0,0,0-3.51,1.82,4.44,4.44,0,0,1-2.53.78,4.55,4.55,0,0,1-3.77-2L13.2,32.09A4.61,4.61,0,0,1,14,25.78,19.7,19.7,0,0,1,20,22.4a21.77,21.77,0,0,1,7-1.17,15.18,15.18,0,0,1,10.08,3.25,12.16,12.16,0,0,1,4.09,9.62A11.74,11.74,0,0,1,38.88,41.38ZM38,42l-.13-.13a.52.52,0,0,1-.07-.72,10.89,10.89,0,0,0,2.34-7,11.17,11.17,0,0,0-3.7-8.84,14.08,14.08,0,0,0-9.43-3.05,19.9,19.9,0,0,0-6.7,1.17,17.49,17.49,0,0,0-5.72,3.18A3.66,3.66,0,0,0,14,31.5L15.09,33a3.67,3.67,0,0,0,3,1.49,3.86,3.86,0,0,0,2-.58A16.92,16.92,0,0,1,23.8,32a10.31,10.31,0,0,1,3.31-.46,4.32,4.32,0,0,1,2.74.78,1.84,1.84,0,0,1,.65,1.63,2.81,2.81,0,0,1-1,2.4,6.45,6.45,0,0,1-4.23,1.17H21.66A3.64,3.64,0,0,0,18,41.12v2.15a3.64,3.64,0,0,0,3.65,3.64h3.51c3.38,0,4.87.71,5.46,1.1a2.21,2.21,0,0,1,1,2,3.32,3.32,0,0,1-1.1,2.86c-.59.45-2,1.23-5.2,1.23a18.53,18.53,0,0,1-3.58-.45,14.81,14.81,0,0,1-3.38-1.24A3.27,3.27,0,0,0,16.59,52a3.63,3.63,0,0,0-3.65,3.64v2.27a3.67,3.67,0,0,0,2,3.25,23,23,0,0,0,10.4,2.28c4.81,0,8.58-1.17,11.38-3.38a12.2,12.2,0,0,0,4.48-10A10.79,10.79,0,0,0,38,42ZM25.88,61v.13a.52.52,0,0,1-.52.53,21.65,21.65,0,0,1-9.62-2.08,2,2,0,0,1-1-1.7V55.62a2,2,0,0,1,1.89-1.89,1.56,1.56,0,0,1,.91.26,15.54,15.54,0,0,0,3.83,1.37,17.75,17.75,0,0,0,4,.52,13.16,13.16,0,0,0,4.48-.65h.13a.57.57,0,0,1,.45.19v.07l.07.06a.57.57,0,0,1-.33.65,14.66,14.66,0,0,1-4.8.65,16.68,16.68,0,0,1-4.23-.52,14.7,14.7,0,0,1-4-1.49.77.77,0,0,0-.39-.07,1.59,1.59,0,0,0-.52.13.82.82,0,0,0-.39.72v2.27a.88.88,0,0,0,.45.78,20.49,20.49,0,0,0,9.17,2A.56.56,0,0,1,25.88,61Zm8.78-33.67Q31.93,25,27.05,25a17.78,17.78,0,0,0-5.79,1,14.9,14.9,0,0,0-4.87,2.73.79.79,0,0,0-.33.65.75.75,0,0,0,.2.52l1.1,1.49a.9.9,0,0,0,.72.39.58.58,0,0,0,.45-.19c.59-.33,1.11-.72,1.69-1a.26.26,0,0,1,.2-.06.42.42,0,0,1,.45.26l.07.06a.5.5,0,0,1-.26.59c-.46.32-1,.65-1.56,1a1.66,1.66,0,0,1-1,.33A1.85,1.85,0,0,1,16.52,32l-1.1-1.5a2.12,2.12,0,0,1-.33-1.1,1.65,1.65,0,0,1,.65-1.43A16.22,16.22,0,0,1,20.94,25a19.74,19.74,0,0,1,6.11-1,12.11,12.11,0,0,1,8.26,2.67,7.17,7.17,0,0,1,.78.71,1,1,0,0,1,.13.39.38.38,0,0,1-.2.33v.06H36a.38.38,0,0,1-.26.07,1,1,0,0,1-.39-.13A7,7,0,0,0,34.66,27.34Zm-8.78,35v.13a.52.52,0,0,1-.52.52A23.71,23.71,0,0,1,18,61.92a.52.52,0,0,1-.32-.19.77.77,0,0,1-.07-.39l.07-.06v-.07a.66.66,0,0,1,.45-.26c.07,0,.07,0,.13.06a24.3,24.3,0,0,0,7.09,1A.55.55,0,0,1,25.88,62.38ZM19.7,24.55a.45.45,0,0,1,0-.39A.55.55,0,0,1,20,23.9l.52-.2c.66-.19,1.3-.39,1.89-.52h.13a.48.48,0,0,1,.45.33c.07.13,0,.19,0,.19a.48.48,0,0,1-.32.46,13.81,13.81,0,0,0-1.82.52l-.52.19h-.13a.39.39,0,0,1-.39-.19H19.7Zm9.63,21.06a15.17,15.17,0,0,0-4.16-.46H21.66a1.88,1.88,0,0,1-1.89-1.88V41.12a1.88,1.88,0,0,1,1.89-1.88h3.57a8.12,8.12,0,0,0,5.33-1.56,4.61,4.61,0,0,0,1.69-3.77v-.59a.36.36,0,0,1,.26-.45l.13-.07h.07a.51.51,0,0,1,.52.46c0,.19.06.39.06.65a5.53,5.53,0,0,1-2.08,4.55,9.24,9.24,0,0,1-6,1.75H21.66a.89.89,0,0,0-.91.91v2.15a.89.89,0,0,0,.91.91h3.51a18.11,18.11,0,0,1,4.42.45.64.64,0,0,1,.32.26c.07.07.07.26.07.33l-.07.19h-.06a.41.41,0,0,1-.39.2Zm.91-14.17-.14.13c-.12.06-.19.13-.32.13s-.13-.07-.19-.07a4.85,4.85,0,0,0-2.48-.52,9.36,9.36,0,0,0-3.44.52c-.26.07-.52.2-.78.26a.23.23,0,0,1-.2.07.39.39,0,0,1-.39-.2h-.06v-.13a.89.89,0,0,1-.06-.39A.64.64,0,0,1,22.5,31a4.21,4.21,0,0,1,.85-.32,11.12,11.12,0,0,1,3.76-.59,6.51,6.51,0,0,1,2.93.65A.54.54,0,0,1,30.24,31.44ZM22.83,55.16a.46.46,0,0,1-.14-.39v-.13h.07a.5.5,0,0,1,.46-.32h.06a11.1,11.1,0,0,0,2,.19h.32a.51.51,0,0,1,.52.33V55a.51.51,0,0,1-.46.52H25.3c-.72,0-1.44-.07-2.15-.13A1.27,1.27,0,0,1,22.83,55.16Zm1.56-31.85a.56.56,0,0,1,.45-.58c.71-.07,1.5-.13,2.21-.13a19.75,19.75,0,0,1,2.8.19.36.36,0,0,1,.32.2.43.43,0,0,1,.07.39v.13l-.07.06a.54.54,0,0,1-.39.26l-.06-.06c-.85-.07-1.76-.13-2.67-.13a11.83,11.83,0,0,0-2.14.13,1.19,1.19,0,0,1-.4-.26l-.12-.07Zm.52,15.54a.52.52,0,0,1,0-1h.32a10,10,0,0,0,2-.13h.06a.52.52,0,0,1,.45.26l.07.06v.07a.77.77,0,0,1-.07.39.54.54,0,0,1-.32.19,11.63,11.63,0,0,1-2.21.2Zm7.47,11.57A.56.56,0,0,1,32,49.9a2.5,2.5,0,0,0-1.17-2.15A7.72,7.72,0,0,0,27,46.65a.8.8,0,0,1-.46-.46v-.13a.55.55,0,0,1,.52-.45h.06a8.75,8.75,0,0,1,4.3,1.3,3.34,3.34,0,0,1,1.56,3,.23.23,0,0,1-.13.32.38.38,0,0,1-.33.2Zm3.25,8.25a14.88,14.88,0,0,1-7.93,2.86.44.44,0,0,1-.45-.45L27.18,61l.07-.06a.56.56,0,0,1,.45-.46A13.46,13.46,0,0,0,35,57.89,9.62,9.62,0,0,0,38.43,50,8.1,8.1,0,0,0,36.09,44a8.2,8.2,0,0,0-2.54-1.75.41.41,0,0,1-.32-.39.44.44,0,0,1,.26-.46,6.51,6.51,0,0,0,1-.84c.14-.07.2-.13.33-.13s.2.06.26.06l.13.07v.06c.13.13.19.26.13.39a.5.5,0,0,1-.13.33l-.52.39a9.75,9.75,0,0,1,2.08,1.56A9,9,0,0,1,39.47,50,10.55,10.55,0,0,1,35.63,58.67Zm-7.54-3.38a.56.56,0,0,1-.52-.39v-.19a.56.56,0,0,1,.39-.46,5.92,5.92,0,0,0,2.73-1A3,3,0,0,0,31.6,52a.56.56,0,0,1,.46-.26h.19v.07a.46.46,0,0,1,.26.65A4.25,4.25,0,0,1,31.34,54a7.53,7.53,0,0,1-3.18,1.3Zm1-17.87a.41.41,0,0,1,.2-.52c.13-.13.26-.2.32-.26a3.21,3.21,0,0,0,1.24-2.73,3,3,0,0,0-.13-.78.48.48,0,0,1,.32-.52v-.07h.19a.5.5,0,0,1,.53.39,4.71,4.71,0,0,1,.06,1,4.17,4.17,0,0,1-1.56,3.51,1.57,1.57,0,0,0-.39.32c-.13,0-.19.07-.32.07a.43.43,0,0,1-.4-.26l-.06-.07Zm2.54-13.59V23.7a.48.48,0,0,1,.45-.32h.2a11.51,11.51,0,0,1,3.9,2.21,8,8,0,0,1,2,2.4.44.44,0,0,1-.13.65l-.06.07h-.2a.58.58,0,0,1-.45-.2,8.77,8.77,0,0,0-1.82-2.21A10.84,10.84,0,0,0,32,24.35.48.48,0,0,1,31.67,23.83Zm6.89,32.89a.39.39,0,0,1,.19.33c.07.13,0,.26-.07.39a12.7,12.7,0,0,1-2.2,2.34,14.44,14.44,0,0,1-3.84,2.08.25.25,0,0,1-.2.06A.48.48,0,0,1,32,61.6l-.06-.07.06-.06a.41.41,0,0,1,.33-.52,14.1,14.1,0,0,0,3.51-2,10.69,10.69,0,0,0,2-2.15.55.55,0,0,1,.39-.19h.26Zm.39-11a.6.6,0,0,1,.13-.58l.06-.07h.07A.24.24,0,0,1,39.4,45a.56.56,0,0,1,.46.26,11.1,11.1,0,0,1,.78,2.47.5.5,0,0,1-.39.58h-.13c-.2,0-.46-.19-.46-.39A11,11,0,0,0,39,45.67Zm1.36,4a.46.46,0,0,1,.52.52,13,13,0,0,1-.91,4.94.48.48,0,0,1-.45.33h-.2l-.13-.07a.59.59,0,0,1-.19-.65,12.53,12.53,0,0,0,.91-4.55.5.5,0,0,1,.39-.52Z"/><path class="cls-2" d="M71.38,27.6c2.27,3.58,3.45,8.65,3.45,15.08,0,6.76-1.11,11.77-3.39,15.34-2.66,4.23-6.69,6.38-12,6.38a13.41,13.41,0,0,1-11.83-6.51c-2.27-3.64-3.38-8.64-3.38-15.21S45.38,31,47.59,27.47A13.18,13.18,0,0,1,59.48,21.1,13.38,13.38,0,0,1,71.38,27.6Zm2.4,15.08c0-6.24-1.1-11.11-3.31-14.56a12.21,12.21,0,0,0-11-6c-4.87,0-8.58,1.95-11,5.85-2.15,3.38-3.19,8.19-3.19,14.69s1,11.18,3.25,14.69a12.29,12.29,0,0,0,10.92,6c4.88,0,8.65-2,11.12-5.85C72.75,54.06,73.78,49.25,73.78,42.68ZM46.42,39.76a.51.51,0,0,1,.32.52c-.06.84-.06,1.62-.06,2.4a.49.49,0,0,1-.39.52h-.13a.51.51,0,0,1-.46-.52c0-.84,0-1.69.07-2.47a.44.44,0,0,1,.45-.45Zm1.36-6.63a30.55,30.55,0,0,0-.84,4.74.58.58,0,0,1-.59.46.63.63,0,0,1-.45-.59,30.47,30.47,0,0,1,.91-4.87.54.54,0,0,1,.45-.39h.13a.66.66,0,0,1,.33.26A.89.89,0,0,1,47.78,33.13ZM69,55.68a.61.61,0,0,1,.13.72l-.07.13a10.68,10.68,0,0,1-9.62,5.07,10.5,10.5,0,0,1-9.42-5.2c-2-3.19-3-7.67-3-13.72,0-1.62.06-3.25.19-4.68a.62.62,0,0,1,.52-.45h.13l.07.06a.52.52,0,0,1,.32.52c-.13,1.37-.19,2.93-.19,4.55,0,5.85.91,10.14,2.79,13.2a9.5,9.5,0,0,0,8.58,4.68A9.71,9.71,0,0,0,68.26,56l.06-.13a.56.56,0,0,1,.39-.26.25.25,0,0,1,.2.06ZM47.91,31.18a.65.65,0,0,1-.32-.72,23.07,23.07,0,0,1,1.17-2.27,13.07,13.07,0,0,1,3.44-3.64.57.57,0,0,1,.33-.07.47.47,0,0,1,.39.2l.06.13a.52.52,0,0,1-.19.58,10.8,10.8,0,0,0-3.12,3.32,16.8,16.8,0,0,0-1.11,2.14.6.6,0,0,1-.58.33Zm14.69,31a.5.5,0,0,1-.39.59,15.4,15.4,0,0,1-2.53.19h-.2a12.25,12.25,0,0,1-7.21-2.14.35.35,0,0,1-.2-.33.79.79,0,0,1,.07-.39.58.58,0,0,1,.45-.19.4.4,0,0,1,.26.06,11.45,11.45,0,0,0,6.7,2h.13A13,13,0,0,0,62,61.73h.06a.5.5,0,0,1,.46.32l.06.07Zm2.86-12.35a.45.45,0,0,1-.26-.52,32.29,32.29,0,0,0,.52-6.63c0-4.55-.58-8-1.69-10.2a4.69,4.69,0,0,0-4.55-2.8A4.6,4.6,0,0,0,55,32.48c-1.17,2.21-1.69,5.65-1.69,10.2,0,4.75.58,8.26,1.75,10.4a5.76,5.76,0,0,0,.85,1.24.48.48,0,0,1,0,.58V55l-.07.06a.45.45,0,0,1-.32.13.55.55,0,0,1-.39-.19,12.49,12.49,0,0,1-1-1.37c-1.23-2.34-1.88-6-1.88-10.92,0-4.68.65-8.25,1.82-10.66a5.54,5.54,0,0,1,5.39-3.31A5.49,5.49,0,0,1,64.88,32c1.23,2.41,1.88,6,1.88,10.66a34.8,34.8,0,0,1-.58,6.83c0,.26-.26.39-.52.39h-.13ZM69,29.1c1.89,3,2.92,7.28,3,12.8a.51.51,0,0,1-.52.52h-.13A.55.55,0,0,1,71,41.9c-.06-5.33-1-9.42-2.86-12.28a9.61,9.61,0,0,0-8.65-4.68,10.32,10.32,0,0,0-5,1.1l-.26.07a.7.7,0,0,1-.39-.2v-.06l-.07-.07a.49.49,0,0,1,.26-.65,12.07,12.07,0,0,1,5.46-1.23A10.71,10.71,0,0,1,69,29.1ZM55.39,35.53a.53.53,0,0,1-.59.39h-.06a.47.47,0,0,1-.26-.26.31.31,0,0,1-.07-.39,11,11,0,0,1,.91-2.66,4.26,4.26,0,0,1,4.16-2.54.56.56,0,0,1,.52.52v.13h-.06a.49.49,0,0,1-.46.39,3.15,3.15,0,0,0-3.25,2A12.33,12.33,0,0,0,55.39,35.53ZM59.48,54a2.81,2.81,0,0,1-2.86-1.75c-1-1.82-1.56-5.2-1.56-9.56s.52-7.41,1.5-9.42a2.79,2.79,0,0,1,2.92-1.76,2.8,2.8,0,0,1,2.93,1.76c1,2,1.56,5.2,1.56,9.42s-.52,7.54-1.56,9.56A2.79,2.79,0,0,1,59.48,54Zm2.08-2.21c.91-1.88,1.43-5,1.43-9.1s-.52-7.08-1.43-9a1.93,1.93,0,0,0-2.08-1.23,1.81,1.81,0,0,0-2,1.23c-.91,1.82-1.43,4.88-1.43,9s.52,7.41,1.43,9.1a2,2,0,0,0,2,1.24A1.92,1.92,0,0,0,61.56,51.78Zm-1.69,3,.07.07v.06a.56.56,0,0,1-.52.52,4.25,4.25,0,0,1-2.6-.78.52.52,0,0,1-.13-.71l.13-.13c.06-.07.19-.07.32-.07s.2,0,.26.07a3.23,3.23,0,0,0,2,.58A.56.56,0,0,1,59.87,54.77Zm1.43-.26c-.06-.26,0-.52.2-.58a4,4,0,0,0,1.3-1.56A14.24,14.24,0,0,0,63.64,50c0-.2.26-.33.46-.33h.13a.52.52,0,0,1,.39.59,10.36,10.36,0,0,1-1,2.53,4.11,4.11,0,0,1-1.62,2,.38.38,0,0,1-.26.07.39.39,0,0,1-.39-.2Zm3.25-6.24h-.19a.51.51,0,0,1-.26-.58,39.14,39.14,0,0,0,.26-5c0-.71,0-1.49-.07-2.21a.57.57,0,0,1,.39-.52h.13a.51.51,0,0,1,.52.46c0,.71.07,1.49.07,2.27a38.6,38.6,0,0,1-.33,5.14A.54.54,0,0,1,64.55,48.27Zm5.66-20a16.86,16.86,0,0,1,1.1,2.21.46.46,0,0,1-.26.65v.06h-.19a.51.51,0,0,1-.46-.32,9.56,9.56,0,0,0-1.1-2l-.07-.19s-.26-.39.26-.65S70.21,28.32,70.21,28.32Zm1.17,4.35.13-.13h.19a.51.51,0,0,1,.52.33,33.49,33.49,0,0,1,.91,4.87c.07.33-.12.52-.45.59a.51.51,0,0,1-.52-.46,30.59,30.59,0,0,0-.91-4.68A.47.47,0,0,1,71.38,32.67Zm1.49,7.09a.44.44,0,0,1,.46.45c.06.78.06,1.56.06,2.47,0,1.82-.06,3.45-.19,4.94a.56.56,0,0,1-.52.46h-.2a.68.68,0,0,1-.32-.52,39.09,39.09,0,0,0,.26-4.88c0-.78-.07-1.56-.07-2.4,0-.2.13-.46.33-.46l.07-.06Z"/><path class="cls-3" d="M10.9,77.3,9.41,71.37v6.42a1.16,1.16,0,0,1-.24.8.8.8,0,0,1-.63.27.78.78,0,0,1-.62-.27,1.14,1.14,0,0,1-.24-.8V70.43A.91.91,0,0,1,8,69.61a1.46,1.46,0,0,1,.86-.22h.58a2.34,2.34,0,0,1,.77.1.65.65,0,0,1,.35.34,5.57,5.57,0,0,1,.26.81l1.35,5.1,1.35-5.1a7.19,7.19,0,0,1,.26-.81.66.66,0,0,1,.36-.34,2.27,2.27,0,0,1,.76-.1h.59a1.43,1.43,0,0,1,.85.22.92.92,0,0,1,.32.82v7.36a1.16,1.16,0,0,1-.24.8.81.81,0,0,1-.64.27.78.78,0,0,1-.61-.27,1.16,1.16,0,0,1-.24-.8V71.37L13.43,77.3q-.15.57-.24.84a1.24,1.24,0,0,1-.34.5,1.06,1.06,0,0,1-.69.22,1,1,0,0,1-.56-.15.93.93,0,0,1-.35-.36,1.94,1.94,0,0,1-.2-.49Z"/><path class="cls-4" d="M24.54,77.65l-.44-1.17H20.31l-.44,1.19a4,4,0,0,1-.44.94.71.71,0,0,1-.61.25.93.93,0,0,1-.63-.26.81.81,0,0,1-.27-.59,1.44,1.44,0,0,1,.06-.4l.21-.56,2.38-6c.07-.18.15-.39.25-.63a3.15,3.15,0,0,1,.3-.61,1.24,1.24,0,0,1,.43-.39,1.58,1.58,0,0,1,1.3,0,1.24,1.24,0,0,1,.43.39,2.19,2.19,0,0,1,.27.5c.08.18.17.42.29.72l2.43,6a3,3,0,0,1,.28,1,.83.83,0,0,1-.27.6.88.88,0,0,1-.65.27.89.89,0,0,1-.38-.08.78.78,0,0,1-.26-.22,1.88,1.88,0,0,1-.24-.42Zm-3.73-2.59h2.78l-1.4-3.84Z"/><path class="cls-5" d="M29.78,70.38v6.77H33.6a1,1,0,0,1,.71.22.74.74,0,0,1,.24.56.73.73,0,0,1-.24.56,1.06,1.06,0,0,1-.71.21H29.05a1.2,1.2,0,0,1-.88-.27,1.25,1.25,0,0,1-.27-.89V70.38a1.21,1.21,0,0,1,.26-.86.85.85,0,0,1,.67-.28.88.88,0,0,1,.69.28A1.2,1.2,0,0,1,29.78,70.38Z"/><path class="cls-6" d="M37.64,70.38v6.77h3.82a1,1,0,0,1,.7.22.74.74,0,0,1,.24.56.73.73,0,0,1-.24.56,1,1,0,0,1-.7.21H36.91a1.23,1.23,0,0,1-.89-.27,1.25,1.25,0,0,1-.27-.89V70.38a1.26,1.26,0,0,1,.26-.86.85.85,0,0,1,.67-.28.88.88,0,0,1,.69.28A1.2,1.2,0,0,1,37.64,70.38Z"/><path class="cls-7" d="M49.42,77.65,49,76.48H45.2l-.45,1.19a4,4,0,0,1-.44.94.71.71,0,0,1-.61.25.89.89,0,0,1-.62-.26A.79.79,0,0,1,42.8,78a1.16,1.16,0,0,1,.07-.4c0-.13.11-.32.21-.56l2.38-6q.09-.27.24-.63a3.83,3.83,0,0,1,.31-.61,1.21,1.21,0,0,1,.42-.39,1.3,1.3,0,0,1,.65-.14,1.34,1.34,0,0,1,.66.14,1.21,1.21,0,0,1,.42.39,2.69,2.69,0,0,1,.28.5l.28.72,2.43,6a3.11,3.11,0,0,1,.29,1,.83.83,0,0,1-.27.6.9.9,0,0,1-.66.27.92.92,0,0,1-.38-.08.78.78,0,0,1-.26-.22,1.91,1.91,0,0,1-.23-.42C49.55,78,49.48,77.79,49.42,77.65Zm-3.73-2.59h2.78l-1.4-3.84Z"/><path class="cls-8" d="M55.28,70.36l3.62,5.49V70.31a1.19,1.19,0,0,1,.23-.8.88.88,0,0,1,1.27,0,1.14,1.14,0,0,1,.23.8v7.32c0,.82-.33,1.23-1,1.23a1.64,1.64,0,0,1-.46-.07,1.21,1.21,0,0,1-.38-.24,2,2,0,0,1-.33-.37l-.3-.43-3.54-5.42v5.45a1.17,1.17,0,0,1-.25.81.8.8,0,0,1-.63.27.79.79,0,0,1-.64-.28,1.18,1.18,0,0,1-.24-.8V70.6a2,2,0,0,1,.1-.72,1,1,0,0,1,.4-.46,1.06,1.06,0,0,1,.6-.18.94.94,0,0,1,.43.08.91.91,0,0,1,.32.22,1.88,1.88,0,0,1,.28.36Z"/><path class="cls-9" d="M64.77,77.71V74.76L62.5,71.23a5.87,5.87,0,0,1-.42-.74A1.2,1.2,0,0,1,62,70a.77.77,0,0,1,.25-.56.87.87,0,0,1,.62-.23.77.77,0,0,1,.59.21,7.54,7.54,0,0,1,.6.88l1.74,2.82,1.76-2.82c.1-.18.19-.32.26-.44s.16-.23.24-.33a.9.9,0,0,1,.29-.24.8.8,0,0,1,.39-.08.78.78,0,0,1,.59.23.71.71,0,0,1,.24.53,1.15,1.15,0,0,1-.12.5,7.57,7.57,0,0,1-.41.68l-2.33,3.58v2.95a1.22,1.22,0,0,1-.27.86.89.89,0,0,1-.68.29.92.92,0,0,1-.68-.28A1.27,1.27,0,0,1,64.77,77.71Z"/><path class="cls-10" d="M74.74,69.24a5,5,0,0,1,2.49.58,3.84,3.84,0,0,1,1.57,1.67A5.62,5.62,0,0,1,79.33,74,6.13,6.13,0,0,1,79,76a4.45,4.45,0,0,1-.87,1.53,3.86,3.86,0,0,1-1.44,1,5.38,5.38,0,0,1-2,.34,5.18,5.18,0,0,1-2-.35,3.84,3.84,0,0,1-1.44-1A4.17,4.17,0,0,1,70.51,76a6.43,6.43,0,0,1-.29-2,5.94,5.94,0,0,1,.31-2,4.18,4.18,0,0,1,.89-1.52,3.8,3.8,0,0,1,1.42-1A5.15,5.15,0,0,1,74.74,69.24ZM77.42,74a4.37,4.37,0,0,0-.33-1.77,2.41,2.41,0,0,0-.94-1.13,2.58,2.58,0,0,0-1.41-.39,2.43,2.43,0,0,0-1,.22,2.35,2.35,0,0,0-.83.61,3,3,0,0,0-.54,1,4.82,4.82,0,0,0-.2,1.42,5,5,0,0,0,.2,1.44,3,3,0,0,0,.56,1.06,2.51,2.51,0,0,0,.84.63A2.66,2.66,0,0,0,76.1,77a2.48,2.48,0,0,0,1-1.12A4.28,4.28,0,0,0,77.42,74Z"/><path class="cls-11" d="M10.9,14.3,9.41,8.37v6.42a1.16,1.16,0,0,1-.24.8.8.8,0,0,1-.63.27.78.78,0,0,1-.62-.27,1.14,1.14,0,0,1-.24-.8V7.43A.91.91,0,0,1,8,6.61a1.46,1.46,0,0,1,.86-.22h.58a2.34,2.34,0,0,1,.77.1.65.65,0,0,1,.35.34,5.57,5.57,0,0,1,.26.81l1.35,5.1,1.35-5.1a7.19,7.19,0,0,1,.26-.81.66.66,0,0,1,.36-.34,2.27,2.27,0,0,1,.76-.1h.59a1.43,1.43,0,0,1,.85.22.92.92,0,0,1,.32.82v7.36a1.16,1.16,0,0,1-.24.8.81.81,0,0,1-.64.27.78.78,0,0,1-.61-.27,1.16,1.16,0,0,1-.24-.8V8.37L13.43,14.3q-.15.57-.24.84a1.24,1.24,0,0,1-.34.5,1.06,1.06,0,0,1-.69.22,1,1,0,0,1-.56-.15.93.93,0,0,1-.35-.36,1.94,1.94,0,0,1-.2-.49Z"/><path class="cls-12" d="M24.54,14.65l-.44-1.17H20.31l-.44,1.19a4,4,0,0,1-.44.94.71.71,0,0,1-.61.25.93.93,0,0,1-.63-.26.81.81,0,0,1-.27-.59,1.44,1.44,0,0,1,.06-.4l.21-.56,2.38-6c.07-.18.15-.39.25-.63a3.15,3.15,0,0,1,.3-.61,1.24,1.24,0,0,1,.43-.39,1.58,1.58,0,0,1,1.3,0,1.24,1.24,0,0,1,.43.39,2.19,2.19,0,0,1,.27.5c.08.18.17.42.29.72l2.43,6a3,3,0,0,1,.28,1,.83.83,0,0,1-.27.6.88.88,0,0,1-.65.27.89.89,0,0,1-.38-.08.78.78,0,0,1-.26-.22,1.88,1.88,0,0,1-.24-.42Zm-3.73-2.59h2.78l-1.4-3.84Z"/><path class="cls-13" d="M29.78,7.38v6.77H33.6a1,1,0,0,1,.71.22.74.74,0,0,1,.24.56.73.73,0,0,1-.24.56,1.06,1.06,0,0,1-.71.21H29.05a1.2,1.2,0,0,1-.88-.27,1.25,1.25,0,0,1-.27-.89V7.38a1.21,1.21,0,0,1,.26-.86.85.85,0,0,1,.67-.28.88.88,0,0,1,.69.28A1.2,1.2,0,0,1,29.78,7.38Z"/><path class="cls-14" d="M37.64,7.38v6.77h3.82a1,1,0,0,1,.7.22.74.74,0,0,1,.24.56.73.73,0,0,1-.24.56,1,1,0,0,1-.7.21H36.91a1.23,1.23,0,0,1-.89-.27,1.25,1.25,0,0,1-.27-.89V7.38A1.26,1.26,0,0,1,36,6.52a.85.85,0,0,1,.67-.28.88.88,0,0,1,.69.28A1.2,1.2,0,0,1,37.64,7.38Z"/><path class="cls-15" d="M49.42,14.65,49,13.48H45.2l-.45,1.19a4,4,0,0,1-.44.94.71.71,0,0,1-.61.25.89.89,0,0,1-.62-.26A.79.79,0,0,1,42.8,15a1.16,1.16,0,0,1,.07-.4c0-.13.11-.32.21-.56l2.38-6q.09-.27.24-.63A3.83,3.83,0,0,1,46,6.77a1.21,1.21,0,0,1,.42-.39,1.3,1.3,0,0,1,.65-.14,1.34,1.34,0,0,1,.66.14,1.21,1.21,0,0,1,.42.39,2.69,2.69,0,0,1,.28.5l.28.72,2.43,6a3.11,3.11,0,0,1,.29,1,.83.83,0,0,1-.27.6.9.9,0,0,1-.66.27.92.92,0,0,1-.38-.08.78.78,0,0,1-.26-.22,1.91,1.91,0,0,1-.23-.42C49.55,15,49.48,14.79,49.42,14.65Zm-3.73-2.59h2.78l-1.4-3.84Z"/><path class="cls-16" d="M55.28,7.36l3.62,5.49V7.31a1.19,1.19,0,0,1,.23-.8.88.88,0,0,1,1.27,0,1.14,1.14,0,0,1,.23.8v7.32c0,.82-.33,1.23-1,1.23a1.64,1.64,0,0,1-.46-.07,1.21,1.21,0,0,1-.38-.24,2,2,0,0,1-.33-.37l-.3-.43L54.61,9.33v5.45a1.17,1.17,0,0,1-.25.81.8.8,0,0,1-.63.27.79.79,0,0,1-.64-.28,1.18,1.18,0,0,1-.24-.8V7.6a2,2,0,0,1,.1-.72,1,1,0,0,1,.4-.46,1.06,1.06,0,0,1,.6-.18.94.94,0,0,1,.43.08.91.91,0,0,1,.32.22A1.88,1.88,0,0,1,55,6.9Z"/><path class="cls-17" d="M64.77,14.71v-3L62.5,8.23a5.87,5.87,0,0,1-.42-.74A1.2,1.2,0,0,1,62,7a.77.77,0,0,1,.25-.56.87.87,0,0,1,.62-.23.77.77,0,0,1,.59.21,7.54,7.54,0,0,1,.6.88l1.74,2.82,1.76-2.82c.1-.18.19-.32.26-.44s.16-.23.24-.33a.9.9,0,0,1,.29-.24.8.8,0,0,1,.39-.08.78.78,0,0,1,.59.23.71.71,0,0,1,.24.53,1.15,1.15,0,0,1-.12.5,7.57,7.57,0,0,1-.41.68l-2.33,3.58v3a1.22,1.22,0,0,1-.27.86.89.89,0,0,1-.68.29.92.92,0,0,1-.68-.28A1.27,1.27,0,0,1,64.77,14.71Z"/><path class="cls-18" d="M74.74,6.24a5,5,0,0,1,2.49.58A3.84,3.84,0,0,1,78.8,8.49,5.62,5.62,0,0,1,79.33,11,6.13,6.13,0,0,1,79,13a4.45,4.45,0,0,1-.87,1.53,3.86,3.86,0,0,1-1.44,1,5.38,5.38,0,0,1-2,.34,5.18,5.18,0,0,1-2-.35,3.84,3.84,0,0,1-1.44-1A4.17,4.17,0,0,1,70.51,13a6.43,6.43,0,0,1-.29-2,5.94,5.94,0,0,1,.31-2,4.18,4.18,0,0,1,.89-1.52,3.8,3.8,0,0,1,1.42-1A5.15,5.15,0,0,1,74.74,6.24ZM77.42,11a4.37,4.37,0,0,0-.33-1.77,2.41,2.41,0,0,0-.94-1.13,2.58,2.58,0,0,0-1.41-.39,2.43,2.43,0,0,0-1,.22,2.35,2.35,0,0,0-.83.61,3,3,0,0,0-.54,1,4.82,4.82,0,0,0-.2,1.42,5,5,0,0,0,.2,1.44,3,3,0,0,0,.56,1.06,2.51,2.51,0,0,0,.84.63A2.66,2.66,0,0,0,76.1,14a2.48,2.48,0,0,0,1-1.12A4.28,4.28,0,0,0,77.42,11Z"/><path class="cls-19" d="M79.56,86.11h-73A6.56,6.56,0,0,1,0,79.56v-73A6.56,6.56,0,0,1,6.56,0h73a6.56,6.56,0,0,1,6.55,6.56v73A6.56,6.56,0,0,1,79.56,86.11Zm-73-83A3.46,3.46,0,0,0,3.11,6.56v73A3.45,3.45,0,0,0,6.56,83h73A3.44,3.44,0,0,0,83,79.56v-73a3.45,3.45,0,0,0-3.44-3.45Z"/></g></g></svg>