<svg xmlns="http://www.w3.org/2000/svg" viewBox="0 0 22.5 21.75"><defs><style>.cls-1{fill:#f7b600;}.cls-2{fill:#ffdd7d;}.cls-3{fill:#493816;}.cls-4{fill:#42ade2;}.cls-5{fill:#ff8736;}.cls-6{fill:#ed4c5c;}.cls-7{fill:#c28fef;}</style></defs><title>party_canon</title><g id="Lager_2" data-name="Lager 2"><g id="Lager_1-2" data-name="Lager 1"><polygon class="cls-1" points="0 21.75 3.21 20.63 0.78 19.5 0 21.75"/><polygon class="cls-2" points="9.35 12.52 4.79 7.94 4.06 10.06 9.35 12.52"/><polygon class="cls-1" points="4.06 10.06 3.24 12.42 13.29 17.1 13.75 16.94 9.35 12.52 4.06 10.06"/><polygon class="cls-2" points="2.42 14.78 9.93 18.28 13.29 17.1 3.24 12.42 2.42 14.78"/><polygon class="cls-1" points="1.6 17.14 6.57 19.45 9.93 18.28 2.42 14.78 1.6 17.14"/><polygon class="cls-2" points="1.6 17.14 0.78 19.5 3.21 20.63 6.57 19.45 1.6 17.14"/><path class="cls-3" d="M11.21,10.57c2.53,2.49,3.83,5.25,2.92,6.15s-3.72-.38-6.25-2.87S4,8.61,5,7.71,8.68,8.09,11.21,10.57Z"/><path class="cls-4" d="M8.06,4.3c-.61-.84,0-1.22.87-1.07-.78-1-.3-1.61.92-1.35.38.08-.15.72-.49.7,1,.76.46,1.57-.62,1.38,1,1.32-.69,1-1.41,1-.19,1,.93,2.11.56,2.11C7.05,7.12,5.71,4,8.06,4.3Z"/><path class="cls-5" d="M16,6.12c-.55.25-2.14-2.22-.19-2.25-1.12-1-1-1.5.52-1.53C14.57.62,17.28,0,17.56.92c.09.28-.83-.24-1.12.25s2.11,2-.43,1.93c.93.94,1,1.39-.5,1.55C15.71,4.92,16.31,6,16,6.12Z"/><path class="cls-6" d="M16.58,12l.57-.49a6.31,6.31,0,0,0,.92,1.07c.29-1.33.21-2.14,1.77-1.22C19,9,20.41,9.9,21.78,10.53c-.08-.59,0-.53.61-.7.52,2-.89,1.41-2.05.76.66,1.78,0,1.7-1.47,1.09,0,.75-.27,1.61-.73,1.68S16.58,12,16.58,12Z"/><path class="cls-7" d="M12.38,6.39a23.27,23.27,0,0,1-2.55,2.2A8.15,8.15,0,0,0,8.5,11.66,8,8,0,0,1,9.6,8.4,16.1,16.1,0,0,0,11.9,6c1-1.7.11-4-1.16-5.28.26-.24.62-.54.83-.75C12.77,1.54,13.83,4.5,12.38,6.39Z"/><path class="cls-5" d="M13.53,8.32a10.66,10.66,0,0,0-2.36,2.73A10.08,10.08,0,0,1,8.65,13,10.09,10.09,0,0,0,11,10.85a10.22,10.22,0,0,1,2.39-3.1c2.1-1.63,5.13-1.45,7.51-.59l-.42,1.05S15.53,6.88,13.53,8.32Z"/><path class="cls-4" d="M17.72,8.14a19.14,19.14,0,0,0-1.44,2.77,4.86,4.86,0,0,1-1.92,2.14,8.06,8.06,0,0,1-3.13.32,7.43,7.43,0,0,0,3-.62A5,5,0,0,0,16,10.12c.67-1.86,1.5-3.89,3.45-4.72l.39,1.06A4.49,4.49,0,0,0,17.72,8.14Z"/><rect class="cls-4" x="0.77" y="3.47" width="1.5" height="1.5" transform="translate(-2.54 2.31) rotate(-45.01)"/><rect class="cls-5" x="2.25" y="6.82" width="1.5" height="1.5" transform="translate(-4.48 4.34) rotate(-45)"/><rect class="cls-6" x="4.96" y="1.81" width="1.5" height="1.5" transform="translate(-0.14 4.79) rotate(-45.01)"/><rect class="cls-7" x="16.5" y="14.5" width="1.5" height="1.5" transform="translate(-5.73 16.67) rotate(-45)"/><rect class="cls-6" x="14.14" y="18.13" width="1.5" height="1.5" transform="translate(-8.99 16.06) rotate(-45)"/><rect class="cls-5" x="18.79" y="18.97" width="1.5" height="1.5" transform="translate(-8.22 19.59) rotate(-45)"/><rect class="cls-4" x="19.85" y="14.14" width="1.5" height="1.5" transform="translate(-4.49 18.93) rotate(-45)"/><rect class="cls-4" x="18.08" y="2.94" width="1.5" height="1.5" transform="translate(2.91 14.4) rotate(-45)"/><rect class="cls-6" x="6.7" y="9.31" width="1.5" height="1.5" transform="translate(-4.93 8.22) rotate(-45)"/></g></g></svg>