<svg xmlns="http://www.w3.org/2000/svg" viewBox="0 0 1090.08 587.71"><defs><style>.cls-1,.cls-2,.cls-3,.cls-4,.cls-5,.cls-6,.cls-7,.cls-8,.cls-9{fill:#26a676;}.cls-2{opacity:0.78;}.cls-3{opacity:0.72;}.cls-4{opacity:0.93;}.cls-5{opacity:0.4;}.cls-6{opacity:0.84;}.cls-7{opacity:0.68;}.cls-8{opacity:0.39;}.cls-9{opacity:0.8;}.cls-10{fill:none;stroke:gray;stroke-miterlimit:10;stroke-width:2px;}.cls-11{fill:#d0d0d0;}.cls-12{fill:#d3976e;}.cls-13{fill:#cea9f7;}.cls-14{fill:#ffdd7d;}.cls-15{fill:#a80038;}.cls-16{fill:#ff2c68;}.cls-17{fill:#ffa4a4;}.cls-18{fill:#42ade2;}.cls-19{fill:#428bc1;}.cls-20{fill:#ff8b00;}.cls-21{fill:#fff033;}.cls-22{fill:#9fe4ff;}.cls-23{fill:#ffce31;}.cls-24{fill:#ffdf85;}.cls-25{fill:#3e4347;}.cls-26{fill:#c28fef;}.cls-27{fill:#9450e0;}.cls-28{fill:#ffc7ce;}.cls-29{fill:#fed0ac;}.cls-30{fill:#e0a372;}.cls-31{fill:#dbb471;}.cls-32{fill:#664e27;}</style></defs><title>party_scene1</title><g id="Lager_2" data-name="Lager 2"><g id="Lager_1-2" data-name="Lager 1"><polygon class="cls-1" points="1006.98 38.53 1089.55 112.38 1085.62 3.06 1006.98 38.53"/><polygon class="cls-2" points="881.16 95.27 963.72 169.13 959.8 59.81 881.16 95.27"/><polygon class="cls-3" points="755.34 152.02 837.9 225.87 833.98 116.55 755.34 152.02"/><polygon class="cls-4" points="629.52 208.76 712.08 282.62 708.16 173.3 629.52 208.76"/><polygon class="cls-5" points="503.7 265.51 586.26 339.36 582.34 230.04 503.7 265.51"/><polygon class="cls-6" points="377.88 322.25 460.44 396.11 456.51 286.79 377.88 322.25"/><polygon class="cls-7" points="252.06 379 334.62 452.85 330.69 343.53 252.06 379"/><polygon class="cls-8" points="126.23 435.74 208.79 509.59 204.87 400.27 126.23 435.74"/><polygon class="cls-9" points="0.41 492.48 82.97 566.34 79.05 457.02 0.41 492.48"/><line class="cls-10" x1="0.41" y1="492.48" x2="1089.67" y2="0.91"/><ellipse class="cls-11" cx="673.41" cy="560.11" rx="65.63" ry="27.6"/><path class="cls-12" d="M620.26,506.43v49.21c0,12.35,23.79,22.36,53.15,22.36s53.16-10,53.16-22.36V506.43Z"/><path class="cls-13" d="M620.26,517V517l0-.06Z"/><path class="cls-13" d="M726.57,517h0s0,0,0,.06Z"/><path class="cls-14" d="M726.57,520.81c-.25,8.77-33.67,18.47-53.16,18.47s-52.91-9.7-53.15-18.47v13.4c27.36,19.58,78.94,19.58,106.31,0Z"/><path class="cls-14" d="M726.57,541.69c-.25,8.78-33.67,18.48-53.16,18.48s-52.91-9.71-53.15-18.48v13.4c27.33,19.59,79,19.59,106.31,0Z"/><path class="cls-15" d="M620.26,506.43v36.92a4.15,4.15,0,0,0,8.24,0v-8.43c0-2.66,2.45-4.81,5.47-4.81s5.47,2.15,5.47,4.81v10.4c0,3.09,2.85,5.6,6.37,5.6s6.36-2.51,6.36-5.6V534.69c0-2.78,2.56-5,5.72-5s5.73,2.25,5.73,5v6.78a3.21,3.21,0,0,0,6.36,0v-5.38a4.17,4.17,0,0,1,8.28,0v9.23c0,3.09,2.85,5.6,6.36,5.6s6.37-2.51,6.37-5.6V535c0-2.62,2.42-4.75,5.41-4.75s5.41,2.13,5.41,4.75v7.55a3.21,3.21,0,0,0,6.36,0v-5.28a2.86,2.86,0,0,1,5.67,0v8.08c0,3.09,2.84,5.6,6.36,5.6s6.36-2.51,6.36-5.6V506.57Z"/><ellipse class="cls-16" cx="673.41" cy="506.43" rx="53.16" ry="22.36"/><path class="cls-17" d="M634.87,504.08c-.29-14.31,62.81-16.18,63.06-3.56.19,9.43-40.06,9.93-40.21,2.38-.11-5.34,24.87-5.44,24.95-1.45s-20.33,4.48-15.64-.4c-8.1,6,17.63,6.45,17.51.77-.13-6.63-30.5-5.61-30.36,1.18.2,10.17,46.78,9,46.55-2.35-.31-14.81-69.9-14.31-69.54,3.53.39,19.46,68.36,26.55,90.36,1.74C691.62,528.36,635.14,517.46,634.87,504.08Z"/><path class="cls-18" d="M629.2,477.52v23.62c0,3.37,7,2.78,7,0V477.52C636.2,474.15,629.2,474.15,629.2,477.52Z"/><polygon class="cls-19" points="636.2 479.75 629.2 483.34 629.2 487.53 636.2 483.94 636.2 479.75"/><polygon class="cls-19" points="629.2 494.72 629.2 498.7 636.2 495.1 636.2 491.13 629.2 494.72"/><path class="cls-20" d="M636.44,472.15c0,5.39-7.24,5.39-7.24,0,0-1.78,3.62-7.52,3.62-7.52S636.44,470.37,636.44,472.15Z"/><path class="cls-21" d="M634.63,473.87c0,3.08-3.61,3.08-3.61,0,0-.89,1.8-3.76,1.8-3.76S634.63,473,634.63,473.87Z"/><path class="cls-18" d="M670.24,467.74v20.67c0,3.22,6.13,2.7,6.13,0V467.74C676.37,464.51,670.24,464.51,670.24,467.74Z"/><polygon class="cls-19" points="676.37 469.69 670.24 472.83 670.24 476.5 676.37 473.35 676.37 469.69"/><polygon class="cls-19" points="670.24 482.79 670.24 486.27 676.37 483.13 676.37 479.65 670.24 482.79"/><path class="cls-20" d="M676.58,463c0,5-6.34,5-6.34,0,0-1.56,3.17-6.58,3.17-6.58S676.58,461.48,676.58,463Z"/><path class="cls-21" d="M675,464.54c0,3-3.17,3-3.17,0,0-.77,1.58-3.28,1.58-3.28S675,463.77,675,464.54Z"/><path class="cls-18" d="M710.38,477.49v23.62c0,3.37,7,2.78,7,0V477.49C717.37,474.12,710.38,474.12,710.38,477.49Z"/><polygon class="cls-19" points="717.37 479.72 710.38 483.31 710.38 487.5 717.37 483.91 717.37 479.72"/><polygon class="cls-19" points="710.38 494.69 710.38 498.67 717.37 495.07 717.37 491.1 710.38 494.69"/><path class="cls-20" d="M717.61,472.12c0,5.42-7.23,5.42-7.23,0,0-1.78,3.61-7.52,3.61-7.52S717.61,470.34,717.61,472.12Z"/><path class="cls-21" d="M715.81,473.84c0,3.08-3.63,3.08-3.63,0,0-.89,1.82-3.76,1.82-3.76S715.81,473,715.81,473.84Z"/><path class="cls-22" d="M647.19,492.19v28.56c0,3.62,8.45,2.9,8.45,0V492.19C655.64,488.57,647.19,488.57,647.19,492.19Z"/><polygon class="cls-18" points="655.64 494.88 647.18 499.23 647.18 504.3 655.64 499.95 655.64 494.88"/><polygon class="cls-18" points="647.18 512.99 647.18 517.79 655.64 513.45 655.64 508.64 647.18 512.99"/><path class="cls-20" d="M655.94,485.7a4.38,4.38,0,1,1-8.75,0c0-2.15,4.37-9.09,4.37-9.09S655.94,483.55,655.94,485.7Z"/><path class="cls-21" d="M653.75,487.78a2.2,2.2,0,1,1-4.37,0c0-1.08,2.18-4.55,2.18-4.55S653.75,486.7,653.75,487.78Z"/><path class="cls-22" d="M691,492.13v28.56c0,3.62,8.46,2.9,8.46,0V492.13C699.44,488.51,691,488.51,691,492.13Z"/><polygon class="cls-18" points="699.44 494.82 690.98 499.17 690.98 504.23 699.44 499.88 699.44 494.82"/><polygon class="cls-18" points="690.98 512.93 690.98 517.73 699.44 513.39 699.44 508.58 690.98 512.93"/><path class="cls-20" d="M699.73,485.64c0,6-8.75,6-8.75,0,0-2.15,4.37-9.09,4.37-9.09S699.73,483.49,699.73,485.64Z"/><path class="cls-21" d="M697.54,487.71a2.2,2.2,0,1,1-4.37,0c0-1.07,2.18-4.54,2.18-4.54S697.54,486.64,697.54,487.71Z"/><polygon class="cls-23" points="282.28 177.04 246.47 177.04 235.41 144.21 224.34 177.04 188.53 177.04 217.5 197.34 206.44 230.17 235.41 209.88 264.38 230.17 253.31 197.34 282.28 177.04"/><polygon class="cls-24" points="257.65 172.88 263.78 154.93 247.47 166.19 249.75 172.88 257.65 172.88"/><polygon class="cls-24" points="229.02 219.27 235.41 237.96 241.8 219.27 235.41 214.85 229.02 219.27"/><polygon class="cls-24" points="264.6 194.69 258.62 198.82 261.16 206.25 281.32 206.25 264.6 194.69"/><polygon class="cls-24" points="223.34 166.19 207.03 154.93 213.17 172.88 221.06 172.88 223.34 166.19"/><polygon class="cls-24" points="206.22 194.69 189.5 206.25 209.66 206.25 212.2 198.82 206.22 194.69"/><path class="cls-25" d="M827.07,393.09a4.54,4.54,0,0,0,0,4.87h4.48v-1.77s.74,1.77,7.58,1.77c2.37,0,2.61-2.3.13-2.43s-2.15-1.88-4.5-4.87Z"/><path class="cls-25" d="M853.93,393.09a4.56,4.56,0,0,0,0,4.87h4.48v-1.77S859.16,398,866,398c2.36,0,2.61-2.3.12-2.43s-2.14-1.88-4.49-4.87Z"/><path class="cls-26" d="M858.91,376.39c-.74-3.89-6.72-6.6-10.45-14.27a59.07,59.07,0,0,0-15.67-1.93s-4.11,2.06-1.87,11.36c1.36,5.65-1.49,15.18-6,22.12a21,21,0,0,0,13.43,0s-2-4.85,1.46-14.22c1.13-3-1.5-6,1.15-12.72,0,0,1.29,2.84,10.84,11.35,0,0-1.88,8.75.36,15.59,0,0,1.43.64,6.58.64a31.13,31.13,0,0,0,7.22-.64S861.38,389.39,858.91,376.39Z"/><path class="cls-27" d="M838.92,361.75c-3.3-1.62-5.3-1.75-6.53-1.28A6.2,6.2,0,0,0,830.5,364c2.82,1.52,7.13,1.33,7.13,1.33A9.18,9.18,0,0,0,838.92,361.75Z"/><path class="cls-26" d="M844.86,334.69s11.29-3.39,16.14-12.58c0,0,.77,3.52,6.49,7,0,0-8.46,6.44-14.43,9.09a69.69,69.69,0,0,0,4.19,23.24s-.41,1.37-11.1,1.37C846.15,362.77,851.66,353,844.86,334.69Z"/><path class="cls-26" d="M837,335.23s-5.25-3.09-7.84-1.05c-13.9,11-14.7,13.64-13.06,22.25,0,0,2.86-2.08,7.83.25,0,0-2.24-8.54,7.76-13.07,0,0,.31,6.49-3.27,17.47,0,0,2.24,3,8.58,3C837,364.12,843.73,349.91,837,335.23Z"/><path class="cls-27" d="M862.3,320.52s6,3.31,6,8.42h-3.43s-.29-2.77-1.8-3.87S862.3,320.52,862.3,320.52Z"/><path class="cls-28" d="M862.3,320.52s-2.59,2.21-4.41,4.18a7.63,7.63,0,0,0,1.68,3.39l3.86-2-2.82,3.64a7.49,7.49,0,0,0,3.25,2.54,19.85,19.85,0,0,0,4.48-3.33A13.78,13.78,0,0,1,862.3,320.52Z"/><path class="cls-29" d="M868.34,320.71s2.95-2.5,2.17-3.34-1.41-.89-2.17,0c-.31.35-.91,1-2,2.07-1.12-.89-1.56,0-1.84.38a12,12,0,0,0-.92,2.44,10.06,10.06,0,0,0,4.16,5.16c1.5-.94,3.78-2.47,3.78-3.15C871.54,322.78,868.34,320.71,868.34,320.71Z"/><path class="cls-30" d="M864.52,321.69s1.4-.28,2.06.3l-.29.23A3.4,3.4,0,0,0,864.52,321.69Z"/><path class="cls-27" d="M815.87,358.05s2.54,1.76,8.94.29C824.81,358.34,821.48,355.62,815.87,358.05Z"/><path class="cls-29" d="M817.55,356.47a7.19,7.19,0,0,0,1.09,7.22,4.46,4.46,0,0,0,5.13.85c2.23-.94.3-1.77-.55-3.59.53-.58,1-1.11.77-1.73a4.12,4.12,0,0,0-1.88-1.56S822.86,356.05,817.55,356.47Z"/><path class="cls-30" d="M824,359.22a1.09,1.09,0,0,0-.14-.23c.2.5-.43,1.32-.8,1l-1.34-1.27a8.45,8.45,0,0,1,1.51,2.28C823.75,360.37,824.27,359.84,824,359.22Z"/><path class="cls-28" d="M815.29,352.81a23.19,23.19,0,0,1,.58,5.24s3.62-1.4,8.94.29c0,0-.94-3.16.15-5.52,0,0-.58-1.35-3.25-1.75l-1.09,4.46-1-4.35A4.13,4.13,0,0,0,815.29,352.81Z"/><path class="cls-30" d="M869.28,325.46c-.47.42-1.37,1.22-2.73-.22s-.52-2.38.1-3.13a2,2,0,0,0,.65-1.41c0-.68-1.33-1.3-.71-.76,0,0,.9.39-.39,2.17-.53.72-1.15,1.58-.46,2.62s1.69,2.28,3.24,1.35S870.09,324.73,869.28,325.46Z"/><polygon class="cls-30" points="844.86 334.18 838.04 334.18 843.54 343.02 844.86 334.18"/><path class="cls-28" d="M849.58,335.65c-.85-.89-2.73-.42-2.73-.42l2.24-3a10.8,10.8,0,0,1-4.58,1.52c-1.59,3.17-1,9.06-1,9.06s-1.2-6.15-5.43-9.06a15.05,15.05,0,0,0-5.16.34l4.12,2.09-3.09,1.3a16.57,16.57,0,0,1,4.59,1.72,50.05,50.05,0,0,1-.59,22.47l8.54.43s4.52-8.73-.34-23.48A15.61,15.61,0,0,1,849.58,335.65Z"/><path class="cls-27" d="M846.15,362.77s8.91-3.27,11.1-1.37C857.25,361.4,857.13,362.77,846.15,362.77Z"/><path class="cls-26" d="M843.54,343.61A29.22,29.22,0,0,1,842.27,360S846.88,351.87,843.54,343.61Z"/><path class="cls-29" d="M838.13,313.5c-12.27,0-10.84-3.13-10.84,12.41,0,7.38,6.57,9.51,13.41,9.38s10.76-1.68,10.76-9.07C851.46,314,848.19,313.5,838.13,313.5Z"/><path class="cls-31" d="M832.48,334.39c-.12,1.16-.22,3.14-4.63,2.42,0,0,.63-7.49-2.74-11.67s-4.11-8-1.43-11c0,0-3.1-6.85,11.07-8.69,7.14-.92,13.44,1.76,20-1.25,0,0,5.89,11.7-5.28,13.15s-11.31-2.44-17.85-1.59a46.63,46.63,0,0,0,2.67,11.07,2,2,0,0,1-1.21,2.1s-1.37-6.08-3.56-7.55-2.2,2.06-1.09,4,1.93,1.57,1.93,1.57S832.88,330.76,832.48,334.39Z"/><path class="cls-32" d="M837,319.8a2.27,2.27,0,1,1-2.27,2.27A2.26,2.26,0,0,1,837,319.8Z"/><path class="cls-32" d="M848,319.8a2.27,2.27,0,1,1-2.27,2.27A2.27,2.27,0,0,1,848,319.8Z"/><path class="cls-32" d="M846.11,329a5.49,5.49,0,0,1-7.24,0c-.29-.21-.54.16-.35.51a4.44,4.44,0,0,0,7.94,0C846.65,329.12,846.39,328.75,846.11,329Z"/></g></g></svg>