<svg id="Lager_1" data-name="Lager 1" xmlns="http://www.w3.org/2000/svg" xmlns:xlink="http://www.w3.org/1999/xlink" viewBox="0 0 71.2 52.52"><defs><style>.cls-1{fill:url(#Namnlös_övertoning_33);}.cls-2{fill:url(#Namnlös_övertoning_33-2);}</style><linearGradient id="Namnlös_övertoning_33" x1="39.35" y1="60.4" x2="6.01" y2="7.06" gradientUnits="userSpaceOnUse"><stop offset="0" stop-color="#dd4bdd"/><stop offset="0.59" stop-color="#fbae17"/><stop offset="1" stop-color="#fb5717"/></linearGradient><linearGradient id="Namnlös_övertoning_33-2" x1="63.84" y1="45.09" x2="30.51" y2="-8.25" xlink:href="#Namnlös_övertoning_33"/></defs><title>Rityta 1</title><path class="cls-1" d="M17.86,48a24.12,24.12,0,0,1-11-2.4A5.07,5.07,0,0,1,4,41.15V38.88a5.06,5.06,0,0,1,2.47-4.29,5.17,5.17,0,0,1,2.6-.72,5,5,0,0,1,2.34.59,12.07,12.07,0,0,0,3.05,1.1,15.24,15.24,0,0,0,3.25.39c2.93,0,4-.58,4.36-.84a2.23,2.23,0,0,0,.58-1.82,1.58,1.58,0,0,0-.06-.59l-.2-.19a9.27,9.27,0,0,0-4.74-.91H14.09a5,5,0,0,1-5-5.07V24.38A5.13,5.13,0,0,1,11.49,20a.41.41,0,0,0,.2-.59.44.44,0,0,0-.46-.32h-.06l-.65.06a5.12,5.12,0,0,1-4.1-2.08l-1.1-1.49a5.14,5.14,0,0,1,.84-6.89A19.31,19.31,0,0,1,12.4,5.34,20.25,20.25,0,0,1,19.49,4.1,15.43,15.43,0,0,1,29.82,7.48a12.5,12.5,0,0,1,4.23,9.88,12.12,12.12,0,0,1-2,7,.62.62,0,0,0,.07.58,12.5,12.5,0,0,1,3,8.39A13.43,13.43,0,0,1,30,44.4C27,46.81,22.93,48,17.86,48ZM9.09,34.26a4.52,4.52,0,0,0-2.41.65,4.67,4.67,0,0,0-2.27,4v2.27A4.57,4.57,0,0,0,7,45.31a24,24,0,0,0,10.85,2.34c5,0,9-1.17,12-3.57A13.11,13.11,0,0,0,34.7,33.29a12,12,0,0,0-3.32-8.65,12.08,12.08,0,0,0,2.28-7.28,12.16,12.16,0,0,0-4.1-9.62C27.09,5.6,23.71,4.49,19.49,4.49a21.45,21.45,0,0,0-7,1.17A19.9,19.9,0,0,0,6.42,9a4.67,4.67,0,0,0-.78,6.31l1.11,1.49a4.54,4.54,0,0,0,3.77,1.95,4.69,4.69,0,0,0,2.6-.78,14,14,0,0,1,3.44-1.82,8.66,8.66,0,0,1,3-.45,3,3,0,0,1,2.08.58c.2.13.33.26.33.85a1.77,1.77,0,0,1-.72,1.62,5.49,5.49,0,0,1-3.51.91H14.09a4.71,4.71,0,0,0-4.68,4.68v2.15a4.71,4.71,0,0,0,4.68,4.68h3.58c3,0,4.35.58,4.87.91s.52.45.52,1.17a2.32,2.32,0,0,1-.78,2.08c-.45.39-1.62,1-4.55,1A15.77,15.77,0,0,1,14.42,36a17.42,17.42,0,0,1-3.19-1.17A4.79,4.79,0,0,0,9.09,34.26Zm8.77,12.42A22.86,22.86,0,0,1,7.46,44.4a3.56,3.56,0,0,1-2-3.25V38.88A3.65,3.65,0,0,1,7.2,35.76a3.7,3.7,0,0,1,1.89-.52,3.2,3.2,0,0,1,1.69.45,16,16,0,0,0,3.38,1.24,18.53,18.53,0,0,0,3.57.45c3.25,0,4.62-.78,5.2-1.23a3.12,3.12,0,0,0,1.17-2.86,2.21,2.21,0,0,0-1-2c-.65-.39-2.15-1.1-5.46-1.1H14.09a3.64,3.64,0,0,1-3.64-3.64V24.38a3.64,3.64,0,0,1,3.64-3.64h3.64a6.35,6.35,0,0,0,4.16-1.17,2.78,2.78,0,0,0,1-2.4,1.84,1.84,0,0,0-.65-1.63,4.13,4.13,0,0,0-2.73-.78,10.31,10.31,0,0,0-3.31.46,20.82,20.82,0,0,0-3.71,2,3.63,3.63,0,0,1-2,.58,3.48,3.48,0,0,1-2.93-1.49l-1.1-1.5a3.58,3.58,0,0,1,.58-4.94,18.6,18.6,0,0,1,5.79-3.18,19.51,19.51,0,0,1,6.63-1.17c4,0,7.08,1,9.42,3.05a11.22,11.22,0,0,1,3.77,8.84,10.93,10.93,0,0,1-2.4,7,.61.61,0,0,0,.06.72l.2.13a11,11,0,0,1,3.12,8.06,12.21,12.21,0,0,1-4.49,10C26.44,45.51,22.61,46.68,17.86,46.68ZM9.09,37a1.58,1.58,0,0,0-1,.33,1.75,1.75,0,0,0-.91,1.56v2.27a1.86,1.86,0,0,0,1,1.69,21.33,21.33,0,0,0,9.62,2.08.51.51,0,0,0,.46-.52v-.13a.57.57,0,0,0-.46-.39,20.24,20.24,0,0,1-9.16-2,.83.83,0,0,1-.52-.78V38.88a.88.88,0,0,1,.45-.72A1,1,0,0,1,9.09,38a.77.77,0,0,1,.39.07,14.58,14.58,0,0,0,4,1.49,16.6,16.6,0,0,0,4.22.52,14.69,14.69,0,0,0,4.81-.65.58.58,0,0,0,.33-.65v-.06l-.07-.07a.55.55,0,0,0-.39-.19h-.19a12.73,12.73,0,0,1-4.49.65,18.28,18.28,0,0,1-4-.52,15.76,15.76,0,0,1-3.84-1.37A1.33,1.33,0,0,0,9.09,37ZM19.49,7.22a19.37,19.37,0,0,0-6,1,17.21,17.21,0,0,0-5.26,2.93,1.85,1.85,0,0,0-.65,1.43,1.74,1.74,0,0,0,.39,1.1l1,1.5a1.93,1.93,0,0,0,1.56.78,1.54,1.54,0,0,0,1-.33c.58-.32,1.1-.65,1.62-1,.2-.07.26-.33.2-.59v-.06a.48.48,0,0,0-.46-.26c-.13,0-.19,0-.26.06-.52.26-1.1.65-1.69,1a.58.58,0,0,1-.45.19,1,1,0,0,1-.72-.39L8.7,13.14a.75.75,0,0,1-.2-.52A.79.79,0,0,1,8.83,12a14.46,14.46,0,0,1,4.94-2.73,17.33,17.33,0,0,1,5.72-1q4.88,0,7.6,2.34a8.15,8.15,0,0,1,.72.72.5.5,0,0,0,.32.13c.13,0,.2,0,.26-.07h.07l.06-.06a.5.5,0,0,0,.13-.33.48.48,0,0,0-.13-.39,7.17,7.17,0,0,0-.78-.71C25.79,8.13,23,7.22,19.49,7.22ZM10.13,44.53v.07c-.07.13,0,.26,0,.39a.54.54,0,0,0,.32.19,24.48,24.48,0,0,0,7.41,1.11.51.51,0,0,0,.46-.52v-.13a.56.56,0,0,0-.46-.39,24.19,24.19,0,0,1-7.08-1,.26.26,0,0,0-.2-.06.54.54,0,0,0-.39.26ZM12.21,7.94h.06a.37.37,0,0,0,.33.19h.19l.52-.19a12.92,12.92,0,0,1,1.76-.52A.72.72,0,0,0,15.46,7V6.77a.52.52,0,0,0-.52-.33h-.13c-.59.13-1.24.33-1.82.52l-.59.2a.51.51,0,0,0-.26.26.44.44,0,0,0,0,.39ZM14.09,22.5a1.88,1.88,0,0,0-1.88,1.88v2.15a1.88,1.88,0,0,0,1.88,1.88h3.58a15.75,15.75,0,0,1,4.16.46H22a.57.57,0,0,0,.39-.2h.06v-.19c.07-.07,0-.26-.06-.33a.55.55,0,0,0-.26-.26,18.06,18.06,0,0,0-4.42-.45H14.09a.93.93,0,0,1-.91-.91V24.38a.93.93,0,0,1,.91-.91h3.64a9.18,9.18,0,0,0,5.92-1.75,5.55,5.55,0,0,0,2.08-4.55,1.85,1.85,0,0,0-.07-.65.46.46,0,0,0-.52-.46h-.06l-.07.07a.41.41,0,0,0-.32.45v.59A4.44,4.44,0,0,1,23,20.94a8.1,8.1,0,0,1-5.27,1.56Zm5.46-6.37a9.56,9.56,0,0,0-2.86.39,13.43,13.43,0,0,0-3.38,1.82.31.31,0,0,0-.19.13.44.44,0,0,0-.2.58.49.49,0,0,0,.46.33h.13c.13,0,.39-.07.58-.07h3.64a5.62,5.62,0,0,0,3.32-.78,1.58,1.58,0,0,0,.52-1.36c0-.13,0-.2-.07-.26A2.06,2.06,0,0,0,19.55,16.13ZM14.74,15h.07a.35.35,0,0,0,.32.2.24.24,0,0,0,.2-.07c.26-.06.52-.19.78-.26a9.57,9.57,0,0,1,3.44-.52,4.65,4.65,0,0,1,2.47.52c.07,0,.13.07.2.07a.5.5,0,0,0,.32-.13.14.14,0,0,0,.13-.13.53.53,0,0,0-.19-.72,6.51,6.51,0,0,0-2.93-.65,11.51,11.51,0,0,0-3.77.59,4.13,4.13,0,0,0-.84.32.51.51,0,0,0-.26.26.39.39,0,0,0,0,.39Zm.46,23c-.07.13,0,.26.06.39a1.59,1.59,0,0,0,.33.2c.71.06,1.49.13,2.14.13h.39a.47.47,0,0,0,.46-.52V38.1a.49.49,0,0,0-.46-.33h-.39a11,11,0,0,1-2-.19h-.07a.48.48,0,0,0-.45.32ZM19.55,6.9c.91,0,1.76.06,2.6.13l.07.06a.66.66,0,0,0,.45-.26V6.77l.07-.13a.48.48,0,0,0-.13-.39.38.38,0,0,0-.33-.2,18.57,18.57,0,0,0-2.73-.19c-.78,0-1.56.06-2.27.13a.57.57,0,0,0-.46.58l.07.13.06.07a1.23,1.23,0,0,0,.39.26A12.61,12.61,0,0,1,19.55,6.9ZM17.34,21.07a.53.53,0,0,0,0,1h.39a11,11,0,0,0,2.15-.2.54.54,0,0,0,.32-.19.43.43,0,0,0,.07-.39V21.2a.56.56,0,0,0-.46-.26h-.13a9.16,9.16,0,0,1-1.95.13ZM25,33.68a.57.57,0,0,0,.39-.2.5.5,0,0,0,.13-.32,3.47,3.47,0,0,0-1.56-3,9.22,9.22,0,0,0-4.36-1.3.46.46,0,0,0-.52.45v.13c0,.2.2.39.46.46A7.93,7.93,0,0,1,23.32,31a2.33,2.33,0,0,1,1.11,2.15.55.55,0,0,0,.45.52Zm2.4-10a.45.45,0,0,0-.32.13,7.7,7.7,0,0,1-1.11.84.56.56,0,0,0-.26.46c.07.19.13.32.33.39a8.37,8.37,0,0,1,2.6,1.75,8.1,8.1,0,0,1,2.34,6.05,9.49,9.49,0,0,1-3.51,7.86,13.36,13.36,0,0,1-7.28,2.6.66.66,0,0,0-.46.46v.13a.5.5,0,0,0,.52.45,14.75,14.75,0,0,0,7.87-2.86,10.57,10.57,0,0,0,3.83-8.64,8.94,8.94,0,0,0-2.6-6.76A10.43,10.43,0,0,0,27.16,25a3.91,3.91,0,0,0,.52-.39.37.37,0,0,0,.19-.33.86.86,0,0,0-.13-.39l-.06-.06-.13-.07C27.48,23.73,27.42,23.67,27.35,23.67ZM20,38l.06.13a.44.44,0,0,0,.46.39h.13a7.26,7.26,0,0,0,3.12-1.3A4.25,4.25,0,0,0,25,35.76c.13-.26.06-.59-.2-.65L24.69,35h-.2a.66.66,0,0,0-.45.26,3,3,0,0,1-.85,1.17,6.52,6.52,0,0,1-2.73,1,.48.48,0,0,0-.39.46Zm1.56-17.29.06.07a.5.5,0,0,0,.46.26l.26-.07a1.12,1.12,0,0,1,.45-.32,4.37,4.37,0,0,0,1.56-3.51,3.75,3.75,0,0,0-.13-1,.49.49,0,0,0-.52-.39h-.13l-.06.07a.43.43,0,0,0-.26.52,3.13,3.13,0,0,1,.06.78,3.36,3.36,0,0,1-1.17,2.73,1.26,1.26,0,0,0-.39.26.4.4,0,0,0-.19.52ZM24.1,7.09a.56.56,0,0,0,.33.52,10.69,10.69,0,0,1,3.57,2,8.84,8.84,0,0,1,1.89,2.21.39.39,0,0,0,.39.2h.19l.07-.07a.46.46,0,0,0,.19-.65,8.09,8.09,0,0,0-2.08-2.4,11.32,11.32,0,0,0-3.9-2.21h-.13A.52.52,0,0,0,24.1,7Zm6.63,32.83a.4.4,0,0,0-.39.19,12.34,12.34,0,0,1-2,2.15,14.4,14.4,0,0,1-3.58,2,.51.51,0,0,0-.32.52v.13a.51.51,0,0,0,.52.32.22.22,0,0,0,.13-.06A13.62,13.62,0,0,0,28.91,43a10.76,10.76,0,0,0,2.21-2.34.48.48,0,0,0,.13-.39A.66.66,0,0,0,31,40v-.06h-.26Zm1.17-11.7c-.13,0-.19,0-.26.06h-.06l-.07.07a.48.48,0,0,0-.06.58,11,11,0,0,1,.65,2.21.55.55,0,0,0,.52.39h.06a.49.49,0,0,0,.39-.58,10.94,10.94,0,0,0-.71-2.47A.66.66,0,0,0,31.9,28.22Zm-.19,10.53h.19a.49.49,0,0,0,.46-.33,13.22,13.22,0,0,0,.91-4.94c.06-.13,0-.26-.13-.39a.55.55,0,0,0-.33-.13h-.06a.56.56,0,0,0-.46.52A12.34,12.34,0,0,1,31.45,38a.51.51,0,0,0,.19.65Z"/><path class="cls-2" d="M51.92,48a13.52,13.52,0,0,1-12.09-6.63c-2.34-3.7-3.45-8.77-3.45-15.4S37.49,14.18,39.7,10.6c2.73-4.35,6.83-6.5,12.22-6.5a13.58,13.58,0,0,1,12.16,6.63c2.34,3.64,3.51,8.78,3.51,15.28,0,6.82-1.11,11.89-3.38,15.53C61.41,45.9,57.32,48,51.92,48Zm0-43.61A13.16,13.16,0,0,0,40,10.8c-2.21,3.51-3.32,8.51-3.32,15.21s1.11,11.57,3.38,15.21a13.42,13.42,0,0,0,11.83,6.5c5.27,0,9.3-2.15,12-6.37,2.28-3.58,3.38-8.58,3.38-15.34,0-6.44-1.17-11.51-3.44-15.08A13.38,13.38,0,0,0,51.92,4.43Zm0,42.25A12.3,12.3,0,0,1,41,40.7c-2.21-3.51-3.25-8.32-3.25-14.69s1-11.31,3.19-14.69c2.4-3.9,6.11-5.85,11-5.85a12.19,12.19,0,0,1,11,6c2.21,3.44,3.31,8.32,3.31,14.56,0,6.56-1,11.37-3.18,14.82C60.57,44.73,56.8,46.68,51.92,46.68ZM38.66,23.08a.44.44,0,0,0-.45.46c-.07.78-.07,1.62-.07,2.47a.51.51,0,0,0,.46.52h.13a.49.49,0,0,0,.38-.52c0-.78,0-1.56.07-2.41a.52.52,0,0,0-.32-.52Zm1-7.28a.56.56,0,0,0-.45.39,30.6,30.6,0,0,0-.91,4.88.61.61,0,0,0,.45.58.58.58,0,0,0,.59-.45,24.75,24.75,0,0,1,.84-4.75.77.77,0,0,0-.07-.39.64.64,0,0,0-.32-.26Zm.65,5.07h-.13a.65.65,0,0,0-.52.46c-.13,1.43-.19,3.05-.19,4.68,0,6,1,10.53,3,13.71a10.48,10.48,0,0,0,9.42,5.2,10.68,10.68,0,0,0,9.62-5.07l.07-.13a.59.59,0,0,0-.13-.71h-.13a.24.24,0,0,0-.2-.07.54.54,0,0,0-.39.26l-.06.13a9.69,9.69,0,0,1-8.78,4.55,9.5,9.5,0,0,1-8.58-4.68c-1.88-3.05-2.79-7.34-2.79-13.19,0-1.63.06-3.19.19-4.55a.51.51,0,0,0-.32-.52Zm.13-6.37a.58.58,0,0,0,.52-.32A16.91,16.91,0,0,1,42.11,12a10.77,10.77,0,0,1,3.12-3.31.53.53,0,0,0,.19-.59L45.36,8A.47.47,0,0,0,45,7.81a.65.65,0,0,0-.33.06,13.39,13.39,0,0,0-3.45,3.64c-.38.72-.84,1.5-1.16,2.28a.64.64,0,0,0,.32.71ZM52.12,46.29a15.36,15.36,0,0,0,2.53-.2.49.49,0,0,0,.39-.58v-.07L55,45.38a.49.49,0,0,0-.46-.33h-.06a13,13,0,0,1-2.34.26H52a11.51,11.51,0,0,1-6.7-2c-.06-.07-.19-.07-.26-.07a.59.59,0,0,0-.45.2.77.77,0,0,0-.07.39.35.35,0,0,0,.2.32,12.26,12.26,0,0,0,7.21,2.15ZM51.92,12a5.53,5.53,0,0,0-5.39,3.32c-1.17,2.4-1.82,6-1.82,10.66,0,4.94.65,8.58,1.88,10.92a12.31,12.31,0,0,0,1,1.36.57.57,0,0,0,.39.2.5.5,0,0,0,.32-.13l.07-.07v-.06a.5.5,0,0,0,0-.59,5.68,5.68,0,0,1-.85-1.23c-1.17-2.15-1.75-5.66-1.75-10.4,0-4.55.52-8,1.69-10.21A4.61,4.61,0,0,1,51.92,13a4.69,4.69,0,0,1,4.55,2.79C57.58,18,58.16,21.46,58.16,26a33.07,33.07,0,0,1-.52,6.63.46.46,0,0,0,.26.52l.07.06h.13a.5.5,0,0,0,.52-.39A34.62,34.62,0,0,0,59.2,26c0-4.68-.65-8.26-1.88-10.66A5.48,5.48,0,0,0,51.92,12ZM64,25.75a.52.52,0,0,0,.52-.52c-.07-5.53-1.11-9.82-3-12.81a10.73,10.73,0,0,0-9.56-5.2,12.07,12.07,0,0,0-5.46,1.24.49.49,0,0,0-.26.65l.07.06v.07a.75.75,0,0,0,.39.19l.26-.06a10.33,10.33,0,0,1,5-1.11,9.61,9.61,0,0,1,8.65,4.68c1.82,2.86,2.79,7,2.86,12.29a.56.56,0,0,0,.39.52Zm-12-12.35a4.21,4.21,0,0,0-4.16,2.53,10.89,10.89,0,0,0-.91,2.67.31.31,0,0,0,.07.39.51.51,0,0,0,.26.26h.06a.53.53,0,0,0,.59-.39,12.12,12.12,0,0,1,.84-2.47,3.15,3.15,0,0,1,3.25-2,.5.5,0,0,0,.46-.39h.06v-.13A.56.56,0,0,0,51.92,13.4Zm0,1.43A2.79,2.79,0,0,0,49,16.58c-1,2-1.5,5.2-1.5,9.43s.52,7.73,1.56,9.55a2.82,2.82,0,0,0,2.86,1.76,2.8,2.8,0,0,0,2.93-1.76c1-2,1.56-5.26,1.56-9.55s-.52-7.41-1.56-9.43A2.79,2.79,0,0,0,51.92,14.83Zm0,21.51a2,2,0,0,1-2-1.23c-.91-1.69-1.43-4.94-1.43-9.1s.52-7.15,1.43-9a1.8,1.8,0,0,1,2-1.24A1.92,1.92,0,0,1,54,17c.91,1.88,1.43,4.87,1.43,9s-.52,7.21-1.43,9.1A1.93,1.93,0,0,1,51.92,36.34Zm0-20.15a1.52,1.52,0,0,0-1.69,1C49.65,18.47,48.87,21,48.87,26c0,4,.52,7.28,1.36,8.9a1.6,1.6,0,0,0,1.69,1c1,0,1.3-.19,1.69-1C54.52,33.16,55,30,55,26c0-5-.78-7.54-1.43-8.78A1.47,1.47,0,0,0,51.92,16.19ZM49.13,37.25a.54.54,0,0,0,.13.72,4.25,4.25,0,0,0,2.6.78.56.56,0,0,0,.52-.52v-.07l-.07-.06a.54.54,0,0,0-.45-.39,3.23,3.23,0,0,1-2-.59.4.4,0,0,0-.26-.06c-.13,0-.26,0-.32.06Zm4.68.72a.38.38,0,0,0,.39.19.43.43,0,0,0,.26-.06,4.11,4.11,0,0,0,1.62-2,10.28,10.28,0,0,0,1-2.54.5.5,0,0,0-.39-.58h-.13c-.2,0-.46.13-.46.32a14.24,14.24,0,0,1-.84,2.34,3.9,3.9,0,0,1-1.3,1.56c-.2.07-.26.33-.2.59ZM57,31.6a.55.55,0,0,0,.52-.46A38.33,38.33,0,0,0,57.84,26c0-.78-.07-1.56-.07-2.28a.54.54,0,0,0-.52-.45h-.13a.54.54,0,0,0-.39.52c.07.71.07,1.49.07,2.21a36.4,36.4,0,0,1-.33,5,.68.68,0,0,0,.33.59Zm4.75-19.37a10,10,0,0,1,1.1,2,.49.49,0,0,0,.46.33h.19V14.5a.46.46,0,0,0,.26-.65,16.86,16.86,0,0,0-1.1-2.21s-.33-.52-.72-.26-.26.65-.26.65ZM64,15.87H64l-.13.13a.46.46,0,0,0-.13.52,30.35,30.35,0,0,1,.91,4.68.5.5,0,0,0,.52.45c.32-.06.52-.26.45-.58a27,27,0,0,0-1-4.88c0-.19-.2-.32-.46-.32ZM65.12,31.4a.55.55,0,0,0,.52-.45c.13-1.5.19-3.12.19-4.94,0-.91,0-1.69-.06-2.47a.45.45,0,0,0-.46-.46h-.13l-.06.07c-.2,0-.33.26-.33.45,0,.85.07,1.63.07,2.41a38.92,38.92,0,0,1-.26,4.87.66.66,0,0,0,.32.52Z"/></svg>