<svg xmlns="http://www.w3.org/2000/svg" viewBox="0 0 93.75 93.75"><defs><style>.cls-1{fill:#ffdd67;}.cls-2{fill:#664e27;}.cls-3{fill:#fff;}.cls-4{fill:#65b1ef;}.cls-5{fill:#917524;}</style></defs><title>teared_up</title><g id="Lager_2" data-name="Lager 2"><g id="Lager_1-2" data-name="Lager 1"><circle class="cls-1" cx="46.88" cy="46.87" r="46.87"/><path class="cls-2" d="M60.28,69.42a31.87,31.87,0,0,0-26.87,0c-2.09,1,.52,6.48,2.6,5.47a26.26,26.26,0,0,1,21.68,0C59.78,75.85,62.5,70.49,60.28,69.42Z"/><circle class="cls-3" cx="67.19" cy="45.31" r="14.06"/><circle class="cls-2" cx="67.19" cy="45.31" r="9.38"/><ellipse class="cls-3" cx="69.61" cy="52.3" rx="4.39" ry="5.08"/><ellipse class="cls-3" cx="63.72" cy="45.31" rx="2.57" ry="2.97"/><circle class="cls-3" cx="26.56" cy="45.31" r="14.06"/><circle class="cls-2" cx="26.56" cy="45.31" r="9.38"/><path class="cls-3" d="M29,47.22c2.42,0,4.39,2.27,4.39,5.08s-2,5.07-4.39,5.07-4.4-2.27-4.4-5.07S26.56,47.22,29,47.22Z"/><path class="cls-3" d="M23.09,42.34a3,3,0,0,1,0,5.94,3,3,0,0,1,0-5.94Z"/><path class="cls-4" d="M70.31,53.12c-7.94,10.58-12.5,20.32-12.5,28.32a12.5,12.5,0,0,0,25,0C82.81,73.44,78.12,63.54,70.31,53.12Z"/><path class="cls-5" d="M80,29.21a22.25,22.25,0,0,0-18.27-4.89c-.9.18-1.7-3.16-.6-3.37A25.63,25.63,0,0,1,82.21,26.6C83.06,27.33,80.7,29.82,80,29.21Z"/><path class="cls-5" d="M32,24.08A22.27,22.27,0,0,0,13.74,29c-.69.61-3.05-1.88-2.2-2.62a25.66,25.66,0,0,1,21.08-5.64C33.72,20.93,32.92,24.26,32,24.08Z"/></g></g></svg>