<svg xmlns="http://www.w3.org/2000/svg" xmlns:xlink="http://www.w3.org/1999/xlink" viewBox="0 0 296.59 39.9"><defs><style>.cls-1{fill:url(#Namnlös_övertoning_181);}.cls-2{fill:url(#Namnlös_övertoning_181-2);}.cls-3{fill:url(#Namnlös_övertoning_181-3);}.cls-4{fill:url(#Namnlös_övertoning_181-4);}.cls-5{fill:url(#Namnlös_övertoning_181-5);}.cls-6{fill:url(#Namnlös_övertoning_181-6);}.cls-7{fill:url(#Namnlös_övertoning_181-7);}.cls-8{fill:url(#Namnlös_övertoning_181-8);}.cls-9{fill:url(#Namnlös_övertoning_181-9);}.cls-10{fill:url(#Namnlös_övertoning_181-10);}</style><linearGradient id="Namnlös_övertoning_181" x1="15.5" y1="7.98" x2="22.61" y2="56.84" gradientUnits="userSpaceOnUse"><stop offset="0" stop-color="#e8ffe6"/><stop offset="0.09" stop-color="#c7f0d3"/><stop offset="0.26" stop-color="#90d7b3"/><stop offset="0.38" stop-color="#6ec79f"/><stop offset="0.45" stop-color="#61c198"/><stop offset="0.49" stop-color="#5ac398"/><stop offset="0.62" stop-color="#47ca96"/><stop offset="0.71" stop-color="#40cc96"/><stop offset="0.72" stop-color="#3fca95"/><stop offset="0.81" stop-color="#31b684"/><stop offset="0.91" stop-color="#29aa79"/><stop offset="1" stop-color="#26a676"/></linearGradient><linearGradient id="Namnlös_övertoning_181-2" x1="46.38" y1="3.48" x2="53.49" y2="52.35" xlink:href="#Namnlös_övertoning_181"/><linearGradient id="Namnlös_övertoning_181-3" x1="78.9" y1="-1.24" x2="86.01" y2="47.62" xlink:href="#Namnlös_övertoning_181"/><linearGradient id="Namnlös_övertoning_181-4" x1="107.69" y1="-5.43" x2="114.8" y2="43.44" xlink:href="#Namnlös_övertoning_181"/><linearGradient id="Namnlös_övertoning_181-5" x1="134.2" y1="-9.29" x2="141.3" y2="39.58" xlink:href="#Namnlös_övertoning_181"/><linearGradient id="Namnlös_övertoning_181-6" x1="156.26" y1="-12.5" x2="163.36" y2="36.37" xlink:href="#Namnlös_övertoning_181"/><linearGradient id="Namnlös_övertoning_181-7" x1="176.96" y1="-15.51" x2="184.07" y2="33.36" xlink:href="#Namnlös_övertoning_181"/><linearGradient id="Namnlös_övertoning_181-8" x1="210.15" y1="-20.34" x2="217.26" y2="28.53" xlink:href="#Namnlös_övertoning_181"/><linearGradient id="Namnlös_övertoning_181-9" x1="241.04" y1="-24.83" x2="248.15" y2="24.04" xlink:href="#Namnlös_övertoning_181"/><linearGradient id="Namnlös_övertoning_181-10" x1="273.56" y1="-29.56" x2="280.66" y2="19.31" xlink:href="#Namnlös_övertoning_181"/></defs><title>topplistor</title><g id="Lager_2" data-name="Lager 2"><g id="Lager_1-2" data-name="Lager 1"><path class="cls-1" d="M26.16.9a4.3,4.3,0,0,1,4.32,4.32v2a4.34,4.34,0,0,1-4.32,4.32H20.64V35.58a4.34,4.34,0,0,1-4.32,4.32H14.16a4.34,4.34,0,0,1-4.32-4.32V11.52H4.32A4.34,4.34,0,0,1,0,7.2v-2A4.3,4.3,0,0,1,4.32.9Zm3.42,4.32A3.42,3.42,0,0,0,26.16,1.8H4.32A3.42,3.42,0,0,0,.9,5.22v2a3.37,3.37,0,0,0,3.42,3.36h6a.52.52,0,0,1,.48.48V35.58A3.41,3.41,0,0,0,14.16,39h2.16a3.41,3.41,0,0,0,3.36-3.42V11a.52.52,0,0,1,.48-.48h6A3.37,3.37,0,0,0,29.58,7.2ZM5.34,9.3a.43.43,0,0,1,.48.42.44.44,0,0,1-.48.48h-1a3,3,0,0,1-3.06-3V5.52A.52.52,0,0,1,1.74,5a.52.52,0,0,1,.48.48V7.2a2.09,2.09,0,0,0,2.1,2.1Zm2.28.9a.47.47,0,0,1-.48-.48.46.46,0,0,1,.48-.42h4a.43.43,0,0,1,.48.42v.54a.44.44,0,0,1-.48.48.43.43,0,0,1-.42-.48V10.2ZM28,7.2a1.76,1.76,0,0,1-1.8,1.74H18.84a.48.48,0,0,1,0-1h7.32A.81.81,0,0,0,27,7.2v-2a.82.82,0,0,0-.84-.84H7.92A.43.43,0,0,1,7.5,3.9a.41.41,0,0,1,.42-.42H26.16A1.76,1.76,0,0,1,28,5.22Zm-9.9,28.38a1.74,1.74,0,0,1-1.74,1.74H14.16a1.74,1.74,0,0,1-1.74-1.74V8.94h-2A.44.44,0,0,1,10,8.46.47.47,0,0,1,10.44,8H12.9a.52.52,0,0,1,.48.48V35.58a.81.81,0,0,0,.78.84h2.16a.81.81,0,0,0,.78-.84V23a.48.48,0,0,1,1,0Zm-6-23v2.22a.44.44,0,0,1-.48.48.43.43,0,0,1-.42-.48V12.54a.46.46,0,0,1,.42-.48A.47.47,0,0,1,12.06,12.54Zm2.58,25.62a.52.52,0,0,1-.48.48,3,3,0,0,1-3-3.06V32.82a.41.41,0,0,1,.42-.42.43.43,0,0,1,.48.42v2.76a2.09,2.09,0,0,0,2.1,2.1A.52.52,0,0,1,14.64,38.16Zm4.68-6.54v4a3,3,0,0,1-1.62,2.7.22.22,0,0,1-.18.06.51.51,0,0,1-.42-.24L17,38V38a.52.52,0,0,1,.24-.54,2.06,2.06,0,0,0,1.14-1.86v-4a.47.47,0,0,1,.48-.48A.46.46,0,0,1,19.32,31.62ZM18,3.12a.52.52,0,0,1-.48-.48A.52.52,0,0,1,18,2.16h2.28a.52.52,0,0,1,.48.48.52.52,0,0,1-.48.48Zm1.32,17.22v2.22a.43.43,0,0,1-.42.48.44.44,0,0,1-.48-.48V20.34a.47.47,0,0,1,.48-.48A.46.46,0,0,1,19.32,20.34Zm0,4.5v4.5a.43.43,0,0,1-.42.48.44.44,0,0,1-.48-.48v-4.5a.47.47,0,0,1,.48-.48A.46.46,0,0,1,19.32,24.84ZM22.5,3.12a.46.46,0,0,1-.42-.48.46.46,0,0,1,.42-.48h3.66a2.8,2.8,0,0,1,1,.18.46.46,0,0,1,.3.54l-.06.18h-.06a.36.36,0,0,1-.36.18h-.12a1.52,1.52,0,0,0-.72-.12Zm6.06.72a.48.48,0,0,1,.48.3,2.91,2.91,0,0,1,.18,1.08v2a3,3,0,0,1-2.88,3,.51.51,0,0,1-.48-.42V9.66a.52.52,0,0,1,.48-.36,2.1,2.1,0,0,0,1.92-2.1v-2a1.65,1.65,0,0,0-.12-.78.48.48,0,0,1,.18-.54h.06l.06-.06Z"/><path class="cls-2" d="M62,5.7C65.1,9.3,66.66,14.1,66.66,20S65.1,30.6,62,34.2c-3.3,3.78-7.74,5.7-13.26,5.7s-10-1.92-13.26-5.7c-3.06-3.6-4.62-8.4-4.62-14.28S32.46,9.24,35.58,5.64A16.92,16.92,0,0,1,48.84,0C54.36,0,58.8,1.92,62,5.7ZM65.76,20c0-5.64-1.5-10.26-4.44-13.68S54.06,1,48.78,1,39.36,2.76,36.3,6.3c-3,3.36-4.5,8-4.5,13.62s1.5,10.26,4.44,13.68C39.3,37.2,43.56,39,48.78,39s9.48-1.8,12.54-5.4C64.26,30.18,65.76,25.56,65.76,20ZM33.24,22.56a.56.56,0,0,1-.36.48h-.12a.46.46,0,0,1-.48-.42c-.06-.72-.12-1.44-.12-2.28,0-.24.18-.42.48-.48h.06v.06a.59.59,0,0,1,.42.42A13.41,13.41,0,0,0,33.24,22.56Zm-1-4.5a26.83,26.83,0,0,1,.72-4.56.45.45,0,0,1,.42-.3h.18l.06.06a.41.41,0,0,1,.24.48,24.72,24.72,0,0,0-.72,4.38.43.43,0,0,1-.48.42l-.3-.12A.85.85,0,0,1,32.22,18.06ZM62,28.68a.47.47,0,0,1,.24.24.38.38,0,0,1,0,.36,17.38,17.38,0,0,1-2.16,3.3,14.21,14.21,0,0,1-11.28,4.8,14.21,14.21,0,0,1-11.28-4.8c-2.7-3.12-4.08-7.38-4.08-12.66a26.4,26.4,0,0,1,.3-3.9.51.51,0,0,1,.48-.42l.06.06h.12a.44.44,0,0,1,.24.48,26.1,26.1,0,0,0-.24,3.78c0,5,1.26,9.06,3.84,12s6.12,4.5,10.56,4.5,8-1.5,10.56-4.5a11.85,11.85,0,0,0,2-3.06.51.51,0,0,1,.42-.24h.12ZM33.9,11.94a.44.44,0,0,1-.24-.6,18,18,0,0,1,2.88-4.86l.9-.9a.52.52,0,0,1,.36-.18.33.33,0,0,1,.3.18h.06v.06a.46.46,0,0,1-.06.6,6.17,6.17,0,0,0-.84.9A15.19,15.19,0,0,0,34.5,11.7a.4.4,0,0,1-.42.24H33.9ZM54.6,30.66c-.06-.24-.06-.48.12-.6A4.61,4.61,0,0,0,55.8,29q2.52-3.06,2.52-9T55.8,11A8.31,8.31,0,0,0,49,8.16c-.06,0-.06-.06-.12-.06a.21.21,0,0,1-.12.06c-3.06,0-5.4.9-7,2.88s-2.52,5-2.52,8.94.84,6.9,2.52,9a7.26,7.26,0,0,0,1,1,.37.37,0,0,1,.06.48v.12l-.06.06a.51.51,0,0,1-.36.12.39.39,0,0,1-.3-.12,5.86,5.86,0,0,1-1-1.08q-2.7-3.33-2.7-9.54T41,10.44A9.59,9.59,0,0,1,48.78,7.2H49c3.3.06,5.76,1.08,7.5,3.18s2.7,5.4,2.7,9.6-.9,7.38-2.7,9.6a11.33,11.33,0,0,1-1.2,1.2.46.46,0,0,1-.3.12.43.43,0,0,1-.36-.24Zm9.18-14.94a.41.41,0,0,1-.36.54H63.3a.4.4,0,0,1-.42-.36A16,16,0,0,0,59.4,8C56.82,5,53.28,3.54,48.78,3.54A14.28,14.28,0,0,0,41.34,5.4l-.24.06a.52.52,0,0,1-.36-.18l-.06-.06a.76.76,0,0,1-.06-.36.6.6,0,0,1,.24-.3,15.37,15.37,0,0,1,7.92-2c4.8,0,8.58,1.62,11.34,4.8A17.12,17.12,0,0,1,63.78,15.72Zm-15,14.52c-2.7,0-4.44-.72-5.76-2.34S40.86,23.52,40.86,20s.72-6.18,2.16-7.92c1.32-1.56,3.12-2.28,5.76-2.28s4.5.66,5.76,2.28Q56.7,14.58,56.7,20c0,3.54-.72,6.24-2.16,8C53.22,29.52,51.48,30.24,48.78,30.24Zm2,7.86a.46.46,0,0,1-.42.48,13,13,0,0,1-1.56.06h-.06A17.29,17.29,0,0,1,42,37.38a.6.6,0,0,1-.3-.24v-.42h.06a.4.4,0,0,1,.42-.24.22.22,0,0,1,.18.06,16.55,16.55,0,0,0,6.42,1.2h.3a8.86,8.86,0,0,1,1.26-.06.45.45,0,0,1,.42.3h.06Zm-8-10a5.75,5.75,0,0,0,1.38,1.32.38.38,0,0,1,.18.48V30l-.06.06a.37.37,0,0,1-.36.24c-.12,0-.18-.06-.3-.12A7.17,7.17,0,0,1,42,28.74l-.12-.18a.55.55,0,0,1,.06-.66l.12-.06h.24a.33.33,0,0,1,.3.18Zm11-.84c1.26-1.5,1.92-4,1.92-7.38s-.6-5.76-1.92-7.32c-1.08-1.32-2.64-1.92-5-1.92s-4,.6-5.1,2c-1.26,1.56-1.92,4-1.92,7.26s.66,5.82,1.92,7.38c1.14,1.38,2.7,2,5,2S52.74,28.68,53.82,27.3ZM42.36,11.58a.33.33,0,0,1-.18-.3.85.85,0,0,1,.12-.36,8.29,8.29,0,0,1,6.48-2.46.47.47,0,0,1,.48.48v.12a.52.52,0,0,1-.48.36c-2.58,0-4.38.66-5.76,2.16a.44.44,0,0,1-.36.12.45.45,0,0,1-.24-.06Zm3.12,19.08v-.12l.06-.06a.61.61,0,0,1,.42-.24l.06.06h.06a12,12,0,0,0,2.7.3,14.71,14.71,0,0,0,1.62-.12.45.45,0,0,1,.42.3l.06.06v.06a.47.47,0,0,1-.36.54,15.85,15.85,0,0,1-1.74.12,10.65,10.65,0,0,1-2.94-.36.6.6,0,0,1-.3-.24A.65.65,0,0,1,45.48,30.66ZM49.56,9.12V8.94c0-.24.18-.36.42-.42H50A13.44,13.44,0,0,1,52.38,9a.53.53,0,0,1,.3.6l-.06.12h-.06a.36.36,0,0,1-.36.18h-.12A7.67,7.67,0,0,0,50,9.48.53.53,0,0,1,49.56,9.12Zm7.68,26.94a.44.44,0,0,1-.24.6,13.39,13.39,0,0,1-4.32,1.62h-.12c-.18,0-.36-.12-.42-.42a.38.38,0,0,1,.36-.48,15,15,0,0,0,4.08-1.5c.06-.06.12-.06.24-.06a.52.52,0,0,1,.36.18Zm-5.1-5.58a.63.63,0,0,1,.3-.54,5.42,5.42,0,0,0,2.4-1.8,9,9,0,0,0,1.5-2.94c.06-.18.24-.3.54-.3h.06a.47.47,0,0,1,.24.24.4.4,0,0,1,.06.36,9.72,9.72,0,0,1-1.68,3.24,7.22,7.22,0,0,1-2.76,2.1h-.18a.51.51,0,0,1-.42-.24l-.06-.06Zm2.1-27.84V2.52a.45.45,0,0,1,.42-.3.22.22,0,0,1,.18.06,9.46,9.46,0,0,1,2.1,1,.44.44,0,0,1,.24.6l-.06.06a.43.43,0,0,1-.36.18c-.12,0-.18,0-.24-.06a14.45,14.45,0,0,0-2-.9A.37.37,0,0,1,54.24,2.64Zm6.84,3.9c.36.42.72.9,1,1.32a.76.76,0,0,1,.06.36.31.31,0,0,1-.12.24L62,8.58h-.3a.43.43,0,0,1-.36-.18l-1-1.26a12.3,12.3,0,0,0-2-1.92.46.46,0,0,1-.12-.54V4.56h.06a.52.52,0,0,1,.36-.18c.12,0,.18.06.3.12A13.84,13.84,0,0,1,61.08,6.54Zm-.42,26.58a.85.85,0,0,1,.12.36c0,.12,0,.24-.12.3A14.2,14.2,0,0,1,59,35.4a.54.54,0,0,1-.3.06.44.44,0,0,1-.36-.12l-.06-.06a.45.45,0,0,1,.12-.6c.54-.48,1.08-1,1.62-1.5a.33.33,0,0,1,.3-.18c.12,0,.18.06.3.12Zm1.8-22.86a.39.39,0,0,1,.12-.54V9.66h.06a.22.22,0,0,1,.18-.06.51.51,0,0,1,.42.24,21,21,0,0,1,2,6.66.57.57,0,0,1-.48.54.51.51,0,0,1-.48-.42A20.68,20.68,0,0,0,62.46,10.26Z"/><path class="cls-3" d="M80.94.9c13.68,0,15.12,9.12,15.12,13a12.22,12.22,0,0,1-4.62,10.14c-2.76,2.16-6.54,3.3-11.16,3.3h-.36v8.22A4.34,4.34,0,0,1,75.6,39.9H73.5a4.3,4.3,0,0,1-4.32-4.32V5.22A4.3,4.3,0,0,1,73.5.9Zm14.22,13c0-3.66-1.38-12.12-14.22-12.12H73.5a3.42,3.42,0,0,0-3.42,3.42V35.58A3.42,3.42,0,0,0,73.5,39h2.1A3.41,3.41,0,0,0,79,35.58v-8.7a.52.52,0,0,1,.48-.48h.84c4.44,0,8-1,10.56-3.06A11.25,11.25,0,0,0,95.16,13.92ZM70.44,10.26V5.76a.48.48,0,0,1,1,0v4.5a.48.48,0,0,1-1,0Zm0,4.5V12.54a.48.48,0,1,1,1,0v2.22a.48.48,0,0,1-1,0Zm6.66,23a.38.38,0,0,1,0,.36.47.47,0,0,1-.24.24,3.22,3.22,0,0,1-1.26.3H73.5a3.07,3.07,0,0,1-3.06-3.06V32.82a.48.48,0,0,1,1,0v2.76a2.05,2.05,0,0,0,2.1,2.1h2.1a2.41,2.41,0,0,0,.9-.18c.06-.06.06-.06.12-.06a.36.36,0,0,1,.36.18ZM71.16,4a.48.48,0,0,1-.06-.66,2.88,2.88,0,0,1,2.4-1.2h4.44a.46.46,0,0,1,.42.48.46.46,0,0,1-.42.48H73.5a2.23,2.23,0,0,0-1.68.78.43.43,0,0,1-.36.18h-.18L71.22,4ZM77.34,28.2v7.38a1.74,1.74,0,0,1-1.74,1.74H73.5a1.76,1.76,0,0,1-1.8-1.74V8.28a.48.48,0,1,1,1,0v27.3a.82.82,0,0,0,.84.84h2.1a.81.81,0,0,0,.78-.84V28.2a.52.52,0,0,1,.48-.48A.47.47,0,0,1,77.34,28.2Zm9.36-9.36c-1.38,1-3.72,1.56-6.9,1.56a.48.48,0,0,1,0-1c3,0,5.16-.42,6.36-1.32S87.72,16,87.72,14a4.49,4.49,0,0,0-1.5-3.84c-1.08-.9-3-1.32-5.58-1.32h-3.3v2.28a.44.44,0,0,1-.48.48.47.47,0,0,1-.48-.48V8.4a.52.52,0,0,1,.48-.48h3.78c2.82,0,4.86.54,6.18,1.5A5.52,5.52,0,0,1,88.68,14C88.68,16.32,88,17.88,86.7,18.84ZM78.6,34v1.56a3.17,3.17,0,0,1-.06.78.52.52,0,0,1-.48.36h-.12l-.06-.06a.48.48,0,0,1-.24-.54c0-.18.06-.36.06-.54V34a.44.44,0,0,1,.48-.48A.43.43,0,0,1,78.6,34Zm0-18.54a.43.43,0,0,1-.42.48.44.44,0,0,1-.48-.48V13.26a.47.47,0,0,1,.48-.48.46.46,0,0,1,.42.48Zm1.2,3.66H78.18a.47.47,0,0,1-.48-.48v-.9a.47.47,0,0,1,.48-.48.46.46,0,0,1,.42.48v.42h1.2c3.42,0,4.92-.6,5.58-1.08a1.4,1.4,0,0,0,.42-.42.51.51,0,0,1,.36-.12h.18l.06.06h.06a.46.46,0,0,1,.12.3.4.4,0,0,1-.06.36,1.7,1.7,0,0,1-.6.54C85.14,18.42,83.46,19.14,79.8,19.14Zm10.08,2.94a11.52,11.52,0,0,1-3.3,1.74h-.12a.54.54,0,0,1-.48-.24v-.12a.63.63,0,0,1,.3-.54,8.52,8.52,0,0,0,3-1.62,8.74,8.74,0,0,0,3.3-7.38c0-4.14-1.86-9.18-10.68-9.54A.44.44,0,0,1,81.48,4V3.9A.43.43,0,0,1,82,3.48c9.54.36,11.58,5.88,11.58,10.44A10,10,0,0,1,89.88,22.08ZM93,19.62a.6.6,0,0,1,.24.3.76.76,0,0,1-.06.36A11,11,0,0,1,90.66,23a12.1,12.1,0,0,1-2.82,1.68c-.06,0-.12.06-.18.06a.45.45,0,0,1-.42-.3.19.19,0,0,1-.06-.12.48.48,0,0,1,.3-.48,12.3,12.3,0,0,0,2.58-1.56,8.23,8.23,0,0,0,2.28-2.52.62.62,0,0,1,.48-.24l.12.06ZM93,9.3a.48.48,0,0,1,.18-.54V8.7h.12c.06,0,.06-.06.12-.06a.53.53,0,0,1,.48.3,14.26,14.26,0,0,1,.66,2.28.76.76,0,0,1-.06.36,2,2,0,0,1-.36.18h-.06a.4.4,0,0,1-.42-.36A10.76,10.76,0,0,0,93,9.3Zm1.8,4.2v.42a13.12,13.12,0,0,1-.66,4.2.45.45,0,0,1-.42.3h-.18a.21.21,0,0,1-.12-.06.46.46,0,0,1-.12-.54,13,13,0,0,0,.54-3.9v-.36a.47.47,0,0,1,.48-.48A.46.46,0,0,1,94.8,13.5Z"/><path class="cls-4" d="M110.34.9c13.68,0,15.12,9.12,15.12,13a12.22,12.22,0,0,1-4.62,10.14c-2.76,2.16-6.54,3.3-11.16,3.3h-.36v8.22A4.34,4.34,0,0,1,105,39.9h-2.1a4.3,4.3,0,0,1-4.32-4.32V5.22A4.3,4.3,0,0,1,102.9.9Zm14.22,13c0-3.66-1.38-12.12-14.22-12.12H102.9a3.42,3.42,0,0,0-3.42,3.42V35.58A3.42,3.42,0,0,0,102.9,39H105a3.41,3.41,0,0,0,3.36-3.42v-8.7a.52.52,0,0,1,.48-.48h.84c4.44,0,8-1,10.56-3.06A11.25,11.25,0,0,0,124.56,13.92ZM99.84,10.26V5.76a.48.48,0,0,1,1,0v4.5a.48.48,0,1,1-1,0Zm0,4.5V12.54a.48.48,0,0,1,1,0v2.22a.48.48,0,1,1-1,0Zm6.66,23a.38.38,0,0,1,0,.36.47.47,0,0,1-.24.24,3.22,3.22,0,0,1-1.26.3h-2.1a3.07,3.07,0,0,1-3.06-3.06V32.82a.48.48,0,0,1,1,0v2.76a2.05,2.05,0,0,0,2.1,2.1H105a2.41,2.41,0,0,0,.9-.18c.06-.06.06-.06.12-.06a.36.36,0,0,1,.36.18ZM100.56,4a.48.48,0,0,1-.06-.66,2.88,2.88,0,0,1,2.4-1.2h4.44a.46.46,0,0,1,.42.48.46.46,0,0,1-.42.48H102.9a2.23,2.23,0,0,0-1.68.78.43.43,0,0,1-.36.18h-.18L100.62,4Zm6.18,24.18v7.38A1.74,1.74,0,0,1,105,37.32h-2.1a1.76,1.76,0,0,1-1.8-1.74V8.28a.48.48,0,0,1,1,0v27.3a.82.82,0,0,0,.84.84H105a.81.81,0,0,0,.78-.84V28.2a.52.52,0,0,1,.48-.48A.47.47,0,0,1,106.74,28.2Zm9.36-9.36c-1.38,1-3.72,1.56-6.9,1.56a.48.48,0,1,1,0-1c3,0,5.16-.42,6.36-1.32S117.12,16,117.12,14a4.49,4.49,0,0,0-1.5-3.84c-1.08-.9-3-1.32-5.58-1.32h-3.3v2.28a.44.44,0,0,1-.48.48.47.47,0,0,1-.48-.48V8.4a.52.52,0,0,1,.48-.48H110c2.82,0,4.86.54,6.18,1.5A5.52,5.52,0,0,1,118.08,14C118.08,16.32,117.42,17.88,116.1,18.84ZM108,34v1.56a3.17,3.17,0,0,1-.06.78.52.52,0,0,1-.48.36h-.12l-.06-.06a.48.48,0,0,1-.24-.54c0-.18.06-.36.06-.54V34a.44.44,0,0,1,.48-.48A.43.43,0,0,1,108,34Zm0-18.54a.43.43,0,0,1-.42.48.44.44,0,0,1-.48-.48V13.26a.47.47,0,0,1,.48-.48.46.46,0,0,1,.42.48Zm1.2,3.66h-1.62a.47.47,0,0,1-.48-.48v-.9a.47.47,0,0,1,.48-.48.46.46,0,0,1,.42.48v.42h1.2c3.42,0,4.92-.6,5.58-1.08a1.4,1.4,0,0,0,.42-.42.51.51,0,0,1,.36-.12h.18l.06.06h.06a.46.46,0,0,1,.12.3.4.4,0,0,1-.06.36,1.7,1.7,0,0,1-.6.54C114.54,18.42,112.86,19.14,109.2,19.14Zm10.08,2.94a11.52,11.52,0,0,1-3.3,1.74h-.12a.54.54,0,0,1-.48-.24v-.12a.63.63,0,0,1,.3-.54,8.52,8.52,0,0,0,3-1.62,8.74,8.74,0,0,0,3.3-7.38c0-4.14-1.86-9.18-10.68-9.54a.44.44,0,0,1-.42-.36V3.9a.43.43,0,0,1,.48-.42c9.54.36,11.58,5.88,11.58,10.44A10,10,0,0,1,119.28,22.08Zm3.12-2.46a.6.6,0,0,1,.24.3.76.76,0,0,1-.06.36A11,11,0,0,1,120.06,23a12.1,12.1,0,0,1-2.82,1.68c-.06,0-.12.06-.18.06a.45.45,0,0,1-.42-.3.19.19,0,0,1-.06-.12.48.48,0,0,1,.3-.48,12.3,12.3,0,0,0,2.58-1.56,8.23,8.23,0,0,0,2.28-2.52.62.62,0,0,1,.48-.24l.12.06Zm0-10.32a.48.48,0,0,1,.18-.54V8.7h.12c.06,0,.06-.06.12-.06a.53.53,0,0,1,.48.3,14.26,14.26,0,0,1,.66,2.28.76.76,0,0,1-.06.36,2,2,0,0,1-.36.18h-.06a.4.4,0,0,1-.42-.36A10.76,10.76,0,0,0,122.4,9.3Zm1.8,4.2v.42a13.12,13.12,0,0,1-.66,4.2.45.45,0,0,1-.42.3h-.18a.21.21,0,0,1-.12-.06.46.46,0,0,1-.12-.54,13,13,0,0,0,.54-3.9v-.36a.47.47,0,0,1,.48-.48A.46.46,0,0,1,124.2,13.5Z"/><path class="cls-5" d="M148.86,29.28a4.3,4.3,0,0,1,4.32,4.32v2a4.3,4.3,0,0,1-4.32,4.32H132.3A4.3,4.3,0,0,1,128,35.58V5.22A4.3,4.3,0,0,1,132.3.9h2.1a4.34,4.34,0,0,1,4.32,4.32V29.28Zm3.42,4.32a3.41,3.41,0,0,0-3.42-3.36H138.24a.52.52,0,0,1-.48-.48V5.22A3.41,3.41,0,0,0,134.4,1.8h-2.1a3.46,3.46,0,0,0-3.42,3.42V35.58A3.46,3.46,0,0,0,132.3,39h16.56a3.46,3.46,0,0,0,3.42-3.42Zm-23-23.34V5.76a.48.48,0,0,1,1,0v4.5a.48.48,0,1,1-1,0Zm0,4.5V12.54a.48.48,0,0,1,1,0v2.22a.48.48,0,1,1-1,0ZM133,37.68a.48.48,0,0,1,0,1h-.66a3.07,3.07,0,0,1-3.06-3.06V32.82a.48.48,0,0,1,1,0v2.76a2.05,2.05,0,0,0,2.1,2.1ZM130,4a.48.48,0,0,1-.06-.66,2.88,2.88,0,0,1,2.4-1.2h2.1a3,3,0,0,1,2.4,1.2.49.49,0,0,1-.12.66h-.12a.22.22,0,0,1-.18.06A.52.52,0,0,1,136,3.9a2,2,0,0,0-1.62-.78h-2.1a2.23,2.23,0,0,0-1.68.78.43.43,0,0,1-.36.18.22.22,0,0,1-.18-.06ZM150.66,34v1.62a1.76,1.76,0,0,1-1.8,1.74H132.3a1.79,1.79,0,0,1-1.8-1.74V10.5a.46.46,0,0,1,.48-.42.43.43,0,0,1,.48.42V35.58a.82.82,0,0,0,.84.84h16.56a.82.82,0,0,0,.84-.84V34a.47.47,0,0,1,.48-.48A.52.52,0,0,1,150.66,34Zm-10.92,3.72a.48.48,0,0,1,0,1h-4.56a.48.48,0,0,1,0-1Zm-2-5.82a.47.47,0,0,1,.48.48.46.46,0,0,1-.48.42h-2a.46.46,0,0,1-.48-.42V7.26a.48.48,0,0,1,1,0v24.6Zm-1.2-10.32a.43.43,0,0,1,.48-.42.41.41,0,0,1,.42.42v2.28a.46.46,0,0,1-.42.48.47.47,0,0,1-.48-.48Zm.9,9.06A.41.41,0,0,1,137,31a.43.43,0,0,1-.48-.42V26a.43.43,0,0,1,.48-.42.41.41,0,0,1,.42.42Zm1.38.9a.44.44,0,0,1-.48-.48.43.43,0,0,1,.48-.42h6.72A.43.43,0,0,1,146,31a.44.44,0,0,1-.48.48Zm5.46,6.18a.48.48,0,1,1,0,1H142a.48.48,0,0,1,0-1Z"/><path class="cls-6" d="M162.12.84a4.33,4.33,0,0,1,4.26,4.32V35.58a4.33,4.33,0,0,1-4.26,4.32H160a4.33,4.33,0,0,1-4.26-4.32V5.16A4.33,4.33,0,0,1,160,.84Zm3.36,4.32a3.35,3.35,0,0,0-3.36-3.36H160a3.35,3.35,0,0,0-3.36,3.36V35.58A3.35,3.35,0,0,0,160,38.94h2.16a3.35,3.35,0,0,0,3.36-3.36ZM157,10.26V5.7a.43.43,0,0,1,.48-.42.41.41,0,0,1,.42.42v4.56a.41.41,0,0,1-.42.42A.43.43,0,0,1,157,10.26Zm0,4.5V12.48a.43.43,0,0,1,.48-.42.41.41,0,0,1,.42.42v2.28a.46.46,0,0,1-.42.48A.47.47,0,0,1,157,14.76Zm3.48,23.34a.44.44,0,0,1-.48.48,3,3,0,0,1-3-3V32.82a.47.47,0,0,1,.48-.48.46.46,0,0,1,.42.48v2.76a2.13,2.13,0,0,0,2.1,2.1A.43.43,0,0,1,160.44,38.1Zm1.68-35.94a3,3,0,0,1,2.34,1.14.44.44,0,0,1,.12.36.33.33,0,0,1-.18.3l-.06.06h-.24a.85.85,0,0,1-.36-.12,2.08,2.08,0,0,0-1.62-.84H160a2.08,2.08,0,0,0-1.62.84.52.52,0,0,1-.36.18A.26.26,0,0,1,157.8,4h-.06L157.68,4a.47.47,0,0,1-.06-.66A3,3,0,0,1,160,2.16Zm-1.68,34.68a.47.47,0,0,1-.48.48,1.74,1.74,0,0,1-1.74-1.74V10.5a.48.48,0,0,1,1,0V35.58a.79.79,0,0,0,.78.78A.47.47,0,0,1,160.44,36.84Zm4.68-4v2.76a3,3,0,0,1-3,3,.44.44,0,0,1-.48-.48.43.43,0,0,1,.48-.42,2.13,2.13,0,0,0,2.1-2.1V32.82a.46.46,0,0,1,.42-.48A.47.47,0,0,1,165.12,32.82Zm-1.26,1.5a.52.52,0,0,1-.48.48.47.47,0,0,1-.48-.48V7.26a.48.48,0,0,1,1,0Zm.36-12.78a.43.43,0,0,1,.42-.48.44.44,0,0,1,.48.48v2.22a.44.44,0,0,1-.48.48.43.43,0,0,1-.42-.48Zm.9,4.5v4.5a.44.44,0,0,1-.48.48.43.43,0,0,1-.42-.48V26a.46.46,0,0,1,.42-.48A.47.47,0,0,1,165.12,26Z"/><path class="cls-7" d="M194.82,21.84a11.15,11.15,0,0,1,1.38,5.58,11.38,11.38,0,0,1-4.44,9.36,15.85,15.85,0,0,1-10,3.12c-4.32,0-7.62-.48-10.14-1.56a4.16,4.16,0,0,1-2.64-3.9v-2.1a4.2,4.2,0,0,1,1.92-3.54,4,4,0,0,1,2.34-.72,3.76,3.76,0,0,1,1.62.36,18.62,18.62,0,0,0,6.72,1,5.79,5.79,0,0,0,3.3-.78,1.33,1.33,0,0,0,.6-1.2.86.86,0,0,0-.12-.54c0-.06-.24-.3-.84-.66a27.43,27.43,0,0,0-4.08-1.68c-3.84-1.32-6.48-2.82-8.16-4.56a11.08,11.08,0,0,1-2.94-7.86,11,11,0,0,1,4.26-8.88A14.79,14.79,0,0,1,183.12.24a24,24,0,0,1,9.66,2,4.21,4.21,0,0,1,2.28,5.52l-.78,1.8a4.22,4.22,0,0,1-3.9,2.64,4,4,0,0,1-1.68-.36,14.33,14.33,0,0,0-5.58-1.26,4.57,4.57,0,0,0-2.7.66,1,1,0,0,0-.36.9,1.52,1.52,0,0,0,.06.66,1.56,1.56,0,0,0,.54.42,20,20,0,0,0,4,1.68,32.17,32.17,0,0,1,6.18,2.82A11.49,11.49,0,0,1,194.82,21.84Zm.54,5.58a10.5,10.5,0,0,0-1.26-5.22,11.17,11.17,0,0,0-3.72-3.78,26.5,26.5,0,0,0-6.06-2.76,19.28,19.28,0,0,1-4.08-1.74,3.4,3.4,0,0,1-.78-.6v.06l-.12-.24a2.71,2.71,0,0,1-.12-1,1.57,1.57,0,0,1,.66-1.5,5.09,5.09,0,0,1,3.24-.84,15,15,0,0,1,5.94,1.32,4.68,4.68,0,0,0,1.32.24,3.4,3.4,0,0,0,3.12-2.1l.78-1.8a3.46,3.46,0,0,0-1.8-4.5,23.49,23.49,0,0,0-9.36-1.86,13.84,13.84,0,0,0-9,2.88,10,10,0,0,0-4,8.22,10.31,10.31,0,0,0,2.7,7.32c1.56,1.62,4.14,3.06,7.8,4.32a24,24,0,0,1,4.2,1.74,3.24,3.24,0,0,1,1.2,1,1.94,1.94,0,0,1,.18,1,2,2,0,0,1-.84,1.8,6.24,6.24,0,0,1-3.84,1,17.49,17.49,0,0,1-7-1.14,3.42,3.42,0,0,0-1.32-.24,3.57,3.57,0,0,0-1.92.54,3.48,3.48,0,0,0-1.5,2.88v2.1a3.48,3.48,0,0,0,2.1,3.18,27,27,0,0,0,9.84,1.44,14.84,14.84,0,0,0,9.54-2.94A10.64,10.64,0,0,0,195.36,27.42ZM172.2,8.34a7.33,7.33,0,0,0-.6,2,.51.51,0,0,1-.42.36.06.06,0,0,1-.06-.06c-.24,0-.36-.24-.36-.48A13.71,13.71,0,0,1,171.48,8a.41.41,0,0,1,.36-.24.22.22,0,0,1,.18.06c.12,0,.18.12.24.24A.65.65,0,0,1,172.2,8.34Zm18,26.4a13.17,13.17,0,0,1-8.46,2.58A25,25,0,0,1,172.56,36a1.63,1.63,0,0,1-1-1.56v-2.1a1.64,1.64,0,0,1,.72-1.44,1.76,1.76,0,0,1,1-.24,1.29,1.29,0,0,1,.66.12A19.93,19.93,0,0,0,181.56,32a7.68,7.68,0,0,0,4.86-1.38,2.54,2.54,0,0,0,.42-.3.31.31,0,0,1,.24-.12.42.42,0,0,1,.3.72l-.42.36a8.62,8.62,0,0,1-5.4,1.5,20.66,20.66,0,0,1-8-1.32,2.6,2.6,0,0,0-.3-.06.68.68,0,0,0-.48.18.83.83,0,0,0-.42.72v2.1a.85.85,0,0,0,.54.78,23.25,23.25,0,0,0,8.88,1.32,12.58,12.58,0,0,0,7.92-2.4,8,8,0,0,0,3.06-5.4.4.4,0,0,1,.42-.36h.06a.52.52,0,0,1,.36.48A8.83,8.83,0,0,1,190.2,34.74ZM181,22.08a18,18,0,0,1-6.9-3.78,8.44,8.44,0,0,1-2.22-6.12,8.44,8.44,0,0,1,3.3-6.9,11.68,11.68,0,0,1,7.32-2.46.4.4,0,0,1,.42.36.41.41,0,0,1-.42.42,11.58,11.58,0,0,0-6.84,2.34,7.76,7.76,0,0,0-3,6.24,7.72,7.72,0,0,0,2,5.52c1.26,1.32,3.42,2.52,6.6,3.6a.52.52,0,0,1,.24.54.45.45,0,0,1-.42.3A.19.19,0,0,1,181,22.08ZM172.68,6a11.12,11.12,0,0,1,1.68-1.68,13.22,13.22,0,0,1,1.92-1.26.22.22,0,0,1,.18-.06.61.61,0,0,1,.42.24.48.48,0,0,1-.18.54A9.4,9.4,0,0,0,174.9,5a9.32,9.32,0,0,0-1.56,1.5.33.33,0,0,1-.3.18c-.12,0-.18-.06-.3-.12A.38.38,0,0,1,172.68,6Zm9.48,32.22a.41.41,0,0,1-.42.42,32.18,32.18,0,0,1-6.84-.6l-.24-.18a.54.54,0,0,1-.06-.3.51.51,0,0,1,.42-.36.06.06,0,0,1,.06.06,35.11,35.11,0,0,0,6.66.54A.41.41,0,0,1,182.16,38.22Zm1-31A18.61,18.61,0,0,1,190,8.7a.76.76,0,0,0,.36.06.86.86,0,0,0,.72-.36.41.41,0,0,1,.36-.24c.06,0,.12.06.18.06a.33.33,0,0,1,.18.3.27.27,0,0,1,0,.3,1.77,1.77,0,0,1-1.44.78,2.16,2.16,0,0,1-.66-.12A17,17,0,0,0,183.12,8a7.1,7.1,0,0,0-4.32,1.2,3.4,3.4,0,0,0-1.32,2.88A3.38,3.38,0,0,0,177.9,14a3.77,3.77,0,0,0,1.38,1.38,28,28,0,0,0,4.44,1.86l2.58,1a.52.52,0,0,1,.24.54c-.12.18-.24.3-.42.3S186,19,185.94,19l-2.46-1a27.12,27.12,0,0,1-4.62-2,4.38,4.38,0,0,1-1.68-1.62,4.5,4.5,0,0,1-.54-2.34,4.22,4.22,0,0,1,1.68-3.54A7.73,7.73,0,0,1,183.12,7.2ZM179,13.44a2.66,2.66,0,0,0,1,.84,10.75,10.75,0,0,0,2.52,1.2.47.47,0,0,1,.24.24.27.27,0,0,1,0,.3.33.33,0,0,1-.36.24h-.18a20,20,0,0,1-2.7-1.26,3.41,3.41,0,0,1-1.26-1.2,3.66,3.66,0,0,1-.3-1.68,3.69,3.69,0,0,1,.06-.84c.06-.18.18-.3.48-.3a.33.33,0,0,1,.3.18c0,.06.06.18,0,.3s-.06.42-.06.66A2.76,2.76,0,0,0,179,13.44ZM178.2,2.7a.36.36,0,0,1,.24-.54,16.64,16.64,0,0,1,4.68-.66c.72,0,1.44.06,2.16.12a.46.46,0,0,1,.3.12c.06.12.12.18.12.3a.51.51,0,0,1-.42.42l-.06-.06c-.72-.06-1.38-.06-2.1-.06a14.72,14.72,0,0,0-4.44.6c-.06,0-.06.06-.12.06A.34.34,0,0,1,178.2,2.7Zm.48,28.62c-.06-.12-.12-.18-.12-.3a.46.46,0,0,1,.48-.36c.72.06,1.44.06,2.22.06.12,0,.18.06.3.12a1,1,0,0,1,.12.3.41.41,0,0,1-.42.42c-.84,0-1.56-.06-2.28-.12A.46.46,0,0,1,178.68,31.32Zm5.88-22.38a.41.41,0,0,1-.42.42h-.06a4.85,4.85,0,0,0-1-.06A5.72,5.72,0,0,0,180,10l-.24.06a.49.49,0,0,1-.36-.24.37.37,0,0,1,.18-.54,6.86,6.86,0,0,1,3.54-.84c.36,0,.72.06,1.08.06C184.38,8.52,184.56,8.76,184.56,8.94Zm1.92,17.34a4.24,4.24,0,0,0-1.38-1.14A27.43,27.43,0,0,0,181,23.46a.36.36,0,0,1-.24-.54.33.33,0,0,1,.36-.24h.12a35.11,35.11,0,0,1,4.26,1.74,5.08,5.08,0,0,1,1.62,1.38,2,2,0,0,1,.18.36.44.44,0,0,1-.24.54H187a.51.51,0,0,1-.42-.24A.6.6,0,0,0,186.48,26.28Zm3,10a.65.65,0,0,1,.06.3.6.6,0,0,1-.24.3,14.38,14.38,0,0,1-6.66,1.68c-.24,0-.42-.12-.42-.36a.41.41,0,0,1,.42-.42,14.8,14.8,0,0,0,6.3-1.62.22.22,0,0,1,.18-.06A.36.36,0,0,1,189.48,36.3Zm-6-4.92a.45.45,0,0,1-.42-.3.46.46,0,0,1,.36-.48,4.72,4.72,0,0,0,2.22-1,2.74,2.74,0,0,0,1-1.26.38.38,0,0,1,.36-.3c.06,0,.12,0,.12.06a.39.39,0,0,1,.3.48,3.26,3.26,0,0,1-1.2,1.68,5.58,5.58,0,0,1-2.64,1.08Zm5.4-21.6a.27.27,0,0,1,0,.3.38.38,0,0,1-.36.3.21.21,0,0,1-.12-.06c-.72-.24-1.44-.48-2.1-.66-.24,0-.36-.24-.36-.48a.45.45,0,0,1,.42-.3h.12c.72.18,1.44.42,2.16.66A.47.47,0,0,1,188.88,9.78ZM194,31.86a10.4,10.4,0,0,1-2.82,3.72c-.06.06-.12.06-.24.06a.46.46,0,0,1-.3-.12c-.06-.12-.12-.18-.12-.3a.33.33,0,0,1,.18-.3,8.77,8.77,0,0,0,2.52-3.42.61.61,0,0,1,.42-.24c.06,0,.12,0,.12.06A.36.36,0,0,1,194,31.86Zm.06-4.56a.41.41,0,0,1,.42-.42.4.4,0,0,1,.36.42v.12a12.09,12.09,0,0,1-.18,2.16.35.35,0,0,1-.36.36h-.12a.41.41,0,0,1-.3-.48,11.22,11.22,0,0,0,.18-2Z"/><path class="cls-8" d="M224.93.9a4.3,4.3,0,0,1,4.32,4.32v2a4.34,4.34,0,0,1-4.32,4.32h-5.51V35.58a4.35,4.35,0,0,1-4.33,4.32h-2.16a4.33,4.33,0,0,1-4.31-4.32V11.52H203.1a4.34,4.34,0,0,1-4.32-4.32v-2A4.3,4.3,0,0,1,203.1.9Zm3.42,4.32a3.42,3.42,0,0,0-3.42-3.42H203.1a3.42,3.42,0,0,0-3.42,3.42v2a3.37,3.37,0,0,0,3.42,3.36h6a.53.53,0,0,1,.49.48V35.58A3.4,3.4,0,0,0,212.93,39h2.16a3.41,3.41,0,0,0,3.37-3.42V11a.51.51,0,0,1,.47-.48h6a3.37,3.37,0,0,0,3.42-3.36ZM204.12,9.3a.43.43,0,0,1,.48.42.44.44,0,0,1-.48.48h-1a3,3,0,0,1-3.06-3V5.52a.48.48,0,1,1,1,0V7.2a2.09,2.09,0,0,0,2.1,2.1Zm2.28.9a.47.47,0,0,1-.48-.48.46.46,0,0,1,.48-.42h4a.42.42,0,0,1,.47.42v.54a.43.43,0,0,1-.47.48.43.43,0,0,1-.42-.48V10.2Zm20.33-3a1.76,1.76,0,0,1-1.8,1.74h-7.31a.48.48,0,0,1,0-1h7.31a.81.81,0,0,0,.84-.78v-2a.82.82,0,0,0-.84-.84H206.7a.43.43,0,0,1-.42-.48.41.41,0,0,1,.42-.42h18.23a1.76,1.76,0,0,1,1.8,1.74Zm-9.9,28.38a1.74,1.74,0,0,1-1.74,1.74h-2.16a1.73,1.73,0,0,1-1.73-1.74V8.94h-2a.44.44,0,0,1-.47-.48.47.47,0,0,1,.47-.48h2.46a.52.52,0,0,1,.49.48V35.58a.8.8,0,0,0,.77.84h2.16a.82.82,0,0,0,.79-.84V23a.48.48,0,0,1,1,0Zm-6-23v2.22a.43.43,0,0,1-.47.48.43.43,0,0,1-.42-.48V12.54a.45.45,0,1,1,.89,0Zm2.59,25.62a.53.53,0,0,1-.49.48,3,3,0,0,1-3-3.06V32.82a.41.41,0,0,1,.42-.42.42.42,0,0,1,.47.42v2.76a2.09,2.09,0,0,0,2.1,2.1A.53.53,0,0,1,213.42,38.16Zm4.67-6.54v4a3,3,0,0,1-1.62,2.7.21.21,0,0,1-.18.06.49.49,0,0,1-.41-.24l-.07-.06V38a.54.54,0,0,1,.24-.54,2.07,2.07,0,0,0,1.15-1.86v-4a.47.47,0,0,1,.47-.48A.46.46,0,0,1,218.09,31.62Zm-1.32-28.5a.52.52,0,0,1-.48-.48.52.52,0,0,1,.48-.48h2.28a.53.53,0,0,1,.49.48.53.53,0,0,1-.49.48Zm1.32,17.22v2.22a.42.42,0,0,1-.42.48.44.44,0,0,1-.47-.48V20.34a.47.47,0,0,1,.47-.48A.46.46,0,0,1,218.09,20.34Zm0,4.5v4.5a.42.42,0,0,1-.42.48.44.44,0,0,1-.47-.48v-4.5a.47.47,0,0,1,.47-.48A.46.46,0,0,1,218.09,24.84Zm3.18-21.72a.48.48,0,0,1,0-1h3.66a2.8,2.8,0,0,1,1,.18.46.46,0,0,1,.3.54l-.06.18h-.06a.36.36,0,0,1-.36.18h-.12a1.52,1.52,0,0,0-.72-.12Zm6.06.72a.48.48,0,0,1,.48.3A2.91,2.91,0,0,1,228,5.22v2a3,3,0,0,1-2.88,3,.52.52,0,0,1-.48-.42V9.66a.53.53,0,0,1,.48-.36A2.1,2.1,0,0,0,227,7.2v-2a1.65,1.65,0,0,0-.12-.78.48.48,0,0,1,.18-.54h.06l.06-.06Z"/><path class="cls-9" d="M260.81,5.7c3.07,3.6,4.62,8.4,4.62,14.28s-1.55,10.62-4.62,14.22a16.75,16.75,0,0,1-13.25,5.7c-5.52,0-10-1.92-13.26-5.7-3.06-3.6-4.62-8.4-4.62-14.28s1.56-10.68,4.68-14.28A16.92,16.92,0,0,1,247.62,0C253.13,0,257.58,1.92,260.81,5.7ZM264.53,20c0-5.64-1.5-10.26-4.44-13.68S252.83,1,247.56,1s-9.42,1.8-12.48,5.34c-3,3.36-4.5,8-4.5,13.62s1.5,10.26,4.44,13.68c3.06,3.6,7.32,5.4,12.54,5.4s9.48-1.8,12.53-5.4C263,30.18,264.53,25.56,264.53,20ZM232,22.56a.56.56,0,0,1-.36.48h-.12a.46.46,0,0,1-.48-.42c-.06-.72-.12-1.44-.12-2.28,0-.24.18-.42.48-.48h.06v.06a.59.59,0,0,1,.42.42A13.41,13.41,0,0,0,232,22.56Zm-1-4.5a26.83,26.83,0,0,1,.72-4.56.45.45,0,0,1,.42-.3h.18l.06.06a.41.41,0,0,1,.24.48,24.72,24.72,0,0,0-.72,4.38.43.43,0,0,1-.48.42l-.3-.12A.85.85,0,0,1,231,18.06Zm29.75,10.62a.49.49,0,0,1,.25.24.45.45,0,0,1,0,.36,17.92,17.92,0,0,1-2.17,3.3,15.64,15.64,0,0,1-22.55,0c-2.7-3.12-4.08-7.38-4.08-12.66a26.4,26.4,0,0,1,.3-3.9.51.51,0,0,1,.48-.42l.06.06h.12a.44.44,0,0,1,.24.48,26.1,26.1,0,0,0-.24,3.78c0,5,1.26,9.06,3.84,12s6.12,4.5,10.56,4.5,8-1.5,10.56-4.5a11.57,11.57,0,0,0,2-3.06.51.51,0,0,1,.42-.24h.12ZM232.68,11.94a.44.44,0,0,1-.24-.6,18,18,0,0,1,2.88-4.86l.9-.9a.52.52,0,0,1,.36-.18.33.33,0,0,1,.3.18h.06v.06a.46.46,0,0,1-.06.6,6.17,6.17,0,0,0-.84.9,15.19,15.19,0,0,0-2.76,4.56.4.4,0,0,1-.42.24h-.18Zm20.7,18.72c-.06-.24-.06-.48.12-.6A4.61,4.61,0,0,0,254.58,29q2.5-3.06,2.51-9t-2.51-9a8.35,8.35,0,0,0-6.79-2.82s0-.06-.12-.06a.17.17,0,0,1-.11.06c-3.06,0-5.4.9-7,2.88S238,16.08,238,20s.84,6.9,2.52,9a7.26,7.26,0,0,0,1,1,.37.37,0,0,1,.06.48v.12l-.06.06a.51.51,0,0,1-.36.12.39.39,0,0,1-.3-.12,5.86,5.86,0,0,1-1-1.08q-2.7-3.33-2.7-9.54t2.7-9.54a9.59,9.59,0,0,1,7.74-3.24h.23c3.3.06,5.76,1.08,7.5,3.18S258,15.78,258,20s-.91,7.38-2.71,9.6a11.33,11.33,0,0,1-1.2,1.2.42.42,0,0,1-.3.12.43.43,0,0,1-.36-.24Zm9.17-14.94a.41.41,0,0,1-.36.54h-.12a.4.4,0,0,1-.42-.36A16,16,0,0,0,258.17,8c-2.58-2.94-6.12-4.44-10.61-4.44a14.28,14.28,0,0,0-7.44,1.86l-.24.06a.52.52,0,0,1-.36-.18l-.06-.06a.76.76,0,0,1-.06-.36.6.6,0,0,1,.24-.3,15.37,15.37,0,0,1,7.92-2c4.8,0,8.57,1.62,11.33,4.8A17.12,17.12,0,0,1,262.55,15.72Zm-15,14.52c-2.7,0-4.44-.72-5.76-2.34s-2.16-4.38-2.16-7.92.72-6.18,2.16-7.92c1.32-1.56,3.12-2.28,5.76-2.28s4.49.66,5.76,2.28q2.15,2.52,2.15,7.92c0,3.54-.72,6.24-2.15,8C252,29.52,250.25,30.24,247.56,30.24Zm2,7.86a.46.46,0,0,1-.42.48,12.8,12.8,0,0,1-1.55.06h-.06a17.29,17.29,0,0,1-6.78-1.26.6.6,0,0,1-.3-.24v-.42h.06a.4.4,0,0,1,.42-.24.22.22,0,0,1,.18.06,16.55,16.55,0,0,0,6.42,1.2h.3a8.86,8.86,0,0,1,1.26-.06.46.46,0,0,1,.42.3h.05Zm-8-10a5.75,5.75,0,0,0,1.38,1.32.38.38,0,0,1,.18.48V30l-.06.06a.37.37,0,0,1-.36.24c-.12,0-.18-.06-.3-.12a7.17,7.17,0,0,1-1.62-1.44l-.12-.18a.55.55,0,0,1,.06-.66l.12-.06h.24a.33.33,0,0,1,.3.18Zm11-.84c1.27-1.5,1.92-4,1.92-7.38s-.59-5.76-1.92-7.32c-1.08-1.32-2.63-1.92-5-1.92s-4,.6-5.1,2c-1.26,1.56-1.92,4-1.92,7.26s.66,5.82,1.92,7.38c1.14,1.38,2.69,2,5,2S251.51,28.68,252.59,27.3ZM241.14,11.58a.33.33,0,0,1-.18-.3.85.85,0,0,1,.12-.36,8.29,8.29,0,0,1,6.48-2.46.47.47,0,0,1,.48.48v.12a.53.53,0,0,1-.48.36c-2.58,0-4.38.66-5.76,2.16a.44.44,0,0,1-.36.12.45.45,0,0,1-.24-.06Zm3.12,19.08v-.12l.06-.06a.61.61,0,0,1,.42-.24l0,.06h.07a12,12,0,0,0,2.7.3,14.53,14.53,0,0,0,1.61-.12.43.43,0,0,1,.42.3l.07.06v.06a.47.47,0,0,1-.37.54,15.66,15.66,0,0,1-1.73.12,10.65,10.65,0,0,1-2.94-.36.6.6,0,0,1-.3-.24A.65.65,0,0,1,244.26,30.66Zm4.07-21.54V8.94c0-.24.19-.36.42-.42h.07a13.44,13.44,0,0,1,2.34.48.54.54,0,0,1,.3.6l-.06.12h-.07q-.08.18-.36.18h-.11a7.67,7.67,0,0,0-2.11-.42A.56.56,0,0,1,248.33,9.12ZM256,36.06a.44.44,0,0,1-.23.6,13.48,13.48,0,0,1-4.32,1.62h-.13c-.17,0-.36-.12-.41-.42a.38.38,0,0,1,.36-.48,15,15,0,0,0,4.07-1.5c.07-.06.12-.06.24-.06A.56.56,0,0,1,256,36Zm-5.09-5.58a.64.64,0,0,1,.29-.54,5.45,5.45,0,0,0,2.41-1.8,9.42,9.42,0,0,0,1.5-2.94c0-.18.23-.3.54-.3h.05a.53.53,0,0,1,.25.24c0,.12.12.24,0,.36a9.72,9.72,0,0,1-1.68,3.24,7.19,7.19,0,0,1-2.75,2.1h-.18a.52.52,0,0,1-.43-.24l-.05-.06ZM253,2.64V2.52a.46.46,0,0,1,.42-.3.24.24,0,0,1,.19.06,9.59,9.59,0,0,1,2.09,1,.44.44,0,0,1,.25.6l-.07.06a.41.41,0,0,1-.35.18c-.12,0-.19,0-.25-.06a14.91,14.91,0,0,0-2-.9A.38.38,0,0,1,253,2.64Zm6.84,3.9c.36.42.72.9,1,1.32a.9.9,0,0,1,.05.36.28.28,0,0,1-.12.24l-.06.12h-.29a.43.43,0,0,1-.37-.18l-1-1.26a11.92,11.92,0,0,0-2-1.92.49.49,0,0,1-.12-.54V4.56H257a.5.5,0,0,1,.35-.18.67.67,0,0,1,.31.12A14.23,14.23,0,0,1,259.85,6.54Zm-.42,26.58a.73.73,0,0,1,.12.36c0,.12,0,.24-.12.3a14.2,14.2,0,0,1-1.68,1.62.51.51,0,0,1-.29.06.45.45,0,0,1-.37-.12l0-.06a.44.44,0,0,1,.12-.6c.54-.48,1.07-1,1.61-1.5a.34.34,0,0,1,.31-.18c.11,0,.17.06.3.12Zm1.8-22.86a.39.39,0,0,1,.12-.54V9.66h.07a.2.2,0,0,1,.17-.06.49.49,0,0,1,.42.24,21,21,0,0,1,2,6.66.57.57,0,0,1-.48.54.51.51,0,0,1-.48-.42A20.68,20.68,0,0,0,261.23,10.26Z"/><path class="cls-10" d="M296,33.42a4.28,4.28,0,0,1,.06,4.32,4.41,4.41,0,0,1-3.78,2.16h-2.52A4.33,4.33,0,0,1,286,37.8l-6.54-11.16h-.84v8.94a4.29,4.29,0,0,1-4.25,4.32h-2.17a4.34,4.34,0,0,1-4.31-4.32V5.22A4.34,4.34,0,0,1,272.21.9h7.26c4.8,0,8.4,1,11,3,2.94,2.22,4.38,5.52,4.38,9.66a12.4,12.4,0,0,1-2.52,7.8,10.84,10.84,0,0,1-2.22,2.16Zm-.78.42-6.12-10.2a.47.47,0,0,1,.12-.6,9.67,9.67,0,0,0,2.4-2.28,11.28,11.28,0,0,0,2.34-7.2,10.75,10.75,0,0,0-4-8.94C287.45,2.76,284,1.8,279.47,1.8h-7.26a3.4,3.4,0,0,0-3.35,3.42V35.58A3.4,3.4,0,0,0,272.21,39h2.17a3.4,3.4,0,0,0,3.35-3.42V26.16a.43.43,0,0,1,.48-.42h1.5a.45.45,0,0,1,.42.24l6.72,11.34A3.35,3.35,0,0,0,289.73,39h2.52a3.31,3.31,0,0,0,2.94-1.74A3.47,3.47,0,0,0,295.19,33.84Zm-26-22.74V6.6a.45.45,0,0,1,.49-.48.43.43,0,0,1,.42.48v4.5a.46.46,0,0,1-.42.48A.48.48,0,0,1,269.21,11.1Zm0,4.5V13.38a.45.45,0,0,1,.49-.48.43.43,0,0,1,.42.48V15.6a.43.43,0,0,1-.42.48A.45.45,0,0,1,269.21,15.6Zm3.84,22.08a.48.48,0,1,1,0,1h-.84a3,3,0,0,1-3-3.06V33.66a.48.48,0,0,1,.49-.48.46.46,0,0,1,.42.48v1.92a2.08,2.08,0,0,0,2.09,2.1Zm2.83-34.56h-3.67a2.13,2.13,0,0,0-2,1.38.46.46,0,0,1-.42.3h-.19a.44.44,0,0,1-.23-.6,3,3,0,0,1,2.81-2h3.67a.46.46,0,0,1,.41.48A.46.46,0,0,1,275.88,3.12Zm-4.44,29.22a.52.52,0,0,1-.48.48.51.51,0,0,1-.48-.48V5.22a1.73,1.73,0,0,1,1.73-1.74h.19a.43.43,0,0,1,.48.42.44.44,0,0,1-.48.48h-.19a.8.8,0,0,0-.77.84Zm5.94,1.8v1.44a2.92,2.92,0,0,1-1.92,2.82.24.24,0,0,1-.18.06.44.44,0,0,1-.42-.3V38a.37.37,0,0,1,.23-.48,2.19,2.19,0,0,0,1.38-2V34.14a.46.46,0,1,1,.91,0ZM275.16,8.4a.51.51,0,0,1,.47-.48h3.72c2.94,0,5.11.48,6.3,1.44a5.09,5.09,0,0,1,1.8,4.38,5.31,5.31,0,0,1-1.86,4.44,8.44,8.44,0,0,1-5.46,1.5.41.41,0,0,1-.42-.42.43.43,0,0,1,.42-.48A7.8,7.8,0,0,0,285,17.46a4.47,4.47,0,0,0,1.5-3.72,4.41,4.41,0,0,0-1.38-3.66c-1.08-.84-3-1.2-5.76-1.2h-3.23V13.2a.48.48,0,0,1-.49.48.47.47,0,0,1-.47-.48Zm13.07,28.08-7.31-12.36h-4.8v7.32a.52.52,0,0,1-.49.48.51.51,0,0,1-.47-.48v-7.8a.51.51,0,0,1,.47-.48h5.52a.51.51,0,0,1,.42.24L289,36a.91.91,0,0,0,.72.42.47.47,0,0,1,.48.48.46.46,0,0,1-.48.42A1.71,1.71,0,0,1,288.23,36.48ZM276.47,15.3a.46.46,0,1,1,.91,0v2.22a.44.44,0,0,1-.49.48.43.43,0,0,1-.42-.48Zm.91,14.34v2.22a.44.44,0,0,1-.49.48.43.43,0,0,1-.42-.48V29.64a.46.46,0,1,1,.91,0Zm8.27-15.12a.33.33,0,0,1,.3.18.4.4,0,0,1,.06.36,3.21,3.21,0,0,1-1.2,2.1,7.27,7.27,0,0,1-4.68,1.26h-1.38a.47.47,0,0,1-.48-.48.46.46,0,0,1,.48-.42h1.38a6.23,6.23,0,0,0,4.08-1.08,2.47,2.47,0,0,0,.9-1.56A.48.48,0,0,1,285.65,14.52Zm5.94,23.16a.48.48,0,0,1,0,1h-1.86a3,3,0,0,1-2.58-1.5l-2.1-3.54a.53.53,0,0,1,.12-.66c.12,0,.18-.06.24-.06a.51.51,0,0,1,.42.24l2.1,3.54a2,2,0,0,0,1.8,1ZM285.41,4.8V4.68a.45.45,0,0,1,.42-.3H286a10.91,10.91,0,0,1,2.88,1.5,9.21,9.21,0,0,1,3.36,7.68,9.54,9.54,0,0,1-5.64,9.12l3.06,5.16a.4.4,0,0,1,.06.36c0,.06-.06.12-.06.18v.06l-.18.06a.22.22,0,0,1-.18.06.4.4,0,0,1-.42-.24l-3.36-5.64a.4.4,0,0,1-.06-.36.49.49,0,0,1,.3-.3,8.71,8.71,0,0,0,5.58-8.46,8.12,8.12,0,0,0-3.06-6.9,7.1,7.1,0,0,0-2.58-1.38A.53.53,0,0,1,285.41,4.8Zm6.54,14a.4.4,0,0,1,.12.6,6.8,6.8,0,0,1-.78,1.2,10.83,10.83,0,0,1-2.88,2.58l.36.6a.48.48,0,0,1-.18.66.36.36,0,0,1-.24.06.45.45,0,0,1-.42-.24l-.6-1a.76.76,0,0,1-.06-.36,1.05,1.05,0,0,1,.24-.3A8.58,8.58,0,0,0,290.57,20a6.76,6.76,0,0,0,.72-1.08.47.47,0,0,1,.42-.18h.18Zm-.42-10.26a.46.46,0,0,1,.06-.54l.12-.12c.06,0,.12-.06.24-.06a.44.44,0,0,1,.36.3,8.51,8.51,0,0,1,.84,2.16.37.37,0,0,1-.06.36.47.47,0,0,1-.24.24h-.12a.46.46,0,0,1-.48-.36A9.64,9.64,0,0,0,291.53,8.52Zm1.5,3.66a.43.43,0,0,1,.48.42c0,.3.06.66.06,1a12,12,0,0,1-.54,3.66.51.51,0,0,1-.42.36c-.06,0-.06,0-.12-.06h-.12l-.06-.06a.4.4,0,0,1-.18-.48,12.73,12.73,0,0,0,.48-3.42v-.9a.34.34,0,0,1,.24-.42l.12-.06Z"/></g></g></svg>