<svg xmlns="http://www.w3.org/2000/svg" viewBox="0 0 93.75 93.75"><defs><style>.cls-1{fill:#ffdd67;}.cls-2{fill:#664e27;}.cls-3{fill:#917524;}</style></defs><title>wink</title><g id="Lager_2" data-name="Lager 2"><g id="Lager_1-2" data-name="Lager 1"><circle class="cls-1" cx="46.88" cy="46.88" r="46.88"/><circle class="cls-2" cx="31.64" cy="46.24" r="7.81"/><path class="cls-3" d="M76.88,39.92A22.23,22.23,0,0,0,58.61,35c-.9.18-1.7-3.15-.6-3.37A25.72,25.72,0,0,1,79.09,37.3C79.93,38,77.58,40.52,76.88,39.92Z"/><path class="cls-3" d="M35.14,26.26a22.23,22.23,0,0,0-18.27,4.9c-.69.61-3.05-1.88-2.21-2.62a25.7,25.7,0,0,1,21.09-5.65C36.84,23.1,36,26.44,35.14,26.26Z"/><path class="cls-2" d="M75.27,50.4c-2.72-5.47-6.81-8.21-10.91-8.21s-8.18,2.74-10.9,8.21c-.27.55,1.13,1.55,1.83,1a14.47,14.47,0,0,1,9.07-2.85,14.45,14.45,0,0,1,9.07,2.85C74.13,52,75.54,51,75.27,50.4Z"/><path class="cls-2" d="M65.83,62.84C55,68.53,40.27,67.36,35.94,67.36c-1.16,0-1.84.48-1.56,1.45,3.12,10.88,26.56,10.88,33-4.27C68.11,62.85,66.83,62.31,65.83,62.84Z"/></g></g></svg>