<svg xmlns="http://www.w3.org/2000/svg" viewBox="0 0 22.5 21"><defs><style>.cls-1{fill:#fc97b2;}.cls-2{fill:#ffd7e4;}.cls-3{fill:#bf7b90;}.cls-4{fill:#493b30;}</style></defs><title>1</title><g id="Lager_2" data-name="Lager 2"><g id="Lager_1-2" data-name="Lager 1"><path class="cls-1" d="M7,4.05C6.08,2.37.14,2.87.14,2.87s-.7,6,1,7C2.49,10.55,7.7,5.4,7,4.05Z"/><path class="cls-2" d="M5.86,5c-.56-1-4.24-.72-4.24-.72S1.19,8,2.26,8.55C3.08,9,6.31,5.81,5.86,5Z"/><path class="cls-1" d="M21.25,9.79C22.93,8.9,22.43,3,22.43,3s-6.05-.7-7,1C14.72,5.32,19.89,10.51,21.25,9.79Z"/><path class="cls-2" d="M20.33,8.68c1-.55.73-4.22.73-4.22s-3.75-.43-4.33.63C16.28,5.91,19.48,9.12,20.33,8.68Z"/><path class="cls-1" d="M21.3,13.26c0,6.53-4.5,7.74-10,7.74s-10-1.21-10-7.74S7.38,2.06,11.25,2.06,21.3,6.74,21.3,13.26Z"/><path class="cls-2" d="M16.52,17.16c0,3-2.36,2.68-5.27,2.68S6,20.19,6,17.16s2.36-4.55,5.27-4.55S16.52,14.13,16.52,17.16Z"/><path class="cls-3" d="M8.9,14.17c.71,0,1.29,1.05,1.29,2.34s-.58,2.35-1.29,2.35-1.29-1.05-1.29-2.35S8.19,14.17,8.9,14.17Z"/><path class="cls-3" d="M13.6,14.17c.71,0,1.29,1.05,1.29,2.34s-.58,2.35-1.29,2.35-1.29-1.05-1.29-2.35S12.89,14.17,13.6,14.17Z"/><path class="cls-3" d="M11.25,7S10.13,3.22,7.62,2.51a2.8,2.8,0,0,1,2-.34A1.4,1.4,0,0,0,8.89,1a2.51,2.51,0,0,1,2.42.81A4.49,4.49,0,0,0,11.13,0s2.68.63,3.37,2.91A5.06,5.06,0,0,0,11.25,7Z"/><path class="cls-4" d="M5.11,9.36c.64,0,1.16.94,1.16,2.1s-.52,2.1-1.16,2.1S4,12.62,4,11.46,4.47,9.36,5.11,9.36Z"/><ellipse class="cls-4" cx="17.39" cy="11.4" rx="1.16" ry="2.1"/></g></g></svg>