<svg xmlns="http://www.w3.org/2000/svg" viewBox="0 0 22.5 22.5"><defs><style>.cls-1{fill:#947151;}.cls-2{fill:#e0ac7e;}.cls-3{fill:#3e4347;}</style></defs><title>2</title><g id="Lager_2" data-name="Lager 2"><g id="Lager_1-2" data-name="Lager 1"><path class="cls-1" d="M22,3.16a3.25,3.25,0,0,1-6.49,0,3.25,3.25,0,0,1,6.49,0Z"/><path class="cls-2" d="M20.67,3.16a2,2,0,0,1-3.91,0,2,2,0,0,1,3.91,0Z"/><ellipse class="cls-1" cx="3.79" cy="3.16" rx="3.25" ry="3.16"/><path class="cls-2" d="M3.79,1.25a1.93,1.93,0,0,1,2,1.91,1.93,1.93,0,0,1-1.95,1.9,1.93,1.93,0,0,1-2-1.9A1.93,1.93,0,0,1,3.79,1.25Z"/><path class="cls-1" d="M22.5,13.17c0,6.76-7.58,9.33-11.25,9.33S0,19.93,0,13.17C0,4.55,4.12,2.57,11.25,2.57S22.5,4.55,22.5,13.17Z"/><path class="cls-2" d="M6.33,16.34c0-3.48,3.33-4.81,4.94-4.81s4.94,1.33,4.94,4.81c0,4.44-1.81,5.46-4.94,5.46S6.33,20.78,6.33,16.34Z"/><path class="cls-1" d="M11.51,0a1.54,1.54,0,0,1-.21,1.06A3.13,3.13,0,0,0,9.72.1,1.8,1.8,0,0,1,10,1.33,3.42,3.42,0,0,0,8.67,1.1c1.5,1.14,1.17,4.55,1.17,4.55a12.78,12.78,0,0,1,4-2.79A5.87,5.87,0,0,0,11.51,0Z"/><path class="cls-3" d="M12.89,20.64s0-.07,0-.11c0-.28-.75-.51-1.67-.51s-1.67.23-1.67.51c0,0,0,.11,0,.11Z"/><path class="cls-3" d="M7.78,16.44c0-1.43,1.56-1.71,3.47-1.71s3.47.28,3.47,1.71c0,1.15-2.76,2.16-3.47,2.16S7.78,17.59,7.78,16.44Z"/><path class="cls-3" d="M21.43,10.75l-.64.11-.63.11c-.42.07-.84.12-1.27.18-.84.11-1.69.2-2.54.27-1.7.14-3.4.2-5.1.2s-3.41-.07-5.11-.21a38.09,38.09,0,0,1-5.07-.77h0s0,0,0,0,0,0,0,0c.84,0,1.69.1,2.54.13s1.69.08,2.54.1c1.7,0,3.39.07,5.09.07s3.39,0,5.08-.06,3.39-.11,5.09-.13c0,0,0,0,0,0s0,0,0,0Z"/><path class="cls-3" d="M6.59,11.43a1.25,1.25,0,0,1-1.37,1.1,1.25,1.25,0,0,1-1.36-1.1c0-.61.61-.44,1.36-.44S6.59,10.82,6.59,11.43Z"/><path class="cls-3" d="M18.64,11.43a1.25,1.25,0,0,1-1.36,1.1,1.25,1.25,0,0,1-1.37-1.1c0-.61.61-.44,1.37-.44S18.64,10.82,18.64,11.43Z"/></g></g></svg>