<svg xmlns="http://www.w3.org/2000/svg" viewBox="0 0 22.5 20.25"><defs><style>.cls-1{fill:#f5d1ac;}.cls-2{fill:#423223;}.cls-3{fill:#947151;}.cls-4{fill:#fff;}.cls-5{fill:#3e4347;}.cls-6{fill:#7d644b;}.cls-7{fill:#f15a61;}.cls-8{fill:#ba454b;}</style></defs><title>3</title><g id="Lager_2" data-name="Lager 2"><g id="Lager_1-2" data-name="Lager 1"><path class="cls-1" d="M5.17,17.65C2.63,16,1.63,9.62,2.45,6.71c.62-2.16,2.94-5.35,5-6.18A13.68,13.68,0,0,1,15,.53c2.08.83,4.4,4,5,6.18.82,2.91.19,9.29-2.34,10.94C12.37,21.12,10.5,21.12,5.17,17.65Z"/><path class="cls-2" d="M1.15,7.37c1.36,3,1.69,3.08,3-.44.68-1.88.2-3,1-4.22A18.67,18.67,0,0,1,6.58.92S-1.41,1.77,1.15,7.37Z"/><path class="cls-3" d="M4.57.81c-2,1.3-6.34.79-3.78,6.39,1.35,3,1.68,3.08,3-.45.69-1.88.21-3,1-4.22A8.84,8.84,0,0,1,6.58.92S6-.08,4.57.81Z"/><path class="cls-2" d="M21.35,7.37c-1.36,3-1.69,3.08-3-.45-.68-1.88-.2-3-1-4.21A18.67,18.67,0,0,0,15.92.92S23.91,1.77,21.35,7.37Z"/><path class="cls-3" d="M17.93.81c2,1.3,6.34.78,3.78,6.38-1.35,3-1.68,3.09-3-.44-.69-1.88-.21-3-1-4.22A8.53,8.53,0,0,0,15.92.92S16.55-.08,17.93.81Z"/><ellipse class="cls-4" cx="5.91" cy="9.65" rx="2.25" ry="2.25"/><circle class="cls-5" cx="5.34" cy="9.65" r="1.69"/><ellipse class="cls-4" cx="16.59" cy="9.65" rx="2.25" ry="2.25"/><circle class="cls-5" cx="17.16" cy="9.65" r="1.69"/><path class="cls-6" d="M7.38,16.43l1.75,1.82a3.14,3.14,0,0,0,4.24,0l1.75-1.82-1.8-1.88H9.18Z"/><path class="cls-7" d="M11.25,13s-1.82,2.6-1.61,3.87a1.64,1.64,0,0,0,3.22,0C13.07,15.58,11.25,13,11.25,13Z"/><polygon class="cls-8" points="11.25 17.52 11.66 15 10.84 15 11.25 17.52"/><rect class="cls-2" x="9.37" y="13.69" width="3.76" height="1.71"/><path class="cls-3" d="M17.19,14.1l-2.68-2.8A4.85,4.85,0,0,0,8,11.3L5.31,14.1a2.1,2.1,0,0,0,0,2.88,1.88,1.88,0,0,0,2.75,0l2.69-2.8a.72.72,0,0,1,1,0L14.43,17a1.89,1.89,0,0,0,2.76,0A2.1,2.1,0,0,0,17.19,14.1Z"/><path class="cls-5" d="M9,11.5c0-1,1-1.18,2.21-1.18s2.21.19,2.21,1.18c0,.78-1.76,1.48-2.21,1.48S9,12.28,9,11.5Z"/><rect class="cls-5" x="8.1" y="12.49" width="0.53" height="0.53" transform="translate(-6.57 9.67) rotate(-45.08)"/><rect class="cls-5" x="7.21" y="13.52" width="0.53" height="0.53" transform="translate(-7.56 9.34) rotate(-45.08)"/><rect class="cls-5" x="8.38" y="13.9" width="0.53" height="0.53" transform="translate(-7.49 10.29) rotate(-45.08)"/><rect class="cls-5" x="13.87" y="12.49" width="0.53" height="0.53" transform="translate(-4.88 13.7) rotate(-44.92)"/><rect class="cls-5" x="14.76" y="13.52" width="0.53" height="0.53" transform="translate(-5.35 14.63) rotate(-44.92)"/><rect class="cls-5" x="13.58" y="13.89" width="0.53" height="0.53" transform="translate(-5.96 13.91) rotate(-44.92)"/></g></g></svg>