<svg xmlns="http://www.w3.org/2000/svg" viewBox="0 0 22.5 21.75"><defs><style>.cls-1{fill:#94d82a;}.cls-2{fill:#769e2a;}.cls-3{fill:#3e4347;}.cls-4{fill:#e08828;}.cls-5{fill:#fcfcfa;}.cls-6{fill:#93603b;}</style></defs><title>4</title><g id="Lager_2" data-name="Lager 2"><g id="Lager_1-2" data-name="Lager 1"><path class="cls-1" d="M10.34,14.92S8.56,7.1,5.44,7.1C-.22,7.1-.38,17.52,3.44,21,4.62,22,9.49,22,19.76,21c1.08-.11.67-1.17-.87-1.87C17.9,18.64,13,17.76,10.34,14.92Z"/><ellipse class="cls-2" cx="9.67" cy="13.81" rx="1.48" ry="2.51"/><path class="cls-2" d="M11,17.89a1,1,0,1,1-.9,1A1,1,0,0,1,11,17.89Z"/><ellipse class="cls-2" cx="7.68" cy="17.06" rx="0.67" ry="1.15"/><path class="cls-2" d="M6.82,11.74c.3,0,.54.35.54.77s-.24.77-.54.77-.54-.34-.54-.77S6.52,11.74,6.82,11.74Z"/><path class="cls-3" d="M2.86,8.67a1.4,1.4,0,0,0,.4,1.08,1.2,1.2,0,0,0,.42.25l.23.05h.27a1.45,1.45,0,0,0,.94-.34,2.39,2.39,0,0,0,.62-1.05,1.61,1.61,0,0,1-.16,1.42,1.71,1.71,0,0,1-1.38.72H4l-.2,0a1.87,1.87,0,0,1-.4-.13,1.41,1.41,0,0,1-.61-.55A1.24,1.24,0,0,1,2.86,8.67Z"/><path class="cls-4" d="M21.35,14.72a6.17,6.17,0,0,0,.74-5.78A4.55,4.55,0,0,0,19,6.27c-2.77-4.46-10.44-4.44-12.75,1,2,1.16,3.1,4.44,3.77,6.2.6,2.36,1.76,4.51,3.68,5.05a.78.78,0,0,0,1-.64,2.53,2.53,0,0,0,2.6,1A5.49,5.49,0,0,0,21.35,14.72Z"/><polygon class="cls-1" points="4.68 7.94 3.72 8.29 2.77 5.7 3.74 5.35 4.68 7.94"/><polygon class="cls-1" points="6.87 8.94 5.93 8.51 7.1 6.01 8.04 6.44 6.87 8.94"/><path class="cls-1" d="M6.38,3.65A3.19,3.19,0,1,1,3.19.48,3.18,3.18,0,0,1,6.38,3.65Z"/><path class="cls-5" d="M5,3.76A2.45,2.45,0,0,1,2.61,6.25,2.45,2.45,0,0,1,.19,3.76,2.46,2.46,0,0,1,2.61,1.27,2.45,2.45,0,0,1,5,3.76Z"/><path class="cls-3" d="M4.74,3.76A1.69,1.69,0,0,1,3.08,5.47,1.68,1.68,0,0,1,1.42,3.76,1.69,1.69,0,0,1,3.08,2.05,1.69,1.69,0,0,1,4.74,3.76Z"/><path class="cls-6" d="M14.68,17.89a9.92,9.92,0,0,1-1.5-3.61,9.49,9.49,0,0,1,0-4,6.59,6.59,0,0,1,2-3.48A3.88,3.88,0,0,1,17.05,6,3.27,3.27,0,0,1,19,6.27a3.55,3.55,0,0,0-1.86.05,3.66,3.66,0,0,0-1.52.95,5.28,5.28,0,0,0-1,1.48A7.43,7.43,0,0,0,14,10.48a10.73,10.73,0,0,0-.19,3.71A15.78,15.78,0,0,0,14.68,17.89Z"/><path class="cls-6" d="M21.35,14.72a4.15,4.15,0,0,1-1,.84A2.94,2.94,0,0,1,19.1,16a2.29,2.29,0,0,1-1.34-.37,3.35,3.35,0,0,1-1-1A3.92,3.92,0,0,1,16.2,12,4.49,4.49,0,0,1,17.35,9.5a3.25,3.25,0,0,1,1.19-.8A2.38,2.38,0,0,1,20,8.63a1.93,1.93,0,0,1,1.17.95A2.5,2.5,0,0,1,21.47,11a2.22,2.22,0,0,1-.56,1.33,1.27,1.27,0,0,1-1.44.31,1.16,1.16,0,0,1-.6-1.28.82.82,0,0,1,.47-.55.52.52,0,0,1,.37,0A.49.49,0,0,1,20,11c-.37-.34-.75.1-.79.4a.85.85,0,0,0,.49.84.69.69,0,0,0,.47,0,.89.89,0,0,0,.41-.28,1.59,1.59,0,0,0,.33-1,1.93,1.93,0,0,0-.25-1,1.26,1.26,0,0,0-.78-.6A2,2,0,0,0,17.9,10a3.73,3.73,0,0,0-.61,4.3A2.33,2.33,0,0,0,19.1,15.6,3.47,3.47,0,0,0,21.35,14.72Z"/><path class="cls-1" d="M12.11,3.65A3.67,3.67,0,1,1,8.44,0,3.67,3.67,0,0,1,12.11,3.65Z"/><ellipse class="cls-5" cx="7.77" cy="3.78" rx="2.78" ry="2.87"/><path class="cls-3" d="M10.22,3.78a1.91,1.91,0,1,1-3.82,0,1.91,1.91,0,1,1,3.82,0Z"/></g></g></svg>