<svg xmlns="http://www.w3.org/2000/svg" viewBox="0 0 22.5 19.5"><defs><style>.cls-1{fill:#89664c;}.cls-2{fill:#ffc5d3;}.cls-3{fill:#e0ac7e;}.cls-4{fill:#3b302a;}</style></defs><title>5</title><g id="Lager_2" data-name="Lager 2"><g id="Lager_1-2" data-name="Lager 1"><ellipse class="cls-1" cx="19.41" cy="10.11" rx="3.09" ry="3.09"/><path class="cls-2" d="M19.41,8.1a2,2,0,1,1-2,2A2,2,0,0,1,19.41,8.1Z"/><ellipse class="cls-1" cx="3.09" cy="10.11" rx="3.09" ry="3.09"/><ellipse class="cls-2" cx="3.09" cy="10.11" rx="2.01" ry="2.01"/><path class="cls-1" d="M15.52,1.79c.43-.22.7-.34.7-.34A16.11,16.11,0,0,0,13,.66a4.53,4.53,0,0,1,.8-.5C6.19-.91,2.54,3.52,2.54,7.46H20A6.47,6.47,0,0,0,15.52,1.79Z"/><path class="cls-1" d="M20,8.09c0-3.64-3.92-6.59-8.75-6.59S2.5,4.45,2.5,8.09a5.2,5.2,0,0,0,.62,2.41,5.2,5.2,0,0,0-.62,2.41c0,3.64,3.92,6.59,8.75,6.59S20,16.55,20,12.91a5.2,5.2,0,0,0-.62-2.41A5.2,5.2,0,0,0,20,8.09Z"/><path class="cls-3" d="M18.76,8.33C18.76,2,11.25,6,11.25,6S3.74,2,3.74,8.33a5.27,5.27,0,0,0,2.8,4.39,3.44,3.44,0,0,0-.79,2.13c0,2.28,2.47,4.12,5.5,4.12s5.49-1.84,5.49-4.12A3.43,3.43,0,0,0,16,12.72,5.27,5.27,0,0,0,18.76,8.33Z"/><path class="cls-4" d="M12.43,12.28c0,.43-.17.77-.38.77s-.37-.34-.37-.77.17-.77.37-.77S12.43,11.85,12.43,12.28Z"/><path class="cls-4" d="M10.82,12.28c0,.43-.17.77-.37.77s-.38-.34-.38-.77.17-.77.38-.77S10.82,11.85,10.82,12.28Z"/><ellipse class="cls-4" cx="14.51" cy="9.65" rx="1.31" ry="1.69"/><ellipse class="cls-4" cx="7.99" cy="9.65" rx="1.31" ry="1.69"/><path class="cls-4" d="M14.94,14.44c.54.45-1.1,2.6-3.69,2.61S7,14.89,7.56,14.44c.14-.13,1.93.35,3.69.35S14.8,14.31,14.94,14.44Z"/></g></g></svg>