<svg xmlns="http://www.w3.org/2000/svg" viewBox="0 0 22.5 22.5"><defs><style>.cls-1{fill:#dae5ef;}.cls-2{fill:#ffbf3e;}.cls-3{fill:#ffd93b;}.cls-4{fill:#e08828;}.cls-5{fill:#f29a2e;}.cls-6{fill:#bc9342;}.cls-7{fill:#3e4347;}.cls-8{fill:#ffea92;}.cls-9{fill:#fff;}</style></defs><title>6</title><g id="Lager_2" data-name="Lager 2"><g id="Lager_1-2" data-name="Lager 1"><polygon class="cls-1" points="17.3 14.02 5.2 14.02 2.1 12.4 2.15 16.99 20.35 16.99 20.4 12.4 17.3 14.02"/><path class="cls-2" d="M5.05,12.42s-6-2.23-4.79-2.77C3.58,8.17,5.05,12.42,5.05,12.42Z"/><path class="cls-2" d="M5.05,12.42S0,8.48,1.17,8C4.23,6.58,5.05,12.42,5.05,12.42Z"/><path class="cls-2" d="M5.05,12.42s-6.61-.2-4.71-1.05C4.62,9.47,5.05,12.42,5.05,12.42Z"/><path class="cls-2" d="M17.45,12.42s6-2.23,4.79-2.77C18.92,8.17,17.45,12.42,17.45,12.42Z"/><path class="cls-2" d="M17.45,12.42S22.54,8.48,21.33,8C18.27,6.58,17.45,12.42,17.45,12.42Z"/><path class="cls-2" d="M17.45,12.42s6.61-.2,4.71-1.05C17.88,9.47,17.45,12.42,17.45,12.42Z"/><path class="cls-3" d="M12,7.43c.91,1.44-4.08,1.51-4.4-2A6.32,6.32,0,0,1,9.73,0,14.28,14.28,0,0,0,12,7.43Z"/><path class="cls-3" d="M11.51,6.38c-.67,1.55-3.75-2.17-1-4.55A7,7,0,0,1,16.38.18,14.87,14.87,0,0,0,11.51,6.38Z"/><path class="cls-3" d="M9.09,9.71c.67,1.56,3.75-2.17,1-4.54A7.06,7.06,0,0,0,4.22,3.51,15,15,0,0,1,9.09,9.71Z"/><path class="cls-3" d="M18.28,12.6c0,3.85-3.15,4.44-7,4.44s-7-.59-7-4.44c0-7.87,3.44-9.48,7-9.48S18.28,4.73,18.28,12.6Z"/><path class="cls-4" d="M9.83,12.31h2.84a1.48,1.48,0,0,1-1.42,1.53A1.48,1.48,0,0,1,9.83,12.31Z"/><path class="cls-5" d="M12.67,12.31a4.69,4.69,0,0,1-1.42.43,4.69,4.69,0,0,1-1.42-.43c0-1.13.64-2.05,1.42-2.05S12.67,11.18,12.67,12.31Z"/><path class="cls-6" d="M16,8.65a2.94,2.94,0,0,0-.52-.71,1.85,1.85,0,0,0-.81-.46,1.39,1.39,0,0,0-.94.13,1.74,1.74,0,0,0-.66.6,3.26,3.26,0,0,1,.75-.41,1.34,1.34,0,0,1,.79,0,2.18,2.18,0,0,1,.72.35C15.59,8.27,15.8,8.46,16,8.65Z"/><path class="cls-6" d="M6.47,8.65A2.94,2.94,0,0,1,7,7.94a1.85,1.85,0,0,1,.81-.46,1.38,1.38,0,0,1,.94.13,1.74,1.74,0,0,1,.66.6,3.26,3.26,0,0,0-.75-.41,1.31,1.31,0,0,0-.78,0,2.14,2.14,0,0,0-.73.35C6.91,8.27,6.7,8.46,6.47,8.65Z"/><path class="cls-7" d="M7.07,10.64a1,1,0,0,1,.87-1,1,1,0,0,1,.86,1c0,.46-.39.67-.86.67S7.07,11.1,7.07,10.64Z"/><path class="cls-7" d="M13.7,10.64a1,1,0,0,1,.86-1,1,1,0,0,1,.87,1c0,.46-.39.67-.87.67S13.7,11.1,13.7,10.64Z"/><path class="cls-8" d="M15.78,17.13c0-.1,0-.21,0-.31,0-1.56-2-2.83-4.55-2.83S6.7,15.26,6.7,16.82c0,.1,0,.21,0,.31a12.65,12.65,0,0,0,4.53.61A12.68,12.68,0,0,0,15.78,17.13Z"/><path class="cls-7" d="M12.67,12.28a2.15,2.15,0,0,1-1.42.89,2.15,2.15,0,0,1-1.42-.89,2.15,2.15,0,0,1,1.42-.89A2.15,2.15,0,0,1,12.67,12.28Z"/><path class="cls-1" d="M20.4,12.4,19,14.9l-2-1.55-6,4.87L5.54,13.35l-2,1.55L2.1,12.4a2.43,2.43,0,0,0-.94,1.92c0,4.53,4.29,8.18,10.09,8.18s10.09-3.65,10.09-8.18A2.43,2.43,0,0,0,20.4,12.4Z"/><path class="cls-9" d="M20.25,13.05,20,14.5l-3-1.15L15,17.2l-3.79-2.73L5.46,17l.08-3.65-3,1.15-.28-1.45a2.27,2.27,0,0,0-.53,1.5c0,3.83,4,7.07,9.53,7.07s9.53-3.24,9.53-7.07A2.27,2.27,0,0,0,20.25,13.05Z"/></g></g></svg>