<svg xmlns="http://www.w3.org/2000/svg" viewBox="0 0 22.5 22.5"><defs><style>.cls-1{fill:#f29a2e;}.cls-2{fill:#bc600d;}.cls-3{fill:#3e4347;}.cls-4{fill:#ffe8bb;}.cls-5{fill:#f5f5f5;}.cls-6{fill:#947151;}.cls-7{fill:#fff;}</style></defs><title>8</title><g id="Lager_2" data-name="Lager 2"><g id="Lager_1-2" data-name="Lager 1"><path class="cls-1" d="M7.53,2.73c0,2.09-1.31,3.82-2.92,3.78C-.13,6.4,1.83,0,1.83,0,3.44,0,7.53.64,7.53,2.73Z"/><path class="cls-2" d="M5.74,3.15c0,1.11-.7,2-1.56,2C1.66,5.1,2.7,1.69,2.7,1.69,3.56,1.69,5.74,2,5.74,3.15Z"/><path class="cls-1" d="M15,2.73c0,2.09,1.31,3.82,2.92,3.78C22.62,6.4,20.67,0,20.67,0,19.06,0,15,.64,15,2.73Z"/><path class="cls-2" d="M16.76,3.15c0,1.11.69,2,1.56,2,2.52-.06,1.48-3.47,1.48-3.47C18.94,1.69,16.76,2,16.76,3.15Z"/><path class="cls-1" d="M21,14.91c0,3.39-19.48,3.39-19.48,0C1.51.67,7.08,1.06,11.25,1.06S21,.67,21,14.91Z"/><path class="cls-3" d="M15.18,4C14.32.7,8.17.64,7.32,4,9,2.51,13.48,2.51,15.18,4Z"/><path class="cls-3" d="M13.94,5.25c-.58-2.19-4.81-2.24-5.38,0A4.47,4.47,0,0,1,13.94,5.25Z"/><path class="cls-4" d="M22.5,13a7.17,7.17,0,0,0-2.16-5.19s1.26,12.7-6.22,6.56H8.38C.9,20.49,2.16,7.79,2.16,7.79A7.17,7.17,0,0,0,0,13l1-.61a6.75,6.75,0,0,0,.08,5.09l1.08-1.27a5.44,5.44,0,0,0,3.19,4L5.52,19a9.88,9.88,0,0,0,5.73,1.72A9.88,9.88,0,0,0,17,19l.14,1.16a5.44,5.44,0,0,0,3.19-4l1.08,1.27a6.75,6.75,0,0,0,.08-5.09Z"/><path class="cls-3" d="M8.38,14.35S2,19.13,2.16,7.79C2.16,7.79.64,21.26,8.38,14.35Z"/><path class="cls-3" d="M14.12,14.35s6.34,4.78,6.22-6.56C20.34,7.79,21.86,21.26,14.12,14.35Z"/><path class="cls-5" d="M13.35,10.28c1.13,3.06.77,4.07.77,4.07l-2.8.83-3-.83s-.36-1,.76-4.07c-4.94,8.22-.29,9.32-.29,9.32A2.83,2.83,0,0,0,10,22.08V21.2a2.8,2.8,0,0,0,1.19,1.3,2.79,2.79,0,0,0,1.2-1.3v.88a2.6,2.6,0,0,0,1-1.39l.35.67c1.11-1.6.72-2.73.39-3.26l0,0S18.3,18.5,13.35,10.28Z"/><path class="cls-3" d="M11.26,18.05A14.29,14.29,0,0,1,10.92,15h.65a14.27,14.27,0,0,0,.31,2.85Z"/><path class="cls-3" d="M8.84,19.6c2.57-2.56,4.41-3.34,5.4-1.47C12.71,17,11,19.12,8.84,19.6Z"/><path class="cls-6" d="M14,14.17a11.14,11.14,0,0,0-5.59,0c-.4.18.74,1.33,2.79,1.33S14.43,14.35,14,14.17Z"/><path class="cls-4" d="M9.5,9.61C8.66,14.83,2.64,13.54,2.64,9c0-2.44,0-2.44,3.77-3.27S9.82,7.63,9.5,9.61Z"/><path class="cls-3" d="M8.88,9.87C8.52,13.57,3,13,3.38,9.29c.14-1.44.16-1.57,2.9-1.28S9,8.43,8.88,9.87Z"/><path class="cls-7" d="M8.07,9.64c-.27,2.25-4.13,1.92-3.86-.33.09-.81.11-.88,2-.72S8.17,8.83,8.07,9.64Z"/><path class="cls-3" d="M7.76,9.2A.9.9,0,1,1,6,9.2a.82.82,0,0,1,.89-.83A.83.83,0,0,1,7.76,9.2Z"/><path class="cls-4" d="M13,9.61c.84,5.22,6.86,3.93,6.86-.66,0-2.44,0-2.44-3.77-3.27S12.67,7.63,13,9.61Z"/><path class="cls-3" d="M13.61,9.87c.36,3.7,5.85,3.11,5.5-.58C19,7.85,19,7.72,16.21,8S13.47,8.43,13.61,9.87Z"/><path class="cls-7" d="M14.42,9.64c.27,2.25,4.13,1.92,3.86-.33-.09-.81-.11-.88-2-.72S14.32,8.83,14.42,9.64Z"/><path class="cls-3" d="M16.2,9.2A.9.9,0,1,0,18,9.2a.9.9,0,0,0-1.79,0Z"/></g></g></svg>