<svg xmlns="http://www.w3.org/2000/svg" viewBox="0 0 22.5 22.5"><defs><style>.cls-1{fill:#89664c;}.cls-2{fill:#c1875d;}.cls-3{fill:#ffe2b3;}.cls-4{fill:#fcfcfa;}.cls-5{fill:#29251c;}.cls-6{fill:#e0bb86;}</style></defs><title>9</title><g id="Lager_2" data-name="Lager 2"><g id="Lager_1-2" data-name="Lager 1"><path class="cls-1" d="M2.67,17.12c-.67.67-1,.37-1.43,0s-.7-.76,0-1.43,1.88-1.57,2.28-1.16S3.33,16.45,2.67,17.12Z"/><path class="cls-2" d="M18,14.69c.05-.12.12-.24.16-.36l3.64.83L18.48,13.4a9,9,0,0,0,.26-1.66l3.76-.49-3.76-.5a9,9,0,0,0-.26-1.65l3.34-1.76-3.64.83a9,9,0,0,0-.78-1.55l2.47-2.71-3,2a8.41,8.41,0,0,0-1.3-1.3l1.32-3.2L14.86,4a8.42,8.42,0,0,0-1.8-.9L13.2,0l-.89,2.9a8.76,8.76,0,0,0-2.19-.28h0L9.3,0l.12,2.66A8.14,8.14,0,0,0,7,3.21L5.62,1.36l.86,2.07A8.44,8.44,0,0,0,4.24,5l-1.61-1L3.89,5.29A8.73,8.73,0,0,0,2.26,7.71L.68,7.34l1.42.75a8.57,8.57,0,0,0-.59,3L0,11.25l1.51.2a8.42,8.42,0,0,0,.33,2.2,24.68,24.68,0,0,1,5.55-.57A36.38,36.38,0,0,1,18,14.69Z"/><path class="cls-3" d="M.68,15.16l1.58-.37a8.88,8.88,0,0,0,1.63,2.42L2.63,18.59l1.61-1a8.68,8.68,0,0,0,2.24,1.52l-.86,2.07L7,19.29a8.14,8.14,0,0,0,2.41.55L9.3,22.5l.81-2.63h0a8.76,8.76,0,0,0,2.19-.28l.89,2.9-.14-3.14a8.42,8.42,0,0,0,1.8-.9l2,2.68L15.56,18a8.94,8.94,0,0,0,1.3-1.31l3,1.95L17.4,15.88A9,9,0,0,0,18,14.69,36.72,36.72,0,0,0,7.39,13.08a24.68,24.68,0,0,0-5.55.57c.08.26.16.51.26.76Z"/><ellipse class="cls-4" cx="4.57" cy="9.26" rx="2.23" ry="2.31"/><ellipse class="cls-5" cx="4.57" cy="9.26" rx="1.54" ry="1.59"/><ellipse class="cls-4" cx="11.25" cy="9.26" rx="2.94" ry="3.04"/><ellipse class="cls-5" cx="11.25" cy="9.26" rx="2.02" ry="2.09"/><path class="cls-2" d="M18.48,16.17c1,1,.57,1.57-.05,2.19s-1.17,1.09-2.2.06-2.42-2.9-1.8-3.52S17.45,15.14,18.48,16.17Z"/><path class="cls-3" d="M4,13.28c1.94,0,1.89-1,3.11-1.23,1-.19,1.73.86,3.23,1.16"/><path class="cls-5" d="M5.81,13.76a2.63,2.63,0,0,1,.5-.73,1.69,1.69,0,0,1,.79-.48,1.32,1.32,0,0,1,.92.13,1.76,1.76,0,0,1,.65.62,3.68,3.68,0,0,0-.74-.42,1.24,1.24,0,0,0-.76-.05,2.07,2.07,0,0,0-.71.36C6.24,13.36,6,13.56,5.81,13.76Z"/><path class="cls-6" d="M6.11,14.07a.65.65,0,0,1-.28.08.54.54,0,0,1-.3-.06.4.4,0,0,1-.19-.27.48.48,0,0,1,0-.29,1.85,1.85,0,0,0,.11.24.39.39,0,0,0,.15.16A2.14,2.14,0,0,0,6.11,14.07Z"/><path class="cls-6" d="M9.07,13a.58.58,0,0,1,.09.25.45.45,0,0,1-.06.27.35.35,0,0,1-.24.17.46.46,0,0,1-.26,0,1.39,1.39,0,0,0,.21-.1.4.4,0,0,0,.13-.13A1.61,1.61,0,0,0,9.07,13Z"/><path class="cls-6" d="M6.42,14a1.8,1.8,0,0,1,.32-.36,1,1,0,0,1,.44-.22.78.78,0,0,1,.5.05.87.87,0,0,1,.37.31,1.68,1.68,0,0,0-.42-.17.81.81,0,0,0-.41,0,1.52,1.52,0,0,0-.4.16C6.69,13.82,6.57,13.92,6.42,14Z"/><path class="cls-1" d="M17.39,10.28c.17.54,0,1.07-.37,1.19s-.83-.22-1-.75,0-1.07.38-1.19S17.22,9.75,17.39,10.28Z"/><path class="cls-1" d="M17.2,7.9c.12.38,0,.77-.27.85s-.59-.15-.71-.54a.65.65,0,0,1,.27-.85C16.76,7.27,17.08,7.52,17.2,7.9Z"/><path class="cls-1" d="M16.08,8.56c.08.24,0,.49-.18.54s-.38-.1-.45-.34,0-.5.17-.55S16,8.31,16.08,8.56Z"/><path class="cls-1" d="M5.31,5.86c-.17.28-.47.42-.67.3a.55.55,0,0,1-.06-.74c.17-.28.47-.41.67-.29A.53.53,0,0,1,5.31,5.86Z"/><path class="cls-1" d="M6.11,6.13A.78.78,0,0,1,6,5.06c.24-.41.68-.6,1-.43s.33.65.09,1.07S6.4,6.3,6.11,6.13Z"/><path class="cls-1" d="M6.13,4.56c-.1.18-.28.26-.4.18s-.14-.27,0-.44a.33.33,0,0,1,.41-.18A.33.33,0,0,1,6.13,4.56Z"/></g></g></svg>